M48
;Layer_Color=9474304
;FILE_FORMAT=4:4
METRIC,TZ
;TYPE=PLATED
T1F00S00C0.2000
T2F00S00C0.6000
T3F00S00C0.9000
T4F00S00C1.0000
T5F00S00C1.0500
T6F00S00C1.1500
T7F00S00C3.5000
%
T01
X148328Y53364
X457402Y256274
X440862Y408744
X433539Y481949
X366192Y493591
X363086Y472259
X518680Y397548
X302439Y406446
X294578Y422317
X305579Y370904
X295868Y337928
X296197Y257730
X289054Y248970
X259620Y240669
X320998Y243146
X330329Y237606
X331707Y227764
X324079Y255805
X246713Y297918
X185576Y424319
X194329Y469492
X205320Y485699
X268117Y490522
X270511Y500850
X261893Y507208
X327440Y478696
X119398Y509050
X31240Y457572
X17159Y463467
X50354Y407417
X77091Y407335
X55489Y382588
X211814Y577180
X234920Y638504
T02
X332219Y48288
X325785Y100952
X351185
X376586
X432877Y100653
X458277
X483677
X383019Y48288
X357619
X493617Y300642
Y326042
Y351442
T03
X233480Y355768
Y381168
T04
X189908Y94964
X214908
X239908
X264908
X354585Y162166
X379585
X440056Y161640
X465056
X490056
X380172Y481251
Y506651
X150172
Y481251
X147643Y162282
X122643
X97643
X72643
X47643
X22643
X254585Y162166
X279585
X304585
X329585
X150172Y532051
Y557451
Y582851
Y608251
Y633651
Y659051
X380172
Y633651
Y608251
Y582851
Y557451
Y532051
T05
X354882Y214334
X380282
X405682
X431082
X456482
X481882
X507282
Y442934
X481882
X456482
X431082
X405682
X380282
X354882
X419365Y510941
X329482Y442934
X304082
X278682
X253282
X227882
X202482
X177082
X151682
X126282
X100882
X75482
X50082
X24682
X93882Y479897
X100882Y214334
X126282
X151682
X177082
X202482
X227882
X253282
X278682
X304082
X329482
X213494Y185565
X187409Y185982
X75482Y214334
X50082
X24682
T06
X404785Y381067
Y406467
T07
X40000Y40000
X505000
Y495000
X40000Y495003
M30
