G04*
G04 #@! TF.GenerationSoftware,Altium Limited,Altium Designer,22.4.2 (48)*
G04*
G04 Layer_Color=255*
%FSLAX44Y44*%
%MOMM*%
G71*
G04*
G04 #@! TF.SameCoordinates,AE55E6FE-B37C-48CA-A5CC-AE0976963D19*
G04*
G04*
G04 #@! TF.FilePolarity,Positive*
G04*
G01*
G75*
%ADD19C,0.2032*%
%ADD20R,1.0000X1.4000*%
%ADD21R,3.0000X5.4000*%
%ADD22R,1.4000X1.0000*%
%ADD23R,0.7500X0.2000*%
%ADD24R,0.2000X0.7500*%
%ADD25R,1.5900X1.7500*%
%ADD26R,0.8000X0.8000*%
%ADD27R,0.8000X0.9500*%
%ADD28R,0.9500X0.8000*%
%ADD29R,3.4000X2.4000*%
%ADD30R,0.9000X0.7000*%
%ADD31R,0.7000X3.3000*%
%ADD32R,1.3000X3.3000*%
%ADD33R,0.7600X1.2700*%
%ADD34R,2.3500X1.5500*%
%ADD35R,1.1000X1.2500*%
%ADD36R,0.6000X1.0500*%
%ADD56C,1.6000*%
%ADD65C,3.5000*%
%ADD66C,1.5000*%
%ADD67C,1.8000*%
%ADD68C,2.0000*%
%ADD69C,1.2000*%
%ADD70R,1.5000X1.5000*%
%ADD71R,1.7250X1.7250*%
%ADD72C,1.7250*%
D19*
X406086Y565073D02*
X406189Y562589D01*
X406496Y560122D01*
X407006Y557689D01*
X407716Y555307D01*
X408619Y552991D01*
X409711Y550757D01*
X410984Y548622D01*
X412428Y546599D01*
X414035Y544702D01*
X415793Y542944D01*
X417690Y541337D01*
X419713Y539893D01*
X421848Y538620D01*
X424082Y537528D01*
X426398Y536625D01*
X428780Y535915D01*
X431213Y535405D01*
X433680Y535098D01*
X436164Y534995D01*
X406086Y644998D02*
X405983Y647476D01*
X405676Y649936D01*
X405167Y652363D01*
X404460Y654740D01*
X403558Y657050D01*
X402469Y659278D01*
X401200Y661408D01*
X399759Y663426D01*
X398156Y665319D01*
X396403Y667072D01*
X394510Y668675D01*
X392492Y670116D01*
X390362Y671385D01*
X388134Y672474D01*
X385824Y673376D01*
X383447Y674083D01*
X381020Y674592D01*
X378560Y674899D01*
X376082Y675001D01*
X514984Y1D02*
X517463Y103D01*
X519925Y410D01*
X522353Y919D01*
X524731Y1627D01*
X527043Y2529D01*
X529271Y3619D01*
X531403Y4889D01*
X533422Y6330D01*
X535315Y7934D01*
X537070Y9688D01*
X538673Y11581D01*
X540115Y13600D01*
X541385Y15732D01*
X542474Y17961D01*
X543376Y20272D01*
X544084Y22650D01*
X544593Y25078D01*
X544900Y27540D01*
X545003Y30019D01*
X545003Y504993D02*
X544900Y507470D01*
X544593Y509931D01*
X544085Y512358D01*
X543377Y514734D01*
X542476Y517044D01*
X541386Y519272D01*
X540117Y521402D01*
X538676Y523420D01*
X537074Y525313D01*
X535320Y527066D01*
X533428Y528669D01*
X531410Y530109D01*
X529280Y531379D01*
X527052Y532468D01*
X524742Y533369D01*
X522366Y534077D01*
X519939Y534586D01*
X517478Y534892D01*
X515000Y534995D01*
X147201Y675001D02*
X144643Y674847D01*
X142123Y674385D01*
X139678Y673623D01*
X137341Y672571D01*
X135149Y671246D01*
X133132Y669666D01*
X131321Y667855D01*
X129741Y665838D01*
X128415Y663645D01*
X127364Y661309D01*
X126602Y658863D01*
X126140Y656343D01*
X125985Y653786D01*
X95967Y534995D02*
X98446Y535097D01*
X100907Y535404D01*
X103336Y535913D01*
X105714Y536621D01*
X108025Y537523D01*
X110254Y538613D01*
X112385Y539883D01*
X114404Y541325D01*
X116298Y542928D01*
X118052Y544682D01*
X119655Y546576D01*
X121097Y548595D01*
X122367Y550726D01*
X123457Y552955D01*
X124359Y555266D01*
X125066Y557644D01*
X125576Y560072D01*
X125883Y562534D01*
X125985Y565013D01*
X2Y30039D02*
X105Y27558D01*
X412Y25094D01*
X922Y22665D01*
X1630Y20285D01*
X2532Y17973D01*
X3623Y15742D01*
X4894Y13609D01*
X6336Y11589D01*
X7941Y9694D01*
X9696Y7939D01*
X11591Y6334D01*
X13611Y4892D01*
X15744Y3621D01*
X17974Y2531D01*
X20287Y1628D01*
X22666Y920D01*
X25096Y410D01*
X27560Y103D01*
X30040Y1D01*
X21261Y534995D02*
X18699Y534840D01*
X16173Y534377D01*
X13723Y533613D01*
X11382Y532560D01*
X9185Y531232D01*
X7164Y529648D01*
X5349Y527833D01*
X3765Y525812D01*
X2437Y523615D01*
X1384Y521275D01*
X620Y518824D01*
X157Y516299D01*
X2Y513736D01*
X406086Y644997D02*
X406086Y565073D01*
X147201Y675001D02*
X376082D01*
X545003Y30019D02*
Y504992D01*
X436164Y534995D02*
X515000D01*
X125985Y565013D02*
X125985Y653786D01*
X21261Y534995D02*
X95967D01*
X30040Y1D02*
X514984D01*
X2Y30039D02*
Y513736D01*
D20*
X226173Y330682D02*
D03*
X244674D02*
D03*
X507206Y420307D02*
D03*
X488706D02*
D03*
X506839Y397548D02*
D03*
X488339D02*
D03*
X452549Y408744D02*
D03*
X471049D02*
D03*
X457402Y243418D02*
D03*
X438902D02*
D03*
X433539Y469520D02*
D03*
X452039D02*
D03*
X292714Y236510D02*
D03*
X274214D02*
D03*
D21*
X416858Y295567D02*
D03*
X311858D02*
D03*
D22*
X153084Y90229D02*
D03*
Y71729D02*
D03*
X281542Y316211D02*
D03*
Y297711D02*
D03*
X119398Y496908D02*
D03*
Y478408D02*
D03*
X261207Y316418D02*
D03*
Y297918D02*
D03*
D23*
X257500Y277500D02*
D03*
Y273500D02*
D03*
Y269500D02*
D03*
Y265500D02*
D03*
Y261500D02*
D03*
Y257500D02*
D03*
X287500D02*
D03*
Y261500D02*
D03*
Y265500D02*
D03*
Y269500D02*
D03*
Y273500D02*
D03*
Y277500D02*
D03*
D24*
X262500Y252500D02*
D03*
X266500D02*
D03*
X270500D02*
D03*
X274500D02*
D03*
X278500D02*
D03*
X282500D02*
D03*
Y282500D02*
D03*
X278500D02*
D03*
X274500D02*
D03*
X270500D02*
D03*
X266500D02*
D03*
X262500D02*
D03*
D25*
X272500Y267500D02*
D03*
D26*
X202219Y577180D02*
D03*
X189219D02*
D03*
Y546180D02*
D03*
X202219D02*
D03*
D27*
X151101Y410185D02*
D03*
X137601D02*
D03*
X317443Y490987D02*
D03*
X330943D02*
D03*
X218820Y496255D02*
D03*
X205320D02*
D03*
X318321Y467283D02*
D03*
X331821D02*
D03*
X218193Y467409D02*
D03*
X204693D02*
D03*
X168470Y36885D02*
D03*
X154970D02*
D03*
X220299Y37487D02*
D03*
X233799D02*
D03*
D28*
X167722Y424319D02*
D03*
Y410820D02*
D03*
X355437Y479908D02*
D03*
Y493408D02*
D03*
D29*
X340365Y593873D02*
D03*
Y545873D02*
D03*
D30*
X355398Y520035D02*
D03*
Y507035D02*
D03*
X336398Y513535D02*
D03*
D31*
X281246Y638187D02*
D03*
X251246D02*
D03*
D32*
X266246D02*
D03*
D33*
X287293Y517450D02*
D03*
X274593D02*
D03*
X261893D02*
D03*
X249193D02*
D03*
Y476450D02*
D03*
X261893D02*
D03*
X274593D02*
D03*
X287293D02*
D03*
D34*
X323905Y381018D02*
D03*
X366905D02*
D03*
X324827Y413869D02*
D03*
X367827D02*
D03*
D35*
X183470Y14787D02*
D03*
Y38287D02*
D03*
X203470Y14787D02*
D03*
Y38287D02*
D03*
D36*
X271348Y332714D02*
D03*
X261848Y354714D02*
D03*
X280848D02*
D03*
D56*
X493617Y300642D02*
D03*
Y326042D02*
D03*
Y351442D02*
D03*
D65*
X505000Y40000D02*
D03*
X40000D02*
D03*
Y495003D02*
D03*
X505000Y495000D02*
D03*
D66*
X254585Y162166D02*
D03*
X279585D02*
D03*
X304585D02*
D03*
X329585D02*
D03*
X354585D02*
D03*
X379585D02*
D03*
X189908Y94964D02*
D03*
X214908D02*
D03*
X239908D02*
D03*
X264908D02*
D03*
X22643Y162282D02*
D03*
X47643D02*
D03*
X72643D02*
D03*
X97643D02*
D03*
X122643D02*
D03*
X147643D02*
D03*
X233480Y381168D02*
D03*
X490056Y161640D02*
D03*
X465056D02*
D03*
X440056D02*
D03*
D67*
X507282Y214334D02*
D03*
X481882D02*
D03*
X456482D02*
D03*
X431082D02*
D03*
X405682D02*
D03*
X380282D02*
D03*
X354882D02*
D03*
X329482D02*
D03*
X304082D02*
D03*
X278682D02*
D03*
X253282D02*
D03*
X227882D02*
D03*
X202482D02*
D03*
X177082D02*
D03*
X151682D02*
D03*
X126282D02*
D03*
X100882D02*
D03*
X75482D02*
D03*
X50082D02*
D03*
X24682D02*
D03*
X507282Y442934D02*
D03*
X481882D02*
D03*
X456482D02*
D03*
X431082D02*
D03*
X405682D02*
D03*
X380282D02*
D03*
X354882D02*
D03*
X329482D02*
D03*
X304082D02*
D03*
X278682D02*
D03*
X253282D02*
D03*
X227882D02*
D03*
X202482D02*
D03*
X177082D02*
D03*
X151682D02*
D03*
X126282D02*
D03*
X100882D02*
D03*
X75482D02*
D03*
X50082D02*
D03*
X24682D02*
D03*
X419365Y510941D02*
D03*
X213494Y185565D02*
D03*
X187409Y185982D02*
D03*
X93882Y479897D02*
D03*
D68*
X150172Y481251D02*
D03*
Y506651D02*
D03*
Y532051D02*
D03*
Y557451D02*
D03*
Y582851D02*
D03*
Y608251D02*
D03*
Y633651D02*
D03*
Y659051D02*
D03*
X380172Y481251D02*
D03*
Y506651D02*
D03*
Y532051D02*
D03*
Y557451D02*
D03*
Y582851D02*
D03*
Y608251D02*
D03*
Y633651D02*
D03*
Y659051D02*
D03*
D69*
X483677Y100653D02*
D03*
X458277D02*
D03*
X432877D02*
D03*
X383019Y48288D02*
D03*
X357619D02*
D03*
X332219D02*
D03*
X376586Y100952D02*
D03*
X351185D02*
D03*
X325785D02*
D03*
D70*
X233480Y355768D02*
D03*
D71*
X404785Y381067D02*
D03*
D72*
Y406467D02*
D03*
M02*
