G04*
G04 #@! TF.GenerationSoftware,Altium Limited,Altium Designer,22.4.2 (48)*
G04*
G04 Layer_Color=16711935*
%FSLAX44Y44*%
%MOMM*%
G71*
G04*
G04 #@! TF.SameCoordinates,AE55E6FE-B37C-48CA-A5CC-AE0976963D19*
G04*
G04*
G04 #@! TF.FilePolarity,Positive*
G04*
G01*
G75*
%ADD19C,0.2032*%
D19*
X406086Y565073D02*
X406189Y562589D01*
X406496Y560122D01*
X407006Y557689D01*
X407716Y555307D01*
X408619Y552991D01*
X409711Y550757D01*
X410984Y548622D01*
X412428Y546599D01*
X414035Y544702D01*
X415793Y542944D01*
X417690Y541337D01*
X419713Y539893D01*
X421848Y538620D01*
X424082Y537528D01*
X426398Y536625D01*
X428780Y535915D01*
X431213Y535405D01*
X433680Y535098D01*
X436164Y534995D01*
X406086Y644998D02*
X405983Y647476D01*
X405676Y649936D01*
X405167Y652363D01*
X404460Y654740D01*
X403558Y657050D01*
X402469Y659278D01*
X401200Y661408D01*
X399759Y663426D01*
X398156Y665319D01*
X396403Y667072D01*
X394510Y668675D01*
X392492Y670116D01*
X390362Y671385D01*
X388134Y672474D01*
X385824Y673376D01*
X383447Y674083D01*
X381020Y674592D01*
X378560Y674899D01*
X376082Y675001D01*
X514984Y1D02*
X517463Y103D01*
X519925Y410D01*
X522353Y919D01*
X524731Y1627D01*
X527043Y2529D01*
X529271Y3619D01*
X531403Y4889D01*
X533422Y6330D01*
X535315Y7934D01*
X537070Y9688D01*
X538673Y11581D01*
X540115Y13600D01*
X541385Y15732D01*
X542474Y17961D01*
X543376Y20272D01*
X544084Y22650D01*
X544593Y25078D01*
X544900Y27540D01*
X545003Y30019D01*
X545003Y504993D02*
X544900Y507470D01*
X544593Y509931D01*
X544085Y512358D01*
X543377Y514734D01*
X542476Y517044D01*
X541386Y519272D01*
X540117Y521402D01*
X538676Y523420D01*
X537074Y525313D01*
X535320Y527066D01*
X533428Y528669D01*
X531410Y530109D01*
X529280Y531379D01*
X527052Y532468D01*
X524742Y533369D01*
X522366Y534077D01*
X519939Y534586D01*
X517478Y534892D01*
X515000Y534995D01*
X147201Y675001D02*
X144643Y674847D01*
X142123Y674385D01*
X139678Y673623D01*
X137341Y672571D01*
X135149Y671246D01*
X133132Y669666D01*
X131321Y667855D01*
X129741Y665838D01*
X128415Y663645D01*
X127364Y661309D01*
X126602Y658863D01*
X126140Y656343D01*
X125985Y653786D01*
X95967Y534995D02*
X98446Y535097D01*
X100907Y535404D01*
X103336Y535913D01*
X105714Y536621D01*
X108025Y537523D01*
X110254Y538613D01*
X112385Y539883D01*
X114404Y541325D01*
X116298Y542928D01*
X118052Y544682D01*
X119655Y546576D01*
X121097Y548595D01*
X122367Y550726D01*
X123457Y552955D01*
X124359Y555266D01*
X125066Y557644D01*
X125576Y560072D01*
X125883Y562534D01*
X125985Y565013D01*
X2Y30039D02*
X105Y27558D01*
X412Y25094D01*
X922Y22665D01*
X1630Y20285D01*
X2532Y17973D01*
X3623Y15742D01*
X4894Y13609D01*
X6336Y11589D01*
X7941Y9694D01*
X9696Y7939D01*
X11591Y6334D01*
X13611Y4892D01*
X15744Y3621D01*
X17974Y2531D01*
X20287Y1628D01*
X22666Y920D01*
X25096Y410D01*
X27560Y103D01*
X30040Y1D01*
X21261Y534995D02*
X18699Y534840D01*
X16173Y534377D01*
X13723Y533613D01*
X11382Y532560D01*
X9185Y531232D01*
X7164Y529648D01*
X5349Y527833D01*
X3765Y525812D01*
X2437Y523615D01*
X1384Y521275D01*
X620Y518824D01*
X157Y516299D01*
X2Y513736D01*
X406086Y644997D02*
X406086Y565073D01*
X147201Y675001D02*
X376082D01*
X545003Y30019D02*
Y504992D01*
X436164Y534995D02*
X515000D01*
X125985Y565013D02*
X125985Y653786D01*
X21261Y534995D02*
X95967D01*
X30040Y1D02*
X514984D01*
X2Y30039D02*
Y513736D01*
X406086Y565073D02*
X406189Y562589D01*
X406496Y560122D01*
X407006Y557689D01*
X407716Y555307D01*
X408619Y552991D01*
X409711Y550757D01*
X410984Y548622D01*
X412428Y546599D01*
X414035Y544702D01*
X415793Y542944D01*
X417690Y541337D01*
X419713Y539893D01*
X421848Y538620D01*
X424082Y537528D01*
X426398Y536625D01*
X428780Y535915D01*
X431213Y535405D01*
X433680Y535098D01*
X436164Y534995D01*
X406086Y644998D02*
X405983Y647476D01*
X405676Y649936D01*
X405167Y652363D01*
X404460Y654740D01*
X403558Y657050D01*
X402469Y659278D01*
X401200Y661408D01*
X399759Y663426D01*
X398156Y665319D01*
X396403Y667072D01*
X394510Y668675D01*
X392492Y670116D01*
X390362Y671385D01*
X388134Y672474D01*
X385824Y673376D01*
X383447Y674083D01*
X381020Y674592D01*
X378560Y674899D01*
X376082Y675001D01*
X514984Y1D02*
X517463Y103D01*
X519925Y410D01*
X522353Y919D01*
X524731Y1627D01*
X527043Y2529D01*
X529271Y3619D01*
X531403Y4889D01*
X533422Y6330D01*
X535315Y7934D01*
X537070Y9688D01*
X538673Y11581D01*
X540115Y13600D01*
X541385Y15732D01*
X542474Y17961D01*
X543376Y20272D01*
X544084Y22650D01*
X544593Y25078D01*
X544900Y27540D01*
X545003Y30019D01*
X545003Y504993D02*
X544900Y507470D01*
X544593Y509931D01*
X544085Y512358D01*
X543377Y514734D01*
X542476Y517044D01*
X541386Y519272D01*
X540117Y521402D01*
X538676Y523420D01*
X537074Y525313D01*
X535320Y527066D01*
X533428Y528669D01*
X531410Y530109D01*
X529280Y531379D01*
X527052Y532468D01*
X524742Y533369D01*
X522366Y534077D01*
X519939Y534586D01*
X517478Y534892D01*
X515000Y534995D01*
X147201Y675001D02*
X144643Y674847D01*
X142123Y674385D01*
X139678Y673623D01*
X137341Y672571D01*
X135149Y671246D01*
X133132Y669666D01*
X131321Y667855D01*
X129741Y665838D01*
X128415Y663645D01*
X127364Y661309D01*
X126602Y658863D01*
X126140Y656343D01*
X125985Y653786D01*
X95967Y534995D02*
X98446Y535097D01*
X100907Y535404D01*
X103336Y535913D01*
X105714Y536621D01*
X108025Y537523D01*
X110254Y538613D01*
X112385Y539883D01*
X114404Y541325D01*
X116298Y542928D01*
X118052Y544682D01*
X119655Y546576D01*
X121097Y548595D01*
X122367Y550726D01*
X123457Y552955D01*
X124359Y555266D01*
X125066Y557644D01*
X125576Y560072D01*
X125883Y562534D01*
X125985Y565013D01*
X2Y30039D02*
X105Y27558D01*
X412Y25094D01*
X922Y22665D01*
X1630Y20285D01*
X2532Y17973D01*
X3623Y15742D01*
X4894Y13609D01*
X6336Y11589D01*
X7941Y9694D01*
X9696Y7939D01*
X11591Y6334D01*
X13611Y4892D01*
X15744Y3621D01*
X17974Y2531D01*
X20287Y1628D01*
X22666Y920D01*
X25096Y410D01*
X27560Y103D01*
X30040Y1D01*
X21261Y534995D02*
X18699Y534840D01*
X16173Y534377D01*
X13723Y533613D01*
X11382Y532560D01*
X9185Y531232D01*
X7164Y529648D01*
X5349Y527833D01*
X3765Y525812D01*
X2437Y523615D01*
X1384Y521275D01*
X620Y518824D01*
X157Y516299D01*
X2Y513736D01*
X406086Y644997D02*
X406086Y565073D01*
X147201Y675001D02*
X376082D01*
X545003Y30019D02*
Y504992D01*
X436164Y534995D02*
X515000D01*
X125985Y565013D02*
X125985Y653786D01*
X21261Y534995D02*
X95967D01*
X30040Y1D02*
X514984D01*
X2Y30039D02*
Y513736D01*
M02*
