G04*
G04 #@! TF.GenerationSoftware,Altium Limited,Altium Designer,21.9.2 (33)*
G04*
G04 Layer_Color=8388736*
%FSLAX44Y44*%
%MOMM*%
G71*
G04*
G04 #@! TF.SameCoordinates,2CFDF89B-9312-4636-8282-1E88586E834E*
G04*
G04*
G04 #@! TF.FilePolarity,Negative*
G04*
G01*
G75*
%ADD18C,0.2032*%
%ADD39R,0.8500X0.3000*%
%ADD40R,0.3000X0.8500*%
%ADD41R,1.6900X1.8500*%
%ADD42R,1.1000X1.5000*%
%ADD43R,0.9000X0.9000*%
%ADD44R,0.9000X1.0500*%
%ADD45R,1.0500X0.9000*%
%ADD46R,3.5000X2.5000*%
%ADD47R,1.0000X0.8000*%
%ADD48R,0.8000X3.4000*%
%ADD49R,1.4000X3.4000*%
%ADD50R,0.8600X1.3700*%
%ADD51R,0.7000X1.1500*%
%ADD52R,4.4000X2.1000*%
%ADD53R,1.5000X1.1000*%
%ADD54R,2.4500X1.6500*%
%ADD55R,1.2000X1.3500*%
%ADD56R,1.6500X2.4500*%
%ADD57R,1.6250X0.7500*%
%ADD58R,3.2000X3.2000*%
%ADD59C,1.9000*%
%ADD60C,2.1000*%
%ADD61C,3.6000*%
%ADD62C,1.3000*%
%ADD63C,1.6000*%
%ADD64R,1.6000X1.6000*%
%ADD65R,1.6000X1.6000*%
%ADD66R,1.8250X1.8250*%
%ADD67C,1.8250*%
%ADD68R,1.8250X1.8250*%
%ADD69C,0.5000*%
%ADD70C,0.9000*%
D18*
X390089Y660060D02*
X390191Y657577D01*
X390499Y655111D01*
X391009Y652679D01*
X391718Y650297D01*
X392621Y647982D01*
X393713Y645749D01*
X394985Y643614D01*
X396429Y641592D01*
X398035Y639695D01*
X399793Y637938D01*
X401689Y636332D01*
X403712Y634888D01*
X405846Y633616D01*
X408079Y632524D01*
X410394Y631621D01*
X412776Y630912D01*
X415209Y630402D01*
X417675Y630094D01*
X420158Y629991D01*
X390089Y739965D02*
X389986Y742447D01*
X389679Y744912D01*
X389169Y747344D01*
X388460Y749725D01*
X387557Y752039D01*
X386466Y754271D01*
X385194Y756405D01*
X383751Y758427D01*
X382145Y760323D01*
X380388Y762080D01*
X378493Y763685D01*
X376471Y765129D01*
X374337Y766401D01*
X372105Y767492D01*
X369790Y768395D01*
X367409Y769104D01*
X364978Y769613D01*
X362513Y769921D01*
X360030Y770023D01*
X439985Y-0D02*
X442533Y54D01*
X445075Y216D01*
X447609Y486D01*
X450129Y863D01*
X452630Y1347D01*
X455109Y1936D01*
X457560Y2630D01*
X459980Y3428D01*
X462364Y4328D01*
X464707Y5328D01*
X467006Y6426D01*
X469256Y7621D01*
X471454Y8911D01*
X473594Y10292D01*
X475674Y11763D01*
X477690Y13322D01*
X479638Y14964D01*
X481515Y16688D01*
X483316Y18489D01*
X485040Y20366D01*
X486682Y22313D01*
X488240Y24329D01*
X489711Y26409D01*
X491093Y28550D01*
X492382Y30747D01*
X493577Y32998D01*
X494676Y35296D01*
X495676Y37640D01*
X496575Y40024D01*
X497373Y42443D01*
X498067Y44895D01*
X498657Y47373D01*
X499141Y49875D01*
X499518Y52395D01*
X499788Y54928D01*
X499950Y57471D01*
X500004Y60018D01*
X500004Y599990D02*
X499901Y602468D01*
X499594Y604928D01*
X499086Y607355D01*
X498378Y609732D01*
X497477Y612042D01*
X496387Y614270D01*
X495118Y616400D01*
X493677Y618418D01*
X492075Y620310D01*
X490321Y622063D01*
X488429Y623666D01*
X486411Y625107D01*
X484280Y626376D01*
X482052Y627465D01*
X479742Y628366D01*
X477366Y629074D01*
X474939Y629583D01*
X472478Y629889D01*
X470000Y629991D01*
X140077Y770023D02*
X137592Y769921D01*
X135125Y769613D01*
X132691Y769103D01*
X130307Y768393D01*
X127991Y767489D01*
X125756Y766397D01*
X123620Y765124D01*
X121596Y763679D01*
X119698Y762072D01*
X117940Y760313D01*
X116333Y758415D01*
X114888Y756391D01*
X113615Y754255D01*
X112522Y752021D01*
X111618Y749704D01*
X110909Y747321D01*
X110398Y744887D01*
X110091Y742419D01*
X109988Y739934D01*
X79970Y629991D02*
X82449Y630094D01*
X84911Y630401D01*
X87339Y630910D01*
X89717Y631618D01*
X92028Y632520D01*
X94257Y633610D01*
X96389Y634879D01*
X98408Y636321D01*
X100301Y637924D01*
X102055Y639679D01*
X103659Y641572D01*
X105100Y643591D01*
X106370Y645723D01*
X107460Y647951D01*
X108362Y650263D01*
X109070Y652640D01*
X109579Y655069D01*
X109886Y657531D01*
X109988Y660009D01*
X0Y59992D02*
X54Y57446D01*
X216Y54904D01*
X486Y52372D01*
X863Y49853D01*
X1347Y47353D01*
X1936Y44875D01*
X2630Y42425D01*
X3427Y40006D01*
X4326Y37624D01*
X5326Y35281D01*
X6424Y32983D01*
X7618Y30734D01*
X8907Y28538D01*
X10288Y26398D01*
X11759Y24319D01*
X13316Y22304D01*
X14958Y20357D01*
X16681Y18481D01*
X18481Y16680D01*
X20357Y14957D01*
X22304Y13316D01*
X24319Y11758D01*
X26398Y10288D01*
X28538Y8907D01*
X30735Y7618D01*
X32984Y6423D01*
X35282Y5325D01*
X37624Y4326D01*
X40007Y3427D01*
X42425Y2629D01*
X44876Y1936D01*
X47353Y1346D01*
X49854Y863D01*
X52372Y486D01*
X54905Y216D01*
X57446Y54D01*
X59992Y-0D01*
X30084Y629991D02*
X27599Y629889D01*
X25132Y629581D01*
X22699Y629071D01*
X20316Y628361D01*
X17999Y627458D01*
X15766Y626366D01*
X13630Y625093D01*
X11606Y623648D01*
X9709Y622041D01*
X7951Y620283D01*
X6344Y618386D01*
X4899Y616362D01*
X3626Y614226D01*
X2534Y611992D01*
X1630Y609676D01*
X921Y607293D01*
X410Y604859D01*
X103Y602392D01*
X0Y599908D01*
X390089Y660061D02*
Y739965D01*
X140077Y770023D02*
X360030D01*
X500004Y60019D02*
Y599988D01*
X420158Y629991D02*
X470000D01*
X109988Y660009D02*
Y739934D01*
X30084Y629991D02*
X79970D01*
X59993Y-0D02*
X439985D01*
X0Y59992D02*
Y599908D01*
D39*
X235000Y325000D02*
D03*
Y321000D02*
D03*
Y317000D02*
D03*
Y313000D02*
D03*
Y309000D02*
D03*
Y305000D02*
D03*
X265000D02*
D03*
Y309000D02*
D03*
Y313000D02*
D03*
Y317000D02*
D03*
Y321000D02*
D03*
Y325000D02*
D03*
D40*
X240000Y300000D02*
D03*
X244000D02*
D03*
X248000D02*
D03*
X252000D02*
D03*
X256000D02*
D03*
X260000D02*
D03*
Y330000D02*
D03*
X256000D02*
D03*
X252000D02*
D03*
X248000D02*
D03*
X244000D02*
D03*
X240000D02*
D03*
D41*
X250000Y315000D02*
D03*
D42*
X198530Y321089D02*
D03*
X217030D02*
D03*
X408397Y87447D02*
D03*
X389897D02*
D03*
D43*
X175036Y678305D02*
D03*
Y665305D02*
D03*
X206036D02*
D03*
Y678305D02*
D03*
D44*
X325103Y417387D02*
D03*
X311603D02*
D03*
X271559Y544429D02*
D03*
X285059D02*
D03*
X227859Y544339D02*
D03*
X214359D02*
D03*
X257896Y526833D02*
D03*
X271397D02*
D03*
X243253D02*
D03*
X229753D02*
D03*
D45*
X341724Y431522D02*
D03*
Y418022D02*
D03*
X339440Y574905D02*
D03*
Y588405D02*
D03*
X265104Y487365D02*
D03*
Y500865D02*
D03*
X292274Y470940D02*
D03*
Y484440D02*
D03*
X245253Y65552D02*
D03*
Y79052D02*
D03*
X265253Y65552D02*
D03*
Y79052D02*
D03*
D46*
X324368Y688870D02*
D03*
Y640870D02*
D03*
D47*
X339401Y615031D02*
D03*
Y602031D02*
D03*
X320401Y608531D02*
D03*
D48*
X265249Y733184D02*
D03*
X235249D02*
D03*
D49*
X250249D02*
D03*
D50*
X271296Y612447D02*
D03*
X258596D02*
D03*
X245896D02*
D03*
X233196D02*
D03*
Y571447D02*
D03*
X245896D02*
D03*
X258596D02*
D03*
X271296D02*
D03*
D51*
X321924Y202610D02*
D03*
X340924D02*
D03*
X331424Y224610D02*
D03*
X168645Y298095D02*
D03*
X159145Y320095D02*
D03*
X178145D02*
D03*
D52*
X324154Y84476D02*
D03*
Y22476D02*
D03*
D53*
X398713Y531441D02*
D03*
Y549941D02*
D03*
X227254Y367606D02*
D03*
Y349106D02*
D03*
X247253Y367759D02*
D03*
Y349259D02*
D03*
X428007Y88888D02*
D03*
Y107388D02*
D03*
D54*
X166777Y121122D02*
D03*
X209777D02*
D03*
D55*
X245253Y22302D02*
D03*
Y45802D02*
D03*
X265253Y22302D02*
D03*
Y45802D02*
D03*
D56*
X250875Y170684D02*
D03*
Y213684D02*
D03*
X330369Y134499D02*
D03*
Y177499D02*
D03*
X301941Y373403D02*
D03*
Y330403D02*
D03*
D57*
X174648Y280782D02*
D03*
Y268082D02*
D03*
Y255382D02*
D03*
Y242682D02*
D03*
X228889D02*
D03*
Y255382D02*
D03*
Y268082D02*
D03*
Y280782D02*
D03*
X329421Y243593D02*
D03*
Y256293D02*
D03*
Y268993D02*
D03*
Y281693D02*
D03*
X275181D02*
D03*
Y268993D02*
D03*
Y256293D02*
D03*
Y243593D02*
D03*
D58*
X192090Y213815D02*
D03*
Y155815D02*
D03*
D59*
X134425Y52023D02*
D03*
Y77423D02*
D03*
Y102823D02*
D03*
Y128223D02*
D03*
Y153623D02*
D03*
Y179023D02*
D03*
Y204423D02*
D03*
Y229823D02*
D03*
Y255223D02*
D03*
Y280623D02*
D03*
Y306023D02*
D03*
Y331423D02*
D03*
Y356823D02*
D03*
Y382223D02*
D03*
Y407623D02*
D03*
Y433023D02*
D03*
Y458423D02*
D03*
Y483823D02*
D03*
Y509223D02*
D03*
Y534623D02*
D03*
X363025Y52023D02*
D03*
Y77423D02*
D03*
Y102823D02*
D03*
Y128223D02*
D03*
Y153623D02*
D03*
Y179023D02*
D03*
Y204423D02*
D03*
Y229823D02*
D03*
Y255223D02*
D03*
Y280623D02*
D03*
Y306023D02*
D03*
Y331423D02*
D03*
Y356823D02*
D03*
Y382223D02*
D03*
Y407623D02*
D03*
Y433023D02*
D03*
Y458423D02*
D03*
Y483823D02*
D03*
Y509223D02*
D03*
Y534623D02*
D03*
X399544Y576305D02*
D03*
X101414Y339476D02*
D03*
X101831Y365561D02*
D03*
X394175Y64565D02*
D03*
X414158Y36245D02*
D03*
D60*
X134175Y576247D02*
D03*
Y601647D02*
D03*
Y627048D02*
D03*
Y652448D02*
D03*
Y677848D02*
D03*
Y703248D02*
D03*
Y728648D02*
D03*
Y754047D02*
D03*
X364175Y576247D02*
D03*
Y601647D02*
D03*
Y627048D02*
D03*
Y652448D02*
D03*
Y677848D02*
D03*
Y703248D02*
D03*
Y728648D02*
D03*
Y754047D02*
D03*
D61*
X460000Y590000D02*
D03*
Y40000D02*
D03*
X40000D02*
D03*
Y590000D02*
D03*
D62*
X408118Y492137D02*
D03*
Y466737D02*
D03*
Y441337D02*
D03*
X460197Y437617D02*
D03*
Y412217D02*
D03*
Y386818D02*
D03*
X406998Y383378D02*
D03*
Y357978D02*
D03*
Y332578D02*
D03*
D63*
X398198Y136586D02*
D03*
X398198Y111186D02*
D03*
Y161987D02*
D03*
X193146Y348920D02*
D03*
X80400Y404134D02*
D03*
Y429134D02*
D03*
Y454134D02*
D03*
Y479134D02*
D03*
Y504134D02*
D03*
Y529134D02*
D03*
X92819Y196377D02*
D03*
Y171377D02*
D03*
Y221377D02*
D03*
Y146377D02*
D03*
X408378Y228738D02*
D03*
Y253738D02*
D03*
Y278738D02*
D03*
D64*
X398198Y187386D02*
D03*
D65*
X167746Y348920D02*
D03*
D66*
X244554Y121714D02*
D03*
D67*
X269954D02*
D03*
X293894Y204235D02*
D03*
D68*
Y178835D02*
D03*
D69*
X234351Y336451D02*
D03*
X280783Y387694D02*
D03*
X428086Y75594D02*
D03*
X272246Y419606D02*
D03*
X212320Y308712D02*
D03*
X222713Y733358D02*
D03*
X175036Y686748D02*
D03*
X339724Y566945D02*
D03*
X410083Y531838D02*
D03*
X341849Y440846D02*
D03*
X246714Y517529D02*
D03*
X206450Y183876D02*
D03*
X206372Y654220D02*
D03*
X159117Y306746D02*
D03*
X348262Y191717D02*
D03*
X218535Y531541D02*
D03*
X292636Y495578D02*
D03*
X264495Y511921D02*
D03*
X263566Y348566D02*
D03*
X252726Y290644D02*
D03*
X243846Y292111D02*
D03*
X240609Y437005D02*
D03*
X179891Y297985D02*
D03*
X273033Y305043D02*
D03*
X265458Y299177D02*
D03*
X261265Y339024D02*
D03*
X243265Y339017D02*
D03*
X252265Y339092D02*
D03*
X291596Y416451D02*
D03*
X162331Y668090D02*
D03*
X292301Y459389D02*
D03*
X265240Y480751D02*
D03*
X277683Y22387D02*
D03*
X252938Y437248D02*
D03*
X252409Y628206D02*
D03*
X255791Y91720D02*
D03*
X257659Y268647D02*
D03*
X244829Y268380D02*
D03*
X258193Y241918D02*
D03*
Y255817D02*
D03*
X257926Y281611D02*
D03*
X244829D02*
D03*
X245096Y255684D02*
D03*
X244718Y242195D02*
D03*
D70*
X324484Y107214D02*
D03*
X319781Y555761D02*
D03*
X329400Y373036D02*
D03*
X271189Y170354D02*
D03*
X330876Y328287D02*
D03*
M02*
