G04*
G04 #@! TF.GenerationSoftware,Altium Limited,Altium Designer,21.9.2 (33)*
G04*
G04 Layer_Physical_Order=3*
G04 Layer_Color=32768*
%FSLAX44Y44*%
%MOMM*%
G71*
G04*
G04 #@! TF.SameCoordinates,2CFDF89B-9312-4636-8282-1E88586E834E*
G04*
G04*
G04 #@! TF.FilePolarity,Positive*
G04*
G01*
G75*
%ADD10C,0.2000*%
%ADD11C,0.3000*%
%ADD13C,0.4000*%
%ADD18C,0.2032*%
%ADD74C,1.8000*%
%ADD75C,2.0000*%
%ADD77C,1.2000*%
%ADD78C,1.5000*%
G36*
X355615Y764996D02*
X356119Y763726D01*
X354140Y761747D01*
X352489Y758888D01*
X351635Y755698D01*
Y752396D01*
X352489Y749207D01*
X354140Y746348D01*
X356475Y744013D01*
X359334Y742362D01*
X360667Y742005D01*
Y740690D01*
X359334Y740333D01*
X356475Y738682D01*
X354140Y736347D01*
X352489Y733488D01*
X351635Y730298D01*
Y726997D01*
X352489Y723807D01*
X354140Y720948D01*
X356475Y718613D01*
X359334Y716962D01*
X360667Y716605D01*
Y715290D01*
X359334Y714933D01*
X356475Y713282D01*
X354140Y710947D01*
X352489Y708088D01*
X351635Y704898D01*
Y701597D01*
X352489Y698407D01*
X354140Y695548D01*
X356475Y693213D01*
X359334Y691562D01*
X360667Y691205D01*
Y689890D01*
X359334Y689533D01*
X356475Y687882D01*
X354140Y685547D01*
X352489Y682688D01*
X351635Y679498D01*
Y676197D01*
X352489Y673007D01*
X354140Y670148D01*
X356475Y667813D01*
X359334Y666162D01*
X360667Y665805D01*
Y664490D01*
X359334Y664133D01*
X356475Y662482D01*
X354140Y660147D01*
X352489Y657288D01*
X351635Y654098D01*
Y650797D01*
X352489Y647607D01*
X354140Y644748D01*
X356475Y642413D01*
X359334Y640762D01*
X360667Y640405D01*
Y639090D01*
X359334Y638733D01*
X356475Y637082D01*
X354140Y634747D01*
X352489Y631888D01*
X351635Y628698D01*
Y625396D01*
X352489Y622207D01*
X354140Y619348D01*
X356475Y617013D01*
X359334Y615362D01*
X360667Y615005D01*
Y613690D01*
X359334Y613333D01*
X356475Y611682D01*
X354140Y609347D01*
X352489Y606488D01*
X351635Y603298D01*
Y599996D01*
X352489Y596807D01*
X354140Y593948D01*
X356475Y591613D01*
X359334Y589962D01*
X360667Y589605D01*
Y588290D01*
X359334Y587933D01*
X356475Y586282D01*
X354140Y583947D01*
X352489Y581088D01*
X351635Y577898D01*
Y577518D01*
X364175D01*
X376715D01*
Y577898D01*
X375860Y581088D01*
X374209Y583947D01*
X371874Y586282D01*
X369015Y587933D01*
X367682Y588290D01*
Y589605D01*
X369015Y589962D01*
X371874Y591613D01*
X374209Y593948D01*
X375860Y596807D01*
X376715Y599996D01*
Y603298D01*
X375860Y606488D01*
X374209Y609347D01*
X371874Y611682D01*
X369015Y613333D01*
X367682Y613690D01*
Y615005D01*
X369015Y615362D01*
X371874Y617013D01*
X374209Y619348D01*
X375860Y622207D01*
X376715Y625396D01*
Y628698D01*
X375860Y631888D01*
X374209Y634747D01*
X371874Y637082D01*
X369015Y638733D01*
X367682Y639090D01*
Y640405D01*
X369015Y640762D01*
X371874Y642413D01*
X374209Y644748D01*
X375860Y647607D01*
X376715Y650797D01*
Y654098D01*
X375860Y657288D01*
X374209Y660147D01*
X371874Y662482D01*
X369015Y664133D01*
X367682Y664490D01*
Y665805D01*
X369015Y666162D01*
X371874Y667813D01*
X374209Y670148D01*
X375860Y673007D01*
X376715Y676197D01*
Y679498D01*
X375860Y682688D01*
X374209Y685547D01*
X371874Y687882D01*
X369015Y689533D01*
X367682Y689890D01*
Y691205D01*
X369015Y691562D01*
X371874Y693213D01*
X374209Y695548D01*
X375860Y698407D01*
X376715Y701597D01*
Y704898D01*
X375860Y708088D01*
X374209Y710947D01*
X371874Y713282D01*
X369015Y714933D01*
X367682Y715290D01*
Y716605D01*
X369015Y716962D01*
X371874Y718613D01*
X374209Y720948D01*
X375860Y723807D01*
X376715Y726997D01*
Y730298D01*
X375860Y733488D01*
X374209Y736347D01*
X371874Y738682D01*
X369015Y740333D01*
X367682Y740690D01*
Y742005D01*
X369015Y742362D01*
X371874Y744013D01*
X374209Y746348D01*
X375860Y749207D01*
X376715Y752396D01*
Y755698D01*
X375860Y758888D01*
X375159Y760101D01*
X376111Y760993D01*
X377258Y760227D01*
X380233Y757251D01*
X382571Y753752D01*
X384182Y749864D01*
X385003Y745737D01*
X385003Y743633D01*
X385003Y743633D01*
X385003Y743633D01*
Y655077D01*
X385067Y653109D01*
X385581Y649208D01*
X386599Y645408D01*
X388105Y641773D01*
X390072Y638366D01*
X392467Y635244D01*
X395249Y632462D01*
X398371Y630067D01*
X401778Y628100D01*
X405413Y626594D01*
X409213Y625575D01*
X413114Y625062D01*
X415082Y624998D01*
Y624998D01*
X444956Y624997D01*
X448236Y624998D01*
X454740Y624141D01*
X461076Y622444D01*
X467136Y619933D01*
X472817Y616654D01*
X478021Y612660D01*
X482659Y608022D01*
X486653Y602818D01*
X489932Y597137D01*
X492443Y591077D01*
X494140Y584741D01*
X494996Y578237D01*
X494996Y574957D01*
X494996Y574957D01*
X494997Y574957D01*
Y55011D01*
Y51733D01*
X494141Y45234D01*
X492444Y38901D01*
X489935Y32845D01*
X486657Y27167D01*
X482667Y21966D01*
X478031Y17331D01*
X472830Y13340D01*
X467152Y10062D01*
X461096Y7553D01*
X454763Y5856D01*
X448264Y5001D01*
X54992D01*
X51715Y5001D01*
X45217Y5856D01*
X38887Y7552D01*
X32832Y10060D01*
X27156Y13337D01*
X21957Y17327D01*
X17322Y21961D01*
X13333Y27160D01*
X10056Y32836D01*
X7548Y38891D01*
X5852Y45221D01*
X4996Y51719D01*
X4996Y54996D01*
X4996Y574928D01*
Y578209D01*
X5853Y584717D01*
X7552Y591057D01*
X10064Y597121D01*
X13345Y602805D01*
X17341Y608012D01*
X21982Y612653D01*
X27189Y616649D01*
X32873Y619930D01*
X38937Y622442D01*
X45277Y624141D01*
X51784Y624998D01*
X93399D01*
X95505Y625101D01*
X99636Y625922D01*
X103529Y627532D01*
X107033Y629870D01*
X110014Y632847D01*
X112358Y636347D01*
X113975Y640237D01*
X114803Y644367D01*
X114910Y646473D01*
X114910Y646473D01*
X115057Y734876D01*
X115061Y736852D01*
X115582Y740768D01*
X116610Y744582D01*
X118127Y748230D01*
X120106Y751649D01*
X120413Y752049D01*
X121802Y751772D01*
X122489Y749207D01*
X124140Y746348D01*
X126475Y744013D01*
X129334Y742362D01*
X130667Y742005D01*
Y740690D01*
X129334Y740333D01*
X126475Y738682D01*
X124140Y736347D01*
X122489Y733488D01*
X121635Y730298D01*
Y726997D01*
X122489Y723807D01*
X124140Y720948D01*
X126475Y718613D01*
X129334Y716962D01*
X130667Y716605D01*
Y715290D01*
X129334Y714933D01*
X126475Y713282D01*
X124140Y710947D01*
X122489Y708088D01*
X121635Y704898D01*
Y701597D01*
X122489Y698407D01*
X124140Y695548D01*
X126475Y693213D01*
X129334Y691562D01*
X130667Y691205D01*
Y689890D01*
X129334Y689533D01*
X126475Y687882D01*
X124140Y685547D01*
X122489Y682688D01*
X121635Y679498D01*
Y676197D01*
X122489Y673007D01*
X124140Y670148D01*
X126475Y667813D01*
X129334Y666162D01*
X130667Y665805D01*
Y664490D01*
X129334Y664133D01*
X126475Y662482D01*
X124140Y660147D01*
X122489Y657288D01*
X121635Y654098D01*
Y650797D01*
X122489Y647607D01*
X124140Y644748D01*
X126475Y642413D01*
X129334Y640762D01*
X130667Y640405D01*
Y639090D01*
X129334Y638733D01*
X126475Y637082D01*
X124140Y634747D01*
X122489Y631888D01*
X121635Y628698D01*
Y625396D01*
X122489Y622207D01*
X124140Y619348D01*
X126475Y617013D01*
X129334Y615362D01*
X130667Y615005D01*
Y613690D01*
X129334Y613333D01*
X126475Y611682D01*
X124140Y609347D01*
X122489Y606488D01*
X121635Y603298D01*
Y599996D01*
X122489Y596807D01*
X124140Y593948D01*
X126475Y591613D01*
X129334Y589962D01*
X130667Y589605D01*
Y588290D01*
X129334Y587933D01*
X126475Y586282D01*
X124140Y583947D01*
X122489Y581088D01*
X121635Y577898D01*
Y574596D01*
X122489Y571407D01*
X124140Y568548D01*
X126475Y566213D01*
X129334Y564562D01*
X132524Y563708D01*
X135826D01*
X139015Y564562D01*
X141874Y566213D01*
X144209Y568548D01*
X145860Y571407D01*
X146715Y574596D01*
Y577898D01*
X145860Y581088D01*
X144209Y583947D01*
X141874Y586282D01*
X139015Y587933D01*
X137682Y588290D01*
Y589605D01*
X139015Y589962D01*
X141874Y591613D01*
X144209Y593948D01*
X145860Y596807D01*
X146715Y599996D01*
Y603298D01*
X145860Y606488D01*
X144209Y609347D01*
X141874Y611682D01*
X139015Y613333D01*
X137682Y613690D01*
Y615005D01*
X139015Y615362D01*
X141874Y617013D01*
X144209Y619348D01*
X145860Y622207D01*
X146715Y625396D01*
Y628698D01*
X145860Y631888D01*
X144209Y634747D01*
X141874Y637082D01*
X139015Y638733D01*
X137682Y639090D01*
Y640405D01*
X139015Y640762D01*
X141874Y642413D01*
X144209Y644748D01*
X145860Y647607D01*
X146715Y650797D01*
Y654098D01*
X145860Y657288D01*
X144209Y660147D01*
X141874Y662482D01*
X139015Y664133D01*
X137682Y664490D01*
Y665805D01*
X139015Y666162D01*
X141874Y667813D01*
X144209Y670148D01*
X145860Y673007D01*
X146715Y676197D01*
Y679498D01*
X145860Y682688D01*
X144209Y685547D01*
X141874Y687882D01*
X139015Y689533D01*
X137682Y689890D01*
Y691205D01*
X139015Y691562D01*
X141874Y693213D01*
X144209Y695548D01*
X145860Y698407D01*
X146715Y701597D01*
Y704898D01*
X145860Y708088D01*
X144209Y710947D01*
X141874Y713282D01*
X139015Y714933D01*
X137682Y715290D01*
Y716605D01*
X139015Y716962D01*
X141874Y718613D01*
X144209Y720948D01*
X145860Y723807D01*
X146715Y726997D01*
Y730298D01*
X145860Y733488D01*
X144209Y736347D01*
X141874Y738682D01*
X139015Y740333D01*
X137682Y740690D01*
Y742005D01*
X139015Y742362D01*
X141874Y744013D01*
X144209Y746348D01*
X145860Y749207D01*
X146715Y752396D01*
Y755698D01*
X145860Y758888D01*
X144209Y761747D01*
X142359Y763597D01*
X142814Y764938D01*
X143252Y764995D01*
X145227D01*
X145227Y764996D01*
X355615Y764996D01*
D02*
G37*
%LPC*%
G36*
X223634Y740358D02*
X221791D01*
X220011Y739881D01*
X218415Y738959D01*
X217111Y737656D01*
X216190Y736059D01*
X215713Y734279D01*
Y732436D01*
X216190Y730656D01*
X217111Y729060D01*
X218415Y727756D01*
X220011Y726835D01*
X221791Y726358D01*
X223634D01*
X225415Y726835D01*
X227011Y727756D01*
X228314Y729060D01*
X229236Y730656D01*
X229713Y732436D01*
Y734279D01*
X229236Y736059D01*
X228314Y737656D01*
X227011Y738959D01*
X225415Y739881D01*
X223634Y740358D01*
D02*
G37*
G36*
X175957Y693748D02*
X174114D01*
X172334Y693271D01*
X170738Y692349D01*
X169435Y691046D01*
X168513Y689450D01*
X168036Y687670D01*
Y685827D01*
X168513Y684046D01*
X169435Y682450D01*
X170738Y681147D01*
X172334Y680225D01*
X174114Y679748D01*
X175957D01*
X177738Y680225D01*
X179334Y681147D01*
X180637Y682450D01*
X181559Y684046D01*
X182036Y685827D01*
Y687670D01*
X181559Y689450D01*
X180637Y691046D01*
X179334Y692349D01*
X177738Y693271D01*
X175957Y693748D01*
D02*
G37*
G36*
X163252Y675090D02*
X161409D01*
X159629Y674613D01*
X158033Y673692D01*
X156729Y672388D01*
X155808Y670792D01*
X155331Y669012D01*
Y667169D01*
X155808Y665388D01*
X156729Y663792D01*
X158033Y662489D01*
X159629Y661567D01*
X161409Y661090D01*
X163252D01*
X165033Y661567D01*
X166629Y662489D01*
X167932Y663792D01*
X168854Y665388D01*
X169331Y667169D01*
Y669012D01*
X168854Y670792D01*
X167932Y672388D01*
X166629Y673692D01*
X165033Y674613D01*
X163252Y675090D01*
D02*
G37*
G36*
X253330Y635206D02*
X251487D01*
X249707Y634729D01*
X248111Y633808D01*
X246807Y632505D01*
X245886Y630908D01*
X245409Y629128D01*
Y627285D01*
X245886Y625505D01*
X246807Y623908D01*
X248111Y622605D01*
X249707Y621684D01*
X251487Y621207D01*
X253330D01*
X255110Y621684D01*
X256707Y622605D01*
X258010Y623908D01*
X258932Y625505D01*
X259408Y627285D01*
Y629128D01*
X258932Y630908D01*
X258010Y632505D01*
X256707Y633808D01*
X255110Y634729D01*
X253330Y635206D01*
D02*
G37*
G36*
X461973Y610040D02*
X458026D01*
X454154Y609270D01*
X450507Y607759D01*
X447225Y605566D01*
X444434Y602775D01*
X442240Y599492D01*
X440730Y595845D01*
X439960Y591974D01*
Y588026D01*
X440730Y584155D01*
X442240Y580508D01*
X444434Y577225D01*
X447225Y574434D01*
X450507Y572241D01*
X454154Y570730D01*
X458026Y569960D01*
X461973D01*
X465845Y570730D01*
X469492Y572241D01*
X472774Y574434D01*
X475566Y577225D01*
X477759Y580508D01*
X479269Y584155D01*
X480040Y588026D01*
Y591974D01*
X479269Y595845D01*
X477759Y599492D01*
X475566Y602775D01*
X472774Y605566D01*
X469492Y607759D01*
X465845Y609270D01*
X461973Y610040D01*
D02*
G37*
G36*
X41973D02*
X38026D01*
X34154Y609270D01*
X30507Y607759D01*
X27225Y605566D01*
X24434Y602775D01*
X22240Y599492D01*
X20730Y595845D01*
X19960Y591974D01*
Y588026D01*
X20730Y584155D01*
X22240Y580508D01*
X24434Y577225D01*
X27225Y574434D01*
X30507Y572241D01*
X34154Y570730D01*
X38026Y569960D01*
X41973D01*
X45845Y570730D01*
X49492Y572241D01*
X52774Y574434D01*
X55566Y577225D01*
X57759Y580508D01*
X59269Y584155D01*
X60040Y588026D01*
Y591974D01*
X59269Y595845D01*
X57759Y599492D01*
X55566Y602775D01*
X52774Y605566D01*
X49492Y607759D01*
X45845Y609270D01*
X41973Y610040D01*
D02*
G37*
G36*
X401063Y587845D02*
X398025D01*
X395090Y587059D01*
X392458Y585539D01*
X390310Y583391D01*
X388791Y580759D01*
X388004Y577824D01*
Y574786D01*
X388791Y571851D01*
X390310Y569219D01*
X392458Y567071D01*
X395090Y565551D01*
X398025Y564765D01*
X401063D01*
X403998Y565551D01*
X406630Y567071D01*
X408778Y569219D01*
X410298Y571851D01*
X411084Y574786D01*
Y577824D01*
X410298Y580759D01*
X408778Y583391D01*
X406630Y585539D01*
X403998Y587059D01*
X401063Y587845D01*
D02*
G37*
G36*
X376715Y574977D02*
X365445D01*
Y563708D01*
X365826D01*
X369015Y564562D01*
X371874Y566213D01*
X374209Y568548D01*
X375860Y571407D01*
X376715Y574596D01*
Y574977D01*
D02*
G37*
G36*
X362905D02*
X351635D01*
Y574596D01*
X352489Y571407D01*
X354140Y568548D01*
X356475Y566213D01*
X359334Y564562D01*
X362524Y563708D01*
X362905D01*
Y574977D01*
D02*
G37*
G36*
X340645Y573945D02*
X338802D01*
X337022Y573468D01*
X335425Y572546D01*
X334122Y571243D01*
X333201Y569647D01*
X332724Y567867D01*
Y566023D01*
X333201Y564243D01*
X334122Y562647D01*
X335425Y561344D01*
X337022Y560422D01*
X338802Y559945D01*
X340645D01*
X342425Y560422D01*
X344022Y561344D01*
X345325Y562647D01*
X346246Y564243D01*
X346724Y566023D01*
Y567867D01*
X346246Y569647D01*
X345325Y571243D01*
X344022Y572546D01*
X342425Y573468D01*
X340645Y573945D01*
D02*
G37*
G36*
X320966Y564761D02*
X318596D01*
X316307Y564148D01*
X314255Y562963D01*
X312579Y561287D01*
X311395Y559235D01*
X310781Y556946D01*
Y554576D01*
X311395Y552287D01*
X312579Y550235D01*
X314255Y548559D01*
X316307Y547374D01*
X318596Y546761D01*
X320966D01*
X323255Y547374D01*
X325307Y548559D01*
X326983Y550235D01*
X328168Y552287D01*
X328781Y554576D01*
Y556946D01*
X328168Y559235D01*
X326983Y561287D01*
X325307Y562963D01*
X323255Y564148D01*
X320966Y564761D01*
D02*
G37*
G36*
X411005Y538838D02*
X409161D01*
X407381Y538361D01*
X405785Y537439D01*
X404482Y536136D01*
X403560Y534540D01*
X403083Y532760D01*
Y530916D01*
X403560Y529136D01*
X404482Y527540D01*
X405785Y526237D01*
X407381Y525315D01*
X409161Y524838D01*
X411005D01*
X412785Y525315D01*
X414381Y526237D01*
X415684Y527540D01*
X416606Y529136D01*
X417083Y530916D01*
Y532760D01*
X416606Y534540D01*
X415684Y536136D01*
X414381Y537439D01*
X412785Y538361D01*
X411005Y538838D01*
D02*
G37*
G36*
X364544Y546163D02*
X361506D01*
X358571Y545377D01*
X355939Y543857D01*
X353791Y541709D01*
X352272Y539077D01*
X351485Y536143D01*
Y533104D01*
X352272Y530169D01*
X353791Y527538D01*
X355939Y525389D01*
X358571Y523870D01*
X361506Y523083D01*
X364544D01*
X367479Y523870D01*
X370111Y525389D01*
X372259Y527538D01*
X373779Y530169D01*
X374565Y533104D01*
Y536143D01*
X373779Y539077D01*
X372259Y541709D01*
X370111Y543857D01*
X367479Y545377D01*
X364544Y546163D01*
D02*
G37*
G36*
X135944D02*
X132906D01*
X129971Y545377D01*
X127339Y543857D01*
X125191Y541709D01*
X123672Y539077D01*
X122885Y536143D01*
Y533104D01*
X123672Y530169D01*
X125191Y527538D01*
X127339Y525389D01*
X129971Y523870D01*
X132906Y523083D01*
X135944D01*
X138879Y523870D01*
X141511Y525389D01*
X143659Y527538D01*
X145179Y530169D01*
X145965Y533104D01*
Y536143D01*
X145179Y539077D01*
X143659Y541709D01*
X141511Y543857D01*
X138879Y545377D01*
X135944Y546163D01*
D02*
G37*
G36*
X81721Y539174D02*
X79078D01*
X76524Y538489D01*
X74235Y537168D01*
X72365Y535298D01*
X71044Y533009D01*
X70360Y530456D01*
Y527812D01*
X71044Y525258D01*
X72365Y522969D01*
X74235Y521100D01*
X76524Y519778D01*
X79078Y519094D01*
X81721D01*
X84275Y519778D01*
X86564Y521100D01*
X88434Y522969D01*
X89755Y525258D01*
X90440Y527812D01*
Y530456D01*
X89755Y533009D01*
X88434Y535298D01*
X86564Y537168D01*
X84275Y538489D01*
X81721Y539174D01*
D02*
G37*
G36*
X364544Y520763D02*
X361506D01*
X358571Y519977D01*
X355939Y518457D01*
X353791Y516309D01*
X352272Y513677D01*
X351485Y510742D01*
Y507704D01*
X352272Y504769D01*
X353791Y502138D01*
X355939Y499989D01*
X358571Y498470D01*
X361506Y497683D01*
X364544D01*
X367479Y498470D01*
X370111Y499989D01*
X372259Y502138D01*
X373779Y504769D01*
X374565Y507704D01*
Y510742D01*
X373779Y513677D01*
X372259Y516309D01*
X370111Y518457D01*
X367479Y519977D01*
X364544Y520763D01*
D02*
G37*
G36*
X135944D02*
X132906D01*
X129971Y519977D01*
X127339Y518457D01*
X125191Y516309D01*
X123672Y513677D01*
X122885Y510742D01*
Y507704D01*
X123672Y504769D01*
X125191Y502138D01*
X127339Y499989D01*
X129971Y498470D01*
X132906Y497683D01*
X135944D01*
X138879Y498470D01*
X141511Y499989D01*
X143659Y502138D01*
X145179Y504769D01*
X145965Y507704D01*
Y510742D01*
X145179Y513677D01*
X143659Y516309D01*
X141511Y518457D01*
X138879Y519977D01*
X135944Y520763D01*
D02*
G37*
G36*
X81721Y514174D02*
X79078D01*
X76524Y513489D01*
X74235Y512168D01*
X72365Y510298D01*
X71044Y508009D01*
X70360Y505456D01*
Y502812D01*
X71044Y500258D01*
X72365Y497969D01*
X74235Y496100D01*
X76524Y494778D01*
X79078Y494094D01*
X81721D01*
X84275Y494778D01*
X86564Y496100D01*
X88434Y497969D01*
X89755Y500258D01*
X90440Y502812D01*
Y505456D01*
X89755Y508009D01*
X88434Y510298D01*
X86564Y512168D01*
X84275Y513489D01*
X81721Y514174D01*
D02*
G37*
G36*
X291366Y494308D02*
X288248D01*
X288787Y493006D01*
X290064Y491729D01*
X291366Y491190D01*
Y494308D01*
D02*
G37*
G36*
X409242Y500677D02*
X406993D01*
X404822Y500095D01*
X402874Y498971D01*
X401284Y497381D01*
X400160Y495433D01*
X399578Y493261D01*
Y491013D01*
X400160Y488841D01*
X401284Y486893D01*
X402874Y485303D01*
X404822Y484179D01*
X406993Y483597D01*
X409242D01*
X411414Y484179D01*
X413362Y485303D01*
X414952Y486893D01*
X416076Y488841D01*
X416658Y491013D01*
Y493261D01*
X416076Y495433D01*
X414952Y497381D01*
X413362Y498971D01*
X411414Y500095D01*
X409242Y500677D01*
D02*
G37*
G36*
X266162Y487751D02*
X264319D01*
X262539Y487274D01*
X260942Y486353D01*
X259639Y485049D01*
X258717Y483453D01*
X258240Y481673D01*
Y479830D01*
X258294Y479630D01*
X231439Y452775D01*
X230546Y451438D01*
X230232Y449862D01*
Y342155D01*
X230053Y342052D01*
X228750Y340749D01*
X227828Y339152D01*
X227351Y337372D01*
Y335529D01*
X227828Y333749D01*
X228750Y332152D01*
X230053Y330849D01*
X231649Y329928D01*
X233430Y329451D01*
X235273D01*
X237053Y329928D01*
X238650Y330849D01*
X239953Y332152D01*
X240253Y332673D01*
X240564Y332494D01*
X242344Y332017D01*
X244187D01*
X245967Y332494D01*
X247563Y333416D01*
X248867Y334719D01*
X249127Y335169D01*
X249694Y335244D01*
X250995Y334705D01*
Y339092D01*
Y343480D01*
X249694Y342941D01*
X249032Y343028D01*
X248867Y343315D01*
X247563Y344618D01*
X245967Y345540D01*
X244187Y346017D01*
X242344D01*
X240564Y345540D01*
X239741Y345065D01*
X238470Y345798D01*
Y429288D01*
X239478Y430061D01*
X239687Y430005D01*
X241530D01*
X243311Y430482D01*
X244907Y431404D01*
X246084Y432581D01*
X246475Y432696D01*
X247641Y432646D01*
X248640Y431647D01*
X250237Y430725D01*
X252017Y430248D01*
X253860D01*
X255640Y430725D01*
X257237Y431647D01*
X258540Y432950D01*
X259461Y434546D01*
X259939Y436326D01*
Y438170D01*
X259461Y439950D01*
X258540Y441546D01*
X257237Y442850D01*
X255640Y443771D01*
X253860Y444248D01*
X252017D01*
X250237Y443771D01*
X248640Y442850D01*
X247464Y441673D01*
X247073Y441558D01*
X245906Y441608D01*
X244907Y442607D01*
X243311Y443528D01*
X241530Y444005D01*
X239687D01*
X239478Y443949D01*
X238470Y444722D01*
Y448156D01*
X264119Y473805D01*
X264319Y473751D01*
X266162D01*
X267942Y474228D01*
X269538Y475150D01*
X270842Y476453D01*
X271763Y478049D01*
X272240Y479830D01*
Y481673D01*
X271763Y483453D01*
X270842Y485049D01*
X269538Y486353D01*
X267942Y487274D01*
X266162Y487751D01*
D02*
G37*
G36*
X364544Y495363D02*
X361506D01*
X358571Y494577D01*
X355939Y493058D01*
X353791Y490909D01*
X352272Y488278D01*
X351485Y485342D01*
Y482304D01*
X352272Y479369D01*
X353791Y476738D01*
X355939Y474589D01*
X358571Y473070D01*
X361506Y472283D01*
X364544D01*
X367479Y473070D01*
X370111Y474589D01*
X372259Y476738D01*
X373779Y479369D01*
X374565Y482304D01*
Y485342D01*
X373779Y488278D01*
X372259Y490909D01*
X370111Y493058D01*
X367479Y494577D01*
X364544Y495363D01*
D02*
G37*
G36*
X135944D02*
X132906D01*
X129971Y494577D01*
X127339Y493058D01*
X125191Y490909D01*
X123672Y488278D01*
X122885Y485342D01*
Y482304D01*
X123672Y479369D01*
X125191Y476738D01*
X127339Y474589D01*
X129971Y473070D01*
X132906Y472283D01*
X135944D01*
X138879Y473070D01*
X141511Y474589D01*
X143659Y476738D01*
X145179Y479369D01*
X145965Y482304D01*
Y485342D01*
X145179Y488278D01*
X143659Y490909D01*
X141511Y493058D01*
X138879Y494577D01*
X135944Y495363D01*
D02*
G37*
G36*
X81721Y489174D02*
X79078D01*
X76524Y488489D01*
X74235Y487168D01*
X72365Y485298D01*
X71044Y483009D01*
X70360Y480456D01*
Y477812D01*
X71044Y475258D01*
X72365Y472969D01*
X74235Y471100D01*
X76524Y469778D01*
X79078Y469094D01*
X81721D01*
X84275Y469778D01*
X86564Y471100D01*
X88434Y472969D01*
X89755Y475258D01*
X90440Y477812D01*
Y480456D01*
X89755Y483009D01*
X88434Y485298D01*
X86564Y487168D01*
X84275Y488489D01*
X81721Y489174D01*
D02*
G37*
G36*
X409242Y475277D02*
X406993D01*
X404822Y474695D01*
X402874Y473571D01*
X401284Y471981D01*
X400160Y470033D01*
X399578Y467861D01*
Y465613D01*
X400160Y463441D01*
X401284Y461493D01*
X402874Y459903D01*
X404822Y458779D01*
X406993Y458197D01*
X409242D01*
X411414Y458779D01*
X413362Y459903D01*
X414952Y461493D01*
X416076Y463441D01*
X416658Y465613D01*
Y467861D01*
X416076Y470033D01*
X414952Y471981D01*
X413362Y473571D01*
X411414Y474695D01*
X409242Y475277D01*
D02*
G37*
G36*
X135944Y469963D02*
X132906D01*
X129971Y469177D01*
X127339Y467658D01*
X125191Y465509D01*
X123672Y462878D01*
X122885Y459943D01*
Y456904D01*
X123672Y453969D01*
X125191Y451338D01*
X127339Y449189D01*
X129971Y447670D01*
X132906Y446883D01*
X135944D01*
X138879Y447670D01*
X141511Y449189D01*
X143659Y451338D01*
X145179Y453969D01*
X145965Y456904D01*
Y459943D01*
X145179Y462878D01*
X143659Y465509D01*
X141511Y467658D01*
X138879Y469177D01*
X135944Y469963D01*
D02*
G37*
G36*
X81721Y464174D02*
X79078D01*
X76524Y463489D01*
X74235Y462168D01*
X72365Y460298D01*
X71044Y458009D01*
X70360Y455456D01*
Y452812D01*
X71044Y450258D01*
X72365Y447969D01*
X74235Y446100D01*
X76524Y444778D01*
X79078Y444094D01*
X81721D01*
X84275Y444778D01*
X86564Y446100D01*
X88434Y447969D01*
X89755Y450258D01*
X90440Y452812D01*
Y455456D01*
X89755Y458009D01*
X88434Y460298D01*
X86564Y462168D01*
X84275Y463489D01*
X81721Y464174D01*
D02*
G37*
G36*
X409388Y449838D02*
Y442607D01*
X416619D01*
X416076Y444633D01*
X414952Y446581D01*
X413362Y448171D01*
X411414Y449295D01*
X409388Y449838D01*
D02*
G37*
G36*
X406848D02*
X404822Y449295D01*
X402874Y448171D01*
X401284Y446581D01*
X400160Y444633D01*
X399617Y442607D01*
X406848D01*
Y449838D01*
D02*
G37*
G36*
X416619Y440067D02*
X409388D01*
Y432836D01*
X411414Y433379D01*
X413362Y434503D01*
X414952Y436093D01*
X416076Y438041D01*
X416619Y440067D01*
D02*
G37*
G36*
X406848D02*
X399617D01*
X400160Y438041D01*
X401284Y436093D01*
X402874Y434503D01*
X404822Y433379D01*
X406848Y432836D01*
Y440067D01*
D02*
G37*
G36*
X461321Y446157D02*
X459073D01*
X456901Y445575D01*
X454953Y444451D01*
X453363Y442861D01*
X452239Y440914D01*
X451657Y438742D01*
Y436493D01*
X452239Y434321D01*
X453363Y432374D01*
X454953Y430784D01*
X456901Y429660D01*
X459073Y429077D01*
X461321D01*
X463493Y429660D01*
X465441Y430784D01*
X467031Y432374D01*
X468155Y434321D01*
X468737Y436493D01*
Y438742D01*
X468155Y440914D01*
X467031Y442861D01*
X465441Y444451D01*
X463493Y445575D01*
X461321Y446157D01*
D02*
G37*
G36*
X247635Y524529D02*
X245792D01*
X244012Y524052D01*
X242416Y523131D01*
X241112Y521828D01*
X240191Y520231D01*
X239714Y518451D01*
Y516608D01*
X240191Y514827D01*
X241112Y513231D01*
X242416Y511928D01*
X244012Y511006D01*
X245792Y510529D01*
X247635D01*
X249416Y511006D01*
X251012Y511928D01*
X252315Y513231D01*
X252674Y513852D01*
X259268D01*
X259710Y513191D01*
X269280D01*
X269722Y513852D01*
X277092D01*
X290305Y500639D01*
X290064Y499427D01*
X288787Y498149D01*
X288248Y496848D01*
X292636D01*
Y495578D01*
X293906D01*
Y491190D01*
X295208Y491729D01*
X296485Y493006D01*
X297697Y493247D01*
X341828Y449116D01*
X341302Y447846D01*
X340927D01*
X339147Y447369D01*
X337551Y446447D01*
X336247Y445144D01*
X335326Y443548D01*
X334849Y441768D01*
Y439925D01*
X335326Y438144D01*
X336247Y436548D01*
X337551Y435245D01*
X339147Y434323D01*
X340927Y433846D01*
X342770D01*
X344551Y434323D01*
X346147Y435245D01*
X347450Y436548D01*
X348372Y438144D01*
X348849Y439925D01*
Y440299D01*
X350119Y440825D01*
X352709Y438235D01*
X352272Y437477D01*
X351485Y434543D01*
Y431504D01*
X352272Y428569D01*
X353791Y425938D01*
X355939Y423789D01*
X358571Y422270D01*
X361506Y421483D01*
X364544D01*
X367479Y422270D01*
X370111Y423789D01*
X372259Y425938D01*
X373779Y428569D01*
X374565Y431504D01*
Y434543D01*
X373779Y437477D01*
X372259Y440109D01*
X370111Y442257D01*
X367479Y443777D01*
X364544Y444563D01*
X361506D01*
X358571Y443777D01*
X357813Y443339D01*
X281139Y520014D01*
X279968Y520796D01*
X278587Y521071D01*
X252752D01*
X252315Y521828D01*
X251012Y523131D01*
X249416Y524052D01*
X247635Y524529D01*
D02*
G37*
G36*
X135944Y444563D02*
X132906D01*
X129971Y443777D01*
X127339Y442257D01*
X125191Y440109D01*
X123672Y437477D01*
X122885Y434543D01*
Y431504D01*
X123672Y428569D01*
X125191Y425938D01*
X127339Y423789D01*
X129971Y422270D01*
X132906Y421483D01*
X135944D01*
X138879Y422270D01*
X141511Y423789D01*
X143659Y425938D01*
X145179Y428569D01*
X145965Y431504D01*
Y434543D01*
X145179Y437477D01*
X143659Y440109D01*
X141511Y442257D01*
X138879Y443777D01*
X135944Y444563D01*
D02*
G37*
G36*
X273515Y423994D02*
Y420876D01*
X276633D01*
X276094Y422178D01*
X274817Y423455D01*
X273515Y423994D01*
D02*
G37*
G36*
X270975D02*
X269674Y423455D01*
X268397Y422178D01*
X267857Y420876D01*
X270975D01*
Y423994D01*
D02*
G37*
G36*
X81721Y439174D02*
X79078D01*
X76524Y438489D01*
X74235Y437168D01*
X72365Y435298D01*
X71044Y433009D01*
X70360Y430456D01*
Y427812D01*
X71044Y425258D01*
X72365Y422969D01*
X74235Y421100D01*
X76524Y419778D01*
X79078Y419094D01*
X81721D01*
X84275Y419778D01*
X86564Y421100D01*
X88434Y422969D01*
X89755Y425258D01*
X90440Y427812D01*
Y430456D01*
X89755Y433009D01*
X88434Y435298D01*
X86564Y437168D01*
X84275Y438489D01*
X81721Y439174D01*
D02*
G37*
G36*
X276633Y418336D02*
X273515D01*
Y415218D01*
X274817Y415757D01*
X276094Y417034D01*
X276633Y418336D01*
D02*
G37*
G36*
X270975D02*
X267857D01*
X268397Y417034D01*
X269674Y415757D01*
X270975Y415218D01*
Y418336D01*
D02*
G37*
G36*
X292518Y423451D02*
X290675D01*
X288894Y422974D01*
X287298Y422052D01*
X285995Y420749D01*
X285073Y419153D01*
X284596Y417372D01*
Y415529D01*
X285073Y413749D01*
X285995Y412153D01*
X287298Y410849D01*
X288894Y409928D01*
X290675Y409451D01*
X292518D01*
X294298Y409928D01*
X295894Y410849D01*
X297198Y412153D01*
X298119Y413749D01*
X298596Y415529D01*
Y417372D01*
X298119Y419153D01*
X297198Y420749D01*
X295894Y422052D01*
X294298Y422974D01*
X292518Y423451D01*
D02*
G37*
G36*
X461321Y420757D02*
X459073D01*
X456901Y420176D01*
X454953Y419051D01*
X453363Y417461D01*
X452239Y415514D01*
X451657Y413342D01*
Y411093D01*
X452239Y408921D01*
X453363Y406974D01*
X454953Y405384D01*
X456901Y404259D01*
X459073Y403677D01*
X461321D01*
X463493Y404259D01*
X465441Y405384D01*
X467031Y406974D01*
X468155Y408921D01*
X468737Y411093D01*
Y413342D01*
X468155Y415514D01*
X467031Y417461D01*
X465441Y419051D01*
X463493Y420176D01*
X461321Y420757D01*
D02*
G37*
G36*
X364544Y419163D02*
X361506D01*
X358571Y418377D01*
X355939Y416857D01*
X353791Y414709D01*
X352272Y412077D01*
X351485Y409142D01*
Y406104D01*
X352272Y403169D01*
X353791Y400538D01*
X355939Y398389D01*
X358571Y396870D01*
X361506Y396083D01*
X364544D01*
X367479Y396870D01*
X370111Y398389D01*
X372259Y400538D01*
X373779Y403169D01*
X374565Y406104D01*
Y409142D01*
X373779Y412077D01*
X372259Y414709D01*
X370111Y416857D01*
X367479Y418377D01*
X364544Y419163D01*
D02*
G37*
G36*
X135944D02*
X132906D01*
X129971Y418377D01*
X127339Y416857D01*
X125191Y414709D01*
X123672Y412077D01*
X122885Y409142D01*
Y406104D01*
X123672Y403169D01*
X125191Y400538D01*
X127339Y398389D01*
X129971Y396870D01*
X132906Y396083D01*
X135944D01*
X138879Y396870D01*
X141511Y398389D01*
X143659Y400538D01*
X145179Y403169D01*
X145965Y406104D01*
Y409142D01*
X145179Y412077D01*
X143659Y414709D01*
X141511Y416857D01*
X138879Y418377D01*
X135944Y419163D01*
D02*
G37*
G36*
X81721Y414174D02*
X79078D01*
X76524Y413489D01*
X74235Y412168D01*
X72365Y410298D01*
X71044Y408009D01*
X70360Y405456D01*
Y402812D01*
X71044Y400258D01*
X72365Y397969D01*
X74235Y396100D01*
X76524Y394778D01*
X79078Y394094D01*
X81721D01*
X84275Y394778D01*
X86564Y396100D01*
X88434Y397969D01*
X89755Y400258D01*
X90440Y402812D01*
Y405456D01*
X89755Y408009D01*
X88434Y410298D01*
X86564Y412168D01*
X84275Y413489D01*
X81721Y414174D01*
D02*
G37*
G36*
X282053Y392082D02*
Y388964D01*
X285171D01*
X284631Y390266D01*
X283354Y391543D01*
X282053Y392082D01*
D02*
G37*
G36*
X279513D02*
X278211Y391543D01*
X276934Y390266D01*
X276395Y388964D01*
X279513D01*
Y392082D01*
D02*
G37*
G36*
X461467Y395318D02*
Y388088D01*
X468698D01*
X468155Y390114D01*
X467031Y392061D01*
X465441Y393651D01*
X463493Y394776D01*
X461467Y395318D01*
D02*
G37*
G36*
X458927D02*
X456901Y394776D01*
X454953Y393651D01*
X453363Y392061D01*
X452239Y390114D01*
X451696Y388088D01*
X458927D01*
Y395318D01*
D02*
G37*
G36*
X285171Y386424D02*
X282053D01*
Y383306D01*
X283354Y383845D01*
X284631Y385123D01*
X285171Y386424D01*
D02*
G37*
G36*
X279513D02*
X276395D01*
X276934Y385123D01*
X278211Y383845D01*
X279513Y383306D01*
Y386424D01*
D02*
G37*
G36*
X468698Y385547D02*
X461467D01*
Y378317D01*
X463493Y378859D01*
X465441Y379984D01*
X467031Y381574D01*
X468155Y383521D01*
X468698Y385547D01*
D02*
G37*
G36*
X458927D02*
X451696D01*
X452239Y383521D01*
X453363Y381574D01*
X454953Y379984D01*
X456901Y378859D01*
X458927Y378317D01*
Y385547D01*
D02*
G37*
G36*
X408122Y391918D02*
X405874D01*
X403702Y391336D01*
X401754Y390212D01*
X400164Y388622D01*
X399040Y386674D01*
X398458Y384502D01*
Y382254D01*
X399040Y380082D01*
X400164Y378134D01*
X401754Y376544D01*
X403702Y375420D01*
X405874Y374838D01*
X408122D01*
X410294Y375420D01*
X412242Y376544D01*
X413832Y378134D01*
X414956Y380082D01*
X415538Y382254D01*
Y384502D01*
X414956Y386674D01*
X413832Y388622D01*
X412242Y390212D01*
X410294Y391336D01*
X408122Y391918D01*
D02*
G37*
G36*
X364544Y393763D02*
X361506D01*
X358571Y392977D01*
X355939Y391457D01*
X353791Y389309D01*
X352272Y386678D01*
X351485Y383742D01*
Y380704D01*
X352272Y377769D01*
X353791Y375138D01*
X355939Y372989D01*
X358571Y371470D01*
X361506Y370683D01*
X364544D01*
X367479Y371470D01*
X370111Y372989D01*
X372259Y375138D01*
X373779Y377769D01*
X374565Y380704D01*
Y383742D01*
X373779Y386678D01*
X372259Y389309D01*
X370111Y391457D01*
X367479Y392977D01*
X364544Y393763D01*
D02*
G37*
G36*
X135944D02*
X132906D01*
X129971Y392977D01*
X127339Y391457D01*
X125191Y389309D01*
X123672Y386678D01*
X122885Y383742D01*
Y380704D01*
X123672Y377769D01*
X125191Y375138D01*
X127339Y372989D01*
X129971Y371470D01*
X132906Y370683D01*
X135944D01*
X138879Y371470D01*
X141511Y372989D01*
X143659Y375138D01*
X145179Y377769D01*
X145965Y380704D01*
Y383742D01*
X145179Y386678D01*
X143659Y389309D01*
X141511Y391457D01*
X138879Y392977D01*
X135944Y393763D01*
D02*
G37*
G36*
X330584Y382036D02*
X328215D01*
X325926Y381423D01*
X323873Y380238D01*
X322198Y378563D01*
X321013Y376510D01*
X320400Y374221D01*
Y371852D01*
X321013Y369562D01*
X322198Y367510D01*
X323873Y365835D01*
X325926Y364650D01*
X328215Y364036D01*
X330584D01*
X332873Y364650D01*
X334926Y365835D01*
X336601Y367510D01*
X337786Y369562D01*
X338400Y371852D01*
Y374221D01*
X337786Y376510D01*
X336601Y378563D01*
X334926Y380238D01*
X332873Y381423D01*
X330584Y382036D01*
D02*
G37*
G36*
X207293Y661220D02*
X205450D01*
X203670Y660743D01*
X202074Y659821D01*
X200771Y658518D01*
X199849Y656922D01*
X199372Y655142D01*
Y653298D01*
X199849Y651518D01*
X200771Y649922D01*
X202074Y648619D01*
X202763Y648221D01*
Y354883D01*
X201493Y354543D01*
X201180Y355085D01*
X199310Y356954D01*
X197021Y358276D01*
X194468Y358960D01*
X191824D01*
X189270Y358276D01*
X186981Y356954D01*
X185112Y355085D01*
X183790Y352796D01*
X183106Y350242D01*
Y347599D01*
X183790Y345045D01*
X185112Y342756D01*
X186981Y340886D01*
X189270Y339565D01*
X191824Y338880D01*
X194468D01*
X197021Y339565D01*
X199310Y340886D01*
X201180Y342756D01*
X201493Y343298D01*
X202763Y342957D01*
Y189830D01*
X202152Y189478D01*
X200849Y188174D01*
X199927Y186578D01*
X199450Y184798D01*
Y182955D01*
X199927Y181174D01*
X200849Y179578D01*
X202152Y178275D01*
X203748Y177353D01*
X205529Y176876D01*
X207372D01*
X209152Y177353D01*
X210748Y178275D01*
X212052Y179578D01*
X212973Y181174D01*
X213450Y182955D01*
Y184798D01*
X212973Y186578D01*
X212052Y188174D01*
X210748Y189478D01*
X209981Y189921D01*
Y303624D01*
X211037Y304330D01*
X211050Y304324D01*
Y308712D01*
Y313100D01*
X211037Y313095D01*
X209981Y313801D01*
Y648221D01*
X210670Y648619D01*
X211973Y649922D01*
X212895Y651518D01*
X213372Y653298D01*
Y655142D01*
X212895Y656922D01*
X211973Y658518D01*
X210670Y659821D01*
X209074Y660743D01*
X207293Y661220D01*
D02*
G37*
G36*
X103350Y377101D02*
X100312D01*
X97377Y376314D01*
X94746Y374795D01*
X92597Y372646D01*
X91078Y370015D01*
X90291Y367080D01*
Y364041D01*
X91078Y361106D01*
X92597Y358475D01*
X94746Y356326D01*
X97377Y354807D01*
X100312Y354021D01*
X103350D01*
X106285Y354807D01*
X108917Y356326D01*
X111066Y358475D01*
X112585Y361106D01*
X113371Y364041D01*
Y367080D01*
X112585Y370015D01*
X111066Y372646D01*
X108917Y374795D01*
X106285Y376314D01*
X103350Y377101D01*
D02*
G37*
G36*
X408122Y366518D02*
X405874D01*
X403702Y365936D01*
X401754Y364812D01*
X400164Y363222D01*
X399040Y361274D01*
X398458Y359102D01*
Y356854D01*
X399040Y354682D01*
X400164Y352734D01*
X401754Y351144D01*
X403702Y350020D01*
X405874Y349438D01*
X408122D01*
X410294Y350020D01*
X412242Y351144D01*
X413832Y352734D01*
X414956Y354682D01*
X415538Y356854D01*
Y359102D01*
X414956Y361274D01*
X413832Y363222D01*
X412242Y364812D01*
X410294Y365936D01*
X408122Y366518D01*
D02*
G37*
G36*
X364544Y368363D02*
X361506D01*
X358571Y367577D01*
X355939Y366058D01*
X353791Y363909D01*
X352272Y361278D01*
X351485Y358343D01*
Y355304D01*
X352272Y352369D01*
X353791Y349738D01*
X355939Y347589D01*
X358571Y346070D01*
X361506Y345283D01*
X364544D01*
X367479Y346070D01*
X370111Y347589D01*
X372259Y349738D01*
X373779Y352369D01*
X374565Y355304D01*
Y358343D01*
X373779Y361278D01*
X372259Y363909D01*
X370111Y366058D01*
X367479Y367577D01*
X364544Y368363D01*
D02*
G37*
G36*
X135944D02*
X132906D01*
X129971Y367577D01*
X127339Y366058D01*
X125191Y363909D01*
X123672Y361278D01*
X122885Y358343D01*
Y355304D01*
X123672Y352369D01*
X125191Y349738D01*
X127339Y347589D01*
X129971Y346070D01*
X132906Y345283D01*
X135944D01*
X138879Y346070D01*
X141511Y347589D01*
X143659Y349738D01*
X145179Y352369D01*
X145965Y355304D01*
Y358343D01*
X145179Y361278D01*
X143659Y363909D01*
X141511Y366058D01*
X138879Y367577D01*
X135944Y368363D01*
D02*
G37*
G36*
X264488Y355566D02*
X262645D01*
X260864Y355089D01*
X259268Y354167D01*
X257965Y352864D01*
X257043Y351268D01*
X256566Y349487D01*
Y347644D01*
X257043Y345864D01*
X257561Y344968D01*
X256967Y344625D01*
X255663Y343322D01*
X255494Y343028D01*
X254837Y342941D01*
X253535Y343480D01*
Y339092D01*
Y334705D01*
X254837Y335244D01*
X255408Y335168D01*
X255663Y334726D01*
X256967Y333422D01*
X258563Y332501D01*
X260343Y332024D01*
X262186D01*
X263967Y332501D01*
X265563Y333422D01*
X266866Y334726D01*
X267589Y335978D01*
X268859Y335638D01*
Y326112D01*
X255756Y313008D01*
X254974Y311837D01*
X254699Y310456D01*
Y298677D01*
X253647Y297644D01*
X251804D01*
X250024Y297167D01*
X248428Y296246D01*
X247280Y295098D01*
X246418Y295960D01*
X245116Y296499D01*
Y292111D01*
X243846D01*
Y290841D01*
X239458D01*
X239998Y289540D01*
X240738Y288799D01*
X240620Y287264D01*
X240531Y287212D01*
X239227Y285909D01*
X238306Y284313D01*
X237829Y282533D01*
Y280690D01*
X238306Y278909D01*
X239227Y277313D01*
X240531Y276010D01*
X241017Y275729D01*
Y274262D01*
X240531Y273981D01*
X239227Y272678D01*
X238306Y271082D01*
X237829Y269302D01*
Y267458D01*
X238306Y265678D01*
X239227Y264082D01*
X240531Y262779D01*
X240858Y262590D01*
Y261531D01*
X240717Y261204D01*
X239495Y259982D01*
X238573Y258386D01*
X238096Y256605D01*
Y254762D01*
X238573Y252982D01*
X239495Y251385D01*
X240798Y250082D01*
X241318Y249782D01*
Y248315D01*
X240420Y247797D01*
X239117Y246493D01*
X238195Y244897D01*
X237718Y243117D01*
Y241274D01*
X238195Y239493D01*
X239117Y237897D01*
X240420Y236594D01*
X242016Y235672D01*
X243797Y235195D01*
X245640D01*
X247420Y235672D01*
X249016Y236594D01*
X250320Y237897D01*
X250643Y238456D01*
X252109D01*
X252592Y237620D01*
X253895Y236317D01*
X255492Y235395D01*
X257272Y234918D01*
X259115D01*
X260895Y235395D01*
X262491Y236317D01*
X263795Y237620D01*
X264716Y239216D01*
X265193Y240996D01*
Y242840D01*
X264716Y244620D01*
X263795Y246216D01*
X262491Y247519D01*
X261361Y248172D01*
Y249563D01*
X262491Y250216D01*
X263795Y251519D01*
X264716Y253115D01*
X265193Y254896D01*
Y256739D01*
X264716Y258519D01*
X263795Y260115D01*
X262491Y261419D01*
X262085Y261653D01*
X261971Y262889D01*
X262051Y263140D01*
X263260Y264349D01*
X264182Y265945D01*
X264659Y267726D01*
Y269569D01*
X264182Y271349D01*
X263260Y272945D01*
X261957Y274249D01*
X261836Y274319D01*
Y275785D01*
X262224Y276010D01*
X263528Y277313D01*
X264449Y278909D01*
X264926Y280690D01*
Y282533D01*
X264449Y284313D01*
X263528Y285909D01*
X262224Y287212D01*
X260628Y288134D01*
X259389Y288466D01*
X259726Y289723D01*
Y291566D01*
X259520Y292334D01*
X260062Y292876D01*
X261160Y293575D01*
X262756Y292654D01*
X264536Y292177D01*
X266379D01*
X268160Y292654D01*
X269756Y293575D01*
X271059Y294879D01*
X271981Y296475D01*
X272458Y298255D01*
Y300098D01*
X272768Y300503D01*
X273936D01*
X275604Y301194D01*
X276882Y302472D01*
X277421Y303773D01*
X273033D01*
Y305043D01*
X271763D01*
Y309431D01*
X270461Y308892D01*
X269184Y307615D01*
X268836Y306775D01*
X268315Y305947D01*
X267224Y305950D01*
X266379Y306177D01*
X264536D01*
X263187Y305815D01*
X261917Y306535D01*
Y308961D01*
X275021Y322064D01*
X275803Y323235D01*
X276078Y324617D01*
Y339795D01*
X276078Y339795D01*
X275803Y341176D01*
X275021Y342347D01*
X270388Y346979D01*
X270566Y347644D01*
Y349487D01*
X270089Y351268D01*
X269168Y352864D01*
X267864Y354167D01*
X266268Y355089D01*
X264488Y355566D01*
D02*
G37*
G36*
X177786Y358960D02*
X157706D01*
Y338880D01*
X177786D01*
Y358960D01*
D02*
G37*
G36*
X408268Y341079D02*
Y333848D01*
X415499D01*
X414956Y335874D01*
X413832Y337822D01*
X412242Y339412D01*
X410294Y340536D01*
X408268Y341079D01*
D02*
G37*
G36*
X405728D02*
X403702Y340536D01*
X401754Y339412D01*
X400164Y337822D01*
X399040Y335874D01*
X398497Y333848D01*
X405728D01*
Y341079D01*
D02*
G37*
G36*
X219457Y538541D02*
X217614D01*
X215833Y538064D01*
X214237Y537143D01*
X212934Y535839D01*
X212012Y534243D01*
X211535Y532463D01*
Y530620D01*
X212012Y528839D01*
X212934Y527243D01*
X214237Y525940D01*
X214926Y525542D01*
Y518372D01*
X215201Y516990D01*
X215983Y515819D01*
X231296Y500506D01*
X232467Y499724D01*
X233848Y499449D01*
X261056D01*
X292846Y467659D01*
X292320Y466390D01*
X291380D01*
X289599Y465912D01*
X288003Y464991D01*
X286700Y463688D01*
X285778Y462091D01*
X285301Y460311D01*
Y458468D01*
X285778Y456688D01*
X286700Y455091D01*
X288003Y453788D01*
X289599Y452867D01*
X291380Y452389D01*
X293223D01*
X295003Y452867D01*
X296600Y453788D01*
X297903Y455091D01*
X298824Y456688D01*
X299301Y458468D01*
Y459408D01*
X300571Y459934D01*
X340516Y419989D01*
Y331989D01*
X339262Y331761D01*
X338077Y333813D01*
X336402Y335489D01*
X334350Y336674D01*
X332061Y337287D01*
X329691D01*
X327402Y336674D01*
X325350Y335489D01*
X323674Y333813D01*
X322489Y331761D01*
X321876Y329472D01*
Y327102D01*
X322489Y324813D01*
X323674Y322761D01*
X325350Y321086D01*
X327402Y319901D01*
X329691Y319287D01*
X332061D01*
X334350Y319901D01*
X336402Y321086D01*
X338077Y322761D01*
X339262Y324813D01*
X340468Y324774D01*
X340555Y324729D01*
X340791Y323542D01*
X341573Y322371D01*
X352709Y311235D01*
X352272Y310478D01*
X351485Y307542D01*
Y304504D01*
X352272Y301569D01*
X353791Y298938D01*
X355939Y296789D01*
X358571Y295270D01*
X361506Y294483D01*
X364544D01*
X367479Y295270D01*
X370111Y296789D01*
X372259Y298938D01*
X373779Y301569D01*
X374565Y304504D01*
Y307542D01*
X373779Y310478D01*
X372259Y313109D01*
X370111Y315257D01*
X367479Y316777D01*
X364544Y317563D01*
X361506D01*
X358571Y316777D01*
X357813Y316339D01*
X347735Y326418D01*
Y421484D01*
X347460Y422865D01*
X346678Y424036D01*
X265103Y505611D01*
X264354Y506111D01*
X264739Y507381D01*
X265398D01*
X267067Y508073D01*
X268344Y509350D01*
X268883Y510651D01*
X260107D01*
X260646Y509350D01*
X261923Y508073D01*
X262248Y507938D01*
X261996Y506668D01*
X235343D01*
X222145Y519867D01*
Y525542D01*
X222833Y525940D01*
X224137Y527243D01*
X225058Y528839D01*
X225535Y530620D01*
Y532463D01*
X225058Y534243D01*
X224137Y535839D01*
X222833Y537143D01*
X221237Y538064D01*
X219457Y538541D01*
D02*
G37*
G36*
X102933Y351016D02*
X99895D01*
X96960Y350229D01*
X94328Y348710D01*
X92180Y346561D01*
X90660Y343930D01*
X89874Y340995D01*
Y337956D01*
X90660Y335021D01*
X92180Y332390D01*
X94328Y330241D01*
X96960Y328722D01*
X99895Y327936D01*
X102933D01*
X105868Y328722D01*
X108500Y330241D01*
X110648Y332390D01*
X112168Y335021D01*
X112954Y337956D01*
Y340995D01*
X112168Y343930D01*
X110648Y346561D01*
X108500Y348710D01*
X105868Y350229D01*
X102933Y351016D01*
D02*
G37*
G36*
X415499Y331308D02*
X408268D01*
Y324077D01*
X410294Y324620D01*
X412242Y325744D01*
X413832Y327334D01*
X414956Y329282D01*
X415499Y331308D01*
D02*
G37*
G36*
X405728D02*
X398497D01*
X399040Y329282D01*
X400164Y327334D01*
X401754Y325744D01*
X403702Y324620D01*
X405728Y324077D01*
Y331308D01*
D02*
G37*
G36*
X364544Y342963D02*
X361506D01*
X358571Y342177D01*
X355939Y340658D01*
X353791Y338509D01*
X352272Y335877D01*
X351485Y332943D01*
Y329904D01*
X352272Y326969D01*
X353791Y324338D01*
X355939Y322189D01*
X358571Y320670D01*
X361506Y319883D01*
X364544D01*
X367479Y320670D01*
X370111Y322189D01*
X372259Y324338D01*
X373779Y326969D01*
X374565Y329904D01*
Y332943D01*
X373779Y335877D01*
X372259Y338509D01*
X370111Y340658D01*
X367479Y342177D01*
X364544Y342963D01*
D02*
G37*
G36*
X135944D02*
X132906D01*
X129971Y342177D01*
X127339Y340658D01*
X125191Y338509D01*
X123672Y335877D01*
X122885Y332943D01*
Y329904D01*
X123672Y326969D01*
X125191Y324338D01*
X127339Y322189D01*
X129971Y320670D01*
X132906Y319883D01*
X135944D01*
X138879Y320670D01*
X141511Y322189D01*
X143659Y324338D01*
X145179Y326969D01*
X145965Y329904D01*
Y332943D01*
X145179Y335877D01*
X143659Y338509D01*
X141511Y340658D01*
X138879Y342177D01*
X135944Y342963D01*
D02*
G37*
G36*
X213590Y313100D02*
Y309982D01*
X216708D01*
X216169Y311284D01*
X214892Y312561D01*
X213590Y313100D01*
D02*
G37*
G36*
X274303Y309431D02*
Y306313D01*
X277421D01*
X276882Y307615D01*
X275604Y308892D01*
X274303Y309431D01*
D02*
G37*
G36*
X216708Y307442D02*
X213590D01*
Y304324D01*
X214892Y304864D01*
X216169Y306141D01*
X216708Y307442D01*
D02*
G37*
G36*
X160039Y313746D02*
X158195D01*
X156415Y313269D01*
X154819Y312347D01*
X153516Y311044D01*
X152594Y309448D01*
X152117Y307668D01*
Y305825D01*
X152594Y304044D01*
X153516Y302448D01*
X154819Y301145D01*
X156415Y300223D01*
X158195Y299746D01*
X160039D01*
X161819Y300223D01*
X163415Y301145D01*
X164718Y302448D01*
X165640Y304044D01*
X166117Y305825D01*
Y307668D01*
X165640Y309448D01*
X164718Y311044D01*
X163415Y312347D01*
X161819Y313269D01*
X160039Y313746D01*
D02*
G37*
G36*
X135944Y317563D02*
X132906D01*
X129971Y316777D01*
X127339Y315257D01*
X125191Y313109D01*
X123672Y310478D01*
X122885Y307542D01*
Y304504D01*
X123672Y301569D01*
X125191Y298938D01*
X127339Y296789D01*
X129971Y295270D01*
X132906Y294483D01*
X135944D01*
X138879Y295270D01*
X141511Y296789D01*
X143659Y298938D01*
X145179Y301569D01*
X145965Y304504D01*
Y307542D01*
X145179Y310478D01*
X143659Y313109D01*
X141511Y315257D01*
X138879Y316777D01*
X135944Y317563D01*
D02*
G37*
G36*
X242576Y296499D02*
X241275Y295960D01*
X239998Y294683D01*
X239458Y293381D01*
X242576D01*
Y296499D01*
D02*
G37*
G36*
X180812Y304985D02*
X178969D01*
X177189Y304508D01*
X175593Y303587D01*
X174289Y302283D01*
X173368Y300687D01*
X172891Y298907D01*
Y297064D01*
X173368Y295283D01*
X174289Y293687D01*
X175593Y292384D01*
X177189Y291462D01*
X178969Y290985D01*
X180812D01*
X182593Y291462D01*
X184189Y292384D01*
X185492Y293687D01*
X186414Y295283D01*
X186891Y297064D01*
Y298907D01*
X186414Y300687D01*
X185492Y302283D01*
X184189Y303587D01*
X182593Y304508D01*
X180812Y304985D01*
D02*
G37*
G36*
X364544Y292163D02*
X361506D01*
X358571Y291377D01*
X355939Y289858D01*
X353791Y287709D01*
X352272Y285077D01*
X351485Y282143D01*
Y279104D01*
X352272Y276169D01*
X352445Y275868D01*
X331651Y255075D01*
X330758Y253738D01*
X330445Y252162D01*
Y115632D01*
X329175Y114898D01*
X327958Y115601D01*
X325669Y116214D01*
X323299D01*
X321010Y115601D01*
X318958Y114416D01*
X317282Y112740D01*
X316097Y110688D01*
X315484Y108399D01*
Y106029D01*
X316097Y103740D01*
X317282Y101688D01*
X318958Y100012D01*
X321010Y98827D01*
X323299Y98214D01*
X325669D01*
X326587Y98460D01*
X327244Y97321D01*
X265924Y36002D01*
X126968D01*
X120786Y42183D01*
Y172529D01*
X120473Y174105D01*
X119580Y175441D01*
X102247Y192774D01*
X102859Y195055D01*
Y197699D01*
X102175Y200252D01*
X100853Y202542D01*
X98983Y204411D01*
X96694Y205733D01*
X94141Y206417D01*
X91497D01*
X88943Y205733D01*
X86654Y204411D01*
X84785Y202542D01*
X83463Y200252D01*
X82779Y197699D01*
Y195055D01*
X83463Y192502D01*
X84785Y190212D01*
X86654Y188343D01*
X88943Y187021D01*
X91497Y186337D01*
X94141D01*
X96422Y186949D01*
X112548Y170822D01*
Y40477D01*
X112862Y38900D01*
X113755Y37564D01*
X122349Y28970D01*
X123685Y28077D01*
X125262Y27763D01*
X266068D01*
X266702Y26493D01*
X266299Y25957D01*
X119468D01*
X110138Y35287D01*
Y158177D01*
X109825Y159753D01*
X108932Y161089D01*
X102247Y167774D01*
X102859Y170055D01*
Y172699D01*
X102175Y175252D01*
X100853Y177542D01*
X98983Y179411D01*
X96694Y180733D01*
X94141Y181417D01*
X91497D01*
X88943Y180733D01*
X86654Y179411D01*
X84785Y177542D01*
X83463Y175252D01*
X82779Y172699D01*
Y170055D01*
X83463Y167502D01*
X84785Y165212D01*
X86654Y163343D01*
X88943Y162021D01*
X91497Y161337D01*
X94141D01*
X96422Y161949D01*
X101900Y156471D01*
Y153080D01*
X100630Y152765D01*
X98983Y154411D01*
X96694Y155733D01*
X94141Y156417D01*
X91497D01*
X88943Y155733D01*
X86654Y154411D01*
X84785Y152542D01*
X83463Y150253D01*
X82779Y147699D01*
Y145055D01*
X83463Y142502D01*
X84785Y140212D01*
X86654Y138343D01*
X88943Y137021D01*
X91497Y136337D01*
X94141D01*
X96694Y137021D01*
X98983Y138343D01*
X100630Y139990D01*
X101900Y139674D01*
Y33581D01*
X102213Y32005D01*
X103106Y30668D01*
X114850Y18925D01*
X116186Y18032D01*
X117762Y17719D01*
X268592D01*
X270168Y18032D01*
X271505Y18925D01*
X272633Y20054D01*
X273834Y19815D01*
X275111Y18538D01*
X276413Y17999D01*
Y22387D01*
X277683D01*
Y23657D01*
X282071D01*
X281532Y24959D01*
X280654Y25836D01*
X280601Y27362D01*
X345135Y91896D01*
X346027Y93232D01*
X346341Y94809D01*
Y183950D01*
X347340Y184717D01*
X349183D01*
X350964Y185194D01*
X352212Y185915D01*
X353142Y184985D01*
X352272Y183477D01*
X351485Y180543D01*
Y177504D01*
X352272Y174569D01*
X353791Y171938D01*
X355939Y169789D01*
X358571Y168270D01*
X361506Y167483D01*
X364544D01*
X367479Y168270D01*
X370111Y169789D01*
X372259Y171938D01*
X373779Y174569D01*
X374565Y177504D01*
Y180543D01*
X373779Y183477D01*
X372259Y186109D01*
X370111Y188258D01*
X367479Y189777D01*
X364544Y190563D01*
X361506D01*
X358571Y189777D01*
X355939Y188258D01*
X355643Y187961D01*
X354627Y188741D01*
X354785Y189015D01*
X355262Y190795D01*
Y192638D01*
X354785Y194419D01*
X354609Y194724D01*
X355625Y195504D01*
X355939Y195189D01*
X358571Y193670D01*
X361506Y192883D01*
X364544D01*
X367479Y193670D01*
X370111Y195189D01*
X372259Y197338D01*
X373779Y199969D01*
X374565Y202904D01*
Y205942D01*
X373779Y208878D01*
X372259Y211509D01*
X370111Y213657D01*
X367479Y215177D01*
X364544Y215963D01*
X361506D01*
X358571Y215177D01*
X355939Y213657D01*
X353791Y211509D01*
X352272Y208878D01*
X351485Y205942D01*
Y202904D01*
X352272Y199969D01*
X353153Y198442D01*
X352223Y197512D01*
X350964Y198240D01*
X349183Y198717D01*
X347340D01*
X346341Y199484D01*
Y232714D01*
X358270Y244643D01*
X358571Y244470D01*
X361506Y243683D01*
X364544D01*
X367479Y244470D01*
X370111Y245989D01*
X372259Y248138D01*
X373779Y250769D01*
X374565Y253704D01*
Y256742D01*
X373779Y259678D01*
X372259Y262309D01*
X370111Y264457D01*
X367479Y265977D01*
X364544Y266763D01*
X361506D01*
X358571Y265977D01*
X355939Y264457D01*
X353791Y262309D01*
X352272Y259678D01*
X351485Y256742D01*
Y253704D01*
X352272Y250769D01*
X352445Y250469D01*
X339953Y237976D01*
X338683Y238502D01*
Y250456D01*
X358270Y270043D01*
X358571Y269870D01*
X361506Y269083D01*
X364544D01*
X367479Y269870D01*
X370111Y271389D01*
X372259Y273538D01*
X373779Y276169D01*
X374565Y279104D01*
Y282143D01*
X373779Y285077D01*
X372259Y287709D01*
X370111Y289858D01*
X367479Y291377D01*
X364544Y292163D01*
D02*
G37*
G36*
X135944D02*
X132906D01*
X129971Y291377D01*
X127339Y289858D01*
X125191Y287709D01*
X123672Y285077D01*
X122885Y282143D01*
Y279104D01*
X123672Y276169D01*
X125191Y273538D01*
X127339Y271389D01*
X129971Y269870D01*
X132906Y269083D01*
X135944D01*
X138879Y269870D01*
X141511Y271389D01*
X143659Y273538D01*
X145179Y276169D01*
X145965Y279104D01*
Y282143D01*
X145179Y285077D01*
X143659Y287709D01*
X141511Y289858D01*
X138879Y291377D01*
X135944Y292163D01*
D02*
G37*
G36*
X409700Y288778D02*
X407057D01*
X404503Y288093D01*
X402214Y286772D01*
X400344Y284902D01*
X399023Y282613D01*
X398338Y280059D01*
Y277416D01*
X399023Y274862D01*
X400344Y272573D01*
X402214Y270704D01*
X404503Y269382D01*
X407057Y268697D01*
X409700D01*
X412254Y269382D01*
X414543Y270704D01*
X416412Y272573D01*
X417734Y274862D01*
X418418Y277416D01*
Y280059D01*
X417734Y282613D01*
X416412Y284902D01*
X414543Y286772D01*
X412254Y288093D01*
X409700Y288778D01*
D02*
G37*
G36*
Y263778D02*
X407057D01*
X404503Y263093D01*
X402214Y261772D01*
X400344Y259902D01*
X399023Y257613D01*
X398338Y255059D01*
Y252416D01*
X399023Y249862D01*
X400344Y247573D01*
X402214Y245704D01*
X404503Y244382D01*
X407057Y243697D01*
X409700D01*
X412254Y244382D01*
X414543Y245704D01*
X416412Y247573D01*
X417734Y249862D01*
X418418Y252416D01*
Y255059D01*
X417734Y257613D01*
X416412Y259902D01*
X414543Y261772D01*
X412254Y263093D01*
X409700Y263778D01*
D02*
G37*
G36*
X135944Y266763D02*
X132906D01*
X129971Y265977D01*
X127339Y264457D01*
X125191Y262309D01*
X123672Y259678D01*
X122885Y256742D01*
Y253704D01*
X123672Y250769D01*
X125191Y248138D01*
X127339Y245989D01*
X129971Y244470D01*
X132906Y243683D01*
X135944D01*
X138879Y244470D01*
X141511Y245989D01*
X143659Y248138D01*
X145179Y250769D01*
X145965Y253704D01*
Y256742D01*
X145179Y259678D01*
X143659Y262309D01*
X141511Y264457D01*
X138879Y265977D01*
X135944Y266763D01*
D02*
G37*
G36*
X409700Y238777D02*
X407057D01*
X404503Y238093D01*
X402214Y236772D01*
X400344Y234902D01*
X399023Y232613D01*
X398338Y230059D01*
Y227416D01*
X399023Y224862D01*
X400344Y222573D01*
X402214Y220704D01*
X404503Y219382D01*
X407057Y218697D01*
X409700D01*
X412254Y219382D01*
X414543Y220704D01*
X416412Y222573D01*
X417734Y224862D01*
X418418Y227416D01*
Y230059D01*
X417734Y232613D01*
X416412Y234902D01*
X414543Y236772D01*
X412254Y238093D01*
X409700Y238777D01*
D02*
G37*
G36*
X364544Y241363D02*
X361506D01*
X358571Y240577D01*
X355939Y239058D01*
X353791Y236909D01*
X352272Y234277D01*
X351485Y231343D01*
Y228304D01*
X352272Y225369D01*
X353791Y222738D01*
X355939Y220589D01*
X358571Y219070D01*
X361506Y218283D01*
X364544D01*
X367479Y219070D01*
X370111Y220589D01*
X372259Y222738D01*
X373779Y225369D01*
X374565Y228304D01*
Y231343D01*
X373779Y234277D01*
X372259Y236909D01*
X370111Y239058D01*
X367479Y240577D01*
X364544Y241363D01*
D02*
G37*
G36*
X135944D02*
X132906D01*
X129971Y240577D01*
X127339Y239058D01*
X125191Y236909D01*
X123672Y234277D01*
X122885Y231343D01*
Y228304D01*
X123672Y225369D01*
X125191Y222738D01*
X127339Y220589D01*
X129971Y219070D01*
X132906Y218283D01*
X135944D01*
X138879Y219070D01*
X141511Y220589D01*
X143659Y222738D01*
X145179Y225369D01*
X145965Y228304D01*
Y231343D01*
X145179Y234277D01*
X143659Y236909D01*
X141511Y239058D01*
X138879Y240577D01*
X135944Y241363D01*
D02*
G37*
G36*
X94141Y231417D02*
X91497D01*
X88943Y230733D01*
X86654Y229411D01*
X84785Y227542D01*
X83463Y225252D01*
X82779Y222699D01*
Y220055D01*
X83463Y217502D01*
X84785Y215212D01*
X86654Y213343D01*
X88943Y212021D01*
X91497Y211337D01*
X94141D01*
X96694Y212021D01*
X98983Y213343D01*
X100853Y215212D01*
X102175Y217502D01*
X102859Y220055D01*
Y222699D01*
X102175Y225252D01*
X100853Y227542D01*
X98983Y229411D01*
X96694Y230733D01*
X94141Y231417D01*
D02*
G37*
G36*
X295364Y215400D02*
X292424D01*
X289585Y214639D01*
X287039Y213169D01*
X284960Y211090D01*
X283490Y208544D01*
X282729Y205704D01*
Y202765D01*
X283490Y199925D01*
X284960Y197379D01*
X287039Y195300D01*
X289585Y193831D01*
X292424Y193070D01*
X295364D01*
X298204Y193831D01*
X300749Y195300D01*
X302828Y197379D01*
X304298Y199925D01*
X305059Y202765D01*
Y205704D01*
X304298Y208544D01*
X302828Y211090D01*
X300749Y213169D01*
X298204Y214639D01*
X295364Y215400D01*
D02*
G37*
G36*
X135944Y215963D02*
X132906D01*
X129971Y215177D01*
X127339Y213657D01*
X125191Y211509D01*
X123672Y208878D01*
X122885Y205942D01*
Y202904D01*
X123672Y199969D01*
X125191Y197338D01*
X127339Y195189D01*
X129971Y193670D01*
X132906Y192883D01*
X135944D01*
X138879Y193670D01*
X141511Y195189D01*
X143659Y197338D01*
X145179Y199969D01*
X145965Y202904D01*
Y205942D01*
X145179Y208878D01*
X143659Y211509D01*
X141511Y213657D01*
X138879Y215177D01*
X135944Y215963D01*
D02*
G37*
G36*
X305059Y190000D02*
X282729D01*
Y167670D01*
X305059D01*
Y190000D01*
D02*
G37*
G36*
X135944Y190563D02*
X132906D01*
X129971Y189777D01*
X127339Y188258D01*
X125191Y186109D01*
X123672Y183477D01*
X122885Y180543D01*
Y177504D01*
X123672Y174569D01*
X125191Y171938D01*
X127339Y169789D01*
X129971Y168270D01*
X132906Y167483D01*
X135944D01*
X138879Y168270D01*
X141511Y169789D01*
X143659Y171938D01*
X145179Y174569D01*
X145965Y177504D01*
Y180543D01*
X145179Y183477D01*
X143659Y186109D01*
X141511Y188258D01*
X138879Y189777D01*
X135944Y190563D01*
D02*
G37*
G36*
X272374Y179354D02*
X270004D01*
X267715Y178741D01*
X265663Y177556D01*
X263987Y175880D01*
X262802Y173828D01*
X262189Y171539D01*
Y169170D01*
X262802Y166880D01*
X263987Y164828D01*
X265663Y163153D01*
X267715Y161968D01*
X270004Y161354D01*
X272374D01*
X274663Y161968D01*
X276715Y163153D01*
X278391Y164828D01*
X279576Y166880D01*
X280189Y169170D01*
Y171539D01*
X279576Y173828D01*
X278391Y175880D01*
X276715Y177556D01*
X274663Y178741D01*
X272374Y179354D01*
D02*
G37*
G36*
X364544Y469963D02*
X361506D01*
X358571Y469177D01*
X355939Y467658D01*
X353791Y465509D01*
X352272Y462878D01*
X351485Y459943D01*
Y456904D01*
X352272Y453969D01*
X353791Y451338D01*
X355939Y449189D01*
X358571Y447670D01*
X361506Y446883D01*
X364544D01*
X367479Y447670D01*
X368237Y448107D01*
X380511Y435833D01*
Y176064D01*
X380786Y174683D01*
X381568Y173512D01*
X388980Y166100D01*
X388842Y165862D01*
X388158Y163308D01*
Y160665D01*
X388842Y158111D01*
X390164Y155822D01*
X392033Y153953D01*
X394323Y152631D01*
X396876Y151946D01*
X399520D01*
X402073Y152631D01*
X404363Y153953D01*
X406232Y155822D01*
X407554Y158111D01*
X408238Y160665D01*
Y163308D01*
X407554Y165862D01*
X406232Y168151D01*
X404363Y170021D01*
X402073Y171342D01*
X399520Y172027D01*
X396876D01*
X394323Y171342D01*
X394084Y171205D01*
X389212Y176077D01*
X389739Y177346D01*
X408238D01*
Y197426D01*
X389000D01*
X388158Y197426D01*
X387730Y198519D01*
Y437328D01*
X387455Y438709D01*
X386673Y439880D01*
X373341Y453212D01*
X373779Y453969D01*
X374565Y456904D01*
Y459943D01*
X373779Y462878D01*
X372259Y465509D01*
X370111Y467658D01*
X367479Y469177D01*
X364544Y469963D01*
D02*
G37*
G36*
Y165163D02*
X361506D01*
X358571Y164377D01*
X355939Y162857D01*
X353791Y160709D01*
X352272Y158077D01*
X351485Y155142D01*
Y152104D01*
X352272Y149169D01*
X353791Y146538D01*
X355939Y144389D01*
X358571Y142870D01*
X361506Y142083D01*
X364544D01*
X367479Y142870D01*
X370111Y144389D01*
X372259Y146538D01*
X373779Y149169D01*
X374565Y152104D01*
Y155142D01*
X373779Y158077D01*
X372259Y160709D01*
X370111Y162857D01*
X367479Y164377D01*
X364544Y165163D01*
D02*
G37*
G36*
X135944D02*
X132906D01*
X129971Y164377D01*
X127339Y162857D01*
X125191Y160709D01*
X123672Y158077D01*
X122885Y155142D01*
Y152104D01*
X123672Y149169D01*
X125191Y146538D01*
X127339Y144389D01*
X129971Y142870D01*
X132906Y142083D01*
X135944D01*
X138879Y142870D01*
X141511Y144389D01*
X143659Y146538D01*
X145179Y149169D01*
X145965Y152104D01*
Y155142D01*
X145179Y158077D01*
X143659Y160709D01*
X141511Y162857D01*
X138879Y164377D01*
X135944Y165163D01*
D02*
G37*
G36*
X399520Y146626D02*
X396876D01*
X394323Y145942D01*
X392033Y144620D01*
X390164Y142751D01*
X388842Y140462D01*
X388158Y137908D01*
Y135265D01*
X388842Y132711D01*
X390164Y130422D01*
X392033Y128552D01*
X394323Y127231D01*
X396876Y126546D01*
X399520D01*
X402073Y127231D01*
X404363Y128552D01*
X406232Y130422D01*
X407554Y132711D01*
X408238Y135265D01*
Y137908D01*
X407554Y140462D01*
X406232Y142751D01*
X404363Y144620D01*
X402073Y145942D01*
X399520Y146626D01*
D02*
G37*
G36*
X364544Y139763D02*
X361506D01*
X358571Y138977D01*
X355939Y137458D01*
X353791Y135309D01*
X352272Y132677D01*
X351485Y129742D01*
Y126704D01*
X352272Y123769D01*
X353791Y121138D01*
X355939Y118989D01*
X358571Y117470D01*
X361506Y116683D01*
X364544D01*
X367479Y117470D01*
X370111Y118989D01*
X372259Y121138D01*
X373779Y123769D01*
X374565Y126704D01*
Y129742D01*
X373779Y132677D01*
X372259Y135309D01*
X370111Y137458D01*
X367479Y138977D01*
X364544Y139763D01*
D02*
G37*
G36*
X135944D02*
X132906D01*
X129971Y138977D01*
X127339Y137458D01*
X125191Y135309D01*
X123672Y132677D01*
X122885Y129742D01*
Y126704D01*
X123672Y123769D01*
X125191Y121138D01*
X127339Y118989D01*
X129971Y117470D01*
X132906Y116683D01*
X135944D01*
X138879Y117470D01*
X141511Y118989D01*
X143659Y121138D01*
X145179Y123769D01*
X145965Y126704D01*
Y129742D01*
X145179Y132677D01*
X143659Y135309D01*
X141511Y137458D01*
X138879Y138977D01*
X135944Y139763D01*
D02*
G37*
G36*
X271424Y132879D02*
X268484D01*
X265645Y132118D01*
X263099Y130648D01*
X261020Y128569D01*
X259550Y126023D01*
X258789Y123184D01*
Y120244D01*
X259550Y117404D01*
X261020Y114858D01*
X263099Y112780D01*
X265645Y111310D01*
X268484Y110549D01*
X271424D01*
X274264Y111310D01*
X276810Y112780D01*
X278888Y114858D01*
X280358Y117404D01*
X281119Y120244D01*
Y123184D01*
X280358Y126023D01*
X278888Y128569D01*
X276810Y130648D01*
X274264Y132118D01*
X271424Y132879D01*
D02*
G37*
G36*
X255719D02*
X233389D01*
Y110549D01*
X255719D01*
Y132879D01*
D02*
G37*
G36*
X399520Y121226D02*
X396876D01*
X394323Y120542D01*
X392033Y119220D01*
X390164Y117351D01*
X388842Y115062D01*
X388158Y112508D01*
Y109865D01*
X388842Y107311D01*
X390164Y105022D01*
X392033Y103152D01*
X394323Y101831D01*
X396876Y101146D01*
X399520D01*
X402073Y101831D01*
X404363Y103152D01*
X406232Y105022D01*
X407554Y107311D01*
X408238Y109865D01*
Y112508D01*
X407554Y115062D01*
X406232Y117351D01*
X404363Y119220D01*
X402073Y120542D01*
X399520Y121226D01*
D02*
G37*
G36*
X364544Y114363D02*
X361506D01*
X358571Y113577D01*
X355939Y112058D01*
X353791Y109909D01*
X352272Y107277D01*
X351485Y104342D01*
Y101304D01*
X352272Y98369D01*
X353791Y95738D01*
X355939Y93589D01*
X358571Y92070D01*
X361506Y91283D01*
X364544D01*
X367479Y92070D01*
X370111Y93589D01*
X372259Y95738D01*
X373779Y98369D01*
X374565Y101304D01*
Y104342D01*
X373779Y107277D01*
X372259Y109909D01*
X370111Y112058D01*
X367479Y113577D01*
X364544Y114363D01*
D02*
G37*
G36*
X135944D02*
X132906D01*
X129971Y113577D01*
X127339Y112058D01*
X125191Y109909D01*
X123672Y107277D01*
X122885Y104342D01*
Y101304D01*
X123672Y98369D01*
X125191Y95738D01*
X127339Y93589D01*
X129971Y92070D01*
X132906Y91283D01*
X135944D01*
X138879Y92070D01*
X141511Y93589D01*
X143659Y95738D01*
X145179Y98369D01*
X145965Y101304D01*
Y104342D01*
X145179Y107277D01*
X143659Y109909D01*
X141511Y112058D01*
X138879Y113577D01*
X135944Y114363D01*
D02*
G37*
G36*
X256713Y98720D02*
X254869D01*
X253089Y98243D01*
X251493Y97322D01*
X250190Y96018D01*
X249268Y94422D01*
X248791Y92642D01*
Y90799D01*
X249268Y89018D01*
X250190Y87422D01*
X251493Y86119D01*
X253089Y85197D01*
X254869Y84720D01*
X256713D01*
X258493Y85197D01*
X260089Y86119D01*
X261392Y87422D01*
X262314Y89018D01*
X262791Y90799D01*
Y92642D01*
X262314Y94422D01*
X261392Y96018D01*
X260089Y97322D01*
X258493Y98243D01*
X256713Y98720D01*
D02*
G37*
G36*
X429007Y82594D02*
X427164D01*
X425384Y82117D01*
X423787Y81195D01*
X422484Y79892D01*
X421563Y78296D01*
X421086Y76516D01*
Y74672D01*
X421563Y72892D01*
X422484Y71296D01*
X423787Y69993D01*
X425384Y69071D01*
X427164Y68594D01*
X429007D01*
X430787Y69071D01*
X432384Y69993D01*
X433687Y71296D01*
X434608Y72892D01*
X435085Y74672D01*
Y76516D01*
X434608Y78296D01*
X433687Y79892D01*
X432384Y81195D01*
X430787Y82117D01*
X429007Y82594D01*
D02*
G37*
G36*
X364544Y88963D02*
X361506D01*
X358571Y88177D01*
X355939Y86657D01*
X353791Y84509D01*
X352272Y81877D01*
X351485Y78942D01*
Y75904D01*
X352272Y72969D01*
X353791Y70338D01*
X355939Y68189D01*
X358571Y66670D01*
X361506Y65883D01*
X364544D01*
X367479Y66670D01*
X370111Y68189D01*
X372259Y70338D01*
X373779Y72969D01*
X374565Y75904D01*
Y78942D01*
X373779Y81877D01*
X372259Y84509D01*
X370111Y86657D01*
X367479Y88177D01*
X364544Y88963D01*
D02*
G37*
G36*
X135944D02*
X132906D01*
X129971Y88177D01*
X127339Y86657D01*
X125191Y84509D01*
X123672Y81877D01*
X122885Y78942D01*
Y75904D01*
X123672Y72969D01*
X125191Y70338D01*
X127339Y68189D01*
X129971Y66670D01*
X132906Y65883D01*
X135944D01*
X138879Y66670D01*
X141511Y68189D01*
X143659Y70338D01*
X145179Y72969D01*
X145965Y75904D01*
Y78942D01*
X145179Y81877D01*
X143659Y84509D01*
X141511Y86657D01*
X138879Y88177D01*
X135944Y88963D01*
D02*
G37*
G36*
X395695Y76105D02*
X392656D01*
X389721Y75318D01*
X387090Y73799D01*
X384941Y71651D01*
X383422Y69019D01*
X382635Y66084D01*
Y63046D01*
X383422Y60111D01*
X384941Y57479D01*
X387090Y55331D01*
X389721Y53811D01*
X392656Y53025D01*
X395695D01*
X398630Y53811D01*
X401261Y55331D01*
X403410Y57479D01*
X404929Y60111D01*
X405715Y63046D01*
Y66084D01*
X404929Y69019D01*
X403410Y71651D01*
X401261Y73799D01*
X398630Y75318D01*
X395695Y76105D01*
D02*
G37*
G36*
X364544Y63563D02*
X361506D01*
X358571Y62777D01*
X355939Y61258D01*
X353791Y59109D01*
X352272Y56477D01*
X351485Y53542D01*
Y50504D01*
X352272Y47569D01*
X353791Y44938D01*
X355939Y42789D01*
X358571Y41270D01*
X361506Y40483D01*
X364544D01*
X367479Y41270D01*
X370111Y42789D01*
X372259Y44938D01*
X373779Y47569D01*
X374565Y50504D01*
Y53542D01*
X373779Y56477D01*
X372259Y59109D01*
X370111Y61258D01*
X367479Y62777D01*
X364544Y63563D01*
D02*
G37*
G36*
X135944D02*
X132906D01*
X129971Y62777D01*
X127339Y61258D01*
X125191Y59109D01*
X123672Y56477D01*
X122885Y53542D01*
Y50504D01*
X123672Y47569D01*
X125191Y44938D01*
X127339Y42789D01*
X129971Y41270D01*
X132906Y40483D01*
X135944D01*
X138879Y41270D01*
X141511Y42789D01*
X143659Y44938D01*
X145179Y47569D01*
X145965Y50504D01*
Y53542D01*
X145179Y56477D01*
X143659Y59109D01*
X141511Y61258D01*
X138879Y62777D01*
X135944Y63563D01*
D02*
G37*
G36*
X415677Y47785D02*
X415428D01*
Y37515D01*
X425698D01*
Y37764D01*
X424911Y40699D01*
X423392Y43331D01*
X421244Y45479D01*
X418612Y46999D01*
X415677Y47785D01*
D02*
G37*
G36*
X412888D02*
X412639D01*
X409703Y46999D01*
X407072Y45479D01*
X404924Y43331D01*
X403404Y40699D01*
X402618Y37764D01*
Y37515D01*
X412888D01*
Y47785D01*
D02*
G37*
G36*
X425698Y34975D02*
X415428D01*
Y24705D01*
X415677D01*
X418612Y25491D01*
X421244Y27011D01*
X423392Y29159D01*
X424911Y31791D01*
X425698Y34726D01*
Y34975D01*
D02*
G37*
G36*
X412888D02*
X402618D01*
Y34726D01*
X403404Y31791D01*
X404924Y29159D01*
X407072Y27011D01*
X409703Y25491D01*
X412639Y24705D01*
X412888D01*
Y34975D01*
D02*
G37*
G36*
X461973Y60040D02*
X458026D01*
X454154Y59270D01*
X450507Y57759D01*
X447225Y55566D01*
X444434Y52775D01*
X442240Y49493D01*
X440730Y45845D01*
X439960Y41974D01*
Y38026D01*
X440730Y34155D01*
X442240Y30508D01*
X444434Y27225D01*
X447225Y24434D01*
X450507Y22241D01*
X454154Y20730D01*
X458026Y19960D01*
X461973D01*
X465845Y20730D01*
X469492Y22241D01*
X472774Y24434D01*
X475566Y27225D01*
X477759Y30508D01*
X479269Y34155D01*
X480040Y38026D01*
Y41974D01*
X479269Y45845D01*
X477759Y49493D01*
X475566Y52775D01*
X472774Y55566D01*
X469492Y57759D01*
X465845Y59270D01*
X461973Y60040D01*
D02*
G37*
G36*
X41973D02*
X38026D01*
X34154Y59270D01*
X30507Y57759D01*
X27225Y55566D01*
X24434Y52775D01*
X22240Y49493D01*
X20730Y45845D01*
X19960Y41974D01*
Y38026D01*
X20730Y34155D01*
X22240Y30508D01*
X24434Y27225D01*
X27225Y24434D01*
X30507Y22241D01*
X34154Y20730D01*
X38026Y19960D01*
X41973D01*
X45845Y20730D01*
X49492Y22241D01*
X52774Y24434D01*
X55566Y27225D01*
X57759Y30508D01*
X59269Y34155D01*
X60040Y38026D01*
Y41974D01*
X59269Y45845D01*
X57759Y49493D01*
X55566Y52775D01*
X52774Y55566D01*
X49492Y57759D01*
X45845Y59270D01*
X41973Y60040D01*
D02*
G37*
G36*
X282071Y21117D02*
X278953D01*
Y17999D01*
X280254Y18538D01*
X281532Y19815D01*
X282071Y21117D01*
D02*
G37*
%LPD*%
D10*
X246782Y517461D02*
X278587D01*
X246714Y517529D02*
X246782Y517461D01*
X206372Y183955D02*
Y654220D01*
Y183955D02*
X206450Y183876D01*
X218535Y518372D02*
Y531541D01*
Y518372D02*
X233848Y503059D01*
X262551D01*
X344125Y421484D01*
Y324923D02*
Y421484D01*
Y324923D02*
X363025Y306023D01*
X278587Y517461D02*
X363025Y433023D01*
Y458423D02*
X384120Y437328D01*
Y176064D02*
Y437328D01*
Y176064D02*
X398198Y161987D01*
X272468Y324617D02*
Y339795D01*
X258308Y296226D02*
Y310456D01*
X272468Y324617D01*
X252726Y290644D02*
X258308Y296226D01*
X263566Y348566D02*
X263697D01*
X272468Y339795D01*
D11*
X234351Y336451D02*
Y449862D01*
X265240Y480751D01*
X275840Y28427D02*
X342222Y94809D01*
Y234420D02*
X363025Y255223D01*
X342222Y94809D02*
Y234420D01*
X334564Y98816D02*
Y252162D01*
X363025Y280623D01*
X267631Y31882D02*
X334564Y98816D01*
X125262Y31882D02*
X267631D01*
X116667Y40477D02*
X125262Y31882D01*
X116667Y40477D02*
Y172529D01*
X92819Y196377D02*
X116667Y172529D01*
X275181Y28427D02*
X275840D01*
X268592Y21838D02*
X275181Y28427D01*
X117762Y21838D02*
X268592D01*
X106019Y33581D02*
X117762Y21838D01*
X92819Y171377D02*
X106019Y158177D01*
Y33581D02*
Y158177D01*
D13*
X234351Y336451D02*
D03*
X280783Y387694D02*
D03*
X272246Y419606D02*
D03*
X212320Y308712D02*
D03*
X246714Y517529D02*
D03*
X206450Y183876D02*
D03*
X206372Y654220D02*
D03*
X218535Y531541D02*
D03*
X292636Y495578D02*
D03*
X264495Y511921D02*
D03*
X263566Y348566D02*
D03*
X252726Y290644D02*
D03*
X243846Y292111D02*
D03*
X273033Y305043D02*
D03*
X252265Y339092D02*
D03*
X265240Y480751D02*
D03*
X277683Y22387D02*
D03*
D18*
X390089Y660060D02*
X390191Y657577D01*
X390499Y655111D01*
X391009Y652679D01*
X391718Y650297D01*
X392621Y647982D01*
X393713Y645749D01*
X394985Y643614D01*
X396429Y641592D01*
X398035Y639695D01*
X399793Y637938D01*
X401689Y636332D01*
X403712Y634888D01*
X405846Y633616D01*
X408079Y632524D01*
X410394Y631621D01*
X412776Y630912D01*
X415209Y630402D01*
X417675Y630094D01*
X420158Y629991D01*
X390089Y739965D02*
X389986Y742447D01*
X389679Y744912D01*
X389169Y747344D01*
X388460Y749725D01*
X387557Y752039D01*
X386466Y754271D01*
X385194Y756405D01*
X383751Y758427D01*
X382145Y760323D01*
X380388Y762080D01*
X378493Y763685D01*
X376471Y765129D01*
X374337Y766401D01*
X372105Y767492D01*
X369790Y768395D01*
X367409Y769104D01*
X364978Y769613D01*
X362513Y769921D01*
X360030Y770023D01*
X439985Y-0D02*
X442533Y54D01*
X445075Y216D01*
X447609Y486D01*
X450129Y863D01*
X452630Y1347D01*
X455109Y1936D01*
X457560Y2630D01*
X459980Y3428D01*
X462364Y4328D01*
X464707Y5328D01*
X467006Y6426D01*
X469256Y7621D01*
X471454Y8911D01*
X473594Y10292D01*
X475674Y11763D01*
X477690Y13322D01*
X479638Y14964D01*
X481515Y16688D01*
X483316Y18489D01*
X485040Y20366D01*
X486682Y22313D01*
X488240Y24329D01*
X489711Y26409D01*
X491093Y28550D01*
X492382Y30747D01*
X493577Y32998D01*
X494676Y35296D01*
X495676Y37640D01*
X496575Y40024D01*
X497373Y42443D01*
X498067Y44895D01*
X498657Y47373D01*
X499141Y49875D01*
X499518Y52395D01*
X499788Y54928D01*
X499950Y57471D01*
X500004Y60018D01*
X500004Y599990D02*
X499901Y602468D01*
X499594Y604928D01*
X499086Y607355D01*
X498378Y609732D01*
X497477Y612042D01*
X496387Y614270D01*
X495118Y616400D01*
X493677Y618418D01*
X492075Y620310D01*
X490321Y622063D01*
X488429Y623666D01*
X486411Y625107D01*
X484280Y626376D01*
X482052Y627465D01*
X479742Y628366D01*
X477366Y629074D01*
X474939Y629583D01*
X472478Y629889D01*
X470000Y629991D01*
X140077Y770023D02*
X137592Y769921D01*
X135125Y769613D01*
X132691Y769103D01*
X130307Y768393D01*
X127991Y767489D01*
X125756Y766397D01*
X123620Y765124D01*
X121596Y763679D01*
X119698Y762072D01*
X117940Y760313D01*
X116333Y758415D01*
X114888Y756391D01*
X113615Y754255D01*
X112522Y752021D01*
X111618Y749704D01*
X110909Y747321D01*
X110398Y744887D01*
X110091Y742419D01*
X109988Y739934D01*
X79970Y629991D02*
X82449Y630094D01*
X84911Y630401D01*
X87339Y630910D01*
X89717Y631618D01*
X92028Y632520D01*
X94257Y633610D01*
X96389Y634879D01*
X98408Y636321D01*
X100301Y637924D01*
X102055Y639679D01*
X103659Y641572D01*
X105100Y643591D01*
X106370Y645723D01*
X107460Y647951D01*
X108362Y650263D01*
X109070Y652640D01*
X109579Y655069D01*
X109886Y657531D01*
X109988Y660009D01*
X0Y59992D02*
X54Y57446D01*
X216Y54904D01*
X486Y52372D01*
X863Y49853D01*
X1347Y47353D01*
X1936Y44875D01*
X2630Y42425D01*
X3427Y40006D01*
X4326Y37624D01*
X5326Y35281D01*
X6424Y32983D01*
X7618Y30734D01*
X8907Y28538D01*
X10288Y26398D01*
X11759Y24319D01*
X13316Y22304D01*
X14958Y20357D01*
X16681Y18481D01*
X18481Y16680D01*
X20357Y14957D01*
X22304Y13316D01*
X24319Y11758D01*
X26398Y10288D01*
X28538Y8907D01*
X30735Y7618D01*
X32984Y6423D01*
X35282Y5325D01*
X37624Y4326D01*
X40007Y3427D01*
X42425Y2629D01*
X44876Y1936D01*
X47353Y1346D01*
X49854Y863D01*
X52372Y486D01*
X54905Y216D01*
X57446Y54D01*
X59992Y-0D01*
X30084Y629991D02*
X27599Y629889D01*
X25132Y629581D01*
X22699Y629071D01*
X20316Y628361D01*
X17999Y627458D01*
X15766Y626366D01*
X13630Y625093D01*
X11606Y623648D01*
X9709Y622041D01*
X7951Y620283D01*
X6344Y618386D01*
X4899Y616362D01*
X3626Y614226D01*
X2534Y611992D01*
X1630Y609676D01*
X921Y607293D01*
X410Y604859D01*
X103Y602392D01*
X0Y599908D01*
X390089Y660061D02*
Y739965D01*
X140077Y770023D02*
X360030D01*
X500004Y60019D02*
Y599988D01*
X420158Y629991D02*
X470000D01*
X109988Y660009D02*
Y739934D01*
X30084Y629991D02*
X79970D01*
X59993Y-0D02*
X439985D01*
X0Y59992D02*
Y599908D01*
D74*
X363025Y255223D02*
D03*
Y280623D02*
D03*
Y306023D02*
D03*
Y433023D02*
D03*
Y458423D02*
D03*
X414158Y36245D02*
D03*
D75*
X364175Y576247D02*
D03*
D77*
X408118Y441337D02*
D03*
X460197Y386818D02*
D03*
X406998Y332578D02*
D03*
D78*
X398198Y161987D02*
D03*
X92819Y196377D02*
D03*
Y171377D02*
D03*
M02*
