G04*
G04 #@! TF.GenerationSoftware,Altium Limited,Altium Designer,21.9.2 (33)*
G04*
G04 Layer_Color=32768*
%FSLAX44Y44*%
%MOMM*%
G71*
G04*
G04 #@! TF.SameCoordinates,2CFDF89B-9312-4636-8282-1E88586E834E*
G04*
G04*
G04 #@! TF.FilePolarity,Positive*
G04*
G01*
G75*
%ADD14C,0.1000*%
%ADD18C,0.2032*%
%ADD88C,0.0500*%
D14*
X202780Y321089D02*
X212780D01*
X207780Y316089D02*
Y326089D01*
X220036Y649805D02*
Y693555D01*
X156036Y649805D02*
X220036D01*
X156036D02*
Y693555D01*
X220036D01*
X276283Y430521D02*
X286283D01*
X281283Y425521D02*
Y435521D01*
X318353Y412637D02*
Y422137D01*
X313603Y417387D02*
X323103D01*
X336974Y424772D02*
X346474D01*
X341724Y420022D02*
Y429522D01*
X334689Y581655D02*
X344189D01*
X339440Y576905D02*
Y586405D01*
X278309Y539679D02*
Y549179D01*
X273559Y544429D02*
X283059D01*
X221109Y539589D02*
Y549089D01*
X216359Y544339D02*
X225859D01*
X264646Y522083D02*
Y531583D01*
X259897Y526833D02*
X269396D01*
X236503Y522083D02*
Y531583D01*
X231753Y526833D02*
X241253D01*
X210996Y552947D02*
X293496D01*
X210996D02*
Y640947D01*
X293496D01*
Y552947D02*
Y640947D01*
X399147Y82447D02*
Y92447D01*
X394147Y87447D02*
X404147D01*
X260354Y494115D02*
X269854D01*
X265104Y489365D02*
Y498866D01*
X287524Y477690D02*
X297024D01*
X292274Y472940D02*
Y482440D01*
X398713Y535691D02*
Y545691D01*
X393713Y540691D02*
X403713D01*
X227254Y353356D02*
Y363356D01*
X222254Y358356D02*
X232254D01*
X247253Y353509D02*
Y363509D01*
X242253Y358509D02*
X252253D01*
X428007Y103138D02*
X428007Y93138D01*
X423007Y98138D02*
X433007D01*
X240503Y72302D02*
X250003D01*
X245253Y67552D02*
Y77052D01*
X260503Y72302D02*
X270003D01*
X265253Y67552D02*
Y77052D01*
D18*
X390089Y660060D02*
X390191Y657577D01*
X390499Y655111D01*
X391009Y652679D01*
X391718Y650297D01*
X392621Y647982D01*
X393713Y645749D01*
X394985Y643614D01*
X396429Y641592D01*
X398035Y639695D01*
X399793Y637938D01*
X401689Y636332D01*
X403712Y634888D01*
X405846Y633616D01*
X408079Y632524D01*
X410394Y631621D01*
X412776Y630912D01*
X415209Y630402D01*
X417675Y630094D01*
X420158Y629991D01*
X390089Y739965D02*
X389986Y742447D01*
X389679Y744912D01*
X389169Y747344D01*
X388460Y749725D01*
X387557Y752039D01*
X386466Y754271D01*
X385194Y756405D01*
X383751Y758427D01*
X382145Y760323D01*
X380388Y762080D01*
X378493Y763685D01*
X376471Y765129D01*
X374337Y766401D01*
X372105Y767492D01*
X369790Y768395D01*
X367409Y769104D01*
X364978Y769613D01*
X362513Y769921D01*
X360030Y770023D01*
X439985Y-0D02*
X442533Y54D01*
X445075Y216D01*
X447609Y486D01*
X450129Y863D01*
X452630Y1347D01*
X455109Y1936D01*
X457560Y2630D01*
X459980Y3428D01*
X462364Y4328D01*
X464707Y5328D01*
X467006Y6426D01*
X469256Y7621D01*
X471454Y8911D01*
X473594Y10292D01*
X475674Y11763D01*
X477690Y13322D01*
X479638Y14964D01*
X481515Y16688D01*
X483316Y18489D01*
X485040Y20366D01*
X486682Y22313D01*
X488240Y24329D01*
X489711Y26409D01*
X491093Y28550D01*
X492382Y30747D01*
X493577Y32998D01*
X494676Y35296D01*
X495676Y37640D01*
X496575Y40024D01*
X497373Y42443D01*
X498067Y44895D01*
X498657Y47373D01*
X499141Y49875D01*
X499518Y52395D01*
X499788Y54928D01*
X499950Y57471D01*
X500004Y60018D01*
X500004Y599990D02*
X499901Y602468D01*
X499594Y604928D01*
X499086Y607355D01*
X498378Y609732D01*
X497477Y612042D01*
X496387Y614270D01*
X495118Y616400D01*
X493677Y618418D01*
X492075Y620310D01*
X490321Y622063D01*
X488429Y623666D01*
X486411Y625107D01*
X484280Y626376D01*
X482052Y627465D01*
X479742Y628366D01*
X477366Y629074D01*
X474939Y629583D01*
X472478Y629889D01*
X470000Y629991D01*
X140077Y770023D02*
X137592Y769921D01*
X135125Y769613D01*
X132691Y769103D01*
X130307Y768393D01*
X127991Y767489D01*
X125756Y766397D01*
X123620Y765124D01*
X121596Y763679D01*
X119698Y762072D01*
X117940Y760313D01*
X116333Y758415D01*
X114888Y756391D01*
X113615Y754255D01*
X112522Y752021D01*
X111618Y749704D01*
X110909Y747321D01*
X110398Y744887D01*
X110091Y742419D01*
X109988Y739934D01*
X79970Y629991D02*
X82449Y630094D01*
X84911Y630401D01*
X87339Y630910D01*
X89717Y631618D01*
X92028Y632520D01*
X94257Y633610D01*
X96389Y634879D01*
X98408Y636321D01*
X100301Y637924D01*
X102055Y639679D01*
X103659Y641572D01*
X105100Y643591D01*
X106370Y645723D01*
X107460Y647951D01*
X108362Y650263D01*
X109070Y652640D01*
X109579Y655069D01*
X109886Y657531D01*
X109988Y660009D01*
X0Y59992D02*
X54Y57446D01*
X216Y54904D01*
X486Y52372D01*
X863Y49853D01*
X1347Y47353D01*
X1936Y44875D01*
X2630Y42425D01*
X3427Y40006D01*
X4326Y37624D01*
X5326Y35281D01*
X6424Y32983D01*
X7618Y30734D01*
X8907Y28538D01*
X10288Y26398D01*
X11759Y24319D01*
X13316Y22304D01*
X14958Y20357D01*
X16681Y18481D01*
X18481Y16680D01*
X20357Y14957D01*
X22304Y13316D01*
X24319Y11758D01*
X26398Y10288D01*
X28538Y8907D01*
X30735Y7618D01*
X32984Y6423D01*
X35282Y5325D01*
X37624Y4326D01*
X40007Y3427D01*
X42425Y2629D01*
X44876Y1936D01*
X47353Y1346D01*
X49854Y863D01*
X52372Y486D01*
X54905Y216D01*
X57446Y54D01*
X59992Y-0D01*
X30084Y629991D02*
X27599Y629889D01*
X25132Y629581D01*
X22699Y629071D01*
X20316Y628361D01*
X17999Y627458D01*
X15766Y626366D01*
X13630Y625093D01*
X11606Y623648D01*
X9709Y622041D01*
X7951Y620283D01*
X6344Y618386D01*
X4899Y616362D01*
X3626Y614226D01*
X2534Y611992D01*
X1630Y609676D01*
X921Y607293D01*
X410Y604859D01*
X103Y602392D01*
X0Y599908D01*
X390089Y660061D02*
Y739965D01*
X140077Y770023D02*
X360030D01*
X500004Y60019D02*
Y599988D01*
X420158Y629991D02*
X470000D01*
X109988Y660009D02*
Y739934D01*
X30084Y629991D02*
X79970D01*
X59993Y-0D02*
X439985D01*
X0Y59992D02*
Y599908D01*
D88*
X228750Y336250D02*
X271250D01*
Y293750D02*
Y336250D01*
X228750Y293750D02*
X271250D01*
X228750D02*
Y336250D01*
X190780Y311589D02*
Y330589D01*
X224780Y311589D02*
Y330589D01*
X190780D02*
X224780D01*
X190780Y311589D02*
X224780D01*
X264283Y440021D02*
X298283D01*
Y421021D02*
Y440021D01*
X264283Y421021D02*
Y440021D01*
Y421021D02*
X298283D01*
X304853Y409887D02*
X331853D01*
X304853Y424887D02*
X331853D01*
Y409887D02*
Y424887D01*
X304853Y409887D02*
Y424887D01*
X349224Y411272D02*
Y438272D01*
X334224Y411272D02*
Y438272D01*
X349224D01*
X334224Y411272D02*
X349224D01*
X343868Y626370D02*
Y703370D01*
X304868Y626370D02*
X343868D01*
X304868D02*
Y703370D01*
X343868D01*
X331940Y568155D02*
Y595155D01*
X346940Y568155D02*
Y595155D01*
X331940Y568155D02*
X346940D01*
X331940Y595155D02*
X346940D01*
X264809Y551929D02*
X291809D01*
X264809Y536929D02*
X291809D01*
X264809D02*
Y551929D01*
X291809Y536929D02*
Y551929D01*
X207609Y536839D02*
X234609D01*
X207609Y551839D02*
X234609D01*
Y536839D02*
Y551839D01*
X207609Y536839D02*
Y551839D01*
X251147Y534333D02*
X278146D01*
X251147Y519333D02*
X278146D01*
X251147D02*
Y534333D01*
X278146Y519333D02*
Y534333D01*
X223003Y519333D02*
X250003D01*
X223003Y534333D02*
X250003D01*
Y519333D02*
Y534333D01*
X223003Y519333D02*
Y534333D01*
X313924Y194860D02*
Y232360D01*
X348924D01*
Y194860D02*
Y232360D01*
X313924Y194860D02*
X348924D01*
X382147Y77947D02*
X416147D01*
X382147Y96947D02*
X416147D01*
Y77947D02*
Y96947D01*
X382147Y77947D02*
Y96947D01*
X262839Y311519D02*
X341839D01*
X262839D02*
Y405519D01*
X341839D01*
Y311519D02*
Y405519D01*
X257604Y480616D02*
Y507615D01*
X272604Y480615D02*
Y507615D01*
X257604Y480616D02*
X272604Y480615D01*
X257604Y507615D02*
X272604Y507615D01*
X284774Y464190D02*
Y491190D01*
X299774Y464190D02*
Y491190D01*
X284774Y464190D02*
X299774Y464190D01*
X284774Y491190D02*
X299774Y491190D01*
X389213Y523691D02*
X408213D01*
X389213Y557691D02*
X408213D01*
X389213Y523691D02*
Y557691D01*
X408213Y523691D02*
Y557691D01*
X217754Y375356D02*
X236754D01*
X217754Y341356D02*
X236754D01*
Y375356D01*
X217754Y341356D02*
Y375356D01*
X237753Y375509D02*
X256753D01*
X237753Y341509D02*
X256753D01*
Y375509D01*
X237753Y341509D02*
Y375509D01*
X418507Y81138D02*
X437507D01*
X418507Y115138D02*
X437507D01*
X418507Y81138D02*
Y115138D01*
X437507D02*
X437507Y81138D01*
X152527Y138222D02*
X224027D01*
Y104022D02*
Y138222D01*
X152527Y104022D02*
X224027D01*
X152527D02*
Y138222D01*
X233775Y156434D02*
Y227934D01*
X267975D01*
Y156434D02*
Y227934D01*
X233775Y156434D02*
X267975D01*
X228104Y105514D02*
Y137914D01*
X286404D01*
Y105514D02*
Y137914D01*
X228104Y105514D02*
X286404D01*
X164519Y289132D02*
X239018D01*
Y234332D02*
Y289132D01*
X164519Y234332D02*
X239018D01*
X164519D02*
Y289132D01*
X231590Y137815D02*
Y231815D01*
X152590Y137815D02*
X231590D01*
X152590D02*
Y231815D01*
X231590D01*
X237753Y58802D02*
Y85802D01*
X252753Y58802D02*
Y85802D01*
X237753Y58802D02*
X252753D01*
X237753Y85802D02*
X252753D01*
X151145Y327845D02*
X186145D01*
X151145Y290345D02*
Y327845D01*
Y290345D02*
X186145D01*
Y327845D01*
X313269Y120249D02*
Y191749D01*
X347469D01*
Y120249D02*
Y191749D01*
X313269Y120249D02*
X347469D01*
X319041Y316153D02*
Y387653D01*
X284841Y316153D02*
X319041D01*
X284841D02*
Y387653D01*
X319041D01*
X265051Y235243D02*
X339551D01*
X265051D02*
Y290043D01*
X339551D01*
Y235243D02*
Y290043D01*
X277694Y162385D02*
X310094D01*
X277694D02*
Y220685D01*
X310094D01*
Y162385D02*
Y220685D01*
X257753Y58802D02*
Y85802D01*
X272753Y58802D02*
Y85802D01*
X257753Y58802D02*
X272753D01*
X257753Y85802D02*
X272753D01*
M02*
