M48
;Layer_Color=9474304
;FILE_FORMAT=4:4
METRIC,TZ
;TYPE=PLATED
T1F00S00C0.2000
T2F00S00C0.4000
T3F00S00C0.6000
T4F00S00C0.9000
T5F00S00C1.0000
T6F00S00C1.0500
T7F00S00C1.1500
T8F00S00C3.5000
%
T01
X277683Y22387
X255791Y91720
X206450Y183876
X348262Y191717
X454522Y75758
X341849Y440846
X339724Y566945
X410083Y531838
X292636Y495578
X292301Y459389
X291596Y416451
X272246Y419606
X252938Y437248
X240609Y437005
X265240Y480751
X264495Y511921
X246714Y517529
X218535Y531541
X280783Y387694
X263566Y348566
X261265Y339024
X252265Y339092
X243265Y339017
X234351Y336451
X212320Y308712
X179891Y297985
X159117Y306746
X243846Y292111
X252726Y290644
X257926Y281611
X244829
Y268380
X245096Y255684
X258193Y255817
X257659Y268647
X258193Y241918
X244718Y242195
X265458Y299177
X273033Y305043
X252409Y628206
X206372Y654220
X162331Y668090
X175036Y686748
X222713Y733358
T02
X271189Y170354
X324484Y107214
X330876Y328287
X329400Y373036
X319781Y555761
T03
X406998Y332578
Y357978
Y383378
X460197Y386818
Y412217
Y437617
X408118Y441337
Y466737
Y492137
T04
X167746Y348920
X193146
T05
X92819Y146377
Y171377
Y196377
X407313Y177798
Y152798
Y127798
Y102798
X408378Y228738
Y253738
Y278738
X364175Y576247
Y601647
X134175
Y576247
X80400Y529134
Y504134
Y479134
Y454134
Y429134
Y404134
X92819Y221377
X134175Y627048
Y652448
Y677848
Y703248
Y728648
Y754047
X364175
Y728648
Y703248
Y677848
Y652448
Y627048
T06
X134425Y52023
Y77423
Y102823
Y128223
Y153623
Y179023
Y204423
X363025
Y179023
Y153623
Y128223
Y102823
Y77423
Y52023
X392592Y43041
X417421Y24962
X363025Y229823
Y255223
Y280623
Y306023
Y331423
Y356823
Y382223
Y407623
Y433023
Y458423
Y483823
Y509223
Y534623
X399544Y576305
X134425Y534623
Y509223
Y483823
Y458423
Y433023
Y407623
Y382223
Y356823
Y331423
Y306023
Y280623
Y255223
Y229823
X101414Y339476
X101831Y365561
T07
X244554Y121714
X269954
X293894Y178835
Y204235
T08
X40000Y40000
X460000
Y590000
X40000
M30
