G04*
G04 #@! TF.GenerationSoftware,Altium Limited,Altium Designer,22.4.2 (48)*
G04*
G04 Layer_Physical_Order=1*
G04 Layer_Color=255*
%FSLAX44Y44*%
%MOMM*%
G71*
G04*
G04 #@! TF.SameCoordinates,AE55E6FE-B37C-48CA-A5CC-AE0976963D19*
G04*
G04*
G04 #@! TF.FilePolarity,Positive*
G04*
G01*
G75*
%ADD11C,0.5000*%
%ADD12C,0.2000*%
%ADD13C,0.3000*%
%ADD14C,0.4000*%
%ADD19C,0.2032*%
%ADD20R,1.0000X1.4000*%
%ADD21R,3.0000X5.4000*%
%ADD22R,1.4000X1.0000*%
%ADD23R,0.7500X0.2000*%
%ADD24R,0.2000X0.7500*%
%ADD25R,1.5900X1.7500*%
%ADD26R,0.8000X0.8000*%
%ADD27R,0.8000X0.9500*%
%ADD28R,0.9500X0.8000*%
%ADD29R,3.4000X2.4000*%
%ADD30R,0.9000X0.7000*%
%ADD31R,0.7000X3.3000*%
%ADD32R,1.3000X3.3000*%
%ADD33R,0.7600X1.2700*%
%ADD34R,2.3500X1.5500*%
%ADD35R,1.1000X1.2500*%
%ADD36R,0.6000X1.0500*%
%ADD56C,1.6000*%
%ADD64C,0.6000*%
%ADD65C,3.5000*%
%ADD66C,1.5000*%
%ADD67C,1.8000*%
%ADD68C,2.0000*%
%ADD69C,1.2000*%
%ADD70R,1.5000X1.5000*%
%ADD71R,1.7250X1.7250*%
%ADD72C,1.7250*%
G36*
X299215Y170659D02*
X298421Y170200D01*
X296551Y168331D01*
X295229Y166042D01*
X294545Y163488D01*
Y160845D01*
X295229Y158291D01*
X296551Y156002D01*
X298421Y154132D01*
X299215Y153674D01*
Y147105D01*
X299215Y146114D01*
X298458Y144282D01*
X297060Y142877D01*
X295422Y142192D01*
X294239Y142108D01*
X294239Y142108D01*
X241642Y141877D01*
X240646Y141873D01*
X238803Y142629D01*
X237391Y144035D01*
X236626Y145875D01*
X236626Y146871D01*
X236626Y146871D01*
Y181445D01*
X299215D01*
X299215Y170659D01*
D02*
G37*
%LPC*%
G36*
X280907Y172206D02*
X278263D01*
X275710Y171522D01*
X273421Y170200D01*
X271551Y168331D01*
X270229Y166042D01*
X269545Y163488D01*
Y160845D01*
X270229Y158291D01*
X271551Y156002D01*
X273421Y154132D01*
X275710Y152811D01*
X278263Y152126D01*
X280907D01*
X283461Y152811D01*
X285750Y154132D01*
X287619Y156002D01*
X288941Y158291D01*
X289625Y160845D01*
Y163488D01*
X288941Y166042D01*
X287619Y168331D01*
X285750Y170200D01*
X283461Y171522D01*
X280907Y172206D01*
D02*
G37*
G36*
X255907D02*
X253263D01*
X250710Y171522D01*
X248421Y170200D01*
X246551Y168331D01*
X245229Y166042D01*
X244545Y163488D01*
Y160845D01*
X245229Y158291D01*
X246551Y156002D01*
X248421Y154132D01*
X250710Y152811D01*
X253263Y152126D01*
X255907D01*
X258461Y152811D01*
X260750Y154132D01*
X262619Y156002D01*
X263941Y158291D01*
X264625Y160845D01*
Y163488D01*
X263941Y166042D01*
X262619Y168331D01*
X260750Y170200D01*
X258461Y171522D01*
X255907Y172206D01*
D02*
G37*
%LPD*%
D11*
X234920Y638504D02*
X250928D01*
X517043Y185809D02*
X528686Y197451D01*
X493617Y351442D02*
X528686Y316373D01*
Y197451D02*
Y316373D01*
X419365Y479616D02*
Y510941D01*
X401968Y462219D02*
X419365Y479616D01*
X353689Y462219D02*
X401968D01*
X343926Y471982D02*
X353689Y462219D01*
X343926Y471982D02*
Y495006D01*
X336398Y502535D02*
Y513535D01*
Y502535D02*
X343926Y495006D01*
X139101Y394329D02*
Y408685D01*
X177663Y355768D02*
X233480D01*
X139101Y394329D02*
X177663Y355768D01*
X137601Y410185D02*
X139101Y408685D01*
X234844Y354404D02*
X261641D01*
X233480Y355768D02*
X234844Y354404D01*
X246706Y332714D02*
X286711D01*
X244674Y330682D02*
X246706Y332714D01*
X286711D02*
X311858Y307567D01*
X189219Y502633D02*
Y546180D01*
X167836Y481251D02*
X189219Y502633D01*
X150172Y481251D02*
X167836D01*
X148751Y479829D02*
X150172Y481251D01*
X119398Y478408D02*
X120820Y479829D01*
X148751D01*
X94627Y479153D02*
X118654D01*
X93882Y479897D02*
X94627Y479153D01*
X118654D02*
X119398Y478408D01*
X480871Y443945D02*
X481882Y442934D01*
X480871Y443945D02*
Y455258D01*
X466609Y469520D02*
X480871Y455258D01*
X481882Y440824D02*
Y442934D01*
X452039Y469520D02*
X466609D01*
X489225Y185809D02*
X517043D01*
X465056Y161640D02*
X489225Y185809D01*
X480027Y216189D02*
X481882D01*
X333155Y371768D02*
Y375769D01*
X323905Y381018D02*
X327905D01*
X333155Y375769D01*
Y371768D02*
X361805Y343119D01*
Y290790D02*
Y343119D01*
Y290790D02*
X423460Y229134D01*
X467082D02*
X480027Y216189D01*
X423460Y229134D02*
X467082D01*
X481882Y214334D02*
Y216189D01*
X438902Y243418D02*
Y261523D01*
X416858Y283567D02*
X438902Y261523D01*
X416858Y283567D02*
Y295567D01*
X311858D02*
Y307567D01*
X416858Y295567D02*
X485566D01*
X490640Y300642D01*
X493617D01*
X367827Y413869D02*
X394069D01*
X401470Y406467D01*
X404785D01*
X366954Y381067D02*
X404785D01*
X366905Y381018D02*
X366954Y381067D01*
X493617Y378012D02*
Y390270D01*
Y351442D02*
Y378012D01*
X404785Y406467D02*
X404838D01*
X433293Y378012D01*
X493617D01*
X488706Y420307D02*
Y434000D01*
X481882Y440824D02*
X488706Y434000D01*
X471049Y410744D02*
X473549Y413244D01*
X475549D01*
X478112Y415807D01*
X486206D01*
X488706Y418307D01*
X471049Y408744D02*
Y410744D01*
X488706Y418307D02*
Y420307D01*
X481643Y404244D02*
X483839Y402048D01*
X473549Y404244D02*
X481643D01*
X471049Y406744D02*
X473549Y404244D01*
X471049Y406744D02*
Y408744D01*
X488339Y397548D02*
Y399548D01*
X485839Y402048D02*
X488339Y399548D01*
X483839Y402048D02*
X485839D01*
X488339Y395548D02*
X493617Y390270D01*
X488339Y395548D02*
Y397548D01*
X355417Y493427D02*
Y507015D01*
Y493427D02*
X355437Y493408D01*
X355398Y507035D02*
X355417Y507015D01*
X345365Y545873D02*
X355398Y535840D01*
X340365Y545873D02*
X345365D01*
X355398Y520035D02*
Y535840D01*
X150172Y557451D02*
X196931D01*
X200719Y553662D01*
Y547680D02*
X202219Y546180D01*
X200719Y547680D02*
Y553662D01*
X151392Y410475D02*
X151419Y410502D01*
X151101Y410185D02*
X151392Y410475D01*
X167404Y410502D02*
X167722Y410820D01*
X151419Y410502D02*
X167404D01*
X151392Y410475D02*
Y442644D01*
X151682Y442934D01*
X298719Y14787D02*
X332219Y48288D01*
X203470Y14787D02*
X298719D01*
X127468Y33753D02*
X146434Y14787D01*
X183470D01*
X127468Y33753D02*
Y80772D01*
X136925Y90229D01*
X153084D01*
X182467D02*
X187202Y94964D01*
X153084Y90229D02*
X182467D01*
X187202Y94964D02*
X189908D01*
D12*
X304784Y236510D02*
X324079Y255805D01*
X292714Y236510D02*
X304784D01*
X246713Y297918D02*
X261207D01*
X290250Y277500D02*
X292704Y279954D01*
Y288193D01*
X280257Y289250D02*
X291647D01*
X292704Y288193D01*
X278500Y282500D02*
Y287493D01*
X280257Y289250D01*
X290811Y312211D02*
X292704Y310319D01*
X281542Y316211D02*
X285542Y312211D01*
X290811D01*
X292704Y288193D02*
Y310319D01*
X287500Y277500D02*
X290250D01*
X331821Y478696D02*
Y490109D01*
Y467283D02*
Y478696D01*
X327440D02*
X331821D01*
X330943Y490987D02*
X331821Y490109D01*
X205320Y485699D02*
Y496255D01*
X55489Y382588D02*
X80967D01*
X270511Y500850D02*
X284493Y486868D01*
Y479250D02*
Y486868D01*
Y479250D02*
X287293Y476450D01*
X268117Y490522D02*
X271793Y486846D01*
Y479250D02*
Y486846D01*
Y479250D02*
X274593Y476450D01*
X100882Y402503D02*
Y442934D01*
X80967Y382588D02*
X100882Y402503D01*
X76709Y407717D02*
Y441707D01*
Y407717D02*
X77091Y407335D01*
X75482Y442934D02*
X76709Y441707D01*
X50218Y407553D02*
Y442798D01*
Y407553D02*
X50354Y407417D01*
X50082Y442934D02*
X50218Y442798D01*
X259620Y240669D02*
X259662D01*
X266500Y247507D01*
X355437Y493408D02*
X355620Y493591D01*
X366192D01*
X194063Y478023D02*
X211991D01*
X189406D02*
X194063D01*
Y499317D02*
X201884Y507138D01*
X194063Y478023D02*
Y499317D01*
X201884Y507138D02*
X233755D01*
X261893Y479000D01*
Y476450D02*
Y479000D01*
X249193Y476450D02*
X251993Y473650D01*
Y444223D02*
Y473650D01*
Y444223D02*
X253282Y442934D01*
X196953Y467409D02*
X204693D01*
X194870Y469492D02*
X196953Y467409D01*
X194329Y469492D02*
X194870D01*
X126282Y442934D02*
X145562Y462214D01*
X173596D01*
X189406Y478023D01*
X211991D02*
X215193Y474821D01*
Y470409D02*
Y474821D01*
Y470409D02*
X218193Y467409D01*
X287500Y257500D02*
X295966D01*
X296197Y257730D01*
X285524Y252500D02*
X289054Y248970D01*
X282500Y252500D02*
X285524D01*
X266500Y247507D02*
Y252500D01*
X270500Y288670D02*
X279542Y297711D01*
X281542D01*
X270500Y282500D02*
Y288670D01*
X281335Y297918D02*
X281542Y297711D01*
X261207Y297918D02*
X281335D01*
X224796Y289918D02*
X264075D01*
X177082Y242204D02*
X224796Y289918D01*
X230923Y282500D02*
X262500D01*
X202482Y254059D02*
X230923Y282500D01*
X202482Y214334D02*
Y254059D01*
X264075Y289918D02*
X266500Y287493D01*
Y282500D02*
Y287493D01*
X177082Y214334D02*
Y242204D01*
X274500Y236796D02*
Y252500D01*
X274214Y236510D02*
X274500Y236796D01*
X167594Y158481D02*
Y198422D01*
X151682Y214334D02*
X167594Y198422D01*
Y158481D02*
X214908Y111167D01*
Y94964D02*
Y111167D01*
X231938Y496255D02*
X249193Y479000D01*
Y476450D02*
Y479000D01*
X218820Y496255D02*
X231938D01*
X274593Y466842D02*
X281975Y459461D01*
X274593Y466842D02*
Y476450D01*
X281975Y459461D02*
X302936D01*
X310759Y467283D01*
X318321D01*
X287293Y476450D02*
Y479000D01*
X299281Y490987D02*
X317443D01*
X287293Y479000D02*
X299281Y490987D01*
D13*
X266182Y413869D02*
X324827D01*
X233480Y381168D02*
X266182Y413869D01*
X279348Y355464D02*
X280848Y356964D01*
X272528Y343468D02*
X279348Y350289D01*
X236959Y343468D02*
X272528D01*
X279348Y350289D02*
Y355464D01*
X256645Y381168D02*
X280848Y356964D01*
X233480Y381168D02*
X256645D01*
X226173Y332682D02*
X236959Y343468D01*
X226173Y330682D02*
Y332682D01*
X281335Y316418D02*
X281542Y316211D01*
X261207Y316418D02*
X281335D01*
X226173Y328682D02*
X238438Y316418D01*
X261207D01*
X226173Y328682D02*
Y330682D01*
X233799Y38237D02*
X264908Y69346D01*
X233799Y37487D02*
Y38237D01*
X264908Y69346D02*
Y94964D01*
X154970Y53364D02*
Y69843D01*
Y36885D02*
Y53364D01*
X148328D02*
X154970D01*
X153084Y71729D02*
X154970Y69843D01*
X167722Y424319D02*
X185576D01*
X457402Y243418D02*
Y256274D01*
X506839Y397548D02*
X518680D01*
X507206Y397915D02*
Y420307D01*
X506839Y397548D02*
X507206Y397915D01*
X440862Y408744D02*
X452549D01*
X433539Y469520D02*
Y481949D01*
X362895Y472450D02*
X363086Y472259D01*
X362895Y472450D02*
Y473200D01*
X356187Y479908D02*
X362895Y473200D01*
X355437Y479908D02*
X356187D01*
X250928Y638504D02*
X251246Y638187D01*
X202219Y577180D02*
X211814D01*
X261893Y507208D02*
Y517450D01*
X274593D02*
X287293D01*
X261893D02*
X274593D01*
X249193D02*
X261893D01*
X189219Y577180D02*
X202219D01*
X119398Y496908D02*
Y509050D01*
X139409Y496908D02*
X149151Y506651D01*
X150172D01*
X119398Y496908D02*
X139409D01*
X213494Y185565D02*
X306187D01*
X329585Y162166D01*
X219499Y38287D02*
X220299Y37487D01*
X203470Y38287D02*
X219499D01*
X182067Y36885D02*
X183470Y38287D01*
X168470Y36885D02*
X182067D01*
X213494Y185565D02*
Y203322D01*
X202482Y214334D02*
X213494Y203322D01*
X177082Y214334D02*
X187409Y204007D01*
Y185982D02*
Y204007D01*
X100882Y184043D02*
Y214334D01*
Y184043D02*
X122643Y162282D01*
X24682Y185243D02*
Y214334D01*
Y185243D02*
X47643Y162282D01*
X75482Y184443D02*
X97643Y162282D01*
X75482Y184443D02*
Y214334D01*
X50082Y184843D02*
X72643Y162282D01*
X50082Y184843D02*
Y214334D01*
D14*
X295868Y337928D02*
D03*
X324079Y255805D02*
D03*
X31240Y457572D02*
D03*
X17159Y463467D02*
D03*
X305579Y370904D02*
D03*
X320998Y243146D02*
D03*
X331707Y227764D02*
D03*
X330329Y237606D02*
D03*
X246713Y297918D02*
D03*
X148328Y53364D02*
D03*
X185576Y424319D02*
D03*
X294578Y422317D02*
D03*
X302439Y406446D02*
D03*
X457402Y256274D02*
D03*
X518680Y397548D02*
D03*
X440862Y408744D02*
D03*
X433539Y481949D02*
D03*
X363086Y472259D02*
D03*
X327440Y478696D02*
D03*
X234920Y638504D02*
D03*
X211814Y577180D02*
D03*
X261893Y507208D02*
D03*
X119398Y509050D02*
D03*
X205320Y485699D02*
D03*
X55489Y382588D02*
D03*
X270511Y500850D02*
D03*
X268117Y490522D02*
D03*
X77091Y407335D02*
D03*
X50354Y407417D02*
D03*
X259620Y240669D02*
D03*
X366192Y493591D02*
D03*
X194329Y469492D02*
D03*
X296197Y257730D02*
D03*
X289054Y248970D02*
D03*
D19*
X406086Y565073D02*
X406189Y562589D01*
X406496Y560122D01*
X407006Y557689D01*
X407716Y555307D01*
X408619Y552991D01*
X409711Y550757D01*
X410984Y548622D01*
X412428Y546599D01*
X414035Y544702D01*
X415793Y542944D01*
X417690Y541337D01*
X419713Y539893D01*
X421848Y538620D01*
X424082Y537528D01*
X426398Y536625D01*
X428780Y535915D01*
X431213Y535405D01*
X433680Y535098D01*
X436164Y534995D01*
X406086Y644998D02*
X405983Y647476D01*
X405676Y649936D01*
X405167Y652363D01*
X404460Y654740D01*
X403558Y657050D01*
X402469Y659278D01*
X401200Y661408D01*
X399759Y663426D01*
X398156Y665319D01*
X396403Y667072D01*
X394510Y668675D01*
X392492Y670116D01*
X390362Y671385D01*
X388134Y672474D01*
X385824Y673376D01*
X383447Y674083D01*
X381020Y674592D01*
X378560Y674899D01*
X376082Y675001D01*
X514984Y1D02*
X517463Y103D01*
X519925Y410D01*
X522353Y919D01*
X524731Y1627D01*
X527043Y2529D01*
X529271Y3619D01*
X531403Y4889D01*
X533422Y6330D01*
X535315Y7934D01*
X537070Y9688D01*
X538673Y11581D01*
X540115Y13600D01*
X541385Y15732D01*
X542474Y17961D01*
X543376Y20272D01*
X544084Y22650D01*
X544593Y25078D01*
X544900Y27540D01*
X545003Y30019D01*
X545003Y504993D02*
X544900Y507470D01*
X544593Y509931D01*
X544085Y512358D01*
X543377Y514734D01*
X542476Y517044D01*
X541386Y519272D01*
X540117Y521402D01*
X538676Y523420D01*
X537074Y525313D01*
X535320Y527066D01*
X533428Y528669D01*
X531410Y530109D01*
X529280Y531379D01*
X527052Y532468D01*
X524742Y533369D01*
X522366Y534077D01*
X519939Y534586D01*
X517478Y534892D01*
X515000Y534995D01*
X147201Y675001D02*
X144643Y674847D01*
X142123Y674385D01*
X139678Y673623D01*
X137341Y672571D01*
X135149Y671246D01*
X133132Y669666D01*
X131321Y667855D01*
X129741Y665838D01*
X128415Y663645D01*
X127364Y661309D01*
X126602Y658863D01*
X126140Y656343D01*
X125985Y653786D01*
X95967Y534995D02*
X98446Y535097D01*
X100907Y535404D01*
X103336Y535913D01*
X105714Y536621D01*
X108025Y537523D01*
X110254Y538613D01*
X112385Y539883D01*
X114404Y541325D01*
X116298Y542928D01*
X118052Y544682D01*
X119655Y546576D01*
X121097Y548595D01*
X122367Y550726D01*
X123457Y552955D01*
X124359Y555266D01*
X125066Y557644D01*
X125576Y560072D01*
X125883Y562534D01*
X125985Y565013D01*
X2Y30039D02*
X105Y27558D01*
X412Y25094D01*
X922Y22665D01*
X1630Y20285D01*
X2532Y17973D01*
X3623Y15742D01*
X4894Y13609D01*
X6336Y11589D01*
X7941Y9694D01*
X9696Y7939D01*
X11591Y6334D01*
X13611Y4892D01*
X15744Y3621D01*
X17974Y2531D01*
X20287Y1628D01*
X22666Y920D01*
X25096Y410D01*
X27560Y103D01*
X30040Y1D01*
X21261Y534995D02*
X18699Y534840D01*
X16173Y534377D01*
X13723Y533613D01*
X11382Y532560D01*
X9185Y531232D01*
X7164Y529648D01*
X5349Y527833D01*
X3765Y525812D01*
X2437Y523615D01*
X1384Y521275D01*
X620Y518824D01*
X157Y516299D01*
X2Y513736D01*
X406086Y644997D02*
X406086Y565073D01*
X147201Y675001D02*
X376082D01*
X545003Y30019D02*
Y504992D01*
X436164Y534995D02*
X515000D01*
X125985Y565013D02*
X125985Y653786D01*
X21261Y534995D02*
X95967D01*
X30040Y1D02*
X514984D01*
X2Y30039D02*
Y513736D01*
D20*
X226173Y330682D02*
D03*
X244674D02*
D03*
X507206Y420307D02*
D03*
X488706D02*
D03*
X506839Y397548D02*
D03*
X488339D02*
D03*
X452549Y408744D02*
D03*
X471049D02*
D03*
X457402Y243418D02*
D03*
X438902D02*
D03*
X433539Y469520D02*
D03*
X452039D02*
D03*
X292714Y236510D02*
D03*
X274214D02*
D03*
D21*
X416858Y295567D02*
D03*
X311858D02*
D03*
D22*
X153084Y90229D02*
D03*
Y71729D02*
D03*
X281542Y316211D02*
D03*
Y297711D02*
D03*
X119398Y496908D02*
D03*
Y478408D02*
D03*
X261207Y316418D02*
D03*
Y297918D02*
D03*
D23*
X257500Y277500D02*
D03*
Y273500D02*
D03*
Y269500D02*
D03*
Y265500D02*
D03*
Y261500D02*
D03*
Y257500D02*
D03*
X287500D02*
D03*
Y261500D02*
D03*
Y265500D02*
D03*
Y269500D02*
D03*
Y273500D02*
D03*
Y277500D02*
D03*
D24*
X262500Y252500D02*
D03*
X266500D02*
D03*
X270500D02*
D03*
X274500D02*
D03*
X278500D02*
D03*
X282500D02*
D03*
Y282500D02*
D03*
X278500D02*
D03*
X274500D02*
D03*
X270500D02*
D03*
X266500D02*
D03*
X262500D02*
D03*
D25*
X272500Y267500D02*
D03*
D26*
X202219Y577180D02*
D03*
X189219D02*
D03*
Y546180D02*
D03*
X202219D02*
D03*
D27*
X151101Y410185D02*
D03*
X137601D02*
D03*
X317443Y490987D02*
D03*
X330943D02*
D03*
X218820Y496255D02*
D03*
X205320D02*
D03*
X318321Y467283D02*
D03*
X331821D02*
D03*
X218193Y467409D02*
D03*
X204693D02*
D03*
X168470Y36885D02*
D03*
X154970D02*
D03*
X220299Y37487D02*
D03*
X233799D02*
D03*
D28*
X167722Y424319D02*
D03*
Y410820D02*
D03*
X355437Y479908D02*
D03*
Y493408D02*
D03*
D29*
X340365Y593873D02*
D03*
Y545873D02*
D03*
D30*
X355398Y520035D02*
D03*
Y507035D02*
D03*
X336398Y513535D02*
D03*
D31*
X281246Y638187D02*
D03*
X251246D02*
D03*
D32*
X266246D02*
D03*
D33*
X287293Y517450D02*
D03*
X274593D02*
D03*
X261893D02*
D03*
X249193D02*
D03*
Y476450D02*
D03*
X261893D02*
D03*
X274593D02*
D03*
X287293D02*
D03*
D34*
X323905Y381018D02*
D03*
X366905D02*
D03*
X324827Y413869D02*
D03*
X367827D02*
D03*
D35*
X183470Y14787D02*
D03*
Y38287D02*
D03*
X203470Y14787D02*
D03*
Y38287D02*
D03*
D36*
X271348Y332714D02*
D03*
X261848Y354714D02*
D03*
X280848D02*
D03*
D56*
X493617Y300642D02*
D03*
Y326042D02*
D03*
Y351442D02*
D03*
D64*
X326365Y602873D02*
Y605568D01*
X335365Y593873D02*
X340365D01*
X326365Y602873D02*
X335365Y593873D01*
X293746Y638187D02*
X326365Y605568D01*
X281246Y638187D02*
X293746D01*
D65*
X505000Y40000D02*
D03*
X40000D02*
D03*
Y495003D02*
D03*
X505000Y495000D02*
D03*
D66*
X254585Y162166D02*
D03*
X279585D02*
D03*
X304585D02*
D03*
X329585D02*
D03*
X354585D02*
D03*
X379585D02*
D03*
X189908Y94964D02*
D03*
X214908D02*
D03*
X239908D02*
D03*
X264908D02*
D03*
X22643Y162282D02*
D03*
X47643D02*
D03*
X72643D02*
D03*
X97643D02*
D03*
X122643D02*
D03*
X147643D02*
D03*
X233480Y381168D02*
D03*
X490056Y161640D02*
D03*
X465056D02*
D03*
X440056D02*
D03*
D67*
X507282Y214334D02*
D03*
X481882D02*
D03*
X456482D02*
D03*
X431082D02*
D03*
X405682D02*
D03*
X380282D02*
D03*
X354882D02*
D03*
X329482D02*
D03*
X304082D02*
D03*
X278682D02*
D03*
X253282D02*
D03*
X227882D02*
D03*
X202482D02*
D03*
X177082D02*
D03*
X151682D02*
D03*
X126282D02*
D03*
X100882D02*
D03*
X75482D02*
D03*
X50082D02*
D03*
X24682D02*
D03*
X507282Y442934D02*
D03*
X481882D02*
D03*
X456482D02*
D03*
X431082D02*
D03*
X405682D02*
D03*
X380282D02*
D03*
X354882D02*
D03*
X329482D02*
D03*
X304082D02*
D03*
X278682D02*
D03*
X253282D02*
D03*
X227882D02*
D03*
X202482D02*
D03*
X177082D02*
D03*
X151682D02*
D03*
X126282D02*
D03*
X100882D02*
D03*
X75482D02*
D03*
X50082D02*
D03*
X24682D02*
D03*
X419365Y510941D02*
D03*
X213494Y185565D02*
D03*
X187409Y185982D02*
D03*
X93882Y479897D02*
D03*
D68*
X150172Y481251D02*
D03*
Y506651D02*
D03*
Y532051D02*
D03*
Y557451D02*
D03*
Y582851D02*
D03*
Y608251D02*
D03*
Y633651D02*
D03*
Y659051D02*
D03*
X380172Y481251D02*
D03*
Y506651D02*
D03*
Y532051D02*
D03*
Y557451D02*
D03*
Y582851D02*
D03*
Y608251D02*
D03*
Y633651D02*
D03*
Y659051D02*
D03*
D69*
X483677Y100653D02*
D03*
X458277D02*
D03*
X432877D02*
D03*
X383019Y48288D02*
D03*
X357619D02*
D03*
X332219D02*
D03*
X376586Y100952D02*
D03*
X351185D02*
D03*
X325785D02*
D03*
D70*
X233480Y355768D02*
D03*
D71*
X404785Y381067D02*
D03*
D72*
Y406467D02*
D03*
M02*
