G04*
G04 #@! TF.GenerationSoftware,Altium Limited,Altium Designer,21.9.2 (33)*
G04*
G04 Layer_Color=255*
%FSLAX44Y44*%
%MOMM*%
G71*
G04*
G04 #@! TF.SameCoordinates,2CFDF89B-9312-4636-8282-1E88586E834E*
G04*
G04*
G04 #@! TF.FilePolarity,Positive*
G04*
G01*
G75*
%ADD18C,0.2032*%
%ADD22R,1.0000X1.4000*%
%ADD32R,4.3000X2.0000*%
%ADD38R,3.1000X3.1000*%
%ADD74C,1.8000*%
%ADD75C,2.0000*%
%ADD76C,3.5000*%
%ADD77C,1.2000*%
%ADD78C,1.5000*%
%ADD79R,1.5000X1.5000*%
%ADD80R,1.5000X1.5000*%
%ADD81R,1.7250X1.7250*%
%ADD82C,1.7250*%
%ADD83R,1.7250X1.7250*%
%ADD85R,0.6000X1.1000*%
D18*
X390089Y660060D02*
X390191Y657577D01*
X390499Y655111D01*
X391009Y652679D01*
X391718Y650297D01*
X392621Y647982D01*
X393713Y645749D01*
X394985Y643614D01*
X396429Y641592D01*
X398035Y639695D01*
X399793Y637938D01*
X401689Y636332D01*
X403712Y634888D01*
X405846Y633616D01*
X408079Y632524D01*
X410394Y631621D01*
X412776Y630912D01*
X415209Y630402D01*
X417675Y630094D01*
X420158Y629991D01*
X390089Y739965D02*
X389986Y742447D01*
X389679Y744912D01*
X389169Y747344D01*
X388460Y749725D01*
X387557Y752039D01*
X386466Y754271D01*
X385194Y756405D01*
X383751Y758427D01*
X382145Y760323D01*
X380388Y762080D01*
X378493Y763685D01*
X376471Y765129D01*
X374337Y766401D01*
X372105Y767492D01*
X369790Y768395D01*
X367409Y769104D01*
X364978Y769613D01*
X362513Y769921D01*
X360030Y770023D01*
X439985Y-0D02*
X442533Y54D01*
X445075Y216D01*
X447609Y486D01*
X450129Y863D01*
X452630Y1347D01*
X455109Y1936D01*
X457560Y2630D01*
X459980Y3428D01*
X462364Y4328D01*
X464707Y5328D01*
X467006Y6426D01*
X469256Y7621D01*
X471454Y8911D01*
X473594Y10292D01*
X475674Y11763D01*
X477690Y13322D01*
X479638Y14964D01*
X481515Y16688D01*
X483316Y18489D01*
X485040Y20366D01*
X486682Y22313D01*
X488240Y24329D01*
X489711Y26409D01*
X491093Y28550D01*
X492382Y30747D01*
X493577Y32998D01*
X494676Y35296D01*
X495676Y37640D01*
X496575Y40024D01*
X497373Y42443D01*
X498067Y44895D01*
X498657Y47373D01*
X499141Y49875D01*
X499518Y52395D01*
X499788Y54928D01*
X499950Y57471D01*
X500004Y60018D01*
X500004Y599990D02*
X499901Y602468D01*
X499594Y604928D01*
X499086Y607355D01*
X498378Y609732D01*
X497477Y612042D01*
X496387Y614270D01*
X495118Y616400D01*
X493677Y618418D01*
X492075Y620310D01*
X490321Y622063D01*
X488429Y623666D01*
X486411Y625107D01*
X484280Y626376D01*
X482052Y627465D01*
X479742Y628366D01*
X477366Y629074D01*
X474939Y629583D01*
X472478Y629889D01*
X470000Y629991D01*
X140077Y770023D02*
X137592Y769921D01*
X135125Y769613D01*
X132691Y769103D01*
X130307Y768393D01*
X127991Y767489D01*
X125756Y766397D01*
X123620Y765124D01*
X121596Y763679D01*
X119698Y762072D01*
X117940Y760313D01*
X116333Y758415D01*
X114888Y756391D01*
X113615Y754255D01*
X112522Y752021D01*
X111618Y749704D01*
X110909Y747321D01*
X110398Y744887D01*
X110091Y742419D01*
X109988Y739934D01*
X79970Y629991D02*
X82449Y630094D01*
X84911Y630401D01*
X87339Y630910D01*
X89717Y631618D01*
X92028Y632520D01*
X94257Y633610D01*
X96389Y634879D01*
X98408Y636321D01*
X100301Y637924D01*
X102055Y639679D01*
X103659Y641572D01*
X105100Y643591D01*
X106370Y645723D01*
X107460Y647951D01*
X108362Y650263D01*
X109070Y652640D01*
X109579Y655069D01*
X109886Y657531D01*
X109988Y660009D01*
X0Y59992D02*
X54Y57446D01*
X216Y54904D01*
X486Y52372D01*
X863Y49853D01*
X1347Y47353D01*
X1936Y44875D01*
X2630Y42425D01*
X3427Y40006D01*
X4326Y37624D01*
X5326Y35281D01*
X6424Y32983D01*
X7618Y30734D01*
X8907Y28538D01*
X10288Y26398D01*
X11759Y24319D01*
X13316Y22304D01*
X14958Y20357D01*
X16681Y18481D01*
X18481Y16680D01*
X20357Y14957D01*
X22304Y13316D01*
X24319Y11758D01*
X26398Y10288D01*
X28538Y8907D01*
X30735Y7618D01*
X32984Y6423D01*
X35282Y5325D01*
X37624Y4326D01*
X40007Y3427D01*
X42425Y2629D01*
X44876Y1936D01*
X47353Y1346D01*
X49854Y863D01*
X52372Y486D01*
X54905Y216D01*
X57446Y54D01*
X59992Y-0D01*
X30084Y629991D02*
X27599Y629889D01*
X25132Y629581D01*
X22699Y629071D01*
X20316Y628361D01*
X17999Y627458D01*
X15766Y626366D01*
X13630Y625093D01*
X11606Y623648D01*
X9709Y622041D01*
X7951Y620283D01*
X6344Y618386D01*
X4899Y616362D01*
X3626Y614226D01*
X2534Y611992D01*
X1630Y609676D01*
X921Y607293D01*
X410Y604859D01*
X103Y602392D01*
X0Y599908D01*
X390089Y660061D02*
Y739965D01*
X140077Y770023D02*
X360030D01*
X500004Y60019D02*
Y599988D01*
X420158Y629991D02*
X470000D01*
X109988Y660009D02*
Y739934D01*
X30084Y629991D02*
X79970D01*
X59993Y-0D02*
X439985D01*
X0Y59992D02*
Y599908D01*
D22*
X290533Y430521D02*
D03*
X272033D02*
D03*
D32*
X237475Y320146D02*
D03*
Y382146D02*
D03*
X301837Y233384D02*
D03*
Y295384D02*
D03*
X209650Y293661D02*
D03*
Y231660D02*
D03*
D38*
X302339Y387519D02*
D03*
Y329519D02*
D03*
D74*
X134425Y52023D02*
D03*
Y77423D02*
D03*
Y102823D02*
D03*
Y128223D02*
D03*
Y153623D02*
D03*
Y179023D02*
D03*
Y204423D02*
D03*
Y229823D02*
D03*
Y255223D02*
D03*
Y280623D02*
D03*
Y306023D02*
D03*
Y331423D02*
D03*
Y356823D02*
D03*
Y382223D02*
D03*
Y407623D02*
D03*
Y433023D02*
D03*
Y458423D02*
D03*
Y483823D02*
D03*
Y509223D02*
D03*
Y534623D02*
D03*
X363025Y52023D02*
D03*
Y77423D02*
D03*
Y102823D02*
D03*
Y128223D02*
D03*
Y153623D02*
D03*
Y179023D02*
D03*
Y204423D02*
D03*
Y229823D02*
D03*
Y255223D02*
D03*
Y280623D02*
D03*
Y306023D02*
D03*
Y331423D02*
D03*
Y356823D02*
D03*
Y382223D02*
D03*
Y407623D02*
D03*
Y433023D02*
D03*
Y458423D02*
D03*
Y483823D02*
D03*
Y509223D02*
D03*
Y534623D02*
D03*
X399544Y576305D02*
D03*
X101414Y339476D02*
D03*
X101831Y365561D02*
D03*
X394175Y64565D02*
D03*
X414158Y36245D02*
D03*
D75*
X134175Y576247D02*
D03*
Y601647D02*
D03*
Y627048D02*
D03*
Y652448D02*
D03*
Y677848D02*
D03*
Y703248D02*
D03*
Y728648D02*
D03*
Y754047D02*
D03*
X364175Y576247D02*
D03*
Y601647D02*
D03*
Y627048D02*
D03*
Y652448D02*
D03*
Y677848D02*
D03*
Y703248D02*
D03*
Y728648D02*
D03*
Y754047D02*
D03*
D76*
X460000Y590000D02*
D03*
Y40000D02*
D03*
X40000D02*
D03*
Y590000D02*
D03*
D77*
X408118Y492137D02*
D03*
Y466737D02*
D03*
Y441337D02*
D03*
X460197Y437617D02*
D03*
Y412217D02*
D03*
Y386818D02*
D03*
X406998Y383378D02*
D03*
Y357978D02*
D03*
Y332578D02*
D03*
D78*
X398198Y136586D02*
D03*
X398198Y111186D02*
D03*
Y161987D02*
D03*
X193146Y348920D02*
D03*
X80400Y404134D02*
D03*
Y429134D02*
D03*
Y454134D02*
D03*
Y479134D02*
D03*
Y504134D02*
D03*
Y529134D02*
D03*
X92819Y196377D02*
D03*
Y171377D02*
D03*
Y221377D02*
D03*
Y146377D02*
D03*
X408378Y228738D02*
D03*
Y253738D02*
D03*
Y278738D02*
D03*
D79*
X398198Y187386D02*
D03*
D80*
X167746Y348920D02*
D03*
D81*
X244554Y121714D02*
D03*
D82*
X269954D02*
D03*
X293894Y204235D02*
D03*
D83*
Y178835D02*
D03*
D85*
X252566Y449306D02*
D03*
X240066D02*
D03*
X277566D02*
D03*
X265066D02*
D03*
X240066Y471306D02*
D03*
X277566D02*
D03*
X252566D02*
D03*
X265066D02*
D03*
M02*
