G04*
G04 #@! TF.GenerationSoftware,Altium Limited,Altium Designer,22.4.2 (48)*
G04*
G04 Layer_Color=65535*
%FSLAX44Y44*%
%MOMM*%
G71*
G04*
G04 #@! TF.SameCoordinates,AE55E6FE-B37C-48CA-A5CC-AE0976963D19*
G04*
G04*
G04 #@! TF.FilePolarity,Positive*
G04*
G01*
G75*
%ADD10C,0.2540*%
%ADD11C,0.5000*%
%ADD12C,0.2000*%
%ADD13C,0.3000*%
%ADD14C,0.4000*%
%ADD15C,0.1000*%
%ADD16C,0.1530*%
%ADD17C,0.1300*%
%ADD18C,0.1500*%
%ADD19C,0.2032*%
G36*
X165671Y383295D02*
Y383065D01*
Y382835D01*
Y382605D01*
Y382375D01*
Y382145D01*
Y381915D01*
Y381685D01*
Y381455D01*
Y381226D01*
Y380996D01*
X165441D01*
Y380766D01*
Y380536D01*
Y380306D01*
Y380076D01*
Y379846D01*
X164981D01*
Y379616D01*
Y379386D01*
Y379156D01*
X164522D01*
Y378927D01*
Y378697D01*
Y378467D01*
X164292D01*
Y378237D01*
Y378007D01*
Y377777D01*
Y377547D01*
X163832D01*
Y377317D01*
X163372D01*
Y377088D01*
Y376858D01*
Y376628D01*
Y376398D01*
X163142D01*
Y376168D01*
X162912D01*
Y375938D01*
X162682D01*
Y375708D01*
X162453D01*
Y375478D01*
X162223D01*
Y375248D01*
X161993D01*
Y375018D01*
X161763D01*
Y374789D01*
X161533D01*
Y374559D01*
X161303D01*
Y374329D01*
X161073D01*
Y374099D01*
X160843D01*
Y373869D01*
X160613D01*
Y373639D01*
X160384D01*
Y373409D01*
X160154D01*
Y373179D01*
X159464D01*
Y372949D01*
X159234D01*
Y372719D01*
X159004D01*
Y372490D01*
Y372260D01*
X158544D01*
Y372030D01*
X157855D01*
Y371800D01*
Y371570D01*
X157165D01*
Y371340D01*
X156935D01*
Y371110D01*
X156705D01*
Y370880D01*
X156016D01*
Y370650D01*
Y370420D01*
X155096D01*
Y370191D01*
Y369961D01*
X154406D01*
Y369731D01*
X153717D01*
Y369501D01*
Y369271D01*
X153027D01*
Y369041D01*
X152797D01*
Y368811D01*
X152107D01*
Y368581D01*
X150958D01*
Y368352D01*
Y368122D01*
X149808D01*
Y367892D01*
Y367662D01*
X149119D01*
Y367432D01*
X147969D01*
Y367202D01*
Y366972D01*
X146820D01*
Y366742D01*
Y366512D01*
X145211D01*
Y366283D01*
X143831D01*
Y366053D01*
Y365823D01*
X142222D01*
Y365593D01*
X141072D01*
Y365823D01*
X139923D01*
Y366053D01*
Y366283D01*
X139233D01*
Y366512D01*
X138084D01*
Y366742D01*
X137854D01*
Y366972D01*
X136934D01*
Y367202D01*
X136704D01*
Y367432D01*
X136015D01*
Y367662D01*
X135095D01*
Y367892D01*
X134865D01*
Y368122D01*
X134176D01*
Y368352D01*
Y368581D01*
X133026D01*
Y368811D01*
X131876D01*
Y369041D01*
Y369271D01*
X131187D01*
Y369501D01*
Y369731D01*
X130037D01*
Y369961D01*
X129348D01*
Y370191D01*
X129118D01*
Y370420D01*
X128198D01*
Y370650D01*
X127968D01*
Y370880D01*
X127049D01*
Y371110D01*
X126359D01*
Y371340D01*
X126129D01*
Y371570D01*
X124980D01*
Y371800D01*
Y372030D01*
X124290D01*
Y372260D01*
X123141D01*
Y372490D01*
Y372719D01*
X122451D01*
Y372949D01*
X122221D01*
Y373179D01*
X121301D01*
Y373409D01*
X120152D01*
Y373639D01*
Y373869D01*
X119462D01*
Y374099D01*
X118313D01*
Y374329D01*
Y374559D01*
X117393D01*
Y374789D01*
Y375018D01*
X116244D01*
Y375248D01*
X115324D01*
Y375478D01*
X115094D01*
Y375708D01*
X114404D01*
Y375938D01*
Y376168D01*
X113255D01*
Y376398D01*
X112565D01*
Y376628D01*
Y376858D01*
X111416D01*
Y377088D01*
Y377317D01*
X110266D01*
Y377547D01*
X109577D01*
Y377777D01*
Y378007D01*
X108427D01*
Y378237D01*
X108197D01*
Y378467D01*
X107508D01*
Y378697D01*
X106588D01*
Y378927D01*
X106358D01*
Y379156D01*
X105439D01*
Y379386D01*
X105209D01*
Y379616D01*
X104519D01*
Y379846D01*
X103370D01*
Y379616D01*
Y379386D01*
Y379156D01*
X103829D01*
Y378927D01*
Y378697D01*
X104289D01*
Y378467D01*
Y378237D01*
Y378007D01*
X104519D01*
Y377777D01*
X104749D01*
Y377547D01*
X104979D01*
Y377317D01*
X105209D01*
Y377088D01*
X105439D01*
Y376858D01*
X105209D01*
Y376628D01*
Y376398D01*
X105668D01*
Y376168D01*
X105898D01*
Y375938D01*
X106128D01*
Y375708D01*
X106588D01*
Y375478D01*
Y375248D01*
X106358D01*
Y375018D01*
X106588D01*
Y374789D01*
X107048D01*
Y374559D01*
X107278D01*
Y374329D01*
Y374099D01*
X107738D01*
Y373869D01*
X107508D01*
Y373639D01*
Y373409D01*
X107968D01*
Y373179D01*
X108197D01*
Y372949D01*
X108427D01*
Y372719D01*
X108657D01*
Y372490D01*
Y372260D01*
Y372030D01*
Y371800D01*
X109117D01*
Y371570D01*
X109577D01*
Y371340D01*
Y371110D01*
X109807D01*
Y370880D01*
Y370650D01*
Y370420D01*
X110266D01*
Y370191D01*
Y369961D01*
X110726D01*
Y369731D01*
Y369501D01*
X110956D01*
Y369271D01*
Y369041D01*
Y368811D01*
X111416D01*
Y368581D01*
X111646D01*
Y368352D01*
X111876D01*
Y368122D01*
X112106D01*
Y367892D01*
Y367662D01*
Y367432D01*
Y367202D01*
X112565D01*
Y366972D01*
X113025D01*
Y366742D01*
Y366512D01*
X113255D01*
Y366283D01*
Y366053D01*
Y365823D01*
X113715D01*
Y365593D01*
Y365363D01*
X114175D01*
Y365133D01*
X114404D01*
Y364903D01*
Y364673D01*
Y364443D01*
Y364213D01*
X114864D01*
Y363983D01*
X115094D01*
Y363754D01*
X115324D01*
Y363524D01*
X115554D01*
Y363294D01*
Y363064D01*
Y362834D01*
X116014D01*
Y362604D01*
Y362374D01*
X116474D01*
Y362144D01*
X115784D01*
Y361914D01*
X115554D01*
Y361684D01*
X114634D01*
Y361455D01*
X114404D01*
Y361225D01*
X112565D01*
Y360995D01*
X110726D01*
Y360765D01*
Y360535D01*
X108427D01*
Y360305D01*
Y360075D01*
X98082D01*
Y360305D01*
Y360535D01*
X95783D01*
Y360765D01*
Y360995D01*
X94174D01*
Y361225D01*
X93254D01*
Y361455D01*
X93024D01*
Y361684D01*
X92105D01*
Y361914D01*
X91875D01*
Y362144D01*
X90955D01*
Y362374D01*
X90266D01*
Y362604D01*
X90036D01*
Y362834D01*
X89346D01*
Y363064D01*
Y363294D01*
X88656D01*
Y363524D01*
X87967D01*
Y363754D01*
X87737D01*
Y363983D01*
X87507D01*
Y364213D01*
X87277D01*
Y364443D01*
X86587D01*
Y364673D01*
X86357D01*
Y364903D01*
Y365133D01*
X85668D01*
Y365363D01*
X85208D01*
Y365593D01*
Y365823D01*
X84748D01*
Y366053D01*
Y366283D01*
X84518D01*
Y366512D01*
X83828D01*
Y366742D01*
X83599D01*
Y366972D01*
X83369D01*
Y367202D01*
X83139D01*
Y367432D01*
X82909D01*
Y367662D01*
Y367892D01*
Y368122D01*
X82449D01*
Y368352D01*
Y368581D01*
X81989D01*
Y368352D01*
X81759D01*
Y368122D01*
X81530D01*
Y367892D01*
X81300D01*
Y367662D01*
X81070D01*
Y367432D01*
Y367202D01*
Y366972D01*
X80840D01*
Y366742D01*
X80610D01*
Y366512D01*
X80150D01*
Y366283D01*
Y366053D01*
X80380D01*
Y365823D01*
X79920D01*
Y365593D01*
X79690D01*
Y365363D01*
X79460D01*
Y365133D01*
Y364903D01*
Y364673D01*
X79231D01*
Y364443D01*
X79001D01*
Y364213D01*
X78771D01*
Y363983D01*
X78541D01*
Y363754D01*
X78311D01*
Y363524D01*
X78081D01*
Y363294D01*
X77851D01*
Y363064D01*
X77621D01*
Y362834D01*
X77391D01*
Y362604D01*
X77161D01*
Y362374D01*
X76932D01*
Y362144D01*
X76702D01*
Y361914D01*
X76472D01*
Y361684D01*
X75782D01*
Y361455D01*
Y361225D01*
X75322D01*
Y360995D01*
X74633D01*
Y360765D01*
Y360535D01*
X73483D01*
Y360305D01*
Y360075D01*
X72334D01*
Y360305D01*
Y360535D01*
Y360765D01*
Y360995D01*
X71874D01*
Y361225D01*
X71644D01*
Y361455D01*
Y361684D01*
Y361914D01*
Y362144D01*
X71184D01*
Y362374D01*
Y362604D01*
Y362834D01*
X70725D01*
Y363064D01*
Y363294D01*
Y363524D01*
X70495D01*
Y363754D01*
Y363983D01*
Y364213D01*
Y364443D01*
X70035D01*
Y364673D01*
Y364903D01*
Y365133D01*
Y365363D01*
X69805D01*
Y365593D01*
X69575D01*
Y365823D01*
X69805D01*
Y366053D01*
Y366283D01*
Y366512D01*
X69345D01*
Y366742D01*
Y366972D01*
Y367202D01*
Y367432D01*
Y367662D01*
X68885D01*
Y367892D01*
Y368122D01*
Y368352D01*
Y368581D01*
Y368811D01*
Y369041D01*
Y369271D01*
X68425D01*
Y369501D01*
Y369731D01*
X68655D01*
Y369961D01*
Y370191D01*
Y370420D01*
Y370650D01*
Y370880D01*
Y371110D01*
X68196D01*
Y371340D01*
Y371570D01*
Y371800D01*
Y372030D01*
Y372260D01*
Y372490D01*
Y372719D01*
Y372949D01*
Y373179D01*
Y373409D01*
Y373639D01*
Y373869D01*
Y374099D01*
Y374329D01*
Y374559D01*
Y374789D01*
Y375018D01*
Y375248D01*
X67736D01*
Y375478D01*
Y375708D01*
Y375938D01*
X68196D01*
Y376168D01*
Y376398D01*
Y376628D01*
Y376858D01*
X67276D01*
Y377088D01*
Y377317D01*
X66586D01*
Y377547D01*
X65897D01*
Y377777D01*
X65667D01*
Y378007D01*
X64977D01*
Y378237D01*
Y378467D01*
X63828D01*
Y378697D01*
X63138D01*
Y378467D01*
X62678D01*
Y378237D01*
Y378007D01*
X62908D01*
Y377777D01*
X62678D01*
Y377547D01*
X62448D01*
Y377317D01*
Y377088D01*
Y376858D01*
X62218D01*
Y376628D01*
X61988D01*
Y376398D01*
X61529D01*
Y376168D01*
X61759D01*
Y375938D01*
Y375708D01*
X61299D01*
Y375478D01*
Y375248D01*
Y375018D01*
X61069D01*
Y374789D01*
X60839D01*
Y374559D01*
X60379D01*
Y374329D01*
Y374099D01*
X60609D01*
Y373869D01*
X60149D01*
Y373639D01*
Y373409D01*
Y373179D01*
X59689D01*
Y372949D01*
Y372719D01*
Y372490D01*
Y372260D01*
X59460D01*
Y372030D01*
Y371800D01*
Y371570D01*
X59000D01*
Y371340D01*
Y371110D01*
Y370880D01*
X58540D01*
Y370650D01*
Y370420D01*
Y370191D01*
Y369961D01*
X58310D01*
Y369731D01*
Y369501D01*
Y369271D01*
Y369041D01*
Y368811D01*
X57850D01*
Y368581D01*
Y368352D01*
Y368122D01*
X57390D01*
Y367892D01*
Y367662D01*
Y367432D01*
X57161D01*
Y367202D01*
Y366972D01*
Y366742D01*
Y366512D01*
Y366283D01*
X56701D01*
Y366053D01*
Y365823D01*
Y365593D01*
Y365363D01*
Y365133D01*
X56241D01*
Y364903D01*
Y364673D01*
Y364443D01*
Y364213D01*
Y363983D01*
X56011D01*
Y363754D01*
Y363524D01*
Y363294D01*
Y363064D01*
Y362834D01*
X55551D01*
Y362604D01*
Y362374D01*
Y362144D01*
Y361914D01*
Y361684D01*
Y361455D01*
Y361225D01*
X55092D01*
Y360995D01*
Y360765D01*
Y360535D01*
Y360305D01*
Y360075D01*
X55321D01*
Y359845D01*
X54862D01*
Y359615D01*
Y359385D01*
Y359156D01*
Y358926D01*
Y358696D01*
Y358466D01*
Y358236D01*
Y358006D01*
Y357776D01*
Y357546D01*
X54402D01*
Y357317D01*
Y357087D01*
Y356857D01*
Y356627D01*
Y356397D01*
Y356167D01*
Y355937D01*
Y355707D01*
Y355477D01*
Y355247D01*
Y355018D01*
Y354788D01*
Y354558D01*
Y354328D01*
Y354098D01*
Y353868D01*
Y353638D01*
Y353408D01*
Y353178D01*
Y352948D01*
Y352719D01*
Y352489D01*
Y352259D01*
Y352029D01*
Y351799D01*
Y351569D01*
Y351339D01*
Y351109D01*
Y350879D01*
Y350650D01*
Y350420D01*
Y350190D01*
Y349960D01*
Y349730D01*
X54862D01*
Y349500D01*
Y349270D01*
Y349040D01*
Y348810D01*
Y348581D01*
Y348351D01*
Y348121D01*
X54632D01*
Y347891D01*
X54402D01*
Y347661D01*
X54172D01*
Y347431D01*
Y347201D01*
X53252D01*
Y347431D01*
Y347661D01*
X52793D01*
Y347891D01*
Y348121D01*
X52563D01*
Y348351D01*
Y348581D01*
Y348810D01*
Y349040D01*
X52333D01*
Y349270D01*
X52103D01*
Y349500D01*
X52333D01*
Y349730D01*
Y349960D01*
Y350190D01*
Y350420D01*
Y350650D01*
Y350879D01*
Y351109D01*
Y351339D01*
Y351569D01*
Y351799D01*
Y352029D01*
Y352259D01*
Y352489D01*
Y352719D01*
Y352948D01*
Y353178D01*
Y353408D01*
Y353638D01*
Y353868D01*
Y354098D01*
Y354328D01*
Y354558D01*
Y354788D01*
Y355018D01*
Y355247D01*
Y355477D01*
Y355707D01*
Y355937D01*
Y356167D01*
Y356397D01*
Y356627D01*
Y356857D01*
Y357087D01*
Y357317D01*
X52103D01*
Y357546D01*
Y357776D01*
X52563D01*
Y358006D01*
Y358236D01*
Y358466D01*
Y358696D01*
Y358926D01*
Y359156D01*
Y359385D01*
Y359615D01*
X53022D01*
Y359845D01*
Y360075D01*
Y360305D01*
Y360535D01*
Y360765D01*
Y360995D01*
Y361225D01*
Y361455D01*
Y361684D01*
X53252D01*
Y361914D01*
Y362144D01*
Y362374D01*
Y362604D01*
Y362834D01*
X53712D01*
Y363064D01*
Y363294D01*
Y363524D01*
Y363754D01*
Y363983D01*
Y364213D01*
X54172D01*
Y364443D01*
Y364673D01*
Y364903D01*
Y365133D01*
Y365363D01*
X54402D01*
Y365593D01*
Y365823D01*
Y366053D01*
Y366283D01*
Y366512D01*
X54862D01*
Y366742D01*
Y366972D01*
Y367202D01*
X55321D01*
Y367432D01*
Y367662D01*
Y367892D01*
Y368122D01*
Y368352D01*
X55551D01*
Y368581D01*
Y368811D01*
Y369041D01*
Y369271D01*
X56011D01*
Y369501D01*
Y369731D01*
Y369961D01*
X56471D01*
Y370191D01*
Y370420D01*
X56241D01*
Y370650D01*
X56701D01*
Y370880D01*
Y371110D01*
Y371340D01*
Y371570D01*
X57161D01*
Y371800D01*
Y372030D01*
Y372260D01*
X57620D01*
Y372490D01*
Y372719D01*
X57390D01*
Y372949D01*
X57850D01*
Y373179D01*
Y373409D01*
Y373639D01*
X58310D01*
Y373869D01*
Y374099D01*
Y374329D01*
Y374559D01*
X58770D01*
Y374789D01*
Y375018D01*
X58540D01*
Y375248D01*
X59000D01*
Y375478D01*
Y375708D01*
Y375938D01*
X59230D01*
Y376168D01*
X59460D01*
Y376398D01*
X59919D01*
Y376628D01*
Y376858D01*
X59689D01*
Y377088D01*
X60149D01*
Y377317D01*
Y377547D01*
Y377777D01*
Y378007D01*
X60379D01*
Y378237D01*
X60839D01*
Y378467D01*
X61069D01*
Y378697D01*
X60839D01*
Y378927D01*
Y379156D01*
X61299D01*
Y379386D01*
X61759D01*
Y379616D01*
Y379846D01*
Y380076D01*
Y380306D01*
X61988D01*
Y380536D01*
X62448D01*
Y380766D01*
Y380996D01*
Y381226D01*
X63368D01*
Y380996D01*
X64057D01*
Y380766D01*
Y380536D01*
X65207D01*
Y380306D01*
X65897D01*
Y380076D01*
Y379846D01*
X66586D01*
Y379616D01*
X66816D01*
Y379386D01*
X67736D01*
Y379156D01*
X68885D01*
Y379386D01*
Y379616D01*
Y379846D01*
X69115D01*
Y380076D01*
X69345D01*
Y380306D01*
X69805D01*
Y380536D01*
X69575D01*
Y380766D01*
Y380996D01*
X70035D01*
Y381226D01*
Y381455D01*
X70265D01*
Y381685D01*
X70725D01*
Y381915D01*
Y382145D01*
X71414D01*
Y382375D01*
X72104D01*
Y382605D01*
X72334D01*
Y382835D01*
X73253D01*
Y383065D01*
X73483D01*
Y383295D01*
X77161D01*
Y383065D01*
X77391D01*
Y382835D01*
X78311D01*
Y382605D01*
X78541D01*
Y382375D01*
X79690D01*
Y382145D01*
X79920D01*
Y381915D01*
Y381685D01*
X80610D01*
Y381455D01*
X81070D01*
Y381226D01*
Y380996D01*
X81530D01*
Y380766D01*
Y380536D01*
X81759D01*
Y380306D01*
X82219D01*
Y380076D01*
Y379846D01*
X82449D01*
Y379616D01*
Y379386D01*
Y379156D01*
X82909D01*
Y378927D01*
Y378697D01*
X83369D01*
Y378467D01*
Y378237D01*
Y378007D01*
X83599D01*
Y377777D01*
Y377547D01*
Y377317D01*
Y377088D01*
X84288D01*
Y377317D01*
X84518D01*
Y377547D01*
X84748D01*
Y377777D01*
X84978D01*
Y378007D01*
X85208D01*
Y378237D01*
X85438D01*
Y378467D01*
X85668D01*
Y378697D01*
X85898D01*
Y378927D01*
Y379156D01*
X86357D01*
Y379386D01*
X86587D01*
Y379616D01*
X86817D01*
Y379846D01*
X87047D01*
Y380076D01*
X87277D01*
Y380306D01*
X87737D01*
Y380536D01*
X88196D01*
Y380766D01*
Y380996D01*
X88656D01*
Y381226D01*
Y381455D01*
X88886D01*
Y381685D01*
X89346D01*
Y381915D01*
Y382145D01*
X89806D01*
Y382375D01*
X90036D01*
Y382605D01*
Y382835D01*
X90495D01*
Y383065D01*
Y383295D01*
X90955D01*
Y383525D01*
X165671D01*
Y383295D01*
D02*
G37*
G36*
X115818Y355707D02*
Y355477D01*
Y355247D01*
X116277D01*
Y355018D01*
Y354788D01*
X116507D01*
Y354558D01*
X116737D01*
Y354328D01*
X116967D01*
Y354098D01*
Y353868D01*
Y353638D01*
X117427D01*
Y353408D01*
Y353178D01*
X117887D01*
Y352948D01*
X118117D01*
Y352719D01*
Y352489D01*
Y352259D01*
Y352029D01*
X118576D01*
Y351799D01*
X118806D01*
Y351569D01*
X119036D01*
Y351339D01*
X119266D01*
Y351109D01*
Y350879D01*
Y350650D01*
X119726D01*
Y350420D01*
Y350190D01*
X120186D01*
Y349960D01*
X98805D01*
Y350190D01*
Y350420D01*
Y350650D01*
Y350879D01*
Y351109D01*
Y351339D01*
Y351569D01*
Y351799D01*
Y352029D01*
Y352259D01*
Y352489D01*
Y352719D01*
Y352948D01*
Y353178D01*
X100185D01*
Y353408D01*
Y353638D01*
X102484D01*
Y353868D01*
Y354098D01*
X104783D01*
Y354328D01*
X107082D01*
Y354558D01*
Y354788D01*
X109381D01*
Y355018D01*
Y355247D01*
X111679D01*
Y355477D01*
X113749D01*
Y355707D01*
X113979D01*
Y355937D01*
X115818D01*
Y355707D01*
D02*
G37*
G36*
X98805Y344672D02*
Y344442D01*
X102484D01*
Y344212D01*
X106622D01*
Y343983D01*
X106852D01*
Y343753D01*
X110990D01*
Y343523D01*
Y343293D01*
X114668D01*
Y343063D01*
X118806D01*
Y342833D01*
X119036D01*
Y342603D01*
X122715D01*
Y342373D01*
X122025D01*
Y342143D01*
Y341913D01*
X121565D01*
Y341684D01*
Y341454D01*
X120875D01*
Y341224D01*
X120186D01*
Y340994D01*
X119956D01*
Y340764D01*
X119726D01*
Y340534D01*
X119266D01*
Y340304D01*
X118806D01*
Y340074D01*
X118117D01*
Y339845D01*
Y339615D01*
X117427D01*
Y339385D01*
X117197D01*
Y339155D01*
X116967D01*
Y338925D01*
X116277D01*
Y338695D01*
Y338465D01*
X115588D01*
Y338235D01*
X115128D01*
Y338005D01*
Y337775D01*
X114438D01*
Y337546D01*
X114208D01*
Y337316D01*
X113519D01*
Y337086D01*
X112829D01*
Y336856D01*
Y336626D01*
X112599D01*
Y336396D01*
X112369D01*
Y336166D01*
X111679D01*
Y335936D01*
X110990D01*
Y335706D01*
X110760D01*
Y335936D01*
X110070D01*
Y336166D01*
X109381D01*
Y336396D01*
Y336626D01*
X108691D01*
Y336856D01*
X108461D01*
Y337086D01*
X107311D01*
Y337316D01*
X106622D01*
Y337546D01*
Y337775D01*
X105932D01*
Y338005D01*
X105702D01*
Y338235D01*
X105242D01*
Y338465D01*
X104323D01*
Y338695D01*
Y338925D01*
X103173D01*
Y339155D01*
Y339385D01*
X102484D01*
Y339615D01*
X101794D01*
Y339845D01*
Y340074D01*
X100874D01*
Y340304D01*
X100645D01*
Y340534D01*
X99725D01*
Y340764D01*
X99035D01*
Y340994D01*
Y341224D01*
X98346D01*
Y341454D01*
X97656D01*
Y341684D01*
Y341913D01*
X98116D01*
Y342143D01*
Y342373D01*
Y342603D01*
Y342833D01*
Y343063D01*
Y343293D01*
Y343523D01*
X97886D01*
Y343753D01*
X98346D01*
Y343983D01*
Y344212D01*
Y344442D01*
Y344672D01*
Y344902D01*
X98805D01*
Y344672D01*
D02*
G37*
G36*
X96047Y336626D02*
X96736D01*
Y336396D01*
X96966D01*
Y336166D01*
X97656D01*
Y335936D01*
Y335706D01*
X98346D01*
Y335476D01*
X99035D01*
Y335247D01*
X99265D01*
Y335017D01*
X99955D01*
Y334787D01*
Y334557D01*
X100415D01*
Y334327D01*
X101104D01*
Y334097D01*
Y333867D01*
X101794D01*
Y333637D01*
X102024D01*
Y333407D01*
X102484D01*
Y333177D01*
X102943D01*
Y332948D01*
Y332718D01*
X101104D01*
Y332488D01*
X99265D01*
Y332258D01*
X99035D01*
Y332028D01*
X97196D01*
Y331798D01*
X95127D01*
Y331568D01*
X94897D01*
Y331338D01*
X93058D01*
Y331109D01*
Y330879D01*
X91219D01*
Y330649D01*
X89839D01*
Y330419D01*
X89610D01*
Y330649D01*
Y330879D01*
X89839D01*
Y331109D01*
X90069D01*
Y331338D01*
X90299D01*
Y331568D01*
X90759D01*
Y331798D01*
Y332028D01*
X90989D01*
Y332258D01*
X91449D01*
Y332488D01*
Y332718D01*
X91909D01*
Y332948D01*
Y333177D01*
X92138D01*
Y333407D01*
X92598D01*
Y333637D01*
Y333867D01*
X93058D01*
Y334097D01*
Y334327D01*
X93518D01*
Y334557D01*
Y334787D01*
Y335017D01*
X93748D01*
Y335247D01*
Y335476D01*
X94207D01*
Y335706D01*
X94437D01*
Y335936D01*
Y336166D01*
X94897D01*
Y336396D01*
Y336626D01*
X95357D01*
Y336856D01*
X96047D01*
Y336626D01*
D02*
G37*
D10*
X535000Y40000D02*
X534892Y42544D01*
X534568Y45070D01*
X534032Y47559D01*
X533286Y49994D01*
X532337Y52357D01*
X531190Y54631D01*
X529855Y56799D01*
X528341Y58847D01*
X526659Y60758D01*
X524820Y62520D01*
X522839Y64120D01*
X520729Y65546D01*
X518506Y66788D01*
X516186Y67837D01*
X513785Y68685D01*
X511320Y69327D01*
X508811Y69757D01*
X506273Y69973D01*
X503727D01*
X501189Y69757D01*
X498680Y69327D01*
X496215Y68685D01*
X493814Y67837D01*
X491494Y66788D01*
X489271Y65546D01*
X487161Y64120D01*
X485180Y62520D01*
X483341Y60758D01*
X481659Y58847D01*
X480145Y56799D01*
X478810Y54631D01*
X477663Y52357D01*
X476714Y49994D01*
X475968Y47559D01*
X475432Y45070D01*
X475108Y42544D01*
X475000Y40000D01*
X475108Y37456D01*
X475432Y34930D01*
X475968Y32441D01*
X476714Y30006D01*
X477663Y27643D01*
X478810Y25369D01*
X480145Y23201D01*
X481659Y21153D01*
X483341Y19242D01*
X485180Y17480D01*
X487161Y15880D01*
X489271Y14454D01*
X491494Y13212D01*
X493814Y12163D01*
X496215Y11315D01*
X498680Y10673D01*
X501189Y10243D01*
X503727Y10027D01*
X506273D01*
X508811Y10243D01*
X511320Y10673D01*
X513785Y11315D01*
X516186Y12163D01*
X518506Y13212D01*
X520729Y14454D01*
X522839Y15880D01*
X524820Y17480D01*
X526659Y19242D01*
X528341Y21154D01*
X529855Y23201D01*
X531190Y25369D01*
X532337Y27643D01*
X533286Y30006D01*
X534032Y32441D01*
X534568Y34930D01*
X534892Y37456D01*
X535000Y40000D01*
Y495000D02*
X534892Y497544D01*
X534568Y500070D01*
X534032Y502559D01*
X533286Y504994D01*
X532337Y507357D01*
X531190Y509631D01*
X529855Y511799D01*
X528341Y513847D01*
X526659Y515758D01*
X524820Y517520D01*
X522839Y519120D01*
X520729Y520546D01*
X518506Y521788D01*
X516186Y522837D01*
X513785Y523685D01*
X511320Y524327D01*
X508811Y524757D01*
X506273Y524973D01*
X503727D01*
X501189Y524757D01*
X498680Y524327D01*
X496215Y523685D01*
X493814Y522837D01*
X491494Y521788D01*
X489271Y520546D01*
X487161Y519120D01*
X485180Y517520D01*
X483341Y515758D01*
X481659Y513847D01*
X480145Y511799D01*
X478810Y509631D01*
X477663Y507357D01*
X476714Y504994D01*
X475968Y502559D01*
X475432Y500070D01*
X475108Y497544D01*
X475000Y495000D01*
X475108Y492456D01*
X475432Y489930D01*
X475968Y487441D01*
X476714Y485006D01*
X477663Y482643D01*
X478810Y480369D01*
X480145Y478201D01*
X481659Y476153D01*
X483341Y474242D01*
X485180Y472480D01*
X487161Y470880D01*
X489271Y469454D01*
X491494Y468212D01*
X493814Y467163D01*
X496215Y466315D01*
X498680Y465673D01*
X501189Y465243D01*
X503727Y465027D01*
X506273D01*
X508811Y465243D01*
X511320Y465673D01*
X513785Y466315D01*
X516186Y467163D01*
X518506Y468212D01*
X520729Y469454D01*
X522839Y470880D01*
X524820Y472480D01*
X526659Y474242D01*
X528341Y476153D01*
X529855Y478201D01*
X531190Y480369D01*
X532337Y482643D01*
X533286Y485006D01*
X534032Y487441D01*
X534568Y489930D01*
X534892Y492456D01*
X535000Y495000D01*
X447761Y64833D02*
X445278Y65466D01*
X442749Y65886D01*
X440195Y66088D01*
X437632Y66071D01*
X435080Y65836D01*
X432558Y65383D01*
X430083Y64717D01*
X427674Y63843D01*
X425349Y62766D01*
X423124Y61494D01*
X421016Y60037D01*
X419039Y58406D01*
X417209Y56611D01*
X415539Y54668D01*
X414041Y52589D01*
X412726Y50389D01*
X411604Y48085D01*
X410682Y45694D01*
X409967Y43233D01*
X409465Y40720D01*
X409180Y38173D01*
X409113Y35611D01*
X409264Y33053D01*
X409634Y30517D01*
X410219Y28022D01*
X411014Y25586D01*
X412015Y23226D01*
X413213Y20961D01*
X414600Y18806D01*
X416166Y16778D01*
X417899Y14890D01*
X419787Y13158D01*
X421817Y11592D01*
X423972Y10206D01*
X426238Y9009D01*
X428597Y8009D01*
X431034Y7214D01*
X433529Y6631D01*
X436065Y6262D01*
X438624Y6111D01*
X441185Y6179D01*
X443732Y6466D01*
X446245Y6969D01*
X448706Y7684D01*
X451097Y8607D01*
X453400Y9730D01*
X455599Y11046D01*
X457678Y12545D01*
X459621Y14216D01*
X461414Y16046D01*
X463045Y18023D01*
X464501Y20132D01*
X70000Y40000D02*
X69892Y42544D01*
X69569Y45070D01*
X69032Y47559D01*
X68286Y49994D01*
X67337Y52357D01*
X66190Y54631D01*
X64855Y56799D01*
X63341Y58847D01*
X61659Y60758D01*
X59820Y62520D01*
X57839Y64120D01*
X55729Y65546D01*
X53506Y66788D01*
X51186Y67837D01*
X48785Y68685D01*
X46320Y69327D01*
X43811Y69757D01*
X41273Y69973D01*
X38727D01*
X36189Y69757D01*
X33680Y69327D01*
X31215Y68685D01*
X28814Y67837D01*
X26494Y66788D01*
X24271Y65546D01*
X22161Y64120D01*
X20180Y62520D01*
X18341Y60758D01*
X16659Y58847D01*
X15145Y56799D01*
X13810Y54631D01*
X12663Y52357D01*
X11714Y49994D01*
X10968Y47559D01*
X10431Y45070D01*
X10108Y42544D01*
X10000Y40000D01*
X10108Y37456D01*
X10431Y34930D01*
X10968Y32441D01*
X11714Y30006D01*
X12663Y27643D01*
X13810Y25369D01*
X15145Y23201D01*
X16659Y21153D01*
X18341Y19242D01*
X20180Y17480D01*
X22161Y15880D01*
X24271Y14454D01*
X26494Y13212D01*
X28814Y12163D01*
X31215Y11315D01*
X33680Y10673D01*
X36189Y10243D01*
X38727Y10027D01*
X41273D01*
X43811Y10243D01*
X46320Y10673D01*
X48785Y11315D01*
X51186Y12163D01*
X53506Y13212D01*
X55729Y14454D01*
X57839Y15880D01*
X59820Y17480D01*
X61659Y19242D01*
X63341Y21154D01*
X64855Y23201D01*
X66190Y25369D01*
X67337Y27643D01*
X68286Y30006D01*
X69032Y32441D01*
X69569Y34930D01*
X69892Y37456D01*
X70000Y40000D01*
Y495003D02*
X69892Y497547D01*
X69569Y500073D01*
X69032Y502563D01*
X68286Y504997D01*
X67337Y507360D01*
X66190Y509634D01*
X64855Y511802D01*
X63341Y513850D01*
X61659Y515761D01*
X59820Y517523D01*
X57839Y519123D01*
X55729Y520549D01*
X53506Y521791D01*
X51186Y522840D01*
X48785Y523688D01*
X46320Y524330D01*
X43811Y524760D01*
X41273Y524976D01*
X38727D01*
X36189Y524760D01*
X33680Y524330D01*
X31215Y523688D01*
X28814Y522840D01*
X26494Y521791D01*
X24271Y520549D01*
X22161Y519123D01*
X20180Y517523D01*
X18341Y515761D01*
X16659Y513850D01*
X15145Y511802D01*
X13810Y509634D01*
X12663Y507360D01*
X11714Y504997D01*
X10968Y502563D01*
X10431Y500073D01*
X10108Y497547D01*
X10000Y495003D01*
X10108Y492459D01*
X10431Y489933D01*
X10968Y487444D01*
X11714Y485009D01*
X12663Y482646D01*
X13810Y480372D01*
X15145Y478204D01*
X16659Y476157D01*
X18341Y474245D01*
X20180Y472483D01*
X22161Y470883D01*
X24271Y469457D01*
X26494Y468215D01*
X28814Y467167D01*
X31215Y466318D01*
X33680Y465677D01*
X36189Y465246D01*
X38727Y465030D01*
X41273D01*
X43811Y465246D01*
X46320Y465677D01*
X48785Y466318D01*
X51186Y467167D01*
X53506Y468215D01*
X55729Y469458D01*
X57839Y470883D01*
X59820Y472483D01*
X61659Y474245D01*
X63341Y476157D01*
X64855Y478204D01*
X66190Y480373D01*
X67337Y482646D01*
X68286Y485009D01*
X69032Y487444D01*
X69569Y489933D01*
X69892Y492459D01*
X70000Y495003D01*
D11*
X507617Y261642D02*
X505617D01*
X507617D01*
D12*
X254750Y283500D02*
X252750D01*
X254750D01*
X287293Y534950D02*
Y535950D01*
Y534950D01*
Y535950D01*
X234923Y336682D02*
X235924D01*
X234923Y324682D02*
X235924D01*
X497456Y414307D02*
X498456D01*
X497456Y426307D02*
X498456D01*
X497089Y391548D02*
X498089D01*
X497089Y403548D02*
X498089D01*
X512617Y267642D02*
Y384642D01*
X438617Y267642D02*
Y384642D01*
Y267642D02*
X512617D01*
X438617Y384642D02*
X512617D01*
X461299Y414744D02*
X462299D01*
X461299Y402744D02*
X462299D01*
X301858Y233567D02*
X426858D01*
X301858Y358567D02*
X426858D01*
X426858Y263567D02*
X426858Y233567D01*
X426858Y358567D02*
X426858Y328567D01*
X301858Y358567D02*
X301858Y328567D01*
X301858Y263567D02*
X301858Y233567D01*
X447652Y237418D02*
X448652D01*
X447652Y249418D02*
X448652D01*
X159084Y80479D02*
Y81479D01*
X147084Y80479D02*
X147084Y81479D01*
X287542Y306461D02*
Y307461D01*
X275542Y306461D02*
Y307461D01*
X325365Y569873D02*
X355365D01*
X331398Y523535D02*
X346398D01*
X331398Y503535D02*
X346398D01*
X409877Y75653D02*
Y123653D01*
Y75653D02*
X505877D01*
Y123653D01*
X409877D02*
X505877D01*
X309219Y23288D02*
Y71288D01*
Y23288D02*
X405219D01*
Y71288D01*
X309219D02*
X405219D01*
X302785Y75952D02*
Y123952D01*
Y75952D02*
X398786D01*
Y123952D01*
X302785D02*
X398786D01*
X442289Y475519D02*
X443289D01*
X442289Y463520D02*
X443289D01*
X220781Y393868D02*
X246180D01*
Y343068D02*
Y393868D01*
X220781Y343068D02*
X246180D01*
X220781D02*
Y393868D01*
X125398Y487158D02*
Y488158D01*
X113398Y487158D02*
Y488158D01*
X267207Y306668D02*
Y307668D01*
X255207Y306668D02*
Y307668D01*
X282964Y230510D02*
X283964D01*
X282964Y242510D02*
X283964D01*
X319425Y394039D02*
X371385D01*
X319425Y367999D02*
X371385D01*
X320347Y426889D02*
X372307D01*
X320347Y400849D02*
X372307D01*
X404785Y367117D02*
X418485D01*
Y420417D01*
X391085D02*
X418485D01*
X391085Y381067D02*
Y420417D01*
X286348Y349464D02*
Y359964D01*
X256848Y345964D02*
X285848D01*
X256848Y341464D02*
Y345964D01*
Y341464D02*
X285848D01*
Y345964D01*
X62924Y321269D02*
Y308272D01*
X58591Y321269D02*
X67256D01*
X68804D02*
Y308272D01*
Y314461D02*
X70660Y316318D01*
X71898Y316937D01*
X73755D01*
X74993Y316318D01*
X75612Y314461D01*
Y308272D01*
X79016Y313223D02*
X86443D01*
Y314461D01*
X85824Y315699D01*
X85205Y316318D01*
X83967Y316937D01*
X82110D01*
X80872Y316318D01*
X79634Y315080D01*
X79016Y313223D01*
Y311985D01*
X79634Y310128D01*
X80872Y308891D01*
X82110Y308272D01*
X83967D01*
X85205Y308891D01*
X86443Y310128D01*
X99440Y321269D02*
X102534Y308272D01*
X105629Y321269D02*
X102534Y308272D01*
X105629Y321269D02*
X108723Y308272D01*
X111818Y321269D02*
X108723Y308272D01*
X121845Y316937D02*
Y308272D01*
Y315080D02*
X120607Y316318D01*
X119369Y316937D01*
X117512D01*
X116274Y316318D01*
X115036Y315080D01*
X114417Y313223D01*
Y311985D01*
X115036Y310128D01*
X116274Y308891D01*
X117512Y308272D01*
X119369D01*
X120607Y308891D01*
X121845Y310128D01*
X132119Y315080D02*
X131500Y316318D01*
X129643Y316937D01*
X127786D01*
X125929Y316318D01*
X125310Y315080D01*
X125929Y313842D01*
X127167Y313223D01*
X130262Y312604D01*
X131500Y311985D01*
X132119Y310747D01*
Y310128D01*
X131500Y308891D01*
X129643Y308272D01*
X127786D01*
X125929Y308891D01*
X125310Y310128D01*
X134842Y316937D02*
Y303939D01*
Y315080D02*
X136080Y316318D01*
X137317Y316937D01*
X139174D01*
X140412Y316318D01*
X141650Y315080D01*
X142269Y313223D01*
Y311985D01*
X141650Y310128D01*
X140412Y308891D01*
X139174Y308272D01*
X137317D01*
X136080Y308891D01*
X134842Y310128D01*
D13*
X202219Y585680D02*
X203219D01*
X202219D01*
D14*
X404231Y79653D02*
D03*
X303573Y27288D02*
D03*
X297139Y79952D02*
D03*
D15*
X207469Y551680D02*
Y569680D01*
X183719Y553680D02*
Y569680D01*
X284746Y620187D02*
X286746D01*
Y656187D01*
X245746D02*
X286746D01*
X245746Y620187D02*
Y656187D01*
Y620187D02*
X284746D01*
X299493Y467950D02*
Y525950D01*
Y467950D02*
Y525950D01*
X236993Y467950D02*
Y525950D01*
Y467950D02*
Y525950D01*
X209365Y137541D02*
Y139207D01*
Y138374D01*
X214364D01*
Y137541D01*
Y139207D01*
Y145038D02*
Y141706D01*
X211031Y145038D01*
X210198D01*
X209365Y144205D01*
Y142539D01*
X210198Y141706D01*
Y150036D02*
X209365Y149203D01*
Y147537D01*
X210198Y146704D01*
X213531D01*
X214364Y147537D01*
Y149203D01*
X213531Y150036D01*
X210198Y160033D02*
X209365Y159200D01*
Y157534D01*
X210198Y156701D01*
X211031D01*
X211865Y157534D01*
Y159200D01*
X212698Y160033D01*
X213531D01*
X214364Y159200D01*
Y157534D01*
X213531Y156701D01*
X209365Y161699D02*
X214364D01*
Y164198D01*
X213531Y165032D01*
X210198D01*
X209365Y164198D01*
Y161699D01*
X214364Y166698D02*
X211031D01*
X209365Y168364D01*
X211031Y170030D01*
X214364D01*
X211865D01*
Y166698D01*
X185278Y137868D02*
Y139534D01*
Y138701D01*
X190277D01*
Y137868D01*
Y139534D01*
Y145366D02*
Y142034D01*
X186944Y145366D01*
X186111D01*
X185278Y144533D01*
Y142867D01*
X186111Y142034D01*
Y150364D02*
X185278Y149531D01*
Y147865D01*
X186111Y147032D01*
X189443D01*
X190277Y147865D01*
Y149531D01*
X189443Y150364D01*
X186111Y160361D02*
X185278Y159528D01*
Y157862D01*
X186111Y157029D01*
X186944D01*
X187777Y157862D01*
Y159528D01*
X188610Y160361D01*
X189443D01*
X190277Y159528D01*
Y157862D01*
X189443Y157029D01*
X186111Y165359D02*
X185278Y164526D01*
Y162860D01*
X186111Y162027D01*
X189443D01*
X190277Y162860D01*
Y164526D01*
X189443Y165359D01*
X185278Y167025D02*
X190277D01*
Y170358D01*
D16*
X250879Y541549D02*
X242881D01*
Y545548D01*
X244214Y546881D01*
X246880D01*
X248213Y545548D01*
Y541549D01*
X242881Y549547D02*
Y552213D01*
Y550880D01*
X250879D01*
Y549547D01*
Y552213D01*
X242881Y556211D02*
X250879D01*
Y560210D01*
X249546Y561543D01*
X244214D01*
X242881Y560210D01*
Y556211D01*
X250879Y564209D02*
Y566875D01*
Y565542D01*
X242881D01*
X244214Y564209D01*
X265413Y541760D02*
X257416D01*
Y545759D01*
X258749Y547092D01*
X261415D01*
X262748Y545759D01*
Y541760D01*
X257416Y549758D02*
Y552423D01*
Y551091D01*
X265413D01*
Y549758D01*
Y552423D01*
X257416Y556422D02*
X265413D01*
Y560421D01*
X264081Y561754D01*
X258749D01*
X257416Y560421D01*
Y556422D01*
X265413Y569751D02*
Y564420D01*
X260082Y569751D01*
X258749D01*
X257416Y568418D01*
Y565752D01*
X258749Y564420D01*
X279422Y541549D02*
X271424D01*
Y545548D01*
X272757Y546881D01*
X275423D01*
X276756Y545548D01*
Y541549D01*
X271424Y549547D02*
Y552213D01*
Y550880D01*
X279422D01*
Y549547D01*
Y552213D01*
X271424Y556211D02*
X279422D01*
Y560210D01*
X278089Y561543D01*
X272757D01*
X271424Y560210D01*
Y556211D01*
X272757Y564209D02*
X271424Y565542D01*
Y568208D01*
X272757Y569540D01*
X274090D01*
X275423Y568208D01*
Y566875D01*
Y568208D01*
X276756Y569540D01*
X278089D01*
X279422Y568208D01*
Y565542D01*
X278089Y564209D01*
X293325Y540918D02*
X285327D01*
Y544916D01*
X286660Y546249D01*
X289326D01*
X290659Y544916D01*
Y540918D01*
X285327Y548915D02*
Y551581D01*
Y550248D01*
X293325D01*
Y548915D01*
Y551581D01*
X285327Y555579D02*
X293325D01*
Y559578D01*
X291992Y560911D01*
X286660D01*
X285327Y559578D01*
Y555579D01*
X293325Y567576D02*
X285327D01*
X289326Y563577D01*
Y568909D01*
X158582Y58690D02*
Y53358D01*
X161248Y50692D01*
X163914Y53358D01*
Y58690D01*
X166580D02*
Y50692D01*
X170579D01*
X171912Y52025D01*
Y57357D01*
X170579Y58690D01*
X166580D01*
X174577D02*
Y50692D01*
X178576D01*
X179909Y52025D01*
Y57357D01*
X178576Y58690D01*
X174577D01*
X296310Y68602D02*
X304308D01*
Y64603D01*
X302975Y63270D01*
X300309D01*
X298976Y64603D01*
Y68602D01*
X304308Y60604D02*
Y57938D01*
Y59271D01*
X296310D01*
Y60604D01*
Y57938D01*
X304308Y53940D02*
X296310D01*
Y49941D01*
X297643Y48608D01*
X302975D01*
X304308Y49941D01*
Y53940D01*
X300309Y45942D02*
Y40611D01*
X304308Y37945D02*
X296310D01*
Y33946D01*
X297643Y32613D01*
X302975D01*
X304308Y33946D01*
Y37945D01*
X365133Y10768D02*
Y18765D01*
X369132D01*
X370465Y17433D01*
Y14767D01*
X369132Y13434D01*
X365133D01*
X373131Y18765D02*
X375797D01*
X374464D01*
Y10768D01*
X373131D01*
X375797D01*
X379795Y18765D02*
Y10768D01*
X383794D01*
X385127Y12101D01*
Y17433D01*
X383794Y18765D01*
X379795D01*
X387793Y14767D02*
X393124D01*
X395790Y18765D02*
X398456D01*
X397123D01*
Y10768D01*
X395790D01*
X398456D01*
X520219Y87222D02*
X512221D01*
Y91221D01*
X513554Y92554D01*
X516220D01*
X517553Y91221D01*
Y87222D01*
X512221Y95220D02*
Y97886D01*
Y96553D01*
X520219D01*
Y95220D01*
Y97886D01*
X512221Y101884D02*
X520219D01*
Y105883D01*
X518886Y107216D01*
X513554D01*
X512221Y105883D01*
Y101884D01*
X516220Y109882D02*
Y115213D01*
X520219Y117879D02*
X512221D01*
Y121878D01*
X513554Y123211D01*
X516220D01*
X517553Y121878D01*
Y117879D01*
X466068Y27074D02*
X471400D01*
X456217Y66580D02*
X461548D01*
X458882Y69246D02*
Y63914D01*
X424532Y127767D02*
Y135765D01*
X428531D01*
X429864Y134432D01*
Y131766D01*
X428531Y130433D01*
X424532D01*
X427198D02*
X429864Y127767D01*
X437861Y134432D02*
X436528Y135765D01*
X433862D01*
X432529Y134432D01*
Y129100D01*
X433862Y127767D01*
X436528D01*
X437861Y129100D01*
X448524Y127767D02*
Y135765D01*
X452523D01*
X453856Y134432D01*
Y131766D01*
X452523Y130433D01*
X448524D01*
X451190D02*
X453856Y127767D01*
X460520D02*
X457855D01*
X456522Y129100D01*
Y131766D01*
X457855Y133099D01*
X460520D01*
X461853Y131766D01*
Y130433D01*
X456522D01*
X469851Y133099D02*
X465852D01*
X464519Y131766D01*
Y129100D01*
X465852Y127767D01*
X469851D01*
X472517D02*
X475182D01*
X473849D01*
Y133099D01*
X472517D01*
X483180Y127767D02*
X480514D01*
X479181Y129100D01*
Y131766D01*
X480514Y133099D01*
X483180D01*
X484513Y131766D01*
Y130433D01*
X479181D01*
X487178Y133099D02*
X489844Y127767D01*
X492510Y133099D01*
X499175Y127767D02*
X496509D01*
X495176Y129100D01*
Y131766D01*
X496509Y133099D01*
X499175D01*
X500508Y131766D01*
Y130433D01*
X495176D01*
X503173Y133099D02*
Y127767D01*
Y130433D01*
X504506Y131766D01*
X505839Y133099D01*
X507172D01*
X191069Y58442D02*
X196401D01*
X193735D01*
Y50444D01*
X199066D02*
Y58442D01*
X203065D01*
X204398Y57109D01*
Y54443D01*
X203065Y53110D01*
X199066D01*
X201732D02*
X204398Y50444D01*
X207064Y58442D02*
X209729D01*
X208397D01*
Y50444D01*
X207064D01*
X209729D01*
X219060Y57109D02*
X217727Y58442D01*
X215061D01*
X213728Y57109D01*
Y51777D01*
X215061Y50444D01*
X217727D01*
X219060Y51777D01*
Y54443D01*
X216394D01*
X234839Y58194D02*
X229507D01*
Y50196D01*
X234839D01*
X229507Y54195D02*
X232173D01*
X242836Y56861D02*
X241503Y58194D01*
X238837D01*
X237504Y56861D01*
Y51529D01*
X238837Y50196D01*
X241503D01*
X242836Y51529D01*
X245502Y58194D02*
Y50196D01*
Y54195D01*
X250833D01*
Y58194D01*
Y50196D01*
X257498Y58194D02*
X254832D01*
X253499Y56861D01*
Y51529D01*
X254832Y50196D01*
X257498D01*
X258831Y51529D01*
Y56861D01*
X257498Y58194D01*
X272285Y56365D02*
X270952Y57698D01*
X268286D01*
X266953Y56365D01*
Y51033D01*
X268286Y49700D01*
X270952D01*
X272285Y51033D01*
Y53699D01*
X269619D01*
X274951Y49700D02*
Y57698D01*
X280282Y49700D01*
Y57698D01*
X282948D02*
Y49700D01*
X286947D01*
X288279Y51033D01*
Y56365D01*
X286947Y57698D01*
X282948D01*
X82577Y504425D02*
Y499094D01*
X85243Y496428D01*
X87908Y499094D01*
Y504425D01*
X90574D02*
Y496428D01*
X94573D01*
X95906Y497761D01*
Y503092D01*
X94573Y504425D01*
X90574D01*
X98572D02*
Y496428D01*
X102570D01*
X103903Y497761D01*
Y503092D01*
X102570Y504425D01*
X98572D01*
X286172Y134233D02*
X284839Y135566D01*
X282173D01*
X280840Y134233D01*
Y128901D01*
X282173Y127568D01*
X284839D01*
X286172Y128901D01*
Y131567D01*
X283506D01*
X288838Y127568D02*
Y135566D01*
X292836D01*
X294169Y134233D01*
Y131567D01*
X292836Y130234D01*
X288838D01*
X302167Y134233D02*
X300834Y135566D01*
X298168D01*
X296835Y134233D01*
Y132900D01*
X298168Y131567D01*
X300834D01*
X302167Y130234D01*
Y128901D01*
X300834Y127568D01*
X298168D01*
X296835Y128901D01*
X318162Y134233D02*
X316829Y135566D01*
X314163D01*
X312830Y134233D01*
Y128901D01*
X314163Y127568D01*
X316829D01*
X318162Y128901D01*
X322160Y127568D02*
X324826D01*
X326159Y128901D01*
Y131567D01*
X324826Y132900D01*
X322160D01*
X320827Y131567D01*
Y128901D01*
X322160Y127568D01*
X328825D02*
Y132900D01*
X332823D01*
X334156Y131567D01*
Y127568D01*
X336822D02*
Y132900D01*
X340821D01*
X342154Y131567D01*
Y127568D01*
X348818D02*
X346152D01*
X344819Y128901D01*
Y131567D01*
X346152Y132900D01*
X348818D01*
X350151Y131567D01*
Y130234D01*
X344819D01*
X358149Y132900D02*
X354150D01*
X352817Y131567D01*
Y128901D01*
X354150Y127568D01*
X358149D01*
X362147Y134233D02*
Y132900D01*
X360814D01*
X363480D01*
X362147D01*
Y128901D01*
X363480Y127568D01*
X368812D02*
X371478D01*
X372811Y128901D01*
Y131567D01*
X371478Y132900D01*
X368812D01*
X367479Y131567D01*
Y128901D01*
X368812Y127568D01*
X375476Y132900D02*
Y127568D01*
Y130234D01*
X376809Y131567D01*
X378142Y132900D01*
X379475D01*
X182389Y131598D02*
Y124933D01*
X183722Y123601D01*
X186388D01*
X187721Y124933D01*
Y131598D01*
X190387Y123601D02*
X193053D01*
X191720D01*
Y131598D01*
X190387D01*
X198384Y130265D02*
Y128932D01*
X197051D01*
X199717D01*
X198384D01*
Y124933D01*
X199717Y123601D01*
X203716Y128932D02*
Y123601D01*
Y126266D01*
X205049Y127599D01*
X206382Y128932D01*
X207715D01*
X213046D02*
X215712D01*
X217045Y127599D01*
Y123601D01*
X213046D01*
X211713Y124933D01*
X213046Y126266D01*
X217045D01*
X219711Y123601D02*
X223709D01*
X225042Y124933D01*
X223709Y126266D01*
X221044D01*
X219711Y127599D01*
X221044Y128932D01*
X225042D01*
X229041Y123601D02*
X231707D01*
X233040Y124933D01*
Y127599D01*
X231707Y128932D01*
X229041D01*
X227708Y127599D01*
Y124933D01*
X229041Y123601D01*
X235706D02*
Y128932D01*
X239704D01*
X241037Y127599D01*
Y123601D01*
X243703D02*
X246369D01*
X245036D01*
Y128932D01*
X243703D01*
X255699D02*
X251700D01*
X250368Y127599D01*
Y124933D01*
X251700Y123601D01*
X255699D01*
X215032Y17834D02*
X216364Y19167D01*
X219030D01*
X220363Y17834D01*
Y16501D01*
X219030Y15168D01*
X217697D01*
X219030D01*
X220363Y13835D01*
Y12502D01*
X219030Y11169D01*
X216364D01*
X215032Y12502D01*
X223029Y11169D02*
Y12502D01*
X224362D01*
Y11169D01*
X223029D01*
X229694Y17834D02*
X231026Y19167D01*
X233692D01*
X235025Y17834D01*
Y16501D01*
X233692Y15168D01*
X232359D01*
X233692D01*
X235025Y13835D01*
Y12502D01*
X233692Y11169D01*
X231026D01*
X229694Y12502D01*
X237691Y19167D02*
Y13835D01*
X240357Y11169D01*
X243023Y13835D01*
Y19167D01*
X253686Y11169D02*
Y19167D01*
X257684D01*
X259017Y17834D01*
Y15168D01*
X257684Y13835D01*
X253686D01*
X263016Y11169D02*
X265682D01*
X267015Y12502D01*
Y15168D01*
X265682Y16501D01*
X263016D01*
X261683Y15168D01*
Y12502D01*
X263016Y11169D01*
X269681Y16501D02*
Y12502D01*
X271014Y11169D01*
X272346Y12502D01*
X273679Y11169D01*
X275012Y12502D01*
Y16501D01*
X281677Y11169D02*
X279011D01*
X277678Y12502D01*
Y15168D01*
X279011Y16501D01*
X281677D01*
X283010Y15168D01*
Y13835D01*
X277678D01*
X285676Y16501D02*
Y11169D01*
Y13835D01*
X287008Y15168D01*
X288341Y16501D01*
X289674D01*
X116348Y21726D02*
X111016D01*
Y17727D01*
X113682Y19060D01*
X115015D01*
X116348Y17727D01*
Y15061D01*
X115015Y13728D01*
X112349D01*
X111016Y15061D01*
X119014Y21726D02*
Y16394D01*
X121680Y13728D01*
X124345Y16394D01*
Y21726D01*
X135009Y13728D02*
Y21726D01*
X139007D01*
X140340Y20393D01*
Y17727D01*
X139007Y16394D01*
X135009D01*
X144339Y13728D02*
X147005D01*
X148338Y15061D01*
Y17727D01*
X147005Y19060D01*
X144339D01*
X143006Y17727D01*
Y15061D01*
X144339Y13728D01*
X151004Y19060D02*
Y15061D01*
X152336Y13728D01*
X153669Y15061D01*
X155002Y13728D01*
X156335Y15061D01*
Y19060D01*
X163000Y13728D02*
X160334D01*
X159001Y15061D01*
Y17727D01*
X160334Y19060D01*
X163000D01*
X164333Y17727D01*
Y16394D01*
X159001D01*
X166998Y19060D02*
Y13728D01*
Y16394D01*
X168331Y17727D01*
X169664Y19060D01*
X170997D01*
D17*
X413641Y35239D02*
Y41237D01*
X416640D01*
X417640Y40237D01*
Y38238D01*
X416640Y37238D01*
X413641D01*
X419639Y41237D02*
X421638D01*
X420639D01*
Y35239D01*
X419639D01*
X421638D01*
X424637Y41237D02*
Y35239D01*
X427636D01*
X428636Y36238D01*
Y40237D01*
X427636Y41237D01*
X424637D01*
X436633D02*
X440632D01*
X438633D01*
Y35239D01*
X442631Y39237D02*
Y36238D01*
X443631Y35239D01*
X446630D01*
Y39237D01*
X448630Y35239D02*
Y39237D01*
X451629D01*
X452628Y38238D01*
Y35239D01*
X454628D02*
X456627D01*
X455627D01*
Y39237D01*
X454628D01*
X459626Y35239D02*
Y39237D01*
X462625D01*
X463625Y38238D01*
Y35239D01*
X467623Y33239D02*
X468623D01*
X469623Y34239D01*
Y39237D01*
X466624D01*
X465624Y38238D01*
Y36238D01*
X466624Y35239D01*
X469623D01*
D18*
X16878Y77290D02*
X15211Y75624D01*
Y72291D01*
X16878Y70625D01*
X23542D01*
X25208Y72291D01*
Y75624D01*
X23542Y77290D01*
X18544Y80622D02*
X23542D01*
X25208Y82288D01*
Y87287D01*
X18544D01*
Y90619D02*
X25208D01*
X21876D01*
X20210Y92285D01*
X18544Y93951D01*
Y95617D01*
Y100616D02*
X25208D01*
X21876D01*
X20210Y102282D01*
X18544Y103948D01*
Y105614D01*
X25208Y115611D02*
Y112278D01*
X23542Y110612D01*
X20210D01*
X18544Y112278D01*
Y115611D01*
X20210Y117277D01*
X21876D01*
Y110612D01*
X25208Y120609D02*
X18544D01*
Y125608D01*
X20210Y127274D01*
X25208D01*
X16878Y132272D02*
X18544D01*
Y130606D01*
Y133938D01*
Y132272D01*
X23542D01*
X25208Y133938D01*
X41077Y103274D02*
Y96609D01*
X51074D01*
Y103274D01*
X46076Y96609D02*
Y99941D01*
X42743Y113270D02*
X41077Y111604D01*
Y108272D01*
X42743Y106606D01*
X44410D01*
X46076Y108272D01*
Y111604D01*
X47742Y113270D01*
X49408D01*
X51074Y111604D01*
Y108272D01*
X49408Y106606D01*
X42743Y123267D02*
X41077Y121601D01*
Y118269D01*
X42743Y116603D01*
X49408D01*
X51074Y118269D01*
Y121601D01*
X49408Y123267D01*
X51074Y131598D02*
X41077D01*
X46076Y126599D01*
Y133264D01*
X65850Y101633D02*
Y94968D01*
X75847D01*
Y101633D01*
X70848Y94968D02*
Y98300D01*
X67516Y111629D02*
X65850Y109963D01*
Y106631D01*
X67516Y104965D01*
X69182D01*
X70848Y106631D01*
Y109963D01*
X72514Y111629D01*
X74180D01*
X75847Y109963D01*
Y106631D01*
X74180Y104965D01*
X67516Y121626D02*
X65850Y119960D01*
Y116628D01*
X67516Y114962D01*
X74180D01*
X75847Y116628D01*
Y119960D01*
X74180Y121626D01*
X67516Y124958D02*
X65850Y126625D01*
Y129957D01*
X67516Y131623D01*
X69182D01*
X70848Y129957D01*
Y128291D01*
Y129957D01*
X72514Y131623D01*
X74180D01*
X75847Y129957D01*
Y126625D01*
X74180Y124958D01*
X91278Y102617D02*
Y95952D01*
X101275D01*
Y102617D01*
X96276Y95952D02*
Y99285D01*
X92944Y112614D02*
X91278Y110948D01*
Y107615D01*
X92944Y105949D01*
X94610D01*
X96276Y107615D01*
Y110948D01*
X97942Y112614D01*
X99609D01*
X101275Y110948D01*
Y107615D01*
X99609Y105949D01*
X92944Y122611D02*
X91278Y120944D01*
Y117612D01*
X92944Y115946D01*
X99609D01*
X101275Y117612D01*
Y120944D01*
X99609Y122611D01*
X101275Y132607D02*
Y125943D01*
X94610Y132607D01*
X92944D01*
X91278Y130941D01*
Y127609D01*
X92944Y125943D01*
X116706Y104914D02*
Y98249D01*
X126703D01*
Y104914D01*
X121705Y98249D02*
Y101581D01*
X118372Y114910D02*
X116706Y113244D01*
Y109912D01*
X118372Y108246D01*
X120038D01*
X121705Y109912D01*
Y113244D01*
X123371Y114910D01*
X125037D01*
X126703Y113244D01*
Y109912D01*
X125037Y108246D01*
X118372Y124907D02*
X116706Y123241D01*
Y119909D01*
X118372Y118243D01*
X125037D01*
X126703Y119909D01*
Y123241D01*
X125037Y124907D01*
X126703Y128239D02*
Y131572D01*
Y129906D01*
X116706D01*
X118372Y128239D01*
X143956Y110189D02*
X142289Y108523D01*
Y105190D01*
X143956Y103524D01*
X150620D01*
X152286Y105190D01*
Y108523D01*
X150620Y110189D01*
X147288D01*
Y106856D01*
X152286Y113521D02*
X142289D01*
X152286Y120185D01*
X142289D01*
Y123518D02*
X152286D01*
Y128516D01*
X150620Y130182D01*
X143956D01*
X142289Y128516D01*
Y123518D01*
D19*
X406086Y565073D02*
X406189Y562589D01*
X406496Y560122D01*
X407006Y557689D01*
X407716Y555307D01*
X408619Y552991D01*
X409711Y550757D01*
X410984Y548622D01*
X412428Y546599D01*
X414035Y544702D01*
X415793Y542944D01*
X417690Y541337D01*
X419713Y539893D01*
X421848Y538620D01*
X424082Y537528D01*
X426398Y536625D01*
X428780Y535915D01*
X431213Y535405D01*
X433680Y535098D01*
X436164Y534995D01*
X406086Y644998D02*
X405983Y647476D01*
X405676Y649936D01*
X405167Y652363D01*
X404460Y654740D01*
X403558Y657050D01*
X402469Y659278D01*
X401200Y661408D01*
X399759Y663426D01*
X398156Y665319D01*
X396403Y667072D01*
X394510Y668675D01*
X392492Y670116D01*
X390362Y671385D01*
X388134Y672474D01*
X385824Y673376D01*
X383447Y674083D01*
X381020Y674592D01*
X378560Y674899D01*
X376082Y675001D01*
X514984Y1D02*
X517463Y103D01*
X519925Y410D01*
X522353Y919D01*
X524731Y1627D01*
X527043Y2529D01*
X529271Y3619D01*
X531403Y4889D01*
X533422Y6330D01*
X535315Y7934D01*
X537070Y9688D01*
X538673Y11581D01*
X540115Y13600D01*
X541385Y15732D01*
X542474Y17961D01*
X543376Y20272D01*
X544084Y22650D01*
X544593Y25078D01*
X544900Y27540D01*
X545003Y30019D01*
X545003Y504993D02*
X544900Y507470D01*
X544593Y509931D01*
X544085Y512358D01*
X543377Y514734D01*
X542476Y517044D01*
X541386Y519272D01*
X540117Y521402D01*
X538676Y523420D01*
X537074Y525313D01*
X535320Y527066D01*
X533428Y528669D01*
X531410Y530109D01*
X529280Y531379D01*
X527052Y532468D01*
X524742Y533369D01*
X522366Y534077D01*
X519939Y534586D01*
X517478Y534892D01*
X515000Y534995D01*
X147201Y675001D02*
X144643Y674847D01*
X142123Y674385D01*
X139678Y673623D01*
X137341Y672571D01*
X135149Y671246D01*
X133132Y669666D01*
X131321Y667855D01*
X129741Y665838D01*
X128415Y663645D01*
X127364Y661309D01*
X126602Y658863D01*
X126140Y656343D01*
X125985Y653786D01*
X95967Y534995D02*
X98446Y535097D01*
X100907Y535404D01*
X103336Y535913D01*
X105714Y536621D01*
X108025Y537523D01*
X110254Y538613D01*
X112385Y539883D01*
X114404Y541325D01*
X116298Y542928D01*
X118052Y544682D01*
X119655Y546576D01*
X121097Y548595D01*
X122367Y550726D01*
X123457Y552955D01*
X124359Y555266D01*
X125066Y557644D01*
X125576Y560072D01*
X125883Y562534D01*
X125985Y565013D01*
X2Y30039D02*
X105Y27558D01*
X412Y25094D01*
X922Y22665D01*
X1630Y20285D01*
X2532Y17973D01*
X3623Y15742D01*
X4894Y13609D01*
X6336Y11589D01*
X7941Y9694D01*
X9696Y7939D01*
X11591Y6334D01*
X13611Y4892D01*
X15744Y3621D01*
X17974Y2531D01*
X20287Y1628D01*
X22666Y920D01*
X25096Y410D01*
X27560Y103D01*
X30040Y1D01*
X21261Y534995D02*
X18699Y534840D01*
X16173Y534377D01*
X13723Y533613D01*
X11382Y532560D01*
X9185Y531232D01*
X7164Y529648D01*
X5349Y527833D01*
X3765Y525812D01*
X2437Y523615D01*
X1384Y521275D01*
X620Y518824D01*
X157Y516299D01*
X2Y513736D01*
X406086Y644997D02*
X406086Y565073D01*
X147201Y675001D02*
X376082D01*
X545003Y30019D02*
Y504992D01*
X436164Y534995D02*
X515000D01*
X125985Y565013D02*
X125985Y653786D01*
X21261Y534995D02*
X95967D01*
X30040Y1D02*
X514984D01*
X2Y30039D02*
Y513736D01*
M02*
