G04*
G04 #@! TF.GenerationSoftware,Altium Limited,Altium Designer,21.9.2 (33)*
G04*
G04 Layer_Color=65535*
%FSLAX44Y44*%
%MOMM*%
G71*
G04*
G04 #@! TF.SameCoordinates,AD09EAA5-2441-452A-AD90-05C7A032265F*
G04*
G04*
G04 #@! TF.FilePolarity,Positive*
G04*
G01*
G75*
%ADD10C,0.2000*%
%ADD11C,0.3000*%
%ADD12C,0.2540*%
%ADD13C,0.4000*%
%ADD14C,0.1000*%
%ADD15C,0.1530*%
%ADD16C,0.1300*%
%ADD17C,0.1500*%
%ADD18C,0.2032*%
G36*
X120185Y320684D02*
Y320454D01*
Y320224D01*
Y319995D01*
Y319765D01*
Y319535D01*
Y319305D01*
Y319075D01*
Y318845D01*
Y318615D01*
Y318385D01*
X119955D01*
Y318155D01*
Y317925D01*
Y317696D01*
Y317466D01*
Y317236D01*
X119496D01*
Y317006D01*
Y316776D01*
Y316546D01*
X119036D01*
Y316316D01*
Y316086D01*
Y315856D01*
X118806D01*
Y315627D01*
Y315397D01*
Y315167D01*
Y314937D01*
X118346D01*
Y314707D01*
X117886D01*
Y314477D01*
Y314247D01*
Y314017D01*
Y313787D01*
X117656D01*
Y313557D01*
X117427D01*
Y313328D01*
X117197D01*
Y313098D01*
X116967D01*
Y312868D01*
X116737D01*
Y312638D01*
X116507D01*
Y312408D01*
X116277D01*
Y312178D01*
X116047D01*
Y311948D01*
X115817D01*
Y311718D01*
X115587D01*
Y311488D01*
X115357D01*
Y311259D01*
X115128D01*
Y311029D01*
X114898D01*
Y310799D01*
X114668D01*
Y310569D01*
X113978D01*
Y310339D01*
X113748D01*
Y310109D01*
X113518D01*
Y309879D01*
Y309649D01*
X113059D01*
Y309419D01*
X112369D01*
Y309189D01*
Y308960D01*
X111679D01*
Y308730D01*
X111449D01*
Y308500D01*
X111219D01*
Y308270D01*
X110530D01*
Y308040D01*
Y307810D01*
X109610D01*
Y307580D01*
Y307350D01*
X108920D01*
Y307120D01*
X108231D01*
Y306891D01*
Y306661D01*
X107541D01*
Y306431D01*
X107311D01*
Y306201D01*
X106621D01*
Y305971D01*
X105472D01*
Y305741D01*
Y305511D01*
X104323D01*
Y305281D01*
Y305051D01*
X103633D01*
Y304821D01*
X102483D01*
Y304592D01*
Y304362D01*
X101334D01*
Y304132D01*
Y303902D01*
X99725D01*
Y303672D01*
X98345D01*
Y303442D01*
Y303212D01*
X96736D01*
Y302982D01*
X95586D01*
Y303212D01*
X94437D01*
Y303442D01*
Y303672D01*
X93747D01*
Y303902D01*
X92598D01*
Y304132D01*
X92368D01*
Y304362D01*
X91448D01*
Y304592D01*
X91218D01*
Y304821D01*
X90529D01*
Y305051D01*
X89609D01*
Y305281D01*
X89379D01*
Y305511D01*
X88690D01*
Y305741D01*
Y305971D01*
X87540D01*
Y306201D01*
X86391D01*
Y306431D01*
Y306661D01*
X85701D01*
Y306891D01*
Y307120D01*
X84551D01*
Y307350D01*
X83862D01*
Y307580D01*
X83632D01*
Y307810D01*
X82712D01*
Y308040D01*
X82483D01*
Y308270D01*
X81563D01*
Y308500D01*
X80873D01*
Y308730D01*
X80643D01*
Y308960D01*
X79494D01*
Y309189D01*
Y309419D01*
X78804D01*
Y309649D01*
X77655D01*
Y309879D01*
Y310109D01*
X76965D01*
Y310339D01*
X76735D01*
Y310569D01*
X75815D01*
Y310799D01*
X74666D01*
Y311029D01*
Y311259D01*
X73976D01*
Y311488D01*
X72827D01*
Y311718D01*
Y311948D01*
X71907D01*
Y312178D01*
Y312408D01*
X70758D01*
Y312638D01*
X69838D01*
Y312868D01*
X69608D01*
Y313098D01*
X68919D01*
Y313328D01*
Y313557D01*
X67769D01*
Y313787D01*
X67080D01*
Y314017D01*
Y314247D01*
X65930D01*
Y314477D01*
Y314707D01*
X64781D01*
Y314937D01*
X64091D01*
Y315167D01*
Y315397D01*
X62941D01*
Y315627D01*
X62712D01*
Y315856D01*
X62022D01*
Y316086D01*
X61102D01*
Y316316D01*
X60872D01*
Y316546D01*
X59953D01*
Y316776D01*
X59723D01*
Y317006D01*
X59033D01*
Y317236D01*
X57884D01*
Y317006D01*
Y316776D01*
Y316546D01*
X58343D01*
Y316316D01*
Y316086D01*
X58803D01*
Y315856D01*
Y315627D01*
Y315397D01*
X59033D01*
Y315167D01*
X59263D01*
Y314937D01*
X59493D01*
Y314707D01*
X59723D01*
Y314477D01*
X59953D01*
Y314247D01*
X59723D01*
Y314017D01*
Y313787D01*
X60183D01*
Y313557D01*
X60413D01*
Y313328D01*
X60642D01*
Y313098D01*
X61102D01*
Y312868D01*
Y312638D01*
X60872D01*
Y312408D01*
X61102D01*
Y312178D01*
X61562D01*
Y311948D01*
X61792D01*
Y311718D01*
Y311488D01*
X62252D01*
Y311259D01*
X62022D01*
Y311029D01*
Y310799D01*
X62482D01*
Y310569D01*
X62712D01*
Y310339D01*
X62941D01*
Y310109D01*
X63171D01*
Y309879D01*
Y309649D01*
Y309419D01*
Y309189D01*
X63631D01*
Y308960D01*
X64091D01*
Y308730D01*
Y308500D01*
X64321D01*
Y308270D01*
Y308040D01*
Y307810D01*
X64781D01*
Y307580D01*
Y307350D01*
X65240D01*
Y307120D01*
Y306891D01*
X65470D01*
Y306661D01*
Y306431D01*
Y306201D01*
X65930D01*
Y305971D01*
X66160D01*
Y305741D01*
X66390D01*
Y305511D01*
X66620D01*
Y305281D01*
Y305051D01*
Y304821D01*
Y304592D01*
X67080D01*
Y304362D01*
X67539D01*
Y304132D01*
Y303902D01*
X67769D01*
Y303672D01*
Y303442D01*
Y303212D01*
X68229D01*
Y302982D01*
Y302752D01*
X68689D01*
Y302523D01*
X68919D01*
Y302293D01*
Y302063D01*
Y301833D01*
Y301603D01*
X69378D01*
Y301373D01*
X69608D01*
Y301143D01*
X69838D01*
Y300913D01*
X70068D01*
Y300683D01*
Y300453D01*
Y300224D01*
X70528D01*
Y299994D01*
Y299764D01*
X70988D01*
Y299534D01*
X70298D01*
Y299304D01*
X70068D01*
Y299074D01*
X69149D01*
Y298844D01*
X68919D01*
Y298614D01*
X67080D01*
Y298384D01*
X65240D01*
Y298155D01*
Y297925D01*
X62941D01*
Y297695D01*
Y297465D01*
X52596D01*
Y297695D01*
Y297925D01*
X50297D01*
Y298155D01*
Y298384D01*
X48688D01*
Y298614D01*
X47768D01*
Y298844D01*
X47538D01*
Y299074D01*
X46619D01*
Y299304D01*
X46389D01*
Y299534D01*
X45469D01*
Y299764D01*
X44780D01*
Y299994D01*
X44550D01*
Y300224D01*
X43860D01*
Y300453D01*
Y300683D01*
X43170D01*
Y300913D01*
X42481D01*
Y301143D01*
X42251D01*
Y301373D01*
X42021D01*
Y301603D01*
X41791D01*
Y301833D01*
X41101D01*
Y302063D01*
X40871D01*
Y302293D01*
Y302523D01*
X40182D01*
Y302752D01*
X39722D01*
Y302982D01*
Y303212D01*
X39262D01*
Y303442D01*
Y303672D01*
X39032D01*
Y303902D01*
X38343D01*
Y304132D01*
X38113D01*
Y304362D01*
X37883D01*
Y304592D01*
X37653D01*
Y304821D01*
X37423D01*
Y305051D01*
Y305281D01*
Y305511D01*
X36963D01*
Y305741D01*
Y305971D01*
X36503D01*
Y305741D01*
X36274D01*
Y305511D01*
X36044D01*
Y305281D01*
X35814D01*
Y305051D01*
X35584D01*
Y304821D01*
Y304592D01*
Y304362D01*
X35354D01*
Y304132D01*
X35124D01*
Y303902D01*
X34664D01*
Y303672D01*
Y303442D01*
X34894D01*
Y303212D01*
X34434D01*
Y302982D01*
X34204D01*
Y302752D01*
X33974D01*
Y302523D01*
Y302293D01*
Y302063D01*
X33745D01*
Y301833D01*
X33515D01*
Y301603D01*
X33285D01*
Y301373D01*
X33055D01*
Y301143D01*
X32825D01*
Y300913D01*
X32595D01*
Y300683D01*
X32365D01*
Y300453D01*
X32135D01*
Y300224D01*
X31906D01*
Y299994D01*
X31676D01*
Y299764D01*
X31446D01*
Y299534D01*
X31216D01*
Y299304D01*
X30986D01*
Y299074D01*
X30296D01*
Y298844D01*
Y298614D01*
X29836D01*
Y298384D01*
X29147D01*
Y298155D01*
Y297925D01*
X27997D01*
Y297695D01*
Y297465D01*
X26848D01*
Y297695D01*
Y297925D01*
Y298155D01*
Y298384D01*
X26388D01*
Y298614D01*
X26158D01*
Y298844D01*
Y299074D01*
Y299304D01*
Y299534D01*
X25698D01*
Y299764D01*
Y299994D01*
Y300224D01*
X25239D01*
Y300453D01*
Y300683D01*
Y300913D01*
X25009D01*
Y301143D01*
Y301373D01*
Y301603D01*
Y301833D01*
X24549D01*
Y302063D01*
Y302293D01*
Y302523D01*
Y302752D01*
X24319D01*
Y302982D01*
X24089D01*
Y303212D01*
X24319D01*
Y303442D01*
Y303672D01*
Y303902D01*
X23859D01*
Y304132D01*
Y304362D01*
Y304592D01*
Y304821D01*
Y305051D01*
X23399D01*
Y305281D01*
Y305511D01*
Y305741D01*
Y305971D01*
Y306201D01*
Y306431D01*
Y306661D01*
X22940D01*
Y306891D01*
Y307120D01*
X23170D01*
Y307350D01*
Y307580D01*
Y307810D01*
Y308040D01*
Y308270D01*
Y308500D01*
X22710D01*
Y308730D01*
Y308960D01*
Y309189D01*
Y309419D01*
Y309649D01*
Y309879D01*
Y310109D01*
Y310339D01*
Y310569D01*
Y310799D01*
Y311029D01*
Y311259D01*
Y311488D01*
Y311718D01*
Y311948D01*
Y312178D01*
Y312408D01*
Y312638D01*
X22250D01*
Y312868D01*
Y313098D01*
Y313328D01*
X22710D01*
Y313557D01*
Y313787D01*
Y314017D01*
Y314247D01*
X21790D01*
Y314477D01*
Y314707D01*
X21100D01*
Y314937D01*
X20411D01*
Y315167D01*
X20181D01*
Y315397D01*
X19491D01*
Y315627D01*
Y315856D01*
X18342D01*
Y316086D01*
X17652D01*
Y315856D01*
X17192D01*
Y315627D01*
Y315397D01*
X17422D01*
Y315167D01*
X17192D01*
Y314937D01*
X16962D01*
Y314707D01*
Y314477D01*
Y314247D01*
X16732D01*
Y314017D01*
X16502D01*
Y313787D01*
X16043D01*
Y313557D01*
X16273D01*
Y313328D01*
Y313098D01*
X15813D01*
Y312868D01*
Y312638D01*
Y312408D01*
X15583D01*
Y312178D01*
X15353D01*
Y311948D01*
X14893D01*
Y311718D01*
Y311488D01*
X15123D01*
Y311259D01*
X14663D01*
Y311029D01*
Y310799D01*
Y310569D01*
X14203D01*
Y310339D01*
Y310109D01*
Y309879D01*
Y309649D01*
X13974D01*
Y309419D01*
Y309189D01*
Y308960D01*
X13514D01*
Y308730D01*
Y308500D01*
Y308270D01*
X13054D01*
Y308040D01*
Y307810D01*
Y307580D01*
Y307350D01*
X12824D01*
Y307120D01*
Y306891D01*
Y306661D01*
Y306431D01*
Y306201D01*
X12364D01*
Y305971D01*
Y305741D01*
Y305511D01*
X11905D01*
Y305281D01*
Y305051D01*
Y304821D01*
X11675D01*
Y304592D01*
Y304362D01*
Y304132D01*
Y303902D01*
Y303672D01*
X11215D01*
Y303442D01*
Y303212D01*
Y302982D01*
Y302752D01*
Y302523D01*
X10755D01*
Y302293D01*
Y302063D01*
Y301833D01*
Y301603D01*
Y301373D01*
X10525D01*
Y301143D01*
Y300913D01*
Y300683D01*
Y300453D01*
Y300224D01*
X10065D01*
Y299994D01*
Y299764D01*
Y299534D01*
Y299304D01*
Y299074D01*
Y298844D01*
Y298614D01*
X9606D01*
Y298384D01*
Y298155D01*
Y297925D01*
Y297695D01*
Y297465D01*
X9836D01*
Y297235D01*
X9376D01*
Y297005D01*
Y296775D01*
Y296545D01*
Y296315D01*
Y296085D01*
Y295856D01*
Y295626D01*
Y295396D01*
Y295166D01*
Y294936D01*
X8916D01*
Y294706D01*
Y294476D01*
Y294246D01*
Y294016D01*
Y293787D01*
Y293557D01*
Y293327D01*
Y293097D01*
Y292867D01*
Y292637D01*
Y292407D01*
Y292177D01*
Y291947D01*
Y291717D01*
Y291488D01*
Y291258D01*
Y291028D01*
Y290798D01*
Y290568D01*
Y290338D01*
Y290108D01*
Y289878D01*
Y289648D01*
Y289419D01*
Y289189D01*
Y288959D01*
Y288729D01*
Y288499D01*
Y288269D01*
Y288039D01*
Y287809D01*
Y287579D01*
Y287349D01*
Y287120D01*
X9376D01*
Y286890D01*
Y286660D01*
Y286430D01*
Y286200D01*
Y285970D01*
Y285740D01*
Y285510D01*
X9146D01*
Y285280D01*
X8916D01*
Y285051D01*
X8686D01*
Y284821D01*
Y284591D01*
X7767D01*
Y284821D01*
Y285051D01*
X7307D01*
Y285280D01*
Y285510D01*
X7077D01*
Y285740D01*
Y285970D01*
Y286200D01*
Y286430D01*
X6847D01*
Y286660D01*
X6617D01*
Y286890D01*
X6847D01*
Y287120D01*
Y287349D01*
Y287579D01*
Y287809D01*
Y288039D01*
Y288269D01*
Y288499D01*
Y288729D01*
Y288959D01*
Y289189D01*
Y289419D01*
Y289648D01*
Y289878D01*
Y290108D01*
Y290338D01*
Y290568D01*
Y290798D01*
Y291028D01*
Y291258D01*
Y291488D01*
Y291717D01*
Y291947D01*
Y292177D01*
Y292407D01*
Y292637D01*
Y292867D01*
Y293097D01*
Y293327D01*
Y293557D01*
Y293787D01*
Y294016D01*
Y294246D01*
Y294476D01*
Y294706D01*
X6617D01*
Y294936D01*
Y295166D01*
X7077D01*
Y295396D01*
Y295626D01*
Y295856D01*
Y296085D01*
Y296315D01*
Y296545D01*
Y296775D01*
Y297005D01*
X7537D01*
Y297235D01*
Y297465D01*
Y297695D01*
Y297925D01*
Y298155D01*
Y298384D01*
Y298614D01*
Y298844D01*
Y299074D01*
X7767D01*
Y299304D01*
Y299534D01*
Y299764D01*
Y299994D01*
Y300224D01*
X8226D01*
Y300453D01*
Y300683D01*
Y300913D01*
Y301143D01*
Y301373D01*
Y301603D01*
X8686D01*
Y301833D01*
Y302063D01*
Y302293D01*
Y302523D01*
Y302752D01*
X8916D01*
Y302982D01*
Y303212D01*
Y303442D01*
Y303672D01*
Y303902D01*
X9376D01*
Y304132D01*
Y304362D01*
Y304592D01*
X9836D01*
Y304821D01*
Y305051D01*
Y305281D01*
Y305511D01*
Y305741D01*
X10065D01*
Y305971D01*
Y306201D01*
Y306431D01*
Y306661D01*
X10525D01*
Y306891D01*
Y307120D01*
Y307350D01*
X10985D01*
Y307580D01*
Y307810D01*
X10755D01*
Y308040D01*
X11215D01*
Y308270D01*
Y308500D01*
Y308730D01*
Y308960D01*
X11675D01*
Y309189D01*
Y309419D01*
Y309649D01*
X12134D01*
Y309879D01*
Y310109D01*
X11905D01*
Y310339D01*
X12364D01*
Y310569D01*
Y310799D01*
Y311029D01*
X12824D01*
Y311259D01*
Y311488D01*
Y311718D01*
Y311948D01*
X13284D01*
Y312178D01*
Y312408D01*
X13054D01*
Y312638D01*
X13514D01*
Y312868D01*
Y313098D01*
Y313328D01*
X13744D01*
Y313557D01*
X13974D01*
Y313787D01*
X14433D01*
Y314017D01*
Y314247D01*
X14203D01*
Y314477D01*
X14663D01*
Y314707D01*
Y314937D01*
Y315167D01*
Y315397D01*
X14893D01*
Y315627D01*
X15353D01*
Y315856D01*
X15583D01*
Y316086D01*
X15353D01*
Y316316D01*
Y316546D01*
X15813D01*
Y316776D01*
X16273D01*
Y317006D01*
Y317236D01*
Y317466D01*
Y317696D01*
X16502D01*
Y317925D01*
X16962D01*
Y318155D01*
Y318385D01*
Y318615D01*
X17882D01*
Y318385D01*
X18572D01*
Y318155D01*
Y317925D01*
X19721D01*
Y317696D01*
X20411D01*
Y317466D01*
Y317236D01*
X21100D01*
Y317006D01*
X21330D01*
Y316776D01*
X22250D01*
Y316546D01*
X23399D01*
Y316776D01*
Y317006D01*
Y317236D01*
X23629D01*
Y317466D01*
X23859D01*
Y317696D01*
X24319D01*
Y317925D01*
X24089D01*
Y318155D01*
Y318385D01*
X24549D01*
Y318615D01*
Y318845D01*
X24779D01*
Y319075D01*
X25239D01*
Y319305D01*
Y319535D01*
X25928D01*
Y319765D01*
X26618D01*
Y319995D01*
X26848D01*
Y320224D01*
X27767D01*
Y320454D01*
X27997D01*
Y320684D01*
X31676D01*
Y320454D01*
X31906D01*
Y320224D01*
X32825D01*
Y319995D01*
X33055D01*
Y319765D01*
X34204D01*
Y319535D01*
X34434D01*
Y319305D01*
Y319075D01*
X35124D01*
Y318845D01*
X35584D01*
Y318615D01*
Y318385D01*
X36044D01*
Y318155D01*
Y317925D01*
X36274D01*
Y317696D01*
X36733D01*
Y317466D01*
Y317236D01*
X36963D01*
Y317006D01*
Y316776D01*
Y316546D01*
X37423D01*
Y316316D01*
Y316086D01*
X37883D01*
Y315856D01*
Y315627D01*
Y315397D01*
X38113D01*
Y315167D01*
Y314937D01*
Y314707D01*
Y314477D01*
X38802D01*
Y314707D01*
X39032D01*
Y314937D01*
X39262D01*
Y315167D01*
X39492D01*
Y315397D01*
X39722D01*
Y315627D01*
X39952D01*
Y315856D01*
X40182D01*
Y316086D01*
X40412D01*
Y316316D01*
Y316546D01*
X40871D01*
Y316776D01*
X41101D01*
Y317006D01*
X41331D01*
Y317236D01*
X41561D01*
Y317466D01*
X41791D01*
Y317696D01*
X42251D01*
Y317925D01*
X42711D01*
Y318155D01*
Y318385D01*
X43170D01*
Y318615D01*
Y318845D01*
X43400D01*
Y319075D01*
X43860D01*
Y319305D01*
Y319535D01*
X44320D01*
Y319765D01*
X44550D01*
Y319995D01*
Y320224D01*
X45009D01*
Y320454D01*
Y320684D01*
X45469D01*
Y320914D01*
X120185D01*
Y320684D01*
D02*
G37*
G36*
X70332Y293097D02*
Y292867D01*
Y292637D01*
X70792D01*
Y292407D01*
Y292177D01*
X71021D01*
Y291947D01*
X71251D01*
Y291717D01*
X71481D01*
Y291488D01*
Y291258D01*
Y291028D01*
X71941D01*
Y290798D01*
Y290568D01*
X72401D01*
Y290338D01*
X72631D01*
Y290108D01*
Y289878D01*
Y289648D01*
Y289419D01*
X73091D01*
Y289189D01*
X73320D01*
Y288959D01*
X73550D01*
Y288729D01*
X73780D01*
Y288499D01*
Y288269D01*
Y288039D01*
X74240D01*
Y287809D01*
Y287579D01*
X74700D01*
Y287349D01*
X53320D01*
Y287579D01*
Y287809D01*
Y288039D01*
Y288269D01*
Y288499D01*
Y288729D01*
Y288959D01*
Y289189D01*
Y289419D01*
Y289648D01*
Y289878D01*
Y290108D01*
Y290338D01*
Y290568D01*
X54699D01*
Y290798D01*
Y291028D01*
X56998D01*
Y291258D01*
Y291488D01*
X59297D01*
Y291717D01*
X61596D01*
Y291947D01*
Y292177D01*
X63895D01*
Y292407D01*
Y292637D01*
X66194D01*
Y292867D01*
X68263D01*
Y293097D01*
X68493D01*
Y293327D01*
X70332D01*
Y293097D01*
D02*
G37*
G36*
X53320Y282062D02*
Y281832D01*
X56998D01*
Y281602D01*
X61136D01*
Y281372D01*
X61366D01*
Y281142D01*
X65504D01*
Y280912D01*
Y280683D01*
X69182D01*
Y280453D01*
X73320D01*
Y280223D01*
X73550D01*
Y279993D01*
X77229D01*
Y279763D01*
X76539D01*
Y279533D01*
Y279303D01*
X76079D01*
Y279073D01*
Y278843D01*
X75389D01*
Y278613D01*
X74700D01*
Y278384D01*
X74470D01*
Y278154D01*
X74240D01*
Y277924D01*
X73780D01*
Y277694D01*
X73320D01*
Y277464D01*
X72631D01*
Y277234D01*
Y277004D01*
X71941D01*
Y276774D01*
X71711D01*
Y276544D01*
X71481D01*
Y276315D01*
X70792D01*
Y276085D01*
Y275855D01*
X70102D01*
Y275625D01*
X69642D01*
Y275395D01*
Y275165D01*
X68952D01*
Y274935D01*
X68723D01*
Y274705D01*
X68033D01*
Y274475D01*
X67343D01*
Y274245D01*
Y274016D01*
X67113D01*
Y273786D01*
X66883D01*
Y273556D01*
X66194D01*
Y273326D01*
X65504D01*
Y273096D01*
X65274D01*
Y273326D01*
X64584D01*
Y273556D01*
X63895D01*
Y273786D01*
Y274016D01*
X63205D01*
Y274245D01*
X62975D01*
Y274475D01*
X61826D01*
Y274705D01*
X61136D01*
Y274935D01*
Y275165D01*
X60446D01*
Y275395D01*
X60216D01*
Y275625D01*
X59756D01*
Y275855D01*
X58837D01*
Y276085D01*
Y276315D01*
X57688D01*
Y276544D01*
Y276774D01*
X56998D01*
Y277004D01*
X56308D01*
Y277234D01*
Y277464D01*
X55388D01*
Y277694D01*
X55159D01*
Y277924D01*
X54239D01*
Y278154D01*
X53549D01*
Y278384D01*
Y278613D01*
X52860D01*
Y278843D01*
X52170D01*
Y279073D01*
Y279303D01*
X52630D01*
Y279533D01*
Y279763D01*
Y279993D01*
Y280223D01*
Y280453D01*
Y280683D01*
Y280912D01*
X52400D01*
Y281142D01*
X52860D01*
Y281372D01*
Y281602D01*
Y281832D01*
Y282062D01*
Y282292D01*
X53320D01*
Y282062D01*
D02*
G37*
G36*
X50561Y274016D02*
X51250D01*
Y273786D01*
X51480D01*
Y273556D01*
X52170D01*
Y273326D01*
Y273096D01*
X52860D01*
Y272866D01*
X53549D01*
Y272636D01*
X53779D01*
Y272406D01*
X54469D01*
Y272176D01*
Y271947D01*
X54929D01*
Y271717D01*
X55618D01*
Y271487D01*
Y271257D01*
X56308D01*
Y271027D01*
X56538D01*
Y270797D01*
X56998D01*
Y270567D01*
X57458D01*
Y270337D01*
Y270107D01*
X55618D01*
Y269877D01*
X53779D01*
Y269648D01*
X53549D01*
Y269418D01*
X51710D01*
Y269188D01*
X49641D01*
Y268958D01*
X49411D01*
Y268728D01*
X47572D01*
Y268498D01*
Y268268D01*
X45733D01*
Y268038D01*
X44354D01*
Y267808D01*
X44124D01*
Y268038D01*
Y268268D01*
X44354D01*
Y268498D01*
X44584D01*
Y268728D01*
X44813D01*
Y268958D01*
X45273D01*
Y269188D01*
Y269418D01*
X45503D01*
Y269648D01*
X45963D01*
Y269877D01*
Y270107D01*
X46423D01*
Y270337D01*
Y270567D01*
X46652D01*
Y270797D01*
X47112D01*
Y271027D01*
Y271257D01*
X47572D01*
Y271487D01*
Y271717D01*
X48032D01*
Y271947D01*
Y272176D01*
Y272406D01*
X48262D01*
Y272636D01*
Y272866D01*
X48721D01*
Y273096D01*
X48952D01*
Y273326D01*
Y273556D01*
X49411D01*
Y273786D01*
Y274016D01*
X49871D01*
Y274245D01*
X50561D01*
Y274016D01*
D02*
G37*
D10*
X232250Y331000D02*
X230250D01*
X232250D01*
X271296Y629947D02*
Y630947D01*
Y629947D01*
Y630947D01*
X460444Y97802D02*
Y98802D01*
X448444Y97802D02*
X448444Y98802D01*
X207280Y327089D02*
X208280D01*
X207280Y315089D02*
X208280D01*
X309368Y664870D02*
X339368D01*
X315401Y618531D02*
X330401D01*
X315401Y598531D02*
X330401D01*
X316924Y211360D02*
Y215860D01*
X345924D01*
Y211360D02*
Y215860D01*
X316924Y211360D02*
X345924D01*
X316424Y197360D02*
Y207859D01*
X385118Y418337D02*
X433118D01*
Y514337D01*
X385118D02*
X433118D01*
X385118Y418337D02*
Y514337D01*
X437197Y363817D02*
X485197D01*
Y459818D01*
X437197D02*
X485197D01*
X437197Y363817D02*
Y459818D01*
X383998Y309578D02*
X431998D01*
Y405578D01*
X383998D02*
X431998D01*
X383998Y309578D02*
Y405578D01*
X401343Y60729D02*
X402343D01*
X401343Y72729D02*
X402343D01*
X205846Y336220D02*
Y361620D01*
X155046Y336220D02*
X205846D01*
X155046D02*
Y361620D01*
X205846D01*
X392713Y540191D02*
Y541191D01*
X404713Y540191D02*
Y541191D01*
X233254Y357856D02*
Y358856D01*
X221254Y357856D02*
Y358856D01*
X253253Y358009D02*
Y359009D01*
X241253Y358009D02*
Y359009D01*
X162297Y134142D02*
X214257D01*
X162297Y108102D02*
X214257D01*
X237855Y166204D02*
Y218164D01*
X263895Y166204D02*
Y218164D01*
X230604Y108014D02*
Y121714D01*
Y108014D02*
X283904D01*
Y135414D01*
X244554D02*
X283904D01*
X185769Y286182D02*
X217769D01*
Y237282D02*
Y286182D01*
X185769Y237282D02*
X217769D01*
X185769D02*
Y286182D01*
X167019Y287532D02*
X182269D01*
X227090Y147315D02*
Y222315D01*
X157090Y147315D02*
Y222315D01*
X183645Y314845D02*
Y325345D01*
X154145Y311345D02*
X183145D01*
X154145Y306845D02*
Y311345D01*
Y306845D02*
X183145D01*
Y311345D01*
X317349Y130019D02*
Y181979D01*
X343389Y130019D02*
Y181979D01*
X314961Y325923D02*
Y377883D01*
X288921Y325923D02*
Y377883D01*
X286301Y238193D02*
X318301D01*
X286301D02*
Y287093D01*
X318301D01*
Y238193D02*
Y287093D01*
X321801Y236843D02*
X337051D01*
X293894Y164885D02*
X307594D01*
Y218185D01*
X280194D02*
X307594D01*
X280194Y178835D02*
Y218185D01*
X7191Y264119D02*
Y251122D01*
X2859Y264119D02*
X11523D01*
X13071D02*
Y251122D01*
Y257311D02*
X14928Y259168D01*
X16165Y259787D01*
X18022D01*
X19260Y259168D01*
X19879Y257311D01*
Y251122D01*
X23283Y256073D02*
X30710D01*
Y257311D01*
X30091Y258549D01*
X29472Y259168D01*
X28234Y259787D01*
X26377D01*
X25140Y259168D01*
X23902Y257930D01*
X23283Y256073D01*
Y254836D01*
X23902Y252979D01*
X25140Y251741D01*
X26377Y251122D01*
X28234D01*
X29472Y251741D01*
X30710Y252979D01*
X43707Y264119D02*
X46802Y251122D01*
X49896Y264119D02*
X46802Y251122D01*
X49896Y264119D02*
X52991Y251122D01*
X56085Y264119D02*
X52991Y251122D01*
X66112Y259787D02*
Y251122D01*
Y257930D02*
X64874Y259168D01*
X63636Y259787D01*
X61779D01*
X60542Y259168D01*
X59304Y257930D01*
X58685Y256073D01*
Y254836D01*
X59304Y252979D01*
X60542Y251741D01*
X61779Y251122D01*
X63636D01*
X64874Y251741D01*
X66112Y252979D01*
X76386Y257930D02*
X75767Y259168D01*
X73910Y259787D01*
X72053D01*
X70197Y259168D01*
X69578Y257930D01*
X70197Y256692D01*
X71434Y256073D01*
X74529Y255455D01*
X75767Y254836D01*
X76386Y253598D01*
Y252979D01*
X75767Y251741D01*
X73910Y251122D01*
X72053D01*
X70197Y251741D01*
X69578Y252979D01*
X79109Y259787D02*
Y246790D01*
Y257930D02*
X80347Y259168D01*
X81585Y259787D01*
X83441D01*
X84679Y259168D01*
X85917Y257930D01*
X86536Y256073D01*
Y254836D01*
X85917Y252979D01*
X84679Y251741D01*
X83441Y251122D01*
X81585D01*
X80347Y251741D01*
X79109Y252979D01*
D11*
X166536Y678305D02*
Y679305D01*
Y678305D01*
D12*
X490000Y40000D02*
X489892Y42544D01*
X489568Y45070D01*
X489032Y47559D01*
X488286Y49994D01*
X487336Y52357D01*
X486190Y54631D01*
X484855Y56799D01*
X483341Y58847D01*
X481658Y60758D01*
X479820Y62520D01*
X477839Y64120D01*
X475729Y65546D01*
X473506Y66788D01*
X471185Y67837D01*
X468784Y68685D01*
X466320Y69327D01*
X463810Y69757D01*
X461273Y69973D01*
X458726D01*
X456189Y69757D01*
X453679Y69327D01*
X451215Y68685D01*
X448814Y67837D01*
X446493Y66788D01*
X444270Y65546D01*
X442161Y64120D01*
X440179Y62520D01*
X438341Y60758D01*
X436659Y58847D01*
X435144Y56799D01*
X433809Y54631D01*
X432663Y52357D01*
X431713Y49994D01*
X430968Y47559D01*
X430431Y45070D01*
X430108Y42544D01*
X430000Y40000D01*
X430108Y37456D01*
X430431Y34930D01*
X430968Y32441D01*
X431713Y30006D01*
X432663Y27643D01*
X433809Y25369D01*
X435144Y23201D01*
X436659Y21153D01*
X438341Y19242D01*
X440179Y17480D01*
X442161Y15880D01*
X444270Y14454D01*
X446493Y13212D01*
X448814Y12163D01*
X451215Y11315D01*
X453679Y10673D01*
X456189Y10243D01*
X458726Y10027D01*
X461273D01*
X463810Y10243D01*
X466320Y10673D01*
X468784Y11315D01*
X471185Y12163D01*
X473506Y13212D01*
X475729Y14454D01*
X477839Y15880D01*
X479820Y17480D01*
X481658Y19242D01*
X483341Y21154D01*
X484855Y23201D01*
X486190Y25369D01*
X487337Y27643D01*
X488286Y30006D01*
X489032Y32441D01*
X489568Y34930D01*
X489892Y37456D01*
X490000Y40000D01*
Y590000D02*
X489892Y592544D01*
X489568Y595070D01*
X489032Y597559D01*
X488286Y599994D01*
X487336Y602357D01*
X486190Y604631D01*
X484855Y606799D01*
X483341Y608847D01*
X481658Y610758D01*
X479820Y612520D01*
X477839Y614120D01*
X475729Y615546D01*
X473506Y616788D01*
X471185Y617837D01*
X468784Y618685D01*
X466320Y619327D01*
X463810Y619757D01*
X461273Y619973D01*
X458726D01*
X456189Y619757D01*
X453679Y619327D01*
X451215Y618685D01*
X448814Y617837D01*
X446493Y616788D01*
X444270Y615546D01*
X442161Y614120D01*
X440179Y612520D01*
X438341Y610758D01*
X436659Y608847D01*
X435144Y606799D01*
X433809Y604631D01*
X432663Y602357D01*
X431713Y599994D01*
X430968Y597559D01*
X430431Y595070D01*
X430108Y592544D01*
X430000Y590000D01*
X430108Y587456D01*
X430431Y584930D01*
X430968Y582441D01*
X431713Y580006D01*
X432663Y577643D01*
X433809Y575369D01*
X435144Y573201D01*
X436659Y571153D01*
X438341Y569242D01*
X440179Y567480D01*
X442161Y565880D01*
X444270Y564454D01*
X446493Y563212D01*
X448814Y562163D01*
X451215Y561315D01*
X453679Y560673D01*
X456189Y560243D01*
X458726Y560027D01*
X461273D01*
X463810Y560243D01*
X466320Y560673D01*
X468784Y561315D01*
X471185Y562163D01*
X473506Y563212D01*
X475729Y564454D01*
X477839Y565880D01*
X479820Y567480D01*
X481658Y569242D01*
X483341Y571153D01*
X484855Y573201D01*
X486190Y575369D01*
X487337Y577643D01*
X488286Y580006D01*
X489032Y582441D01*
X489568Y584930D01*
X489892Y587456D01*
X490000Y590000D01*
X474525Y551329D02*
X472042Y551962D01*
X469514Y552382D01*
X466959Y552584D01*
X464396Y552567D01*
X461844Y552332D01*
X459322Y551879D01*
X456847Y551213D01*
X454439Y550339D01*
X452113Y549262D01*
X449888Y547990D01*
X447780Y546533D01*
X445803Y544902D01*
X443974Y543108D01*
X442304Y541164D01*
X440806Y539085D01*
X439490Y536885D01*
X438368Y534581D01*
X437446Y532190D01*
X436731Y529729D01*
X436230Y527216D01*
X435944Y524669D01*
X435877Y522107D01*
X436029Y519549D01*
X436398Y517013D01*
X436983Y514518D01*
X437778Y512082D01*
X438779Y509723D01*
X439977Y507457D01*
X441364Y505302D01*
X442930Y503274D01*
X444664Y501386D01*
X446552Y499654D01*
X448581Y498088D01*
X450736Y496702D01*
X453002Y495505D01*
X455362Y494505D01*
X457798Y493711D01*
X460294Y493127D01*
X462830Y492758D01*
X465388Y492607D01*
X467950Y492675D01*
X470496Y492962D01*
X473009Y493465D01*
X475470Y494180D01*
X477861Y495103D01*
X480164Y496226D01*
X482363Y497542D01*
X484442Y499041D01*
X486385Y500712D01*
X488179Y502542D01*
X489809Y504519D01*
X491265Y506628D01*
X70000Y40000D02*
X69892Y42544D01*
X69568Y45070D01*
X69032Y47559D01*
X68286Y49994D01*
X67336Y52357D01*
X66190Y54631D01*
X64855Y56799D01*
X63341Y58847D01*
X61658Y60758D01*
X59820Y62520D01*
X57839Y64120D01*
X55729Y65546D01*
X53506Y66788D01*
X51185Y67837D01*
X48784Y68685D01*
X46320Y69327D01*
X43810Y69757D01*
X41273Y69973D01*
X38726D01*
X36189Y69757D01*
X33679Y69327D01*
X31215Y68685D01*
X28814Y67837D01*
X26493Y66788D01*
X24270Y65546D01*
X22161Y64120D01*
X20179Y62520D01*
X18341Y60758D01*
X16659Y58847D01*
X15144Y56799D01*
X13809Y54631D01*
X12663Y52357D01*
X11713Y49994D01*
X10968Y47559D01*
X10431Y45070D01*
X10108Y42544D01*
X10000Y40000D01*
X10108Y37456D01*
X10431Y34930D01*
X10968Y32441D01*
X11713Y30006D01*
X12663Y27643D01*
X13809Y25369D01*
X15144Y23201D01*
X16659Y21153D01*
X18341Y19242D01*
X20179Y17480D01*
X22161Y15880D01*
X24270Y14454D01*
X26493Y13212D01*
X28814Y12163D01*
X31215Y11315D01*
X33679Y10673D01*
X36189Y10243D01*
X38726Y10027D01*
X41273D01*
X43810Y10243D01*
X46320Y10673D01*
X48784Y11315D01*
X51185Y12163D01*
X53506Y13212D01*
X55729Y14454D01*
X57839Y15880D01*
X59820Y17480D01*
X61658Y19242D01*
X63341Y21154D01*
X64855Y23201D01*
X66190Y25369D01*
X67337Y27643D01*
X68286Y30006D01*
X69032Y32441D01*
X69568Y34930D01*
X69892Y37456D01*
X70000Y40000D01*
Y590000D02*
X69892Y592544D01*
X69568Y595070D01*
X69032Y597559D01*
X68286Y599994D01*
X67336Y602357D01*
X66190Y604631D01*
X64855Y606799D01*
X63341Y608847D01*
X61658Y610758D01*
X59820Y612520D01*
X57839Y614120D01*
X55729Y615546D01*
X53506Y616788D01*
X51185Y617837D01*
X48784Y618685D01*
X46320Y619327D01*
X43810Y619757D01*
X41273Y619973D01*
X38726D01*
X36189Y619757D01*
X33679Y619327D01*
X31215Y618685D01*
X28814Y617837D01*
X26493Y616788D01*
X24270Y615546D01*
X22161Y614120D01*
X20179Y612520D01*
X18341Y610758D01*
X16659Y608847D01*
X15144Y606799D01*
X13809Y604631D01*
X12663Y602357D01*
X11713Y599994D01*
X10968Y597559D01*
X10431Y595070D01*
X10108Y592544D01*
X10000Y590000D01*
X10108Y587456D01*
X10431Y584930D01*
X10968Y582441D01*
X11713Y580006D01*
X12663Y577643D01*
X13809Y575369D01*
X15144Y573201D01*
X16659Y571153D01*
X18341Y569242D01*
X20179Y567480D01*
X22161Y565880D01*
X24270Y564454D01*
X26493Y563212D01*
X28814Y562163D01*
X31215Y561315D01*
X33679Y560673D01*
X36189Y560243D01*
X38726Y560027D01*
X41273D01*
X43810Y560243D01*
X46320Y560673D01*
X48784Y561315D01*
X51185Y562163D01*
X53506Y563212D01*
X55729Y564454D01*
X57839Y565880D01*
X59820Y567480D01*
X61658Y569242D01*
X63341Y571153D01*
X64855Y573201D01*
X66190Y575369D01*
X67337Y577643D01*
X68286Y580006D01*
X69032Y582441D01*
X69568Y584930D01*
X69892Y587456D01*
X70000Y590000D01*
X493001Y503047D02*
Y508573D01*
X492944Y508630D02*
X493001Y508573D01*
X487664Y508630D02*
X492944D01*
X487664D02*
X492944D01*
X473155Y554944D02*
X477081Y551019D01*
X473674Y547611D02*
X477007Y550945D01*
D13*
X429471Y412337D02*
D03*
X481551Y357817D02*
D03*
X428352Y303578D02*
D03*
D14*
X182536Y683555D02*
X200536D01*
X182536Y659805D02*
X198536D01*
X268748Y715183D02*
X270749D01*
Y751183D01*
X229748D02*
X270749D01*
X229748Y715183D02*
Y751183D01*
Y715183D02*
X268748D01*
X283496Y562947D02*
Y620947D01*
Y562947D02*
Y620947D01*
X220996Y562947D02*
Y620947D01*
Y562947D02*
Y620947D01*
X53390Y343604D02*
X55056D01*
X54223D01*
Y338605D01*
X53390D01*
X55056D01*
X60888D02*
X57555D01*
X60888Y341938D01*
Y342771D01*
X60054Y343604D01*
X58388D01*
X57555Y342771D01*
X65886D02*
X65053Y343604D01*
X63387D01*
X62554Y342771D01*
Y339439D01*
X63387Y338605D01*
X65053D01*
X65886Y339439D01*
X75883Y342771D02*
X75050Y343604D01*
X73383D01*
X72551Y342771D01*
Y341938D01*
X73383Y341105D01*
X75050D01*
X75883Y340271D01*
Y339439D01*
X75050Y338605D01*
X73383D01*
X72551Y339439D01*
X77549Y343604D02*
Y338605D01*
X80048D01*
X80881Y339439D01*
Y342771D01*
X80048Y343604D01*
X77549D01*
X82547Y338605D02*
Y341938D01*
X84213Y343604D01*
X85879Y341938D01*
Y338605D01*
Y341105D01*
X82547D01*
X53718Y367691D02*
X55384D01*
X54551D01*
Y362693D01*
X53718D01*
X55384D01*
X61215D02*
X57883D01*
X61215Y366025D01*
Y366858D01*
X60382Y367691D01*
X58716D01*
X57883Y366858D01*
X66214D02*
X65381Y367691D01*
X63715D01*
X62881Y366858D01*
Y363526D01*
X63715Y362693D01*
X65381D01*
X66214Y363526D01*
X76210Y366858D02*
X75377Y367691D01*
X73711D01*
X72878Y366858D01*
Y366025D01*
X73711Y365192D01*
X75377D01*
X76210Y364359D01*
Y363526D01*
X75377Y362693D01*
X73711D01*
X72878Y363526D01*
X81209Y366858D02*
X80376Y367691D01*
X78710D01*
X77877Y366858D01*
Y363526D01*
X78710Y362693D01*
X80376D01*
X81209Y363526D01*
X82875Y367691D02*
Y362693D01*
X86207D01*
D15*
X234881Y636546D02*
X226884D01*
Y640545D01*
X228217Y641878D01*
X230882D01*
X232215Y640545D01*
Y636546D01*
X226884Y644544D02*
Y647209D01*
Y645876D01*
X234881D01*
Y644544D01*
Y647209D01*
X226884Y651208D02*
X234881D01*
Y655207D01*
X233548Y656540D01*
X228217D01*
X226884Y655207D01*
Y651208D01*
X234881Y659205D02*
Y661871D01*
Y660538D01*
X226884D01*
X228217Y659205D01*
X249416Y636757D02*
X241419D01*
Y640756D01*
X242752Y642088D01*
X245417D01*
X246750Y640756D01*
Y636757D01*
X241419Y644754D02*
Y647420D01*
Y646087D01*
X249416D01*
Y644754D01*
Y647420D01*
X241419Y651419D02*
X249416D01*
Y655417D01*
X248083Y656750D01*
X242752D01*
X241419Y655417D01*
Y651419D01*
X249416Y664748D02*
Y659416D01*
X244084Y664748D01*
X242752D01*
X241419Y663415D01*
Y660749D01*
X242752Y659416D01*
X263424Y636546D02*
X255427D01*
Y640545D01*
X256760Y641878D01*
X259426D01*
X260758Y640545D01*
Y636546D01*
X255427Y644544D02*
Y647209D01*
Y645876D01*
X263424D01*
Y644544D01*
Y647209D01*
X255427Y651208D02*
X263424D01*
Y655207D01*
X262091Y656540D01*
X256760D01*
X255427Y655207D01*
Y651208D01*
X256760Y659205D02*
X255427Y660538D01*
Y663204D01*
X256760Y664537D01*
X258093D01*
X259426Y663204D01*
Y661871D01*
Y663204D01*
X260758Y664537D01*
X262091D01*
X263424Y663204D01*
Y660538D01*
X262091Y659205D01*
X277327Y635914D02*
X269330D01*
Y639913D01*
X270663Y641246D01*
X273328D01*
X274662Y639913D01*
Y635914D01*
X269330Y643912D02*
Y646577D01*
Y645245D01*
X277327D01*
Y643912D01*
Y646577D01*
X269330Y650576D02*
X277327D01*
Y654575D01*
X275994Y655908D01*
X270663D01*
X269330Y654575D01*
Y650576D01*
X277327Y662572D02*
X269330D01*
X273328Y658574D01*
Y663905D01*
X466917Y87142D02*
X472249D01*
X474915Y89807D01*
X472249Y92473D01*
X466917D01*
Y95139D02*
X474915D01*
Y99138D01*
X473582Y100471D01*
X468250D01*
X466917Y99138D01*
Y95139D01*
Y103136D02*
X474915D01*
Y107135D01*
X473582Y108468D01*
X468250D01*
X466917Y107135D01*
Y103136D01*
X438596Y333044D02*
Y341042D01*
X442595D01*
X443928Y339709D01*
Y337043D01*
X442595Y335710D01*
X438596D01*
X446594Y341042D02*
X449259D01*
X447926D01*
Y333044D01*
X446594D01*
X449259D01*
X453258Y341042D02*
Y333044D01*
X457257D01*
X458590Y334377D01*
Y339709D01*
X457257Y341042D01*
X453258D01*
X461255Y337043D02*
X466587D01*
X469253Y341042D02*
Y333044D01*
X473252D01*
X474585Y334377D01*
Y339709D01*
X473252Y341042D01*
X469253D01*
X497026Y397228D02*
X489029D01*
Y401227D01*
X490362Y402560D01*
X493028D01*
X494361Y401227D01*
Y397228D01*
X489029Y405225D02*
Y407891D01*
Y406558D01*
X497026D01*
Y405225D01*
Y407891D01*
X489029Y411890D02*
X497026D01*
Y415888D01*
X495693Y417221D01*
X490362D01*
X489029Y415888D01*
Y411890D01*
X493028Y419887D02*
Y425219D01*
X489029Y427885D02*
Y430550D01*
Y429218D01*
X497026D01*
Y427885D01*
Y430550D01*
X438445Y477049D02*
Y485046D01*
X442444D01*
X443777Y483713D01*
Y481048D01*
X442444Y479715D01*
X438445D01*
X446442Y485046D02*
X449108D01*
X447775D01*
Y477049D01*
X446442D01*
X449108D01*
X453107Y485046D02*
Y477049D01*
X457106D01*
X458438Y478382D01*
Y483713D01*
X457106Y485046D01*
X453107D01*
X461104Y481048D02*
X466436D01*
X469102Y477049D02*
Y485046D01*
X473101D01*
X474433Y483713D01*
Y481048D01*
X473101Y479715D01*
X469102D01*
X492833Y513570D02*
X498164D01*
X482981Y553076D02*
X488312D01*
X485647Y555742D02*
Y550410D01*
X383325Y12287D02*
X384658Y13620D01*
X387323D01*
X388656Y12287D01*
Y10955D01*
X387323Y9622D01*
X385990D01*
X387323D01*
X388656Y8289D01*
Y6956D01*
X387323Y5623D01*
X384658D01*
X383325Y6956D01*
X391322Y5623D02*
Y6956D01*
X392655D01*
Y5623D01*
X391322D01*
X397987Y12287D02*
X399320Y13620D01*
X401985D01*
X403318Y12287D01*
Y10955D01*
X401985Y9622D01*
X400653D01*
X401985D01*
X403318Y8289D01*
Y6956D01*
X401985Y5623D01*
X399320D01*
X397987Y6956D01*
X405984Y13620D02*
Y8289D01*
X408650Y5623D01*
X411316Y8289D01*
Y13620D01*
X450824Y285897D02*
X458821D01*
Y281898D01*
X457488Y280565D01*
X454823D01*
X453490Y281898D01*
Y285897D01*
Y283231D02*
X450824Y280565D01*
X457488Y272568D02*
X458821Y273901D01*
Y276566D01*
X457488Y277899D01*
X452157D01*
X450824Y276566D01*
Y273901D01*
X452157Y272568D01*
X450824Y261905D02*
X458821D01*
Y257906D01*
X457488Y256573D01*
X454823D01*
X453490Y257906D01*
Y261905D01*
Y259239D02*
X450824Y256573D01*
Y249908D02*
Y252574D01*
X452157Y253907D01*
X454823D01*
X456156Y252574D01*
Y249908D01*
X454823Y248575D01*
X453490D01*
Y253907D01*
X456156Y240578D02*
Y244577D01*
X454823Y245910D01*
X452157D01*
X450824Y244577D01*
Y240578D01*
Y237912D02*
Y235246D01*
Y236579D01*
X456156D01*
Y237912D01*
X450824Y227249D02*
Y229915D01*
X452157Y231248D01*
X454823D01*
X456156Y229915D01*
Y227249D01*
X454823Y225916D01*
X453490D01*
Y231248D01*
X456156Y223250D02*
X450824Y220584D01*
X456156Y217919D01*
X450824Y211254D02*
Y213920D01*
X452157Y215253D01*
X454823D01*
X456156Y213920D01*
Y211254D01*
X454823Y209921D01*
X453490D01*
Y215253D01*
X456156Y207255D02*
X450824D01*
X453490D01*
X454823Y205923D01*
X456156Y204590D01*
Y203257D01*
X446578Y132021D02*
X451910D01*
X449244D01*
Y124024D01*
X454575D02*
Y132021D01*
X458574D01*
X459907Y130688D01*
Y128022D01*
X458574Y126689D01*
X454575D01*
X457241D02*
X459907Y124024D01*
X462573Y132021D02*
X465239D01*
X463906D01*
Y124024D01*
X462573D01*
X465239D01*
X474569Y130688D02*
X473236Y132021D01*
X470570D01*
X469237Y130688D01*
Y125357D01*
X470570Y124024D01*
X473236D01*
X474569Y125357D01*
Y128022D01*
X471903D01*
X451146Y159262D02*
X445814D01*
Y151265D01*
X451146D01*
X445814Y155264D02*
X448480D01*
X459143Y157929D02*
X457810Y159262D01*
X455145D01*
X453812Y157929D01*
Y152598D01*
X455145Y151265D01*
X457810D01*
X459143Y152598D01*
X461809Y159262D02*
Y151265D01*
Y155264D01*
X467141D01*
Y159262D01*
Y151265D01*
X473805Y159262D02*
X471139D01*
X469807Y157929D01*
Y152598D01*
X471139Y151265D01*
X473805D01*
X475138Y152598D01*
Y157929D01*
X473805Y159262D01*
X451655Y182370D02*
X450322Y183703D01*
X447656D01*
X446323Y182370D01*
Y177038D01*
X447656Y175706D01*
X450322D01*
X451655Y177038D01*
Y179704D01*
X448989D01*
X454321Y175706D02*
Y183703D01*
X459652Y175706D01*
Y183703D01*
X462318D02*
Y175706D01*
X466317D01*
X467650Y177038D01*
Y182370D01*
X466317Y183703D01*
X462318D01*
X406219Y53761D02*
Y48429D01*
X408885Y45763D01*
X411551Y48429D01*
Y53761D01*
X414216D02*
Y45763D01*
X418215D01*
X419548Y47096D01*
Y52428D01*
X418215Y53761D01*
X414216D01*
X422214D02*
Y45763D01*
X426213D01*
X427546Y47096D01*
Y52428D01*
X426213Y53761D01*
X422214D01*
X46381Y140548D02*
X45048Y139215D01*
Y136549D01*
X46381Y135216D01*
X51713D01*
X53046Y136549D01*
Y139215D01*
X51713Y140548D01*
X49047D01*
Y137882D01*
X53046Y143213D02*
X45048D01*
Y147212D01*
X46381Y148545D01*
X49047D01*
X50380Y147212D01*
Y143213D01*
X46381Y156542D02*
X45048Y155210D01*
Y152544D01*
X46381Y151211D01*
X47714D01*
X49047Y152544D01*
Y155210D01*
X50380Y156542D01*
X51713D01*
X53046Y155210D01*
Y152544D01*
X51713Y151211D01*
X46381Y172537D02*
X45048Y171204D01*
Y168539D01*
X46381Y167206D01*
X51713D01*
X53046Y168539D01*
Y171204D01*
X51713Y172537D01*
X53046Y176536D02*
Y179202D01*
X51713Y180535D01*
X49047D01*
X47714Y179202D01*
Y176536D01*
X49047Y175203D01*
X51713D01*
X53046Y176536D01*
Y183200D02*
X47714D01*
Y187199D01*
X49047Y188532D01*
X53046D01*
Y191198D02*
X47714D01*
Y195197D01*
X49047Y196530D01*
X53046D01*
Y203194D02*
Y200528D01*
X51713Y199195D01*
X49047D01*
X47714Y200528D01*
Y203194D01*
X49047Y204527D01*
X50380D01*
Y199195D01*
X47714Y212524D02*
Y208526D01*
X49047Y207193D01*
X51713D01*
X53046Y208526D01*
Y212524D01*
X46381Y216523D02*
X47714D01*
Y215190D01*
Y217856D01*
Y216523D01*
X51713D01*
X53046Y217856D01*
Y223188D02*
Y225853D01*
X51713Y227186D01*
X49047D01*
X47714Y225853D01*
Y223188D01*
X49047Y221855D01*
X51713D01*
X53046Y223188D01*
X47714Y229852D02*
X53046D01*
X50380D01*
X49047Y231185D01*
X47714Y232518D01*
Y233851D01*
X481347Y100347D02*
X488011D01*
X489344Y101680D01*
Y104345D01*
X488011Y105678D01*
X481347D01*
X489344Y108344D02*
Y111010D01*
Y109677D01*
X481347D01*
Y108344D01*
X482680Y116341D02*
X484013D01*
Y115009D01*
Y117674D01*
Y116341D01*
X488011D01*
X489344Y117674D01*
X484013Y121673D02*
X489344D01*
X486679D01*
X485346Y123006D01*
X484013Y124339D01*
Y125672D01*
Y131004D02*
Y133669D01*
X485346Y135002D01*
X489344D01*
Y131004D01*
X488011Y129671D01*
X486679Y131004D01*
Y135002D01*
X489344Y137668D02*
Y141667D01*
X488011Y143000D01*
X486679Y141667D01*
Y139001D01*
X485346Y137668D01*
X484013Y139001D01*
Y143000D01*
X489344Y146998D02*
Y149664D01*
X488011Y150997D01*
X485346D01*
X484013Y149664D01*
Y146998D01*
X485346Y145665D01*
X488011D01*
X489344Y146998D01*
Y153663D02*
X484013D01*
Y157662D01*
X485346Y158994D01*
X489344D01*
Y161660D02*
Y164326D01*
Y162993D01*
X484013D01*
Y161660D01*
Y173656D02*
Y169658D01*
X485346Y168325D01*
X488011D01*
X489344Y169658D01*
Y173656D01*
X291525Y93004D02*
X292857Y91671D01*
Y89005D01*
X291525Y87673D01*
X290192D01*
X288859Y89005D01*
Y90338D01*
Y89005D01*
X287526Y87673D01*
X286193D01*
X284860Y89005D01*
Y91671D01*
X286193Y93004D01*
X284860Y85007D02*
X286193D01*
Y83674D01*
X284860D01*
Y85007D01*
X291525Y78342D02*
X292857Y77009D01*
Y74344D01*
X291525Y73011D01*
X290192D01*
X288859Y74344D01*
Y75676D01*
Y74344D01*
X287526Y73011D01*
X286193D01*
X284860Y74344D01*
Y77009D01*
X286193Y78342D01*
X292857Y70345D02*
X287526D01*
X284860Y67679D01*
X287526Y65013D01*
X292857D01*
X284860Y54350D02*
X292857D01*
Y50351D01*
X291525Y49018D01*
X288859D01*
X287526Y50351D01*
Y54350D01*
X284860Y45020D02*
Y42354D01*
X286193Y41021D01*
X288859D01*
X290192Y42354D01*
Y45020D01*
X288859Y46353D01*
X286193D01*
X284860Y45020D01*
X290192Y38355D02*
X286193D01*
X284860Y37022D01*
X286193Y35689D01*
X284860Y34357D01*
X286193Y33024D01*
X290192D01*
X284860Y26359D02*
Y29025D01*
X286193Y30358D01*
X288859D01*
X290192Y29025D01*
Y26359D01*
X288859Y25026D01*
X287526D01*
Y30358D01*
X290192Y22360D02*
X284860D01*
X287526D01*
X288859Y21027D01*
X290192Y19695D01*
Y18362D01*
X233074Y76885D02*
Y82216D01*
X229075D01*
X230408Y79550D01*
Y78218D01*
X229075Y76885D01*
X226409D01*
X225077Y78218D01*
Y80883D01*
X226409Y82216D01*
X233074Y74219D02*
X227742D01*
X225077Y71553D01*
X227742Y68887D01*
X233074D01*
X225077Y58224D02*
X233074D01*
Y54225D01*
X231741Y52892D01*
X229075D01*
X227742Y54225D01*
Y58224D01*
X225077Y48894D02*
Y46228D01*
X226409Y44895D01*
X229075D01*
X230408Y46228D01*
Y48894D01*
X229075Y50227D01*
X226409D01*
X225077Y48894D01*
X230408Y42229D02*
X226409D01*
X225077Y40896D01*
X226409Y39563D01*
X225077Y38230D01*
X226409Y36897D01*
X230408D01*
X225077Y30233D02*
Y32899D01*
X226409Y34232D01*
X229075D01*
X230408Y32899D01*
Y30233D01*
X229075Y28900D01*
X227742D01*
Y34232D01*
X230408Y26234D02*
X225077D01*
X227742D01*
X229075Y24901D01*
X230408Y23568D01*
Y22236D01*
D16*
X440405Y521735D02*
Y527733D01*
X443404D01*
X444404Y526733D01*
Y524734D01*
X443404Y523734D01*
X440405D01*
X446403Y527733D02*
X448403D01*
X447403D01*
Y521735D01*
X446403D01*
X448403D01*
X451402Y527733D02*
Y521735D01*
X454401D01*
X455400Y522734D01*
Y526733D01*
X454401Y527733D01*
X451402D01*
X463398D02*
X467396D01*
X465397D01*
Y521735D01*
X469396Y525733D02*
Y522734D01*
X470396Y521735D01*
X473395D01*
Y525733D01*
X475394Y521735D02*
Y525733D01*
X478393D01*
X479393Y524734D01*
Y521735D01*
X481392D02*
X483391D01*
X482392D01*
Y525733D01*
X481392D01*
X486390Y521735D02*
Y525733D01*
X489389D01*
X490389Y524734D01*
Y521735D01*
X494388Y519735D02*
X495387D01*
X496387Y520735D01*
Y525733D01*
X493388D01*
X492388Y524734D01*
Y522734D01*
X493388Y521735D01*
X496387D01*
D17*
X13068Y551483D02*
X11402Y553149D01*
X8070D01*
X6404Y551483D01*
Y544818D01*
X8070Y543152D01*
X11402D01*
X13068Y544818D01*
X16401Y549817D02*
Y544818D01*
X18067Y543152D01*
X23065D01*
Y549817D01*
X26397D02*
Y543152D01*
Y546484D01*
X28063Y548150D01*
X29730Y549817D01*
X31396D01*
X36394D02*
Y543152D01*
Y546484D01*
X38060Y548150D01*
X39726Y549817D01*
X41392D01*
X51389Y543152D02*
X48057D01*
X46391Y544818D01*
Y548150D01*
X48057Y549817D01*
X51389D01*
X53055Y548150D01*
Y546484D01*
X46391D01*
X56388Y543152D02*
Y549817D01*
X61386D01*
X63052Y548150D01*
Y543152D01*
X68051Y551483D02*
Y549817D01*
X66385D01*
X69717D01*
X68051D01*
Y544818D01*
X69717Y543152D01*
X23593Y509911D02*
X16928D01*
Y499915D01*
X23593D01*
X16928Y504913D02*
X20261D01*
X33590Y508245D02*
X31924Y509911D01*
X28591D01*
X26925Y508245D01*
Y506579D01*
X28591Y504913D01*
X31924D01*
X33590Y503247D01*
Y501581D01*
X31924Y499915D01*
X28591D01*
X26925Y501581D01*
X43587Y508245D02*
X41920Y509911D01*
X38588D01*
X36922Y508245D01*
Y501581D01*
X38588Y499915D01*
X41920D01*
X43587Y501581D01*
X51917Y499915D02*
Y509911D01*
X46919Y504913D01*
X53583D01*
X21952Y485139D02*
X15287D01*
Y475142D01*
X21952D01*
X15287Y480141D02*
X18620D01*
X31949Y483473D02*
X30283Y485139D01*
X26950D01*
X25284Y483473D01*
Y481807D01*
X26950Y480141D01*
X30283D01*
X31949Y478475D01*
Y476808D01*
X30283Y475142D01*
X26950D01*
X25284Y476808D01*
X41946Y483473D02*
X40279Y485139D01*
X36947D01*
X35281Y483473D01*
Y476808D01*
X36947Y475142D01*
X40279D01*
X41946Y476808D01*
X45278Y483473D02*
X46944Y485139D01*
X50276D01*
X51942Y483473D01*
Y481807D01*
X50276Y480141D01*
X48610D01*
X50276D01*
X51942Y478475D01*
Y476808D01*
X50276Y475142D01*
X46944D01*
X45278Y476808D01*
X22936Y459711D02*
X16272D01*
Y449714D01*
X22936D01*
X16272Y454712D02*
X19604D01*
X32933Y458045D02*
X31267Y459711D01*
X27935D01*
X26269Y458045D01*
Y456379D01*
X27935Y454712D01*
X31267D01*
X32933Y453046D01*
Y451380D01*
X31267Y449714D01*
X27935D01*
X26269Y451380D01*
X42930Y458045D02*
X41264Y459711D01*
X37931D01*
X36265Y458045D01*
Y451380D01*
X37931Y449714D01*
X41264D01*
X42930Y451380D01*
X52927Y449714D02*
X46262D01*
X52927Y456379D01*
Y458045D01*
X51260Y459711D01*
X47928D01*
X46262Y458045D01*
X25233Y434283D02*
X18569D01*
Y424286D01*
X25233D01*
X18569Y429284D02*
X21901D01*
X35230Y432617D02*
X33564Y434283D01*
X30231D01*
X28565Y432617D01*
Y430950D01*
X30231Y429284D01*
X33564D01*
X35230Y427618D01*
Y425952D01*
X33564Y424286D01*
X30231D01*
X28565Y425952D01*
X45227Y432617D02*
X43561Y434283D01*
X40228D01*
X38562Y432617D01*
Y425952D01*
X40228Y424286D01*
X43561D01*
X45227Y425952D01*
X48559Y424286D02*
X51891D01*
X50225D01*
Y434283D01*
X48559Y432617D01*
X30508Y407033D02*
X28842Y408699D01*
X25510D01*
X23844Y407033D01*
Y400369D01*
X25510Y398703D01*
X28842D01*
X30508Y400369D01*
Y403701D01*
X27176D01*
X33840Y398703D02*
Y408699D01*
X40505Y398703D01*
Y408699D01*
X43837D02*
Y398703D01*
X48836D01*
X50502Y400369D01*
Y407033D01*
X48836Y408699D01*
X43837D01*
D18*
X390089Y660060D02*
X390191Y657577D01*
X390499Y655111D01*
X391009Y652679D01*
X391718Y650297D01*
X392621Y647982D01*
X393713Y645749D01*
X394985Y643614D01*
X396429Y641592D01*
X398035Y639695D01*
X399793Y637938D01*
X401689Y636332D01*
X403712Y634888D01*
X405846Y633616D01*
X408079Y632524D01*
X410394Y631621D01*
X412776Y630912D01*
X415209Y630402D01*
X417675Y630094D01*
X420158Y629991D01*
X390089Y739965D02*
X389986Y742447D01*
X389679Y744912D01*
X389169Y747344D01*
X388460Y749725D01*
X387557Y752039D01*
X386466Y754271D01*
X385194Y756405D01*
X383751Y758427D01*
X382145Y760323D01*
X380388Y762080D01*
X378493Y763685D01*
X376471Y765129D01*
X374337Y766401D01*
X372105Y767492D01*
X369790Y768395D01*
X367409Y769104D01*
X364978Y769613D01*
X362513Y769921D01*
X360030Y770023D01*
X439985Y-0D02*
X442533Y54D01*
X445075Y216D01*
X447609Y486D01*
X450129Y863D01*
X452630Y1347D01*
X455109Y1936D01*
X457560Y2630D01*
X459980Y3428D01*
X462364Y4328D01*
X464707Y5328D01*
X467006Y6426D01*
X469256Y7621D01*
X471454Y8911D01*
X473594Y10292D01*
X475674Y11763D01*
X477690Y13322D01*
X479638Y14964D01*
X481515Y16688D01*
X483316Y18489D01*
X485040Y20366D01*
X486682Y22313D01*
X488240Y24329D01*
X489711Y26409D01*
X491093Y28550D01*
X492382Y30747D01*
X493577Y32998D01*
X494676Y35296D01*
X495676Y37640D01*
X496575Y40024D01*
X497373Y42443D01*
X498067Y44895D01*
X498657Y47373D01*
X499141Y49875D01*
X499518Y52395D01*
X499788Y54928D01*
X499950Y57471D01*
X500004Y60018D01*
X500004Y599990D02*
X499901Y602468D01*
X499594Y604928D01*
X499086Y607355D01*
X498378Y609732D01*
X497477Y612042D01*
X496387Y614270D01*
X495118Y616400D01*
X493677Y618418D01*
X492075Y620310D01*
X490321Y622063D01*
X488429Y623666D01*
X486411Y625107D01*
X484280Y626376D01*
X482052Y627465D01*
X479742Y628366D01*
X477366Y629074D01*
X474939Y629583D01*
X472478Y629889D01*
X470000Y629991D01*
X140077Y770023D02*
X137592Y769921D01*
X135125Y769613D01*
X132691Y769103D01*
X130307Y768393D01*
X127991Y767489D01*
X125756Y766397D01*
X123620Y765124D01*
X121596Y763679D01*
X119698Y762072D01*
X117940Y760313D01*
X116333Y758415D01*
X114888Y756391D01*
X113615Y754255D01*
X112522Y752021D01*
X111618Y749704D01*
X110909Y747321D01*
X110398Y744887D01*
X110091Y742419D01*
X109988Y739934D01*
X79970Y629991D02*
X82449Y630094D01*
X84911Y630401D01*
X87339Y630910D01*
X89717Y631618D01*
X92028Y632520D01*
X94257Y633610D01*
X96389Y634879D01*
X98408Y636321D01*
X100301Y637924D01*
X102055Y639679D01*
X103659Y641572D01*
X105100Y643591D01*
X106370Y645723D01*
X107460Y647951D01*
X108362Y650263D01*
X109070Y652640D01*
X109579Y655069D01*
X109886Y657531D01*
X109988Y660009D01*
X0Y59992D02*
X54Y57446D01*
X216Y54904D01*
X486Y52372D01*
X863Y49853D01*
X1347Y47353D01*
X1936Y44875D01*
X2630Y42425D01*
X3427Y40006D01*
X4326Y37624D01*
X5326Y35281D01*
X6424Y32983D01*
X7618Y30734D01*
X8907Y28538D01*
X10288Y26398D01*
X11759Y24319D01*
X13316Y22304D01*
X14958Y20357D01*
X16681Y18481D01*
X18481Y16680D01*
X20357Y14957D01*
X22304Y13316D01*
X24319Y11758D01*
X26398Y10288D01*
X28538Y8907D01*
X30735Y7618D01*
X32984Y6423D01*
X35282Y5325D01*
X37624Y4326D01*
X40007Y3427D01*
X42425Y2629D01*
X44876Y1936D01*
X47353Y1346D01*
X49854Y863D01*
X52372Y486D01*
X54905Y216D01*
X57446Y54D01*
X59992Y-0D01*
X30084Y629991D02*
X27599Y629889D01*
X25132Y629581D01*
X22699Y629071D01*
X20316Y628361D01*
X17999Y627458D01*
X15766Y626366D01*
X13630Y625093D01*
X11606Y623648D01*
X9709Y622041D01*
X7951Y620283D01*
X6344Y618386D01*
X4899Y616362D01*
X3626Y614226D01*
X2534Y611992D01*
X1630Y609676D01*
X921Y607293D01*
X410Y604859D01*
X103Y602392D01*
X0Y599908D01*
X390089Y660061D02*
Y739965D01*
X140077Y770023D02*
X360030D01*
X500004Y60019D02*
Y599988D01*
X420158Y629991D02*
X470000D01*
X109988Y660009D02*
Y739934D01*
X30084Y629991D02*
X79970D01*
X59993Y-0D02*
X439985D01*
X0Y59992D02*
Y599908D01*
M02*
