%FSTAX23Y23*%
%MOIN*%
%SFA1B1*%

%IPPOS*%
%ADD13C,0.003940*%
%ADD16C,0.008000*%
%ADD110C,0.001970*%
%LNflightcontroller-1*%
%LPD*%
G54D13*
X02333Y-00618D02*
Y00011D01*
Y-00618D02*
X02942D01*
Y00011*
X02333D02*
X02942D01*
X02153Y-01173D02*
Y-01134D01*
X02133Y-01153D02*
X02172D01*
X01041Y-00849D02*
X01374Y-00517D01*
X01041Y-00849D02*
X012Y-01008D01*
X01374Y-00517D02*
X01533Y-00675D01*
X012Y-01008D02*
X01533Y-00675D01*
X01181Y-00645D02*
X01209Y-00617D01*
X01181D02*
X01209Y-00645D01*
X0148Y-00488D02*
X01508Y-0046D01*
X0148D02*
X01508Y-00488D01*
X01913Y-0018D02*
X0194Y-00208D01*
X01913D02*
X0194Y-0018D01*
X02193Y-00641D02*
X02221Y-00613D01*
X02193D02*
X02221Y-00641D01*
X0194Y-00893D02*
X01968Y-00865D01*
X0194D02*
X01968Y-00893D01*
X01995Y-00146D02*
X02023Y-00173D01*
X01995D02*
X02023Y-00146D01*
X02229Y-00489D02*
X02257Y-00517D01*
X02229D02*
X02257Y-00489D01*
X01425Y-00433D02*
X01453Y-00405D01*
X01425D02*
X01453Y-00433D01*
X01855Y-01026D02*
X01892D01*
X01874Y-01045D02*
Y-01008D01*
X01351Y-00264D02*
X01377Y-0029D01*
X01351D02*
X01377Y-00264D01*
X01281Y-00546D02*
X01309Y-00518D01*
X01281D02*
X01309Y-00546D01*
X01365Y-00378D02*
X01393Y-0035D01*
X01365D02*
X01393Y-00378D01*
X01554Y-00789D02*
X01581Y-00815D01*
X01554D02*
X01581Y-00789D01*
X00826Y-00687D02*
Y-0065D01*
X00808Y-00669D02*
X00845D01*
X01609Y-01D02*
X01637Y-00972D01*
X01609D02*
X01637Y-01D01*
X01511Y-01098D02*
X01539Y-0107D01*
X01511D02*
X01539Y-01098D01*
X00826Y-00766D02*
Y-00729D01*
X00808Y-00748D02*
X00845D01*
X02398Y-0071D02*
Y-00673D01*
X02379Y-00691D02*
X02417D01*
X02398Y-00775D02*
Y-00737D01*
X0238Y-00756D02*
X02417D01*
X02346Y00126D02*
X02385D01*
X02365Y00107D02*
Y00146D01*
X02515Y-01115D02*
Y-01076D01*
X02496Y-01095D02*
X02535D01*
X02434Y-01115D02*
Y-01076D01*
X02415Y-01095D02*
X02454D01*
X0297Y00657D02*
X0358D01*
Y00027D02*
Y00657D01*
X0297Y00027D02*
X0358D01*
X0297D02*
Y00657D01*
X01389Y-01388D02*
X01402Y-01425D01*
X01377Y-01414D02*
X01414Y-014D01*
X02087Y00269D02*
Y00306D01*
X02068Y00287D02*
X02106D01*
X02033Y00199D02*
Y00237D01*
X02015Y00218D02*
X02052D01*
X02331Y-01243D02*
Y-01204D01*
X02311Y-01224D02*
X0235D01*
X01922Y00199D02*
Y00237D01*
X01904Y00218D02*
X01941D01*
X02252Y-01243D02*
Y-01204D01*
X02232Y-01224D02*
X02271D01*
X01862Y00268D02*
Y00306D01*
X01843Y00287D02*
X01881D01*
X02966Y00015D02*
X03576D01*
Y-00614D02*
Y00015D01*
X02966Y-00614D02*
X03576D01*
X02966D02*
Y00015D01*
X01822Y00321D02*
X02147D01*
X01822D02*
Y00667D01*
X02147*
Y00321D02*
Y00667D01*
X00826Y-00609D02*
Y-00571D01*
X00808Y-0059D02*
X00845D01*
X00826Y-0053D02*
Y-00493D01*
X00808Y-00511D02*
X00845D01*
X01626Y0173D02*
X02091D01*
X01626D02*
Y02077D01*
X02091*
Y0173D02*
Y02077D01*
G54D16*
X02937Y0082D02*
X02976Y00813D01*
X03053Y00813D02*
X03081Y00813D01*
X02864Y00845D02*
X029Y0083D01*
X02937Y0082*
X03081Y00813D02*
X03108Y00806D01*
X03132Y00794*
X03014Y00811D02*
X03053Y00813D01*
X02976Y00813D02*
X03014Y00811D01*
X0272Y00973D02*
X02743Y00941D01*
X02769Y00912*
X02686Y01043D02*
X02701Y01007D01*
X0272Y00973*
X02798Y00886D02*
X0283Y00864D01*
X02864Y00845*
X02769Y00912D02*
X02798Y00886D01*
X0376Y00508D02*
X03787Y00485D01*
X03812Y00459*
X03698Y00543D02*
X0373Y00528D01*
X0376Y00508*
X03849Y00398D02*
X03862Y00365D01*
X03871Y0033*
X03812Y00459D02*
X03832Y0043D01*
X03849Y00398*
X033Y00695D02*
X03388Y00652D01*
X03478Y00615*
X03132Y00794D02*
X03215Y00742D01*
X033Y00695*
X0357Y00582D02*
X03664Y00554D01*
X03698Y00543*
X03478Y00615D02*
X0357Y00582D01*
X0228Y01982D02*
X02309Y01961D01*
X02336Y01937*
X02215Y02012D02*
X02248Y01999D01*
X0228Y01982*
X02378Y01879D02*
X02394Y01847D01*
X02405Y01813*
X02336Y01937D02*
X02359Y0191D01*
X02378Y01879*
X02145Y02024D02*
X0218Y0202D01*
X02215Y02012*
X02109Y02024D02*
X02145Y02024D01*
X02073Y02019D02*
X02109Y02024D01*
X01999Y02006D02*
X02073Y02019D01*
X01925Y01997D02*
X01999Y02006D01*
X0185Y01993D02*
X01925Y01997D01*
X02668Y01224D02*
X02668Y01196D01*
X02666Y01157D02*
X02668Y01196D01*
X02649Y01275D02*
X02662Y0125D01*
X02668Y01224*
X02669Y01118D02*
X02676Y0108D01*
X02686Y01043*
X02666Y01157D02*
X02669Y01118D01*
X02456Y01651D02*
X02487Y01572D01*
X02522Y01495*
X02405Y01813D02*
X02428Y01732D01*
X02456Y01651*
X02561Y0142D02*
X02603Y01346D01*
X02649Y01275*
X02522Y01495D02*
X02561Y0142D01*
X03871Y0033D02*
X03875Y00294D01*
X03874Y00258D02*
X03875Y00294D01*
X03869Y00223D02*
X03874Y00258D01*
X03857Y-00149D02*
X03869Y-00223D01*
X03874Y-00258D02*
X03875Y-00294D01*
X03871Y-0033D02*
X03875Y-00294D01*
X03869Y-00223D02*
X03874Y-00258D01*
X03862Y-00365D02*
X03871Y-0033D01*
X03857Y00149D02*
X03869Y00223D01*
X03848Y00074D02*
X03857Y00149D01*
X03843Y0D02*
X03848Y00074D01*
X03843Y0D02*
X03848Y-00074D01*
X03857Y-00149*
X03849Y-00398D02*
X03862Y-00365D01*
X03832Y-0043D02*
X03849Y-00398D01*
X03812Y-00459D02*
X03832Y-0043D01*
X03787Y-00485D02*
X03812Y-00459D01*
X0376Y-00508D02*
X03787Y-00485D01*
X0373Y-00528D02*
X0376Y-00508D01*
X03698Y-00543D02*
X0373Y-00528D01*
X03664Y-00554D02*
X03698Y-00543D01*
X03582Y-00578D02*
X03664Y-00554D01*
X03502Y-00605D02*
X03582Y-00578D01*
X03423Y-00637D02*
X03502Y-00605D01*
X03346Y-00672D02*
X03423Y-00637D01*
X0327Y-0071D02*
X03346Y-00672D01*
X03197Y-00753D02*
X0327Y-0071D01*
X03125Y-00798D02*
X03197Y-00753D01*
X03056Y-00847D02*
X03125Y-00798D01*
X0299Y-009D02*
X03056Y-00847D01*
X02926Y-00955D02*
X0299Y-009D01*
X02864Y-01014D02*
X02926Y-00955D01*
X02806Y-01075D02*
X02864Y-01014D01*
X0275Y-01139D02*
X02806Y-01075D01*
X02698Y-01206D02*
X0275Y-01139D01*
X02649Y-01275D02*
X02698Y-01206D01*
X02603Y-01346D02*
X02649Y-01275D01*
X02561Y-0142D02*
X02603Y-01346D01*
X02522Y-01495D02*
X02561Y-0142D01*
X02487Y-01573D02*
X02522Y-01495D01*
X02456Y-01651D02*
X02487Y-01573D01*
X02428Y-01732D02*
X02456Y-01651D01*
X02405Y-01813D02*
X02428Y-01732D01*
X02394Y-01847D02*
X02405Y-01813D01*
X02378Y-01879D02*
X02394Y-01847D01*
X02359Y-0191D02*
X02378Y-01879D01*
X02336Y-01937D02*
X02359Y-0191D01*
X02309Y-01961D02*
X02336Y-01937D01*
X0228Y-01982D02*
X02309Y-01961D01*
X02248Y-01999D02*
X0228Y-01982D01*
X02215Y-02012D02*
X02248Y-01999D01*
X01999Y-02006D02*
X02073Y-02019D01*
X0218Y-0202D02*
X02215Y-02012D01*
X0185Y-01993D02*
X01925Y-01997D01*
X01999Y-02006*
X02145Y-02024D02*
X0218Y-0202D01*
X02109Y-02024D02*
X02145Y-02024D01*
X02073Y-02019D02*
X02109Y-02024D01*
X01555Y02024D02*
X01591Y02024D01*
X01627Y02019*
X0152Y0202D02*
X01555Y02024D01*
X01485Y02012D02*
X0152Y0202D01*
X01701Y02006D02*
X01775Y01997D01*
X0185Y01993*
X01627Y02019D02*
X01701Y02006D01*
X01451Y01999D02*
X01485Y02012D01*
X0142Y01982D02*
X01451Y01999D01*
X01391Y01961D02*
X0142Y01982D01*
X01364Y01937D02*
X01391Y01961D01*
X01341Y0191D02*
X01364Y01937D01*
X01322Y01879D02*
X01341Y0191D01*
X01306Y01847D02*
X01322Y01879D01*
X01295Y01813D02*
X01306Y01847D01*
X01271Y01732D02*
X01295Y01813D01*
X01244Y01651D02*
X01271Y01732D01*
X01213Y01573D02*
X01244Y01651D01*
X01178Y01495D02*
X01213Y01573D01*
X01139Y0142D02*
X01178Y01495D01*
X01097Y01346D02*
X01139Y0142D01*
X01051Y01275D02*
X01097Y01346D01*
X01002Y01206D02*
X01051Y01275D01*
X0095Y01139D02*
X01002Y01206D01*
X00894Y01075D02*
X0095Y01139D01*
X00836Y01014D02*
X00894Y01075D01*
X00774Y00955D02*
X00836Y01014D01*
X0071Y009D02*
X00774Y00955D01*
X00643Y00847D02*
X0071Y009D01*
X00574Y00798D02*
X00643Y00847D01*
X00503Y00753D02*
X00574Y00798D01*
X00429Y0071D02*
X00503Y00753D01*
X00354Y00672D02*
X00429Y0071D01*
X00277Y00637D02*
X00354Y00672D01*
X00198Y00605D02*
X00277Y00637D01*
X00118Y00578D02*
X00198Y00605D01*
X00036Y00554D02*
X00118Y00578D01*
X00002Y00543D02*
X00036Y00554D01*
X-00029Y00528D02*
X00002Y00543D01*
X-00059Y00508D02*
X-00029Y00528D01*
X-00087Y00485D02*
X-00059Y00508D01*
X-00111Y00459D02*
X-00087Y00485D01*
X-00132Y0043D02*
X-00111Y00459D01*
X-00149Y00398D02*
X-00132Y0043D01*
X-00161Y00365D02*
X-00149Y00398D01*
X-00147Y00074D02*
X-00143Y0D01*
X-00147Y-00074D02*
X-00143Y0D01*
X-00169Y00223D02*
X-00156Y00149D01*
X-00147Y00074*
X-00156Y-00148D02*
X-00147Y-00074D01*
X-00168Y-00221D02*
X-00156Y-00148D01*
X-0017Y-00328D02*
X-00161Y-00363D01*
X-0017Y0033D02*
X-00161Y00365D01*
X-00174Y00258D02*
X-00169Y00223D01*
X-00174Y00294D02*
X-0017Y0033D01*
X-00174Y00294D02*
X-00174Y00258D01*
X-00173Y-00257D02*
X-00168Y-00221D01*
X-00174Y-00293D02*
X-0017Y-00328D01*
X-00174Y-00293D02*
X-00173Y-00257D01*
X01108Y-01364D02*
X01155Y-0145D01*
X01198Y-01537*
X01043Y-01257D02*
X01056Y-01282D01*
X01108Y-01364*
X01269Y-01719D02*
X01297Y-01813D01*
X01308Y-01847*
X01198Y-01537D02*
X01236Y-01628D01*
X01269Y-01719*
X0103Y-01087D02*
X01036Y-01125D01*
X01039Y-01164*
X01004Y-01013D02*
X01019Y-01049D01*
X0103Y-01087*
X01036Y-01203D02*
X01039Y-01164D01*
X01036Y-0123D02*
X01043Y-01257D01*
X01036Y-01203D02*
X01036Y-0123D01*
X01776Y-01997D02*
X0185Y-01993D01*
X01702Y-02006D02*
X01776Y-01997D01*
X01628Y-02019D02*
X01702Y-02006D01*
X01487Y-02012D02*
X01521Y-0202D01*
X01593Y-02024D02*
X01628Y-02019D01*
X01557Y-02024D02*
X01593Y-02024D01*
X01521Y-0202D02*
X01557Y-02024D01*
X01343Y-01909D02*
X01366Y-01937D01*
X01392Y-01961*
X01308Y-01847D02*
X01323Y-01879D01*
X01343Y-01909*
X01422Y-01982D02*
X01453Y-01999D01*
X01487Y-02012*
X01392Y-01961D02*
X01422Y-01982D01*
X00118Y-00577D02*
X00198Y-00604D01*
X00277Y-00636*
X00002Y-00541D02*
X00036Y-00553D01*
X00118Y-00577*
X0043Y-0071D02*
X00503Y-00753D01*
X00575Y-00798*
X00277Y-00636D02*
X00354Y-00671D01*
X0043Y-0071*
X-00131Y-00428D02*
X-00111Y-00457D01*
X-00086Y-00483*
X-00161Y-00363D02*
X-00148Y-00396D01*
X-00131Y-00428*
X-00059Y-00506D02*
X-00029Y-00526D01*
X00002Y-00541*
X-00086Y-00483D02*
X-00059Y-00506D01*
X00877Y-0087D02*
X00908Y-00893D01*
X00937Y-00919*
X00807Y-00836D02*
X00843Y-00851D01*
X00877Y-0087*
X00963Y-00948D02*
X00985Y-00979D01*
X01004Y-01013*
X00937Y-00919D02*
X00963Y-00948D01*
X00653Y-00818D02*
X00692Y-00816D01*
X00626Y-00818D02*
X00653Y-00818D01*
X00575Y-00798D02*
X00599Y-00811D01*
X00626Y-00818*
X00731Y-00818D02*
X00769Y-00825D01*
X00807Y-00836*
X00692Y-00816D02*
X00731Y-00818D01*
G54D110*
X00869Y00446D02*
X0118D01*
X00869D02*
Y00817D01*
X0118*
Y00446D02*
Y00817D01*
X02086Y-01191D02*
X02219D01*
X02086D02*
Y-01116D01*
X02219Y-01191D02*
Y-01116D01*
X02086D02*
X02219D01*
X01121Y-00652D02*
X01174Y-00705D01*
X01216Y-00558D02*
X01268Y-00611D01*
X01121Y-00652D02*
X01216Y-00558D01*
X01174Y-00705D02*
X01268Y-00611D01*
X0142Y-00495D02*
X01473Y-00548D01*
X01515Y-004D02*
X01568Y-00453D01*
X0142Y-00495D02*
X01515Y-004D01*
X01473Y-00548D02*
X01568Y-00453D01*
X01853Y-00173D02*
X01906Y-0012D01*
X01947Y-00268D02*
X02Y-00215D01*
X01906Y-0012D02*
X02Y-00215D01*
X01853Y-00173D02*
X01947Y-00268D01*
X02228Y-00553D02*
X02281Y-00606D01*
X02134Y-00648D02*
X02186Y-00701D01*
X02281Y-00606*
X02134Y-00648D02*
X02228Y-00553D01*
X01881Y-009D02*
X01934Y-00953D01*
X01975Y-00805D02*
X02028Y-00858D01*
X01881Y-009D02*
X01975Y-00805D01*
X01934Y-00953D02*
X02028Y-00858D01*
X0203Y-00233D02*
X02083Y-0018D01*
X01935Y-00139D02*
X01988Y-00086D01*
X01935Y-00139D02*
X0203Y-00233D01*
X01988Y-00086D02*
X02083Y-0018D01*
X02169Y-00482D02*
X02222Y-00429D01*
X02264Y-00577D02*
X02317Y-00524D01*
X02222Y-00429D02*
X02317Y-00524D01*
X02169Y-00482D02*
X02264Y-00577D01*
X01475Y-00551D02*
X0185Y-00925D01*
X02224Y-00551*
X0185Y-00176D02*
X02224Y-00551D01*
X01475D02*
X0185Y-00176D01*
X01365Y-0044D02*
X01418Y-00492D01*
X0146Y-00345D02*
X01512Y-00398D01*
X01365Y-0044D02*
X0146Y-00345D01*
X01418Y-00492D02*
X01512Y-00398D01*
X01903Y-01079D02*
Y-00973D01*
X01844Y-01079D02*
Y-00973D01*
X01903*
X01844Y-01079D02*
X01903D01*
X01305Y-00294D02*
X01381Y-00219D01*
X01347Y-00335D02*
X01422Y-0026D01*
X01305Y-00294D02*
X01347Y-00335D01*
X01381Y-00219D02*
X01422Y-0026D01*
X01221Y-00553D02*
X01274Y-00606D01*
X01316Y-00458D02*
X01369Y-00511D01*
X01221Y-00553D02*
X01316Y-00458D01*
X01274Y-00606D02*
X01369Y-00511D01*
X014Y-0029D02*
X01453Y-00343D01*
X01305Y-00385D02*
X01358Y-00438D01*
X01453Y-00343*
X01305Y-00385D02*
X014Y-0029D01*
X01551Y-0086D02*
X01626Y-00785D01*
X01509Y-00818D02*
X01584Y-00743D01*
X01626Y-00785*
X01509Y-00818D02*
X01551Y-0086D01*
X00773Y-00698D02*
X00879D01*
X00773Y-00639D02*
X00879D01*
Y-00698D02*
Y-00639D01*
X00773Y-00698D02*
Y-00639D01*
X0155Y-01007D02*
X01602Y-0106D01*
X01644Y-00912D02*
X01697Y-00965D01*
X0155Y-01007D02*
X01644Y-00912D01*
X01602Y-0106D02*
X01697Y-00965D01*
X01546Y-0101D02*
X01599Y-01063D01*
X01451Y-01105D02*
X01504Y-01158D01*
X01599Y-01063*
X01451Y-01105D02*
X01546Y-0101D01*
X00773Y-00777D02*
X00879D01*
X00773Y-00718D02*
X00879D01*
Y-00777D02*
Y-00718D01*
X00773Y-00777D02*
Y-00718D01*
X02345Y-00662D02*
X02451D01*
X02345Y-00721D02*
X02451D01*
X02345D02*
Y-00662D01*
X02451D02*
Y-00721D01*
X02345Y-00727D02*
X02452D01*
X02345Y-00786D02*
X02452D01*
X02345D02*
Y-00727D01*
X02452D02*
Y-00786D01*
X02298Y00089D02*
Y00164D01*
X02432Y00089D02*
Y00164D01*
X02298D02*
X02432D01*
X02298Y00089D02*
X02432D01*
X02478Y-01162D02*
X02553D01*
X02478Y-01029D02*
X02553D01*
X02478Y-01162D02*
Y-01029D01*
X02553Y-01162D02*
Y-01029D01*
X02397Y-01162D02*
X02472D01*
X02397Y-01028D02*
X02472D01*
X02397Y-01162D02*
Y-01028D01*
X02472Y-01162D02*
Y-01028D01*
X02188Y-00897D02*
X02393D01*
Y-01102D02*
Y-00897D01*
X02188Y-01102D02*
X02393D01*
X02188D02*
Y-00897D01*
X01338Y-01357D02*
X01408Y-01331D01*
X01383Y-01483D02*
X01454Y-01457D01*
X01408Y-01331D02*
X01454Y-01457D01*
X01338Y-01357D02*
X01383Y-01483D01*
X02034Y00317D02*
X0214D01*
X02034Y00258D02*
X0214D01*
X02034D02*
Y00317D01*
X0214Y00258D02*
Y00317D01*
X0198Y00248D02*
X02086D01*
X0198Y00189D02*
X02086D01*
X0198D02*
Y00248D01*
X02086Y00189D02*
Y00248D01*
X02293Y-01157D02*
X02368D01*
X02293Y-0129D02*
X02368D01*
Y-01157*
X02293Y-0129D02*
Y-01157D01*
X01869Y00189D02*
X01976D01*
X01869Y00248D02*
X01976D01*
Y00189D02*
Y00248D01*
X01869Y00189D02*
Y00248D01*
X02214Y-01157D02*
X02289D01*
X02214Y-0129D02*
X02289D01*
Y-01157*
X02214Y-0129D02*
Y-01157D01*
X01809Y00258D02*
X01915D01*
X01809Y00317D02*
X01915D01*
Y00258D02*
Y00317D01*
X01809Y00258D02*
Y00317D01*
X01101Y-00028D02*
X01383D01*
X01101D02*
Y00105D01*
X01383*
Y-00028D02*
Y00105D01*
X00616Y00189D02*
Y0047D01*
X00751*
Y00189D02*
Y0047D01*
X00616Y00189D02*
X00751D01*
X0109Y-00025D02*
Y00102D01*
X0086Y-00025D02*
X0109D01*
X0086D02*
Y00102D01*
X0109*
X00478Y00712D02*
X00771D01*
Y00496D02*
Y00712D01*
X00478Y00496D02*
X00771D01*
X00478D02*
Y00712D01*
X01067Y00101D02*
Y00472D01*
X00756Y00101D02*
X01067D01*
X00756D02*
Y00472D01*
X01067*
X00773Y-0062D02*
X00879D01*
X00773Y-00561D02*
X00879D01*
Y-0062D02*
Y-00561D01*
X00773Y-0062D02*
Y-00561D01*
X0031Y00504D02*
Y00642D01*
Y00504D02*
X00457D01*
Y00642*
X0031D02*
X00457D01*
X01324Y01641D02*
X01605D01*
X01324D02*
Y01776D01*
X01605*
Y01641D02*
Y01776D01*
X01138Y0073D02*
Y01011D01*
X01003Y0073D02*
X01138D01*
X01003D02*
Y01011D01*
X01138*
X00874Y005D02*
X01167D01*
X00874D02*
Y00716D01*
X01167*
Y005D02*
Y00716D01*
X01053Y01236D02*
X01181D01*
Y01007D02*
Y01236D01*
X01053Y01007D02*
X01181D01*
X01053D02*
Y01236D01*
X00707Y00736D02*
Y00873D01*
Y00736D02*
X00855D01*
Y00873*
X00707D02*
X00855D01*
X00773Y-00541D02*
X00879D01*
X00773Y-00482D02*
X00879D01*
Y-00541D02*
Y-00482D01*
X00773Y-00541D02*
Y-00482D01*
X01784Y01555D02*
Y01721D01*
X01924*
Y01555D02*
Y01721D01*
X01784Y01555D02*
X01924D01*
M02*