%FSTAX23Y23*%
%MOIN*%
%SFA1B1*%

%IPPOS*%
%ADD16C,0.008000*%
%LNflightcontroller-1*%
%LPD*%
G54D16*
X02937Y0082D02*
X02976Y00813D01*
X03053Y00813D02*
X03081Y00813D01*
X02864Y00845D02*
X029Y0083D01*
X02937Y0082*
X03081Y00813D02*
X03108Y00806D01*
X03132Y00794*
X03014Y00811D02*
X03053Y00813D01*
X02976Y00813D02*
X03014Y00811D01*
X0272Y00973D02*
X02743Y00941D01*
X02769Y00912*
X02686Y01043D02*
X02701Y01007D01*
X0272Y00973*
X02798Y00886D02*
X0283Y00864D01*
X02864Y00845*
X02769Y00912D02*
X02798Y00886D01*
X0376Y00508D02*
X03787Y00485D01*
X03812Y00459*
X03698Y00543D02*
X0373Y00528D01*
X0376Y00508*
X03849Y00398D02*
X03862Y00365D01*
X03871Y0033*
X03812Y00459D02*
X03832Y0043D01*
X03849Y00398*
X033Y00695D02*
X03388Y00652D01*
X03478Y00615*
X03132Y00794D02*
X03215Y00742D01*
X033Y00695*
X0357Y00582D02*
X03664Y00554D01*
X03698Y00543*
X03478Y00615D02*
X0357Y00582D01*
X0228Y01982D02*
X02309Y01961D01*
X02336Y01937*
X02215Y02012D02*
X02248Y01999D01*
X0228Y01982*
X02378Y01879D02*
X02394Y01847D01*
X02405Y01813*
X02336Y01937D02*
X02359Y0191D01*
X02378Y01879*
X02145Y02024D02*
X0218Y0202D01*
X02215Y02012*
X02109Y02024D02*
X02145Y02024D01*
X02073Y02019D02*
X02109Y02024D01*
X01999Y02006D02*
X02073Y02019D01*
X01925Y01997D02*
X01999Y02006D01*
X0185Y01993D02*
X01925Y01997D01*
X02668Y01224D02*
X02668Y01196D01*
X02666Y01157D02*
X02668Y01196D01*
X02649Y01275D02*
X02662Y0125D01*
X02668Y01224*
X02669Y01118D02*
X02676Y0108D01*
X02686Y01043*
X02666Y01157D02*
X02669Y01118D01*
X02456Y01651D02*
X02487Y01572D01*
X02522Y01495*
X02405Y01813D02*
X02428Y01732D01*
X02456Y01651*
X02561Y0142D02*
X02603Y01346D01*
X02649Y01275*
X02522Y01495D02*
X02561Y0142D01*
X03871Y0033D02*
X03875Y00294D01*
X03874Y00258D02*
X03875Y00294D01*
X03869Y00223D02*
X03874Y00258D01*
X03857Y-00149D02*
X03869Y-00223D01*
X03874Y-00258D02*
X03875Y-00294D01*
X03871Y-0033D02*
X03875Y-00294D01*
X03869Y-00223D02*
X03874Y-00258D01*
X03862Y-00365D02*
X03871Y-0033D01*
X03857Y00149D02*
X03869Y00223D01*
X03848Y00074D02*
X03857Y00149D01*
X03843Y0D02*
X03848Y00074D01*
X03843Y0D02*
X03848Y-00074D01*
X03857Y-00149*
X03849Y-00398D02*
X03862Y-00365D01*
X03832Y-0043D02*
X03849Y-00398D01*
X03812Y-00459D02*
X03832Y-0043D01*
X03787Y-00485D02*
X03812Y-00459D01*
X0376Y-00508D02*
X03787Y-00485D01*
X0373Y-00528D02*
X0376Y-00508D01*
X03698Y-00543D02*
X0373Y-00528D01*
X03664Y-00554D02*
X03698Y-00543D01*
X03582Y-00578D02*
X03664Y-00554D01*
X03502Y-00605D02*
X03582Y-00578D01*
X03423Y-00637D02*
X03502Y-00605D01*
X03346Y-00672D02*
X03423Y-00637D01*
X0327Y-0071D02*
X03346Y-00672D01*
X03197Y-00753D02*
X0327Y-0071D01*
X03125Y-00798D02*
X03197Y-00753D01*
X03056Y-00847D02*
X03125Y-00798D01*
X0299Y-009D02*
X03056Y-00847D01*
X02926Y-00955D02*
X0299Y-009D01*
X02864Y-01014D02*
X02926Y-00955D01*
X02806Y-01075D02*
X02864Y-01014D01*
X0275Y-01139D02*
X02806Y-01075D01*
X02698Y-01206D02*
X0275Y-01139D01*
X02649Y-01275D02*
X02698Y-01206D01*
X02603Y-01346D02*
X02649Y-01275D01*
X02561Y-0142D02*
X02603Y-01346D01*
X02522Y-01495D02*
X02561Y-0142D01*
X02487Y-01573D02*
X02522Y-01495D01*
X02456Y-01651D02*
X02487Y-01573D01*
X02428Y-01732D02*
X02456Y-01651D01*
X02405Y-01813D02*
X02428Y-01732D01*
X02394Y-01847D02*
X02405Y-01813D01*
X02378Y-01879D02*
X02394Y-01847D01*
X02359Y-0191D02*
X02378Y-01879D01*
X02336Y-01937D02*
X02359Y-0191D01*
X02309Y-01961D02*
X02336Y-01937D01*
X0228Y-01982D02*
X02309Y-01961D01*
X02248Y-01999D02*
X0228Y-01982D01*
X02215Y-02012D02*
X02248Y-01999D01*
X01999Y-02006D02*
X02073Y-02019D01*
X0218Y-0202D02*
X02215Y-02012D01*
X0185Y-01993D02*
X01925Y-01997D01*
X01999Y-02006*
X02145Y-02024D02*
X0218Y-0202D01*
X02109Y-02024D02*
X02145Y-02024D01*
X02073Y-02019D02*
X02109Y-02024D01*
X01555Y02024D02*
X01591Y02024D01*
X01627Y02019*
X0152Y0202D02*
X01555Y02024D01*
X01485Y02012D02*
X0152Y0202D01*
X01701Y02006D02*
X01775Y01997D01*
X0185Y01993*
X01627Y02019D02*
X01701Y02006D01*
X01451Y01999D02*
X01485Y02012D01*
X0142Y01982D02*
X01451Y01999D01*
X01391Y01961D02*
X0142Y01982D01*
X01364Y01937D02*
X01391Y01961D01*
X01341Y0191D02*
X01364Y01937D01*
X01322Y01879D02*
X01341Y0191D01*
X01306Y01847D02*
X01322Y01879D01*
X01295Y01813D02*
X01306Y01847D01*
X01271Y01732D02*
X01295Y01813D01*
X01244Y01651D02*
X01271Y01732D01*
X01213Y01573D02*
X01244Y01651D01*
X01178Y01495D02*
X01213Y01573D01*
X01139Y0142D02*
X01178Y01495D01*
X01097Y01346D02*
X01139Y0142D01*
X01051Y01275D02*
X01097Y01346D01*
X01002Y01206D02*
X01051Y01275D01*
X0095Y01139D02*
X01002Y01206D01*
X00894Y01075D02*
X0095Y01139D01*
X00836Y01014D02*
X00894Y01075D01*
X00774Y00955D02*
X00836Y01014D01*
X0071Y009D02*
X00774Y00955D01*
X00643Y00847D02*
X0071Y009D01*
X00574Y00798D02*
X00643Y00847D01*
X00503Y00753D02*
X00574Y00798D01*
X00429Y0071D02*
X00503Y00753D01*
X00354Y00672D02*
X00429Y0071D01*
X00277Y00637D02*
X00354Y00672D01*
X00198Y00605D02*
X00277Y00637D01*
X00118Y00578D02*
X00198Y00605D01*
X00036Y00554D02*
X00118Y00578D01*
X00002Y00543D02*
X00036Y00554D01*
X-00029Y00528D02*
X00002Y00543D01*
X-00059Y00508D02*
X-00029Y00528D01*
X-00087Y00485D02*
X-00059Y00508D01*
X-00111Y00459D02*
X-00087Y00485D01*
X-00132Y0043D02*
X-00111Y00459D01*
X-00149Y00398D02*
X-00132Y0043D01*
X-00161Y00365D02*
X-00149Y00398D01*
X-00147Y00074D02*
X-00143Y0D01*
X-00147Y-00074D02*
X-00143Y0D01*
X-00169Y00223D02*
X-00156Y00149D01*
X-00147Y00074*
X-00156Y-00148D02*
X-00147Y-00074D01*
X-00168Y-00221D02*
X-00156Y-00148D01*
X-0017Y-00328D02*
X-00161Y-00363D01*
X-0017Y0033D02*
X-00161Y00365D01*
X-00174Y00258D02*
X-00169Y00223D01*
X-00174Y00294D02*
X-0017Y0033D01*
X-00174Y00294D02*
X-00174Y00258D01*
X-00173Y-00257D02*
X-00168Y-00221D01*
X-00174Y-00293D02*
X-0017Y-00328D01*
X-00174Y-00293D02*
X-00173Y-00257D01*
X01108Y-01364D02*
X01155Y-0145D01*
X01198Y-01537*
X01043Y-01257D02*
X01056Y-01282D01*
X01108Y-01364*
X01269Y-01719D02*
X01297Y-01813D01*
X01308Y-01847*
X01198Y-01537D02*
X01236Y-01628D01*
X01269Y-01719*
X0103Y-01087D02*
X01036Y-01125D01*
X01039Y-01164*
X01004Y-01013D02*
X01019Y-01049D01*
X0103Y-01087*
X01036Y-01203D02*
X01039Y-01164D01*
X01036Y-0123D02*
X01043Y-01257D01*
X01036Y-01203D02*
X01036Y-0123D01*
X01776Y-01997D02*
X0185Y-01993D01*
X01702Y-02006D02*
X01776Y-01997D01*
X01628Y-02019D02*
X01702Y-02006D01*
X01487Y-02012D02*
X01521Y-0202D01*
X01593Y-02024D02*
X01628Y-02019D01*
X01557Y-02024D02*
X01593Y-02024D01*
X01521Y-0202D02*
X01557Y-02024D01*
X01343Y-01909D02*
X01366Y-01937D01*
X01392Y-01961*
X01308Y-01847D02*
X01323Y-01879D01*
X01343Y-01909*
X01422Y-01982D02*
X01453Y-01999D01*
X01487Y-02012*
X01392Y-01961D02*
X01422Y-01982D01*
X00118Y-00577D02*
X00198Y-00604D01*
X00277Y-00636*
X00002Y-00541D02*
X00036Y-00553D01*
X00118Y-00577*
X0043Y-0071D02*
X00503Y-00753D01*
X00575Y-00798*
X00277Y-00636D02*
X00354Y-00671D01*
X0043Y-0071*
X-00131Y-00428D02*
X-00111Y-00457D01*
X-00086Y-00483*
X-00161Y-00363D02*
X-00148Y-00396D01*
X-00131Y-00428*
X-00059Y-00506D02*
X-00029Y-00526D01*
X00002Y-00541*
X-00086Y-00483D02*
X-00059Y-00506D01*
X00877Y-0087D02*
X00908Y-00893D01*
X00937Y-00919*
X00807Y-00836D02*
X00843Y-00851D01*
X00877Y-0087*
X00963Y-00948D02*
X00985Y-00979D01*
X01004Y-01013*
X00937Y-00919D02*
X00963Y-00948D01*
X00653Y-00818D02*
X00692Y-00816D01*
X00626Y-00818D02*
X00653Y-00818D01*
X00575Y-00798D02*
X00599Y-00811D01*
X00626Y-00818*
X00731Y-00818D02*
X00769Y-00825D01*
X00807Y-00836*
X00692Y-00816D02*
X00731Y-00818D01*
X02937Y0082D02*
X02976Y00813D01*
X03053Y00813D02*
X03081Y00813D01*
X02864Y00845D02*
X029Y0083D01*
X02937Y0082*
X03081Y00813D02*
X03108Y00806D01*
X03132Y00794*
X03014Y00811D02*
X03053Y00813D01*
X02976Y00813D02*
X03014Y00811D01*
X0272Y00973D02*
X02743Y00941D01*
X02769Y00912*
X02686Y01043D02*
X02701Y01007D01*
X0272Y00973*
X02798Y00886D02*
X0283Y00864D01*
X02864Y00845*
X02769Y00912D02*
X02798Y00886D01*
X0376Y00508D02*
X03787Y00485D01*
X03812Y00459*
X03698Y00543D02*
X0373Y00528D01*
X0376Y00508*
X03849Y00398D02*
X03862Y00365D01*
X03871Y0033*
X03812Y00459D02*
X03832Y0043D01*
X03849Y00398*
X033Y00695D02*
X03388Y00652D01*
X03478Y00615*
X03132Y00794D02*
X03215Y00742D01*
X033Y00695*
X0357Y00582D02*
X03664Y00554D01*
X03698Y00543*
X03478Y00615D02*
X0357Y00582D01*
X0228Y01982D02*
X02309Y01961D01*
X02336Y01937*
X02215Y02012D02*
X02248Y01999D01*
X0228Y01982*
X02378Y01879D02*
X02394Y01847D01*
X02405Y01813*
X02336Y01937D02*
X02359Y0191D01*
X02378Y01879*
X02145Y02024D02*
X0218Y0202D01*
X02215Y02012*
X02109Y02024D02*
X02145Y02024D01*
X02073Y02019D02*
X02109Y02024D01*
X01999Y02006D02*
X02073Y02019D01*
X01925Y01997D02*
X01999Y02006D01*
X0185Y01993D02*
X01925Y01997D01*
X02668Y01224D02*
X02668Y01196D01*
X02666Y01157D02*
X02668Y01196D01*
X02649Y01275D02*
X02662Y0125D01*
X02668Y01224*
X02669Y01118D02*
X02676Y0108D01*
X02686Y01043*
X02666Y01157D02*
X02669Y01118D01*
X02456Y01651D02*
X02487Y01572D01*
X02522Y01495*
X02405Y01813D02*
X02428Y01732D01*
X02456Y01651*
X02561Y0142D02*
X02603Y01346D01*
X02649Y01275*
X02522Y01495D02*
X02561Y0142D01*
X03871Y0033D02*
X03875Y00294D01*
X03874Y00258D02*
X03875Y00294D01*
X03869Y00223D02*
X03874Y00258D01*
X03857Y-00149D02*
X03869Y-00223D01*
X03874Y-00258D02*
X03875Y-00294D01*
X03871Y-0033D02*
X03875Y-00294D01*
X03869Y-00223D02*
X03874Y-00258D01*
X03862Y-00365D02*
X03871Y-0033D01*
X03857Y00149D02*
X03869Y00223D01*
X03848Y00074D02*
X03857Y00149D01*
X03843Y0D02*
X03848Y00074D01*
X03843Y0D02*
X03848Y-00074D01*
X03857Y-00149*
X03849Y-00398D02*
X03862Y-00365D01*
X03832Y-0043D02*
X03849Y-00398D01*
X03812Y-00459D02*
X03832Y-0043D01*
X03787Y-00485D02*
X03812Y-00459D01*
X0376Y-00508D02*
X03787Y-00485D01*
X0373Y-00528D02*
X0376Y-00508D01*
X03698Y-00543D02*
X0373Y-00528D01*
X03664Y-00554D02*
X03698Y-00543D01*
X03582Y-00578D02*
X03664Y-00554D01*
X03502Y-00605D02*
X03582Y-00578D01*
X03423Y-00637D02*
X03502Y-00605D01*
X03346Y-00672D02*
X03423Y-00637D01*
X0327Y-0071D02*
X03346Y-00672D01*
X03197Y-00753D02*
X0327Y-0071D01*
X03125Y-00798D02*
X03197Y-00753D01*
X03056Y-00847D02*
X03125Y-00798D01*
X0299Y-009D02*
X03056Y-00847D01*
X02926Y-00955D02*
X0299Y-009D01*
X02864Y-01014D02*
X02926Y-00955D01*
X02806Y-01075D02*
X02864Y-01014D01*
X0275Y-01139D02*
X02806Y-01075D01*
X02698Y-01206D02*
X0275Y-01139D01*
X02649Y-01275D02*
X02698Y-01206D01*
X02603Y-01346D02*
X02649Y-01275D01*
X02561Y-0142D02*
X02603Y-01346D01*
X02522Y-01495D02*
X02561Y-0142D01*
X02487Y-01573D02*
X02522Y-01495D01*
X02456Y-01651D02*
X02487Y-01573D01*
X02428Y-01732D02*
X02456Y-01651D01*
X02405Y-01813D02*
X02428Y-01732D01*
X02394Y-01847D02*
X02405Y-01813D01*
X02378Y-01879D02*
X02394Y-01847D01*
X02359Y-0191D02*
X02378Y-01879D01*
X02336Y-01937D02*
X02359Y-0191D01*
X02309Y-01961D02*
X02336Y-01937D01*
X0228Y-01982D02*
X02309Y-01961D01*
X02248Y-01999D02*
X0228Y-01982D01*
X02215Y-02012D02*
X02248Y-01999D01*
X01999Y-02006D02*
X02073Y-02019D01*
X0218Y-0202D02*
X02215Y-02012D01*
X0185Y-01993D02*
X01925Y-01997D01*
X01999Y-02006*
X02145Y-02024D02*
X0218Y-0202D01*
X02109Y-02024D02*
X02145Y-02024D01*
X02073Y-02019D02*
X02109Y-02024D01*
X01555Y02024D02*
X01591Y02024D01*
X01627Y02019*
X0152Y0202D02*
X01555Y02024D01*
X01485Y02012D02*
X0152Y0202D01*
X01701Y02006D02*
X01775Y01997D01*
X0185Y01993*
X01627Y02019D02*
X01701Y02006D01*
X01451Y01999D02*
X01485Y02012D01*
X0142Y01982D02*
X01451Y01999D01*
X01391Y01961D02*
X0142Y01982D01*
X01364Y01937D02*
X01391Y01961D01*
X01341Y0191D02*
X01364Y01937D01*
X01322Y01879D02*
X01341Y0191D01*
X01306Y01847D02*
X01322Y01879D01*
X01295Y01813D02*
X01306Y01847D01*
X01271Y01732D02*
X01295Y01813D01*
X01244Y01651D02*
X01271Y01732D01*
X01213Y01573D02*
X01244Y01651D01*
X01178Y01495D02*
X01213Y01573D01*
X01139Y0142D02*
X01178Y01495D01*
X01097Y01346D02*
X01139Y0142D01*
X01051Y01275D02*
X01097Y01346D01*
X01002Y01206D02*
X01051Y01275D01*
X0095Y01139D02*
X01002Y01206D01*
X00894Y01075D02*
X0095Y01139D01*
X00836Y01014D02*
X00894Y01075D01*
X00774Y00955D02*
X00836Y01014D01*
X0071Y009D02*
X00774Y00955D01*
X00643Y00847D02*
X0071Y009D01*
X00574Y00798D02*
X00643Y00847D01*
X00503Y00753D02*
X00574Y00798D01*
X00429Y0071D02*
X00503Y00753D01*
X00354Y00672D02*
X00429Y0071D01*
X00277Y00637D02*
X00354Y00672D01*
X00198Y00605D02*
X00277Y00637D01*
X00118Y00578D02*
X00198Y00605D01*
X00036Y00554D02*
X00118Y00578D01*
X00002Y00543D02*
X00036Y00554D01*
X-00029Y00528D02*
X00002Y00543D01*
X-00059Y00508D02*
X-00029Y00528D01*
X-00087Y00485D02*
X-00059Y00508D01*
X-00111Y00459D02*
X-00087Y00485D01*
X-00132Y0043D02*
X-00111Y00459D01*
X-00149Y00398D02*
X-00132Y0043D01*
X-00161Y00365D02*
X-00149Y00398D01*
X-00147Y00074D02*
X-00143Y0D01*
X-00147Y-00074D02*
X-00143Y0D01*
X-00169Y00223D02*
X-00156Y00149D01*
X-00147Y00074*
X-00156Y-00148D02*
X-00147Y-00074D01*
X-00168Y-00221D02*
X-00156Y-00148D01*
X-0017Y-00328D02*
X-00161Y-00363D01*
X-0017Y0033D02*
X-00161Y00365D01*
X-00174Y00258D02*
X-00169Y00223D01*
X-00174Y00294D02*
X-0017Y0033D01*
X-00174Y00294D02*
X-00174Y00258D01*
X-00173Y-00257D02*
X-00168Y-00221D01*
X-00174Y-00293D02*
X-0017Y-00328D01*
X-00174Y-00293D02*
X-00173Y-00257D01*
X01108Y-01364D02*
X01155Y-0145D01*
X01198Y-01537*
X01043Y-01257D02*
X01056Y-01282D01*
X01108Y-01364*
X01269Y-01719D02*
X01297Y-01813D01*
X01308Y-01847*
X01198Y-01537D02*
X01236Y-01628D01*
X01269Y-01719*
X0103Y-01087D02*
X01036Y-01125D01*
X01039Y-01164*
X01004Y-01013D02*
X01019Y-01049D01*
X0103Y-01087*
X01036Y-01203D02*
X01039Y-01164D01*
X01036Y-0123D02*
X01043Y-01257D01*
X01036Y-01203D02*
X01036Y-0123D01*
X01776Y-01997D02*
X0185Y-01993D01*
X01702Y-02006D02*
X01776Y-01997D01*
X01628Y-02019D02*
X01702Y-02006D01*
X01487Y-02012D02*
X01521Y-0202D01*
X01593Y-02024D02*
X01628Y-02019D01*
X01557Y-02024D02*
X01593Y-02024D01*
X01521Y-0202D02*
X01557Y-02024D01*
X01343Y-01909D02*
X01366Y-01937D01*
X01392Y-01961*
X01308Y-01847D02*
X01323Y-01879D01*
X01343Y-01909*
X01422Y-01982D02*
X01453Y-01999D01*
X01487Y-02012*
X01392Y-01961D02*
X01422Y-01982D01*
X00118Y-00577D02*
X00198Y-00604D01*
X00277Y-00636*
X00002Y-00541D02*
X00036Y-00553D01*
X00118Y-00577*
X0043Y-0071D02*
X00503Y-00753D01*
X00575Y-00798*
X00277Y-00636D02*
X00354Y-00671D01*
X0043Y-0071*
X-00131Y-00428D02*
X-00111Y-00457D01*
X-00086Y-00483*
X-00161Y-00363D02*
X-00148Y-00396D01*
X-00131Y-00428*
X-00059Y-00506D02*
X-00029Y-00526D01*
X00002Y-00541*
X-00086Y-00483D02*
X-00059Y-00506D01*
X00877Y-0087D02*
X00908Y-00893D01*
X00937Y-00919*
X00807Y-00836D02*
X00843Y-00851D01*
X00877Y-0087*
X00963Y-00948D02*
X00985Y-00979D01*
X01004Y-01013*
X00937Y-00919D02*
X00963Y-00948D01*
X00653Y-00818D02*
X00692Y-00816D01*
X00626Y-00818D02*
X00653Y-00818D01*
X00575Y-00798D02*
X00599Y-00811D01*
X00626Y-00818*
X00731Y-00818D02*
X00769Y-00825D01*
X00807Y-00836*
X00692Y-00816D02*
X00731Y-00818D01*
M02*