%FSTAX23Y23*%
%MOIN*%
%SFA1B1*%

%IPPOS*%
%AMD18*
4,1,4,-0.028600,0.049100,-0.049100,0.028600,0.028600,-0.049100,0.049100,-0.028600,-0.028600,0.049100,0.0*
%
%AMD19*
4,1,4,-0.006300,-0.034000,0.034000,0.006300,0.006300,0.034000,-0.034000,-0.006300,-0.006300,-0.034000,0.0*
%
%AMD20*
4,1,4,-0.033300,0.005600,0.005600,-0.033300,0.033300,-0.005600,-0.005600,0.033300,-0.033300,0.005600,0.0*
%
%AMD21*
4,1,4,0.005600,0.033300,-0.033300,-0.005600,-0.005600,-0.033300,0.033300,0.005600,0.005600,0.033300,0.0*
%
%AMD22*
4,1,4,-0.024300,0.016000,0.016000,-0.024300,0.024300,-0.016000,-0.016000,0.024300,-0.024300,0.016000,0.0*
%
%AMD23*
4,1,4,0.016000,0.024300,-0.024300,-0.016000,-0.016000,-0.024300,0.024300,0.016000,0.016000,0.024300,0.0*
%
%AMD25*
4,1,4,0.024300,-0.002100,-0.002100,0.024300,-0.024300,0.002100,0.002100,-0.024300,0.024300,-0.002100,0.0*
%
%AMD26*
4,1,4,0.003500,0.035400,-0.035400,-0.003500,-0.003500,-0.035400,0.035400,0.003500,0.003500,0.035400,0.0*
%
%AMD34*
4,1,4,0.019100,0.027800,-0.032500,0.009000,-0.019100,-0.027800,0.032500,-0.009000,0.019100,0.027800,0.0*
%
%AMD96*
4,1,4,-0.040300,-0.010800,0.010800,-0.040300,0.040300,0.010800,-0.010800,0.040300,-0.040300,-0.010800,0.0*
%
%AMD97*
4,1,4,-0.017600,-0.037800,0.037800,-0.017600,0.017600,0.037800,-0.037800,0.017600,-0.017600,-0.037800,0.0*
%
%ADD10C,0.007870*%
%ADD11C,0.010000*%
%ADD16C,0.008000*%
%ADD17R,0.078740X0.169290*%
G04~CAMADD=18~9~0.0~0.0~291.3~1098.4~0.0~0.0~0~0.0~0.0~0.0~0.0~0~0.0~0.0~0.0~0.0~0~0.0~0.0~0.0~45.0~982.0~981.0*
%ADD18D18*%
G04~CAMADD=19~9~0.0~0.0~570.9~393.7~0.0~0.0~0~0.0~0.0~0.0~0.0~0~0.0~0.0~0.0~0.0~0~0.0~0.0~0.0~225.0~680.0~679.0*
%ADD19D19*%
G04~CAMADD=20~9~0.0~0.0~551.2~393.7~0.0~0.0~0~0.0~0.0~0.0~0.0~0~0.0~0.0~0.0~0.0~0~0.0~0.0~0.0~135.0~666.0~665.0*
%ADD20D20*%
G04~CAMADD=21~9~0.0~0.0~551.2~393.7~0.0~0.0~0~0.0~0.0~0.0~0.0~0~0.0~0.0~0.0~0.0~0~0.0~0.0~0.0~45.0~666.0~665.0*
%ADD21D21*%
G04~CAMADD=22~9~0.0~0.0~570.9~118.1~0.0~0.0~0~0.0~0.0~0.0~0.0~0~0.0~0.0~0.0~0.0~0~0.0~0.0~0.0~135.0~486.0~485.0*
%ADD22D22*%
G04~CAMADD=23~9~0.0~0.0~570.9~118.1~0.0~0.0~0~0.0~0.0~0.0~0.0~0~0.0~0.0~0.0~0.0~0~0.0~0.0~0.0~45.0~486.0~485.0*
%ADD23D23*%
%ADD24R,0.037400X0.031500*%
G04~CAMADD=25~9~0.0~0.0~374.0~315.0~0.0~0.0~0~0.0~0.0~0.0~0.0~0~0.0~0.0~0.0~0.0~0~0.0~0.0~0.0~315.0~486.0~485.0*
%ADD25D25*%
G04~CAMADD=26~9~0.0~0.0~551.2~452.8~0.0~0.0~0~0.0~0.0~0.0~0.0~0~0.0~0.0~0.0~0.0~0~0.0~0.0~0.0~45.0~708.0~707.0*
%ADD26D26*%
%ADD27R,0.049210X0.043310*%
%ADD28R,0.031500X0.037400*%
%ADD29R,0.039370X0.055120*%
%ADD30R,0.055120X0.039370*%
%ADD31R,0.031500X0.011810*%
%ADD32R,0.011810X0.031500*%
%ADD33R,0.104330X0.108270*%
G04~CAMADD=34~9~0.0~0.0~551.2~393.7~0.0~0.0~0~0.0~0.0~0.0~0.0~0~0.0~0.0~0.0~0.0~0~0.0~0.0~0.0~20.0~650.0~555.0*
%ADD34D34*%
%ADD35R,0.029920X0.050000*%
%ADD36R,0.092520X0.061020*%
%ADD37R,0.061020X0.092520*%
%ADD38R,0.060040X0.025590*%
%ADD39R,0.122050X0.122050*%
%ADD40R,0.041340X0.023620*%
%ADD41R,0.015750X0.053150*%
%ADD42R,0.074800X0.074800*%
%ADD43R,0.023620X0.047240*%
%ADD86C,0.019680*%
%ADD87C,0.011810*%
%ADD88C,0.118110*%
%ADD89C,0.015750*%
%ADD90C,0.059060*%
%ADD91C,0.184250*%
%ADD92C,0.070870*%
%ADD93C,0.137800*%
%ADD94C,0.078740*%
%ADD95C,0.118110*%
G04~CAMADD=96~10~0.0~590.6~0.0~0.0~0.0~0.0~0~0.0~0.0~0.0~0.0~0~0.0~0.0~0.0~0.0~0~0.0~0.0~0.0~150.0~590.6~0.0*
%ADD96D96*%
G04~CAMADD=97~10~0.0~590.6~0.0~0.0~0.0~0.0~0~0.0~0.0~0.0~0.0~0~0.0~0.0~0.0~0.0~0~0.0~0.0~0.0~200.0~590.6~0.0*
%ADD97D97*%
%ADD98R,0.236220X0.236220*%
%ADD99C,0.236220*%
%ADD100R,0.067910X0.067910*%
%ADD101C,0.067910*%
%ADD102R,0.067910X0.067910*%
%ADD103C,0.010830*%
%ADD104C,0.015750*%
%LNflightcontroller-1*%
%LPD*%
G36*
X01575Y-00708D02*
X01415Y-00868D01*
X01412Y-00873*
X0141Y-00878*
Y-00916*
X01375Y-00952*
X01388Y-00965*
X0138Y-00973*
X01377Y-00978*
X01376Y-00983*
Y-01*
X01377Y-01005*
X0138Y-0101*
X01463Y-01093*
X01452Y-01104*
X01505Y-01157*
X01547Y-01115*
X01494Y-01062*
X01483Y-01073*
X01404Y-00994*
Y-00989*
X01408Y-00985*
X0142Y-00996*
X01439Y-01016*
X01466Y-00989*
X01492Y-00963*
X01473Y-00943*
X01439Y-00909*
Y-009*
X01443Y-00898*
X01456Y-0091*
X01482Y-00884*
X01489Y-00891*
X01463Y-00917*
X01481Y-00935*
X01527Y-00981*
X0158Y-00928*
X01576Y-00924*
X01578Y-00919*
X0163*
X01632Y-00924*
X01602Y-00955*
X01655Y-01008*
X01697Y-00966*
X01687Y-00956*
X01693Y-00949*
X01696Y-00945*
X01698Y-00939*
X01696Y-00934*
X01693Y-00929*
X01659Y-00895*
X01655Y-00892*
X01649Y-00891*
X01558*
X01556Y-00889*
X01555Y-00886*
X01556Y-00884*
X01557Y-00879*
Y-00853*
X01587Y-00823*
X01588Y-00821*
X01625Y-00785*
X016Y-00761*
Y-00751*
X01609Y-00742*
X01806Y-0094*
Y-0094*
X01545Y-01217*
X0154Y-01217*
X01281Y-00958*
X01553Y-00686*
X01575Y-00708*
G37*
G36*
X00916Y00483D02*
X00735Y00482D01*
X00731Y00485*
Y00723*
X00916*
Y00483*
G37*
%LNflightcontroller-2*%
%LPC*%
G36*
X01592Y-00964D02*
X01575Y-00982D01*
X01598Y-01005*
X01615Y-00987*
X01592Y-00964*
G37*
G36*
X01499Y-0097D02*
X01476Y-00993D01*
X01496Y-01012*
X01519Y-00989*
X01499Y-0097*
G37*
G36*
X01568Y-00989D02*
X0155Y-01006D01*
X01573Y-01029*
X01591Y-01012*
X01568Y-00989*
G37*
G36*
X01622Y-00994D02*
X01605Y-01012D01*
X01628Y-01035*
X01645Y-01017*
X01622Y-00994*
G37*
G36*
X01469Y-01D02*
X01446Y-01023D01*
X01466Y-01043*
X01489Y-0102*
X01469Y-01*
G37*
G36*
X01545Y-01011D02*
X01528Y-01028D01*
X01551Y-01051*
X01568Y-01034*
X01545Y-01011*
G37*
G36*
X01598Y-01019D02*
X0158Y-01036D01*
X01603Y-01059*
X01621Y-01042*
X01598Y-01019*
G37*
G36*
X01521Y-01035D02*
X01503Y-01053D01*
X01526Y-01076*
X01544Y-01058*
X01521Y-01035*
G37*
G36*
X01576Y-01041D02*
X01558Y-01058D01*
X01581Y-01081*
X01599Y-01064*
X01576Y-01041*
G37*
G36*
X01551Y-01065D02*
X01534Y-01083D01*
X01557Y-01106*
X01574Y-01088*
X01551Y-01065*
G37*
G36*
X00851Y007D02*
Y00688D01*
X00863*
X00861Y00693*
X00856Y00698*
X00851Y007*
G37*
G36*
X00841D02*
X00836Y00698D01*
X0083Y00693*
X00828Y00688*
X00841*
Y007*
G37*
G36*
X00799D02*
Y00688D01*
X00811*
X00809Y00693*
X00804Y00698*
X00799Y007*
G37*
G36*
X00789D02*
X00784Y00698D01*
X00779Y00693*
X00777Y00688*
X00789*
Y007*
G37*
G36*
X00863Y00678D02*
X00851D01*
Y00665*
X00856Y00667*
X00861Y00672*
X00863Y00678*
G37*
G36*
X00841D02*
X00828D01*
X0083Y00672*
X00836Y00667*
X00841Y00665*
Y00678*
G37*
G36*
X00811D02*
X00799D01*
Y00665*
X00804Y00667*
X00809Y00672*
X00811Y00678*
G37*
G36*
X00789D02*
X00777D01*
X00779Y00672*
X00784Y00667*
X00789Y00665*
Y00678*
G37*
G36*
X0085Y00649D02*
Y00637D01*
X00862*
X0086Y00642*
X00855Y00647*
X0085Y00649*
G37*
G36*
X0084D02*
X00834Y00647D01*
X00829Y00642*
X00827Y00637*
X0084*
Y00649*
G37*
G36*
X00799Y00648D02*
Y00635D01*
X00811*
X00809Y00641*
X00804Y00646*
X00799Y00648*
G37*
G36*
X00789D02*
X00784Y00646D01*
X00779Y00641*
X00777Y00635*
X00789*
Y00648*
G37*
G36*
X00862Y00627D02*
X0085D01*
Y00614*
X00855Y00616*
X0086Y00621*
X00862Y00627*
G37*
G36*
X0084D02*
X00827D01*
X00829Y00621*
X00834Y00616*
X0084Y00614*
Y00627*
G37*
G36*
X00811Y00625D02*
X00799D01*
Y00613*
X00804Y00615*
X00809Y0062*
X00811Y00625*
G37*
G36*
X00789D02*
X00777D01*
X00779Y0062*
X00784Y00615*
X00789Y00613*
Y00625*
G37*
G36*
X00852Y00598D02*
Y00586D01*
X00864*
X00862Y00591*
X00857Y00596*
X00852Y00598*
G37*
G36*
X00842D02*
X00837Y00596D01*
X00832Y00591*
X00829Y00586*
X00842*
Y00598*
G37*
G36*
X008Y00598D02*
Y00585D01*
X00812*
X0081Y00591*
X00805Y00596*
X008Y00598*
G37*
G36*
X0079D02*
X00785Y00596D01*
X0078Y00591*
X00778Y00585*
X0079*
Y00598*
G37*
G36*
X00864Y00576D02*
X00852D01*
Y00564*
X00857Y00566*
X00862Y00571*
X00864Y00576*
G37*
G36*
X00842D02*
X00829D01*
X00832Y00571*
X00837Y00566*
X00842Y00564*
Y00576*
G37*
G36*
X00812Y00575D02*
X008D01*
Y00563*
X00805Y00565*
X0081Y0057*
X00812Y00575*
G37*
G36*
X0079D02*
X00778D01*
X0078Y0057*
X00785Y00565*
X0079Y00563*
Y00575*
G37*
G36*
X00799Y00545D02*
Y00532D01*
X00811*
X00809Y00538*
X00804Y00543*
X00799Y00545*
G37*
G36*
X00789D02*
X00784Y00543D01*
X00778Y00538*
X00776Y00532*
X00789*
Y00545*
G37*
G36*
X00852Y00544D02*
Y00531D01*
X00864*
X00862Y00536*
X00857Y00541*
X00852Y00544*
G37*
G36*
X00842D02*
X00837Y00541D01*
X00832Y00536*
X00829Y00531*
X00842*
Y00544*
G37*
G36*
X00811Y00522D02*
X00799D01*
Y0051*
X00804Y00512*
X00809Y00517*
X00811Y00522*
G37*
G36*
X00789D02*
X00776D01*
X00778Y00517*
X00784Y00512*
X00789Y0051*
Y00522*
G37*
G36*
X00864Y00521D02*
X00852D01*
Y00509*
X00857Y00511*
X00862Y00516*
X00864Y00521*
G37*
G36*
X00842D02*
X00829D01*
X00832Y00516*
X00837Y00511*
X00842Y00509*
Y00521*
G37*
%LNflightcontroller-3*%
%LPD*%
G54D10*
X01183Y00325D02*
Y00318D01*
X01195Y00425D02*
Y00418D01*
Y00325D02*
Y00318D01*
X01893Y-00642D02*
X01912Y-00661D01*
Y-00686D02*
Y-00661D01*
X01873Y-00682D02*
X01883D01*
X01884Y-0068*
X01766Y-00787D02*
X01767D01*
X01873Y-00682*
X01827Y-0077D02*
X01912Y-00686D01*
X01811Y-0077D02*
X01827D01*
X0178Y-00801D02*
X01811Y-0077D01*
X02078Y-00535D02*
Y-00506D01*
Y-00535D02*
X02082Y-00539D01*
X02184Y-00477D02*
X02189Y-00483D01*
X02078Y-00583D02*
X02184Y-00477D01*
X02078Y-00595D02*
Y-00583D01*
X01993Y-00456D02*
X02014D01*
X02045Y-00425*
Y-00541D02*
Y-00509D01*
X02087Y-00467*
X00753Y-00708D02*
X00754D01*
X00767Y-00695*
X00776*
X008Y-00672*
X00753Y-00708D02*
X00753D01*
X00767Y-00722*
X00777*
X008Y-00745*
Y-00672D02*
Y-00669D01*
Y-00748D02*
Y-00745D01*
X0075Y-00549D02*
X00752D01*
X00763Y-00537*
X00777*
X008Y-00514*
X0075Y-00549D02*
X00764Y-00563D01*
X00775D02*
X008Y-00587D01*
X00764Y-00563D02*
X00775D01*
X008Y-00514D02*
Y-00511D01*
Y-0059D02*
Y-00587D01*
X00464Y00661D02*
X00474Y0067D01*
X00464Y00659D02*
Y00661D01*
X00474Y0067D02*
X00509D01*
X01847Y01775D02*
X01857Y01784D01*
Y01821*
X01847Y01774D02*
Y01775D01*
X01837Y01786D02*
X01847Y01776D01*
X01857Y01821D02*
X01858Y01823D01*
X01847Y01774D02*
Y01776D01*
X01833Y01823D02*
X01837Y01819D01*
Y01786D02*
Y01819D01*
X01293Y-01355D02*
X0131D01*
X0131Y-01354*
X01246Y-01308D02*
X01246D01*
X01293Y-01355*
X0133Y-01384D02*
X01332Y-01383D01*
X01373D02*
X01383Y-01373D01*
X01332Y-01383D02*
X01373D01*
X01906Y-00244D02*
X01935Y-00215D01*
X01901Y-00244D02*
X01906D01*
X01899Y-00246D02*
X01901Y-00244D01*
X01935Y-00215D02*
X01952D01*
Y-0024D02*
Y-00215D01*
X01854Y01589D02*
X01859Y01583D01*
Y01541D02*
Y01583D01*
X01023Y-00669D02*
X01024Y-00669D01*
X01072*
X0197Y-00947D02*
X01989D01*
X0199Y-00947*
X01929Y-00905D02*
D01*
X0197Y-00947*
X01195Y00465D02*
X01251Y00522D01*
X01296Y00102D02*
X0145D01*
X01183Y00214D02*
Y00318D01*
Y00214D02*
X01296Y00102D01*
X01195Y00425D02*
Y00465D01*
X01183Y00325D02*
Y0037D01*
X01195Y00382D02*
Y00418D01*
X01183Y0037D02*
X01195Y00382D01*
Y00219D02*
Y00318D01*
X01198Y00217D02*
X01301Y00114D01*
X01195Y00219D02*
X01198Y00217D01*
X01195Y00325D02*
Y00365D01*
X01251Y00422*
X0121Y0028D02*
X01251Y00322D01*
X0121Y00221D02*
Y0028D01*
X02656Y-00311D02*
Y00441D01*
X0263Y00467D02*
X02656Y00441D01*
X0263Y00467D02*
Y00664D01*
X02472Y00822D02*
X0263Y00664D01*
X02472Y00822D02*
D01*
X02611Y00297D02*
X02644Y00264D01*
X02472Y00722D02*
D01*
X02611Y00583*
Y00297D02*
Y00583D01*
X02472Y00622D02*
X02599Y00495D01*
Y00099D02*
Y00495D01*
X02472Y00522D02*
X02587Y00406D01*
Y00104D02*
Y00406D01*
X02095Y-00387D02*
X02587Y00104D01*
X02137Y-00362D02*
X02599Y00099D01*
X01905Y-0053D02*
Y-00504D01*
Y-0053D02*
X01965Y-0059D01*
X01889Y-00488D02*
Y-00487D01*
Y-00488D02*
X01905Y-00504D01*
X01989Y-00732D02*
Y-00729D01*
X01965Y-00704D02*
Y-0059D01*
Y-00704D02*
X01989Y-00729D01*
X01865Y-00514D02*
X01953Y-00601D01*
X0186Y-00509D02*
Y-00509D01*
X01865Y-00514D02*
X01865D01*
X01975Y-00746D02*
Y-00743D01*
X01953Y-0072D02*
Y-00601D01*
Y-0072D02*
X01975Y-00743D01*
X0186Y-00509D02*
X01865Y-00514D01*
X01902Y-0058D02*
X01912D01*
X01939Y-00607*
X01867Y-00546D02*
X01902Y-0058D01*
X01961Y-00759D02*
Y-00757D01*
X01939Y-00734D02*
Y-00607D01*
Y-00734D02*
X01961Y-00757D01*
X01866Y-00546D02*
X01867D01*
X01875Y-00571D02*
X01925Y-0062D01*
X01831Y-00551D02*
X01851Y-00571D01*
X01875*
X01947Y-00773D02*
Y-00771D01*
X01925Y-00748D02*
Y-0062D01*
Y-00748D02*
X01947Y-00771D01*
X0206Y00215D02*
Y00218D01*
Y00215D02*
X02092Y00183D01*
X02098*
X021Y00181*
X01895Y00021D02*
X01896Y00023D01*
X01878Y00021D02*
X01895D01*
X01655Y-00201D02*
X01878Y00021D01*
X01917Y-00505D02*
Y-00476D01*
Y-00505D02*
X01992Y-00581D01*
X01892Y-0045D02*
X01917Y-00476D01*
X01992Y-00651D02*
X02031Y-0069D01*
X01992Y-00651D02*
Y-00581D01*
X01932Y-00504D02*
Y-00457D01*
Y-00504D02*
X02004Y-00576D01*
X0193Y-00456D02*
X01932Y-00457D01*
X02004Y-00635D02*
X02045Y-00676D01*
X02004Y-00635D02*
Y-00576D01*
X01952Y-00504D02*
Y-00437D01*
Y-00504D02*
X02016Y-00568D01*
X01935Y-00421D02*
X01952Y-00437D01*
X02016Y-00619D02*
X02059Y-00662D01*
X02016Y-00619D02*
Y-00568D01*
X02Y-00384D02*
X02003D01*
X01923Y-00387D02*
X01941D01*
X0196Y-00406*
X01978D02*
X02Y-00384D01*
X0196Y-00406D02*
X01978D01*
X01702Y-0059D02*
X01766Y-00526D01*
Y-00526*
X01599Y-0062D02*
X01629Y-0059D01*
X01702*
X01599Y-0062D02*
D01*
X01717Y-00624D02*
X01787Y-00554D01*
X01717Y-00669D02*
Y-00624D01*
X01683Y-00704D02*
X01717Y-00669D01*
X01756Y-00664D02*
X01827Y-00593D01*
X01697Y-00718D02*
X01751Y-00664D01*
X01756*
X02143Y-00051D02*
X02225Y-00132D01*
X02143Y-00051D02*
Y00202D01*
X02225Y-00241D02*
Y-00132D01*
X0206Y00284D02*
X02143Y00202D01*
X02042Y00127D02*
X02109Y0006D01*
X0206Y00284D02*
Y00287D01*
X01906Y-00103D02*
X01907Y-00103D01*
X01901Y-00168D02*
X01906Y-00163D01*
Y-00103*
X01695Y-002D02*
X01742D01*
X01931Y-00011*
X01983Y-00134D02*
X01983D01*
X01946Y-00097D02*
X01983Y-00134D01*
X02582Y-00351D02*
D01*
X0237Y-00645D02*
Y-00562D01*
X02582Y-00351*
X02644Y-00289D01*
X02263Y-00895D02*
X02372Y-00787D01*
X0237Y-0069D02*
Y-00645D01*
Y-0069D02*
X02372Y-00691D01*
X02253Y-00736D02*
X02298Y-00691D01*
X02372*
X02087Y-00634D02*
X02188Y-00736D01*
X02253*
X02242Y-00872D02*
X02242Y-00871D01*
X02242Y-00923D02*
X02242Y-00922D01*
Y-00872*
X02656Y-00311D02*
X02788Y-00444D01*
X02462Y-00787D02*
X02746D01*
X02372D02*
X02462D01*
X02372D02*
Y-00756D01*
X02788Y-00803D02*
Y-00444D01*
X02781Y-0081D02*
X02788Y-00803D01*
X02769Y-0081D02*
X02781D01*
X02746Y-00787D02*
X02769Y-0081D01*
X02461Y-00787D02*
X02462Y-00787D01*
X02461Y-00867D02*
Y-00787D01*
X02181Y-00756D02*
X02372D01*
X02073Y-00648D02*
X02181Y-00756D01*
X02263Y-00921D02*
Y-00895D01*
X02261Y-00923D02*
X02263Y-00921D01*
X02644Y-00289D02*
Y00264D01*
X02094Y-00089D02*
X02123D01*
X02138Y-00104*
X023Y-00564D02*
X02301Y-00566D01*
X023Y-00564D02*
Y-0056D01*
X02047Y-00734D02*
X02079D01*
X02017Y-00704D02*
X02047Y-00734D01*
X02018Y00092D02*
X02091Y00019D01*
X01973Y00092D02*
X02018D01*
X01715Y-00262D02*
X01766Y-00314D01*
X01697Y-00262D02*
X01715D01*
X01695Y-00261D02*
X01697Y-00262D01*
X01935Y00127D02*
X02042D01*
X0172Y-00296D02*
X01752Y-00328D01*
X01681Y-00296D02*
X0172D01*
X01665Y-00279D02*
X01681Y-00296D01*
X01838Y00167D02*
Y00233D01*
Y00167D02*
X02094Y-00089D01*
X01901Y-00168D02*
Y-00166D01*
X01648Y-00612D02*
X01678D01*
X02095Y-00428D02*
Y-00387D01*
X02137Y-0047D02*
Y-00362D01*
X02121Y-00345D02*
X02225Y-00241D01*
X02097Y-00345D02*
X02121D01*
X02092Y-00431D02*
X02095Y-00428D01*
X02092Y-00431D02*
D01*
X02073Y-0045D02*
X02092Y-00431D01*
X02073Y-00453D02*
Y-0045D01*
X02017Y-00398D02*
X02017D01*
X02188Y-00227D02*
X02188D01*
X02031Y-00411D02*
X02097Y-00345D01*
X02017Y-00398D02*
X02188Y-00227D01*
X02078Y-00506D02*
X021Y-00484D01*
Y-00481*
X01981Y00155D02*
X01982Y00154D01*
X01981Y00155D02*
Y0019D01*
X01929Y00274D02*
X01931Y00273D01*
Y00267D02*
X01937Y00261D01*
X01931Y00267D02*
Y00273D01*
X01937Y0023D02*
Y00261D01*
Y0023D02*
X01949Y00218D01*
X01981Y0019D02*
X02007Y00215D01*
Y00218*
Y00391*
X02009Y00394*
X01954Y00388D02*
X01959Y00394D01*
X01954Y00223D02*
Y00388D01*
X01949Y00218D02*
X01954Y00223D01*
X02057Y-00439D02*
X02059D01*
X02008Y-00489D02*
X02057Y-00439D01*
X02007Y-00489D02*
X02008D01*
X01857Y00563D02*
Y01485D01*
X01816Y01526D02*
Y01589D01*
Y01526D02*
X01857Y01485D01*
X01891Y01589D02*
Y01629D01*
X01886Y01633D02*
X01891Y01629D01*
X01776Y01615D02*
X01795Y01633D01*
X01886*
X01776Y01539D02*
Y01615D01*
Y01539D02*
X01846Y0147D01*
X01961Y-00342D02*
X02123Y-0018D01*
Y-00136*
X01752Y00234D02*
X02123Y-00136D01*
X01947Y-00328D02*
X02112Y-00164D01*
Y-00141*
X01741Y00229D02*
X02112Y-00141D01*
X01741Y00229D02*
Y00463D01*
X01752Y00234D02*
Y00458D01*
X01857Y00563*
X01741Y00463D02*
X01846Y00568D01*
Y0147*
X01975Y-00356D02*
X02173Y-00158D01*
X0199Y-0037D02*
X0217Y-00189D01*
X02173Y-00158D02*
X02182D01*
X02187Y-00152*
X0219*
X02114Y-00492D02*
X02137Y-0047D01*
X02114Y-00495D02*
Y-00492D01*
X0206Y00287D02*
Y00393D01*
X02059Y00394D02*
X0206Y00393D01*
X01909Y00384D02*
Y00394D01*
X01888Y00363D02*
X01909Y00384D01*
X01888Y00287D02*
Y00363D01*
Y00284D02*
Y00287D01*
X01838Y00233D02*
X01888Y00284D01*
X0234Y-01086D02*
Y-01076D01*
Y-01086D02*
X02369Y-01115D01*
Y-01136D02*
Y-01115D01*
X02515Y-01133D02*
X02515Y-01132D01*
X02515Y-01179D02*
Y-01133D01*
X02187Y-00189D02*
X02188Y-00188D01*
X0217Y-00189D02*
X02187D01*
X01616Y-0032D02*
X01639D01*
X01665Y-00346*
X01527Y-00231D02*
Y00026D01*
X01665Y-00352D02*
X01697Y-00384D01*
X01665Y-00352D02*
Y-00346D01*
X0145Y00102D02*
X01527Y00026D01*
Y-00231D02*
X01616Y-0032D01*
X01539Y-00226D02*
X01621Y-00308D01*
X01705*
X01539Y-00226D02*
Y00031D01*
X01705Y-00308D02*
X01739Y-00342D01*
X01455Y00114D02*
X01539Y00031D01*
X01301Y00114D02*
X01455D01*
X0155Y-00194D02*
X01592Y-00236D01*
X01714*
X0155Y-00194D02*
Y00036D01*
X01778Y-003D02*
X0178D01*
X01714Y-00236D02*
X01778Y-003D01*
X01459Y00127D02*
X0155Y00036D01*
X01304Y00127D02*
X01459D01*
X0121Y00221D02*
X01304Y00127D01*
X01321Y-00507D02*
X01359Y-00545D01*
X01321Y-00507D02*
Y-00506D01*
X01776Y-00721D02*
Y-00719D01*
X01739Y-00759D02*
Y-00758D01*
X01776Y-00721*
X01752Y-00773D02*
X01811Y-00715D01*
Y-00708*
X01812Y-00706*
X01989Y-0037D02*
X0199D01*
X01676Y-00765D02*
X01709Y-00732D01*
X01711*
X01674Y-00765D02*
X01676D01*
X01682Y-00788D02*
X01725Y-00746D01*
X01682Y-00794D02*
X0182Y-00932D01*
X01682Y-00794D02*
Y-00788D01*
X01764Y-00852D02*
X01832Y-00919D01*
Y-01123D02*
Y-00919D01*
X0182Y-0096D02*
Y-00932D01*
X01605Y-01175D02*
X0182Y-0096D01*
X01801Y-01154D02*
X01832Y-01123D01*
X01764Y-00852D02*
Y-00845D01*
X01794Y-00815*
X01605Y-01658D02*
Y-01175D01*
Y-01658D02*
X01647Y-017D01*
X02274*
X02482Y-01491*
Y-01413*
X02215Y-01216D02*
X02244Y-01187D01*
X02215Y-01227D02*
Y-01216D01*
X02193Y-01249D02*
X02215Y-01227D01*
X02482Y-01413D02*
X02568Y-01327D01*
Y-01219*
X03271Y-00515*
X0252Y-00981D02*
X02611D01*
X02711Y-0088*
X02053Y-00767D02*
X02054D01*
X02003Y-00718D02*
X02004D01*
X02053Y-00767*
X01648Y-00612D02*
X01648Y-00612D01*
X01638Y-00612D02*
X01648D01*
X01616Y-00634D02*
X01638Y-00612D01*
X01501Y-0063D02*
X01562Y-00568D01*
X01552Y-00545D02*
X01669D01*
X01674Y-00557D02*
X01864Y-00367D01*
X01557Y-00557D02*
X01674D01*
X01476Y-00621D02*
X01552Y-00545D01*
X01562Y-00568D02*
X01679D01*
X01933Y-00314*
X01669Y-00545D02*
X01768Y-00446D01*
X01613Y-00634D02*
X01616D01*
X01489Y-00625D02*
X01557Y-00557D01*
X01599Y-00481D02*
Y-00481D01*
Y-00481D02*
X01636Y-00518D01*
X01638*
X01264Y-00946D02*
X01501Y-0071D01*
Y-0063*
X01489Y-00705D02*
Y-00625D01*
X01252Y-00942D02*
X01489Y-00705D01*
X01476Y-00701D02*
Y-00621D01*
X01237Y-0094D02*
X01476Y-00701D01*
X01585Y-00606D02*
D01*
X01557Y-00635D02*
X01585Y-00606D01*
X01545Y-00635D02*
X01557D01*
X01542Y-00632D02*
X01545Y-00635D01*
X0154Y-00632D02*
X01542D01*
X01711Y-00373D02*
X01768Y-0043D01*
Y-00446D02*
Y-0043D01*
X01711Y-00373D02*
Y-0037D01*
X01794Y-00286D02*
X01864Y-00356D01*
Y-00367D02*
Y-00356D01*
X01425Y-00878D02*
X01641Y-00662D01*
X01626Y-00648D02*
X01627D01*
X01591Y-00683D02*
X01626Y-00648D01*
X01425Y-00948D02*
Y-00878D01*
X0159Y-00683D02*
X01591D01*
X0138Y-0067D02*
X0142Y-00631D01*
X01377Y-00673D02*
X0138Y-0067D01*
X01379D02*
X0138D01*
X0132Y-00611D02*
X01379Y-0067D01*
X01372Y-00677D02*
X01376Y-00673D01*
X01377*
X01634Y-00728D02*
Y-00726D01*
X01669Y-00692D02*
Y-0069D01*
X01634Y-00726D02*
X01669Y-00692D01*
X01167Y-00881D02*
X01169D01*
X01127Y-00921D02*
X01167Y-00881D01*
X01127Y-00921D02*
D01*
X01225Y-01004D02*
X01274Y-01053D01*
X01225Y-00936D02*
X01372Y-00788D01*
X01225Y-01004D02*
Y-00936D01*
X01237Y-00968D02*
Y-0094D01*
X01274Y-01053D02*
D01*
X01237Y-00968D02*
X01335Y-01065D01*
X01264Y-00962D02*
Y-00946D01*
X01252Y-00966D02*
X01346Y-01061D01*
X01252Y-00966D02*
Y-00942D01*
X01264Y-00962D02*
X01358Y-01056D01*
X01027Y-00744D02*
X01326D01*
X01372Y-00788D02*
Y-00677D01*
X01346Y-01091D02*
Y-01061D01*
X01335Y-01087D02*
Y-01065D01*
X01269Y-01152D02*
X01335Y-01087D01*
X0125Y-01188D02*
X01346Y-01091D01*
X01358Y-01096D02*
Y-01056D01*
X01232Y-01223D02*
X01358Y-01096D01*
X01132Y-01195D02*
X01161Y-01223D01*
X01232Y-01152D02*
X01269D01*
X01168Y-01159D02*
X01196Y-01188D01*
X01161Y-01223D02*
X01232D01*
X01196Y-01188D02*
X0125D01*
X01203Y-01124D02*
X01232Y-01152D01*
X00853Y-00511D02*
X00931D01*
X00853Y-0059D02*
X00931D01*
X00853Y-00669D02*
X00931D01*
X00853Y-00748D02*
X00931D01*
X0102Y01021D02*
X0107Y00971D01*
X01019Y01027D02*
X0102Y01025D01*
X0107Y00955D02*
Y00971D01*
X0102Y01021D02*
Y01025D01*
X00293Y00603D02*
X00301Y00611D01*
X0034*
X00291Y00603D02*
X00293D01*
X00509Y0067D02*
X00518Y00679D01*
X00696Y00809D02*
X00729Y00842D01*
X00694Y00803D02*
X00696Y00804D01*
X00729Y00842D02*
X00738D01*
X00696Y00804D02*
Y00809D01*
X01024Y-00511D02*
X01079D01*
X0133Y-00237D02*
X01349Y-00256D01*
X01381*
X01383Y-00258*
X02303Y00244D02*
X02306Y00248D01*
X02397*
X02402Y00126D02*
Y00243D01*
X02397Y00248D02*
X02402Y00243D01*
X02475Y00131D02*
Y00318D01*
X02402Y00126D02*
X02471D01*
X02472Y00322D02*
X02475Y00318D01*
X02471Y00126D02*
X02475Y00131D01*
X02405Y00064D02*
Y00123D01*
X02402Y00126D02*
X02405Y00123D01*
X01903Y00216D02*
X01905Y00218D01*
X01865Y00216D02*
X01903D01*
X02114Y00287D02*
X02117Y0029D01*
X02159*
X01793Y00287D02*
X01835D01*
X01835Y00287*
X02244Y-01187D02*
X02252D01*
X02515Y-01059D02*
X02517Y-01057D01*
X02571*
X02252Y-0112D02*
X02261Y-01111D01*
X02252Y-01187D02*
Y-0112D01*
X02261Y-01111D02*
Y-01076D01*
X02368Y-01049D02*
X02424D01*
X02434Y-01059*
X02434Y-01059D02*
X02515D01*
X02434Y-01059D02*
X02434Y-01059D01*
X02224Y-00691D02*
D01*
X02186Y-00653D02*
X02224Y-00691D01*
X02161Y-00653D02*
X02186D01*
X02427Y-00758D02*
X02469D01*
X02425Y-00756D02*
X02427Y-00758D01*
X02427Y-00689D02*
X0247D01*
X02425Y-00691D02*
X02427Y-00689D01*
X01464Y-00393D02*
X01503Y-00354D01*
X0152Y-00448D02*
X01538D01*
X01585Y-00495*
X01464Y-00393D02*
X0152Y-00448D01*
X01983Y-00854D02*
X02019Y-00889D01*
X0198Y-00854D02*
X01983D01*
X02019Y-00889D02*
D01*
X0198Y-00854D02*
Y-00834D01*
X01933Y-00787D02*
X0198Y-00834D01*
X02114Y-00606D02*
X02161Y-00653D01*
X01923Y-00269D02*
X01952Y-0024D01*
X01923Y-00269D02*
Y-00269D01*
X01883Y-00919D02*
Y-00833D01*
X01911Y-01107D02*
Y-00947D01*
X01883Y-00919D02*
X01911Y-00947D01*
X01902Y-00814D02*
X01905D01*
X01906Y-00815*
X01883Y-00833D02*
X01902Y-00814D01*
X01911Y-01107D02*
X01953Y-01149D01*
X01874Y-01D02*
Y-00964D01*
X01874Y-01251D02*
Y-01053D01*
X01874Y-01053*
X01921Y-01574D02*
Y-01409D01*
X01953Y-01376*
Y-01149*
X01822Y-01574D02*
Y-01403D01*
X01801Y-01382D02*
X01822Y-01403D01*
X01801Y-01382D02*
Y-01154D01*
X01441Y-01419D02*
X01467D01*
X0142Y-01441D02*
X01441Y-01419D01*
X01348Y-01441D02*
X0142D01*
X01309Y-0148D02*
X01348Y-01441D01*
X01023Y-0059D02*
X01024Y-00589D01*
X01079*
X00822Y-00326D02*
X00855D01*
X00813Y-00335D02*
X00822Y-00326D01*
X00855D02*
X01001Y-0018D01*
X01394*
X01389Y-00192D02*
X01432Y-00235D01*
X00953Y-00326D02*
X01087Y-00192D01*
X01389*
X01394Y-0018D02*
X01437Y-00224D01*
X01384Y-00204D02*
X01427Y-00247D01*
X01051Y-00326D02*
X01174Y-00204D01*
X01384*
X01148Y-00325D02*
X01258Y-00215D01*
X01379D02*
X01423Y-00259D01*
X01258Y-00215D02*
X01379D01*
X01437Y-00224D02*
X01481D01*
X00912Y-00335D02*
X0092Y-00326D01*
X00953*
X01432Y-00235D02*
X01476D01*
X0101Y-00335D02*
X01019Y-00326D01*
X01051*
X01427Y-00247D02*
X01471D01*
X01423Y-00259D02*
X01466D01*
X01109Y-00335D02*
X01118Y-00325D01*
X01148*
X01321Y-00422D02*
X01353Y-0039D01*
X01315Y-00501D02*
X01321Y-00506D01*
X01315Y-00501D02*
Y-00478D01*
X01321Y-00473*
Y-00422*
X01353Y-0039D02*
D01*
X01347Y-00362D02*
Y-00298D01*
Y-00362D02*
X01353Y-00368D01*
X01345Y-00296D02*
X01347Y-00298D01*
X01353Y-0039D02*
Y-00368D01*
X01404Y-00338D02*
X01408D01*
X01441Y-00305D02*
D01*
X01408Y-00338D02*
X01441Y-00305D01*
X01387Y-01166D02*
X01444Y-01223D01*
X01281Y-01272D02*
X01282D01*
X01338Y-01329*
X01387Y-01166D02*
X01387D01*
X01338Y-01329D02*
D01*
X01281Y-01272D02*
X01316Y-01237D01*
X01919Y-003D02*
X02034Y-00185D01*
X02035*
X01642Y-00355D02*
Y-00354D01*
X01683Y-00398D02*
Y-00396D01*
X01642Y-00355D02*
X01683Y-00396D01*
X01481Y-00224D02*
X01669Y-00411D01*
X01539Y-00393D02*
Y-00332D01*
Y-00393D02*
X01613Y-00467D01*
X01599Y-00369D02*
X01655Y-00425D01*
X01476Y-00235D02*
X01599Y-00358D01*
Y-00369D02*
Y-00358D01*
X01551Y-00377D02*
Y-00327D01*
Y-00377D02*
X01627Y-00453D01*
X01466Y-00259D02*
X01539Y-00332D01*
X01471Y-00247D02*
X01551Y-00327D01*
X02269Y00124D02*
X02326D01*
X02329Y00126*
X01909Y00555D02*
X01959D01*
X02009D02*
X02059D01*
X02009Y00555D02*
Y00593D01*
Y00555D02*
X02009Y00555D01*
X01985Y00617D02*
X02009Y00593D01*
X01959Y00592D02*
X01985Y00617D01*
X01959Y00555D02*
Y00592D01*
X02252Y-0126D02*
X02253Y-01261D01*
Y-0131D02*
Y-01261D01*
X02334Y-01308D02*
Y-01263D01*
X02331Y-0126D02*
X02334Y-01263D01*
X02301Y-01111D02*
X02307Y-01117D01*
Y-01171D02*
Y-01117D01*
Y-01171D02*
X02323Y-01187D01*
X02281Y-01122D02*
Y-01076D01*
X02301Y-01111D02*
Y-01076D01*
X02281D02*
D01*
X02321Y-01102D02*
Y-01077D01*
Y-01102D02*
X0233Y-01112D01*
X0232Y-01076D02*
X02321Y-01077D01*
X02323Y-01187D02*
X02331D01*
X02434Y-01132D02*
X02434Y-01132D01*
X02434Y-01178D02*
Y-01132D01*
X02368Y-0095D02*
X02424D01*
X02368Y-0095D02*
X02368Y-0095D01*
X02424D02*
X02424Y-00949D01*
X02233Y-00601D02*
X02269Y-00637D01*
X02274D02*
X02275Y-00638D01*
X02233Y-00601D02*
D01*
X02269Y-00637D02*
X02274D01*
X02269Y-00529D02*
D01*
X023Y-0056D01*
X02189Y-00483D02*
X02196D01*
X02208Y-00471*
X02078Y-00595D02*
X021Y-00617D01*
Y-0062D02*
Y-00617D01*
X01169Y-00659D02*
Y-00657D01*
X01133Y-00695D02*
D01*
X01169Y-00659*
X0122Y-00606D02*
X01226Y-00611D01*
X0132*
X01227Y-00513D02*
X01269Y-00555D01*
Y-00558D02*
Y-00555D01*
X01227Y-00513D02*
D01*
X01641Y-0044D02*
X01685Y-00484D01*
X01641Y-0044D02*
Y-00439D01*
X01874Y-01251D02*
X01877Y-01255D01*
X01429Y-00539D02*
X01468Y-005D01*
X01429Y-00539D02*
D01*
X01374Y-00484D02*
X01413Y-00444D01*
X01586Y-00783D02*
Y-00745D01*
X01655Y-00676*
X01543Y-00826D02*
X01549Y-00821D01*
X01543Y-00879D02*
Y-00826D01*
X0153Y-00891D02*
X01543Y-00879D01*
X0153Y-00932D02*
Y-00891D01*
Y-00932D02*
X01557Y-00905D01*
X01649D02*
X01683Y-00939D01*
X01557Y-00905D02*
X01649D01*
X01662Y-0096D02*
X01683Y-00939D01*
X01649Y-0096D02*
X01662D01*
X0139Y-01D02*
X015Y-0111D01*
X0139Y-01D02*
Y-00983D01*
X01425Y-00948*
X0188Y-00761D02*
X01919Y-00801D01*
G54D11*
X01326Y00038D02*
X01422D01*
X01326Y00038D02*
X01326Y00038D01*
G54D16*
X02937Y0082D02*
X02976Y00813D01*
X03053Y00813D02*
X03081Y00813D01*
X02864Y00845D02*
X029Y0083D01*
X02937Y0082*
X03081Y00813D02*
X03108Y00806D01*
X03132Y00794*
X03014Y00811D02*
X03053Y00813D01*
X02976Y00813D02*
X03014Y00811D01*
X0272Y00973D02*
X02743Y00941D01*
X02769Y00912*
X02686Y01043D02*
X02701Y01007D01*
X0272Y00973*
X02798Y00886D02*
X0283Y00864D01*
X02864Y00845*
X02769Y00912D02*
X02798Y00886D01*
X0376Y00508D02*
X03787Y00485D01*
X03812Y00459*
X03698Y00543D02*
X0373Y00528D01*
X0376Y00508*
X03849Y00398D02*
X03862Y00365D01*
X03871Y0033*
X03812Y00459D02*
X03832Y0043D01*
X03849Y00398*
X033Y00695D02*
X03388Y00652D01*
X03478Y00615*
X03132Y00794D02*
X03215Y00742D01*
X033Y00695*
X0357Y00582D02*
X03664Y00554D01*
X03698Y00543*
X03478Y00615D02*
X0357Y00582D01*
X0228Y01982D02*
X02309Y01961D01*
X02336Y01937*
X02215Y02012D02*
X02248Y01999D01*
X0228Y01982*
X02378Y01879D02*
X02394Y01847D01*
X02405Y01813*
X02336Y01937D02*
X02359Y0191D01*
X02378Y01879*
X02145Y02024D02*
X0218Y0202D01*
X02215Y02012*
X02109Y02024D02*
X02145Y02024D01*
X02073Y02019D02*
X02109Y02024D01*
X01999Y02006D02*
X02073Y02019D01*
X01925Y01997D02*
X01999Y02006D01*
X0185Y01993D02*
X01925Y01997D01*
X02668Y01224D02*
X02668Y01196D01*
X02666Y01157D02*
X02668Y01196D01*
X02649Y01275D02*
X02662Y0125D01*
X02668Y01224*
X02669Y01118D02*
X02676Y0108D01*
X02686Y01043*
X02666Y01157D02*
X02669Y01118D01*
X02456Y01651D02*
X02487Y01572D01*
X02522Y01495*
X02405Y01813D02*
X02428Y01732D01*
X02456Y01651*
X02561Y0142D02*
X02603Y01346D01*
X02649Y01275*
X02522Y01495D02*
X02561Y0142D01*
X03871Y0033D02*
X03875Y00294D01*
X03874Y00258D02*
X03875Y00294D01*
X03869Y00223D02*
X03874Y00258D01*
X03857Y-00149D02*
X03869Y-00223D01*
X03874Y-00258D02*
X03875Y-00294D01*
X03871Y-0033D02*
X03875Y-00294D01*
X03869Y-00223D02*
X03874Y-00258D01*
X03862Y-00365D02*
X03871Y-0033D01*
X03857Y00149D02*
X03869Y00223D01*
X03848Y00074D02*
X03857Y00149D01*
X03843Y0D02*
X03848Y00074D01*
X03843Y0D02*
X03848Y-00074D01*
X03857Y-00149*
X03849Y-00398D02*
X03862Y-00365D01*
X03832Y-0043D02*
X03849Y-00398D01*
X03812Y-00459D02*
X03832Y-0043D01*
X03787Y-00485D02*
X03812Y-00459D01*
X0376Y-00508D02*
X03787Y-00485D01*
X0373Y-00528D02*
X0376Y-00508D01*
X03698Y-00543D02*
X0373Y-00528D01*
X03664Y-00554D02*
X03698Y-00543D01*
X03582Y-00578D02*
X03664Y-00554D01*
X03502Y-00605D02*
X03582Y-00578D01*
X03423Y-00637D02*
X03502Y-00605D01*
X03346Y-00672D02*
X03423Y-00637D01*
X0327Y-0071D02*
X03346Y-00672D01*
X03197Y-00753D02*
X0327Y-0071D01*
X03125Y-00798D02*
X03197Y-00753D01*
X03056Y-00847D02*
X03125Y-00798D01*
X0299Y-009D02*
X03056Y-00847D01*
X02926Y-00955D02*
X0299Y-009D01*
X02864Y-01014D02*
X02926Y-00955D01*
X02806Y-01075D02*
X02864Y-01014D01*
X0275Y-01139D02*
X02806Y-01075D01*
X02698Y-01206D02*
X0275Y-01139D01*
X02649Y-01275D02*
X02698Y-01206D01*
X02603Y-01346D02*
X02649Y-01275D01*
X02561Y-0142D02*
X02603Y-01346D01*
X02522Y-01495D02*
X02561Y-0142D01*
X02487Y-01573D02*
X02522Y-01495D01*
X02456Y-01651D02*
X02487Y-01573D01*
X02428Y-01732D02*
X02456Y-01651D01*
X02405Y-01813D02*
X02428Y-01732D01*
X02394Y-01847D02*
X02405Y-01813D01*
X02378Y-01879D02*
X02394Y-01847D01*
X02359Y-0191D02*
X02378Y-01879D01*
X02336Y-01937D02*
X02359Y-0191D01*
X02309Y-01961D02*
X02336Y-01937D01*
X0228Y-01982D02*
X02309Y-01961D01*
X02248Y-01999D02*
X0228Y-01982D01*
X02215Y-02012D02*
X02248Y-01999D01*
X01999Y-02006D02*
X02073Y-02019D01*
X0218Y-0202D02*
X02215Y-02012D01*
X0185Y-01993D02*
X01925Y-01997D01*
X01999Y-02006*
X02145Y-02024D02*
X0218Y-0202D01*
X02109Y-02024D02*
X02145Y-02024D01*
X02073Y-02019D02*
X02109Y-02024D01*
X01555Y02024D02*
X01591Y02024D01*
X01627Y02019*
X0152Y0202D02*
X01555Y02024D01*
X01485Y02012D02*
X0152Y0202D01*
X01701Y02006D02*
X01775Y01997D01*
X0185Y01993*
X01627Y02019D02*
X01701Y02006D01*
X01451Y01999D02*
X01485Y02012D01*
X0142Y01982D02*
X01451Y01999D01*
X01391Y01961D02*
X0142Y01982D01*
X01364Y01937D02*
X01391Y01961D01*
X01341Y0191D02*
X01364Y01937D01*
X01322Y01879D02*
X01341Y0191D01*
X01306Y01847D02*
X01322Y01879D01*
X01295Y01813D02*
X01306Y01847D01*
X01271Y01732D02*
X01295Y01813D01*
X01244Y01651D02*
X01271Y01732D01*
X01213Y01573D02*
X01244Y01651D01*
X01178Y01495D02*
X01213Y01573D01*
X01139Y0142D02*
X01178Y01495D01*
X01097Y01346D02*
X01139Y0142D01*
X01051Y01275D02*
X01097Y01346D01*
X01002Y01206D02*
X01051Y01275D01*
X0095Y01139D02*
X01002Y01206D01*
X00894Y01075D02*
X0095Y01139D01*
X00836Y01014D02*
X00894Y01075D01*
X00774Y00955D02*
X00836Y01014D01*
X0071Y009D02*
X00774Y00955D01*
X00643Y00847D02*
X0071Y009D01*
X00574Y00798D02*
X00643Y00847D01*
X00503Y00753D02*
X00574Y00798D01*
X00429Y0071D02*
X00503Y00753D01*
X00354Y00672D02*
X00429Y0071D01*
X00277Y00637D02*
X00354Y00672D01*
X00198Y00605D02*
X00277Y00637D01*
X00118Y00578D02*
X00198Y00605D01*
X00036Y00554D02*
X00118Y00578D01*
X00002Y00543D02*
X00036Y00554D01*
X-00029Y00528D02*
X00002Y00543D01*
X-00059Y00508D02*
X-00029Y00528D01*
X-00087Y00485D02*
X-00059Y00508D01*
X-00111Y00459D02*
X-00087Y00485D01*
X-00132Y0043D02*
X-00111Y00459D01*
X-00149Y00398D02*
X-00132Y0043D01*
X-00161Y00365D02*
X-00149Y00398D01*
X-00147Y00074D02*
X-00143Y0D01*
X-00147Y-00074D02*
X-00143Y0D01*
X-00169Y00223D02*
X-00156Y00149D01*
X-00147Y00074*
X-00156Y-00148D02*
X-00147Y-00074D01*
X-00168Y-00221D02*
X-00156Y-00148D01*
X-0017Y-00328D02*
X-00161Y-00363D01*
X-0017Y0033D02*
X-00161Y00365D01*
X-00174Y00258D02*
X-00169Y00223D01*
X-00174Y00294D02*
X-0017Y0033D01*
X-00174Y00294D02*
X-00174Y00258D01*
X-00173Y-00257D02*
X-00168Y-00221D01*
X-00174Y-00293D02*
X-0017Y-00328D01*
X-00174Y-00293D02*
X-00173Y-00257D01*
X01108Y-01364D02*
X01155Y-0145D01*
X01198Y-01537*
X01043Y-01257D02*
X01056Y-01282D01*
X01108Y-01364*
X01269Y-01719D02*
X01297Y-01813D01*
X01308Y-01847*
X01198Y-01537D02*
X01236Y-01628D01*
X01269Y-01719*
X0103Y-01087D02*
X01036Y-01125D01*
X01039Y-01164*
X01004Y-01013D02*
X01019Y-01049D01*
X0103Y-01087*
X01036Y-01203D02*
X01039Y-01164D01*
X01036Y-0123D02*
X01043Y-01257D01*
X01036Y-01203D02*
X01036Y-0123D01*
X01776Y-01997D02*
X0185Y-01993D01*
X01702Y-02006D02*
X01776Y-01997D01*
X01628Y-02019D02*
X01702Y-02006D01*
X01487Y-02012D02*
X01521Y-0202D01*
X01593Y-02024D02*
X01628Y-02019D01*
X01557Y-02024D02*
X01593Y-02024D01*
X01521Y-0202D02*
X01557Y-02024D01*
X01343Y-01909D02*
X01366Y-01937D01*
X01392Y-01961*
X01308Y-01847D02*
X01323Y-01879D01*
X01343Y-01909*
X01422Y-01982D02*
X01453Y-01999D01*
X01487Y-02012*
X01392Y-01961D02*
X01422Y-01982D01*
X00118Y-00577D02*
X00198Y-00604D01*
X00277Y-00636*
X00002Y-00541D02*
X00036Y-00553D01*
X00118Y-00577*
X0043Y-0071D02*
X00503Y-00753D01*
X00575Y-00798*
X00277Y-00636D02*
X00354Y-00671D01*
X0043Y-0071*
X-00131Y-00428D02*
X-00111Y-00457D01*
X-00086Y-00483*
X-00161Y-00363D02*
X-00148Y-00396D01*
X-00131Y-00428*
X-00059Y-00506D02*
X-00029Y-00526D01*
X00002Y-00541*
X-00086Y-00483D02*
X-00059Y-00506D01*
X00877Y-0087D02*
X00908Y-00893D01*
X00937Y-00919*
X00807Y-00836D02*
X00843Y-00851D01*
X00877Y-0087*
X00963Y-00948D02*
X00985Y-00979D01*
X01004Y-01013*
X00937Y-00919D02*
X00963Y-00948D01*
X00653Y-00818D02*
X00692Y-00816D01*
X00626Y-00818D02*
X00653Y-00818D01*
X00575Y-00798D02*
X00599Y-00811D01*
X00626Y-00818*
X00731Y-00818D02*
X00769Y-00825D01*
X00807Y-00836*
X00692Y-00816D02*
X00731Y-00818D01*
G54D17*
X00796Y00013D03*
X00552D03*
G54D18*
X01246Y-01308D03*
X01281Y-01272D03*
X01316Y-01237D03*
X01352Y-01202D03*
X01387Y-01166D03*
X01274Y-01053D03*
X01238Y-01088D03*
X01203Y-01124D03*
X01168Y-01159D03*
X01132Y-01195D03*
G54D19*
X01169Y-00881D03*
X01379Y-0067D03*
G54D20*
X01169Y-00657D03*
X0122Y-00606D03*
X01468Y-005D03*
X0152Y-00448D03*
X02233Y-00601D03*
X02182Y-00653D03*
X01929Y-00905D03*
X0198Y-00854D03*
X01413Y-00444D03*
X01464Y-00393D03*
X01269Y-00558D03*
X01321Y-00506D03*
X01404Y-00338D03*
X01353Y-0039D03*
X01598Y-01012D03*
X01649Y-0096D03*
X01551Y-01058D03*
X015Y-0111D03*
G54D21*
X01901Y-00168D03*
X01952Y-0022D03*
X02035Y-00185D03*
X01983Y-00134D03*
X02217Y-00477D03*
X02269Y-00529D03*
G54D22*
X01585Y-00495D03*
X01599Y-00481D03*
X01613Y-00467D03*
X01627Y-00453D03*
X01641Y-00439D03*
X01655Y-00425D03*
X01669Y-00411D03*
X01683Y-00398D03*
X01697Y-00384D03*
X01711Y-0037D03*
X01725Y-00356D03*
X01739Y-00342D03*
X01752Y-00328D03*
X01766Y-00314D03*
X0178Y-003D03*
X01794Y-00286D03*
X02114Y-00606D03*
X021Y-0062D03*
X02087Y-00634D03*
X02073Y-00648D03*
X02059Y-00662D03*
X02045Y-00676D03*
X02031Y-0069D03*
X02017Y-00704D03*
X02003Y-00718D03*
X01989Y-00732D03*
X01975Y-00746D03*
X01961Y-00759D03*
X01947Y-00773D03*
X01933Y-00787D03*
X01919Y-00801D03*
X01906Y-00815D03*
G54D23*
X01906Y-00286D03*
X01919Y-003D03*
X01933Y-00314D03*
X01947Y-00328D03*
X01961Y-00342D03*
X01975Y-00356D03*
X01989Y-0037D03*
X02003Y-00384D03*
X02017Y-00398D03*
X02031Y-00411D03*
X02045Y-00425D03*
X02059Y-00439D03*
X02073Y-00453D03*
X02087Y-00467D03*
X021Y-00481D03*
X02114Y-00495D03*
X01794Y-00815D03*
X0178Y-00801D03*
X01766Y-00787D03*
X01752Y-00773D03*
X01739Y-00759D03*
X01725Y-00746D03*
X01711Y-00732D03*
X01697Y-00718D03*
X01683Y-00704D03*
X01669Y-0069D03*
X01655Y-00676D03*
X01641Y-00662D03*
X01627Y-00648D03*
X01613Y-00634D03*
X01599Y-0062D03*
X01585Y-00606D03*
G54D24*
X01874Y-01D03*
Y-01053D03*
G54D25*
X01345Y-00296D03*
X01383Y-00258D03*
X01586Y-00783D03*
X01549Y-00821D03*
G54D26*
X0153Y-00932D03*
X01469Y-00993D03*
X01486Y-00887D03*
X01425Y-00948D03*
G54D27*
X01023Y-00669D03*
X00931D03*
X01023Y-00748D03*
X00931D03*
X01023Y-0059D03*
X00931D03*
X01023Y-00511D03*
X00931D03*
G54D28*
X00853Y-00669D03*
X008D03*
X00853Y-00748D03*
X008D03*
X02372Y-00691D03*
X02425D03*
X02372Y-00756D03*
X02425D03*
X0206Y00287D03*
X02114D03*
X02007Y00218D03*
X0206D03*
X01949D03*
X01896D03*
X01888Y00287D03*
X01835D03*
X00853Y-0059D03*
X008D03*
X00853Y-00511D03*
X008D03*
G54D29*
X02329Y00126D03*
X02402D03*
G54D30*
X02515Y-01132D03*
Y-01059D03*
X02434Y-01132D03*
Y-01059D03*
X02331Y-01187D03*
Y-0126D03*
X02252Y-01187D03*
Y-0126D03*
G54D31*
X02214Y-0095D03*
Y-0097D03*
Y-0099D03*
Y-01009D03*
Y-01029D03*
Y-01049D03*
X02368D03*
Y-01029D03*
Y-01009D03*
Y-0099D03*
Y-0097D03*
Y-0095D03*
G54D32*
X02242Y-01076D03*
X02261D03*
X02281D03*
X02301D03*
X0232D03*
X0234D03*
Y-00923D03*
X0232D03*
X02301D03*
X02281D03*
X02261D03*
X02242D03*
G54D33*
X02291Y-01D03*
G54D34*
X01383Y-01373D03*
X01408Y-01441D03*
G54D35*
X02059Y00555D03*
X02009D03*
X01959D03*
X01909D03*
Y00394D03*
X01959D03*
X02009D03*
X02059D03*
G54D36*
X01326Y00038D03*
X01157D03*
X01549Y01708D03*
X0138D03*
G54D37*
X00684Y00245D03*
Y00414D03*
X0107Y00955D03*
Y00786D03*
G54D38*
X00518Y00679D03*
Y00629D03*
Y00579D03*
Y00529D03*
X00731D03*
Y00579D03*
Y00629D03*
Y00679D03*
X01127Y00533D03*
Y00583D03*
Y00633D03*
Y00683D03*
X00914D03*
Y00633D03*
Y00583D03*
Y00533D03*
G54D39*
X00912Y00401D03*
Y00172D03*
G54D40*
X00427Y00573D03*
X0034Y00536D03*
Y00611D03*
X00824Y00805D03*
X00738Y00767D03*
Y00842D03*
G54D41*
X0191Y01823D03*
X01807D03*
X01884D03*
X01858D03*
X01833D03*
G54D42*
X02014Y01928D03*
X01906D03*
X01811D03*
X01703D03*
G54D43*
X01816Y01589D03*
X01854D03*
X01891D03*
Y01687D03*
X01854D03*
X01816D03*
G54D86*
X00384Y00619D02*
X00481Y00715D01*
X00349Y00536D02*
X00384Y00571D01*
Y00619*
X00481Y00715D02*
X00512D01*
X00461Y00624D02*
X00461Y00624D01*
Y00598D02*
Y00624D01*
X00512Y00715D02*
X00544Y00747D01*
X00715*
X00427Y00573D02*
X00429Y00575D01*
X00438D02*
X00461Y00598D01*
X00429Y00575D02*
X00438D01*
X00969Y00748D02*
X01018Y00699D01*
X00915Y00798D02*
X00965Y00748D01*
X00914Y00906D02*
X00915Y00905D01*
X00915Y00798D02*
X00915Y00798D01*
X00914Y00906D02*
Y01012D01*
X00965Y00748D02*
X00969D01*
X00915Y00798D02*
Y00905D01*
X00888Y00798D02*
X00915D01*
X00914Y01012D02*
X00973Y01071D01*
X00858Y-00072D02*
X00859Y-00072D01*
X00796Y-00019D02*
X00825Y-00048D01*
X00796Y-00019D02*
Y00058D01*
X00858Y-00072D02*
Y-00048D01*
X00825D02*
X00858D01*
X00518Y00629D02*
X0058D01*
X00518Y00629D02*
X00518Y00629D01*
X01023Y-00511D02*
X01024Y-00511D01*
X01118Y00686D02*
X01121Y00683D01*
X01118Y00686D02*
Y0072D01*
X01121Y00683D02*
X01127D01*
X01118Y0072D02*
X0114D01*
X00912Y00172D02*
X00914Y0017D01*
X00912Y00172D02*
X00925Y00159D01*
Y00038D02*
Y00159D01*
X00973Y01071D02*
X01117D01*
X0138Y01514D02*
Y01708D01*
X01117Y01252D02*
X0138Y01514D01*
X01117Y01171D02*
Y01252D01*
X01018Y00603D02*
X01038Y00583D01*
X01127*
X01018Y00603D02*
Y00699D01*
X01069Y00673D02*
X0109Y00652D01*
X0109D02*
X01107Y00636D01*
X01069Y00673D02*
Y00776D01*
X0109Y00652D02*
X0109D01*
X01124Y00636D02*
X01127Y00633D01*
X01069Y00776D02*
X0108Y00787D01*
X01107Y00636D02*
X01124D01*
X00798Y00899D02*
X00824D01*
Y00805D02*
Y00899D01*
X00824Y00805D02*
X00824Y00805D01*
X01128Y00533D02*
X01131Y0053D01*
X01127Y00533D02*
X01128D01*
X01131Y00469D02*
Y0053D01*
X00538Y00429D02*
Y00526D01*
X00632Y00334D02*
X0075D01*
X00538Y00429D02*
X00632Y00334D01*
X00518Y00529D02*
X00535D01*
X00538Y00526*
X0075Y00334D02*
X00912Y00172D01*
X01127Y00633D02*
X01184D01*
X01184Y00633*
Y00655*
X01025Y00038D02*
X01157D01*
X00727Y00765D02*
X00729Y00767D01*
X00715Y00747D02*
X00727Y00759D01*
X00729Y00767D02*
X00738D01*
X00727Y00759D02*
Y00765D01*
X00549Y-00109D02*
Y00129D01*
X00796Y00058D02*
X00859Y00121D01*
X0086D02*
X00912Y00172D01*
X00859Y00121D02*
X0086D01*
X00697Y00401D02*
X00912D01*
X00684Y00414D02*
X00697Y00401D01*
X0034Y00536D02*
X00349D01*
X00297Y-00175D02*
X00429Y-00307D01*
X00297Y-00175D02*
Y00492D01*
X00329Y00525*
X00331Y00536D02*
X0034D01*
X00329Y00534D02*
X00331Y00536D01*
X00329Y00525D02*
Y00534D01*
X00433Y00314D02*
Y00339D01*
X00684Y00245D02*
X00684Y00244D01*
Y00167D02*
Y00244D01*
X00602Y00579D02*
X00684Y00497D01*
Y00414D02*
Y00497D01*
X00518Y00579D02*
X00602D01*
G54D87*
X01853Y01688D02*
Y01739D01*
Y01688D02*
X01854Y01687D01*
X0155Y01708D02*
X01635D01*
X01549Y01708D02*
X0155Y01708D01*
X01852Y01739D02*
X01853Y01739D01*
X0191Y01753D02*
X01983Y0168D01*
X0191Y01753D02*
Y01823D01*
X01807Y01759D02*
X01816Y0175D01*
Y01687D02*
Y0175D01*
X01807Y01759D02*
Y01823D01*
X01884Y01757D02*
X01891Y0175D01*
Y01687D02*
Y0175D01*
X01884Y01757D02*
Y01823D01*
G54D88*
X00145Y00001D02*
Y00072D01*
Y00124D02*
Y00311D01*
Y00072D02*
Y00124D01*
Y-00061D02*
Y00001D01*
Y-0014D02*
Y-00061D01*
X00429Y-00307D02*
Y00001D01*
Y00311*
X00433Y00314*
X00145Y00311D02*
X00149Y00314D01*
X00145Y-00307D02*
Y-0014D01*
G54D89*
X00429Y-00307D02*
X00433Y-00311D01*
Y-00606D02*
Y-00311D01*
X00427Y0D02*
X00429Y00001D01*
G54D90*
X00715Y-00335D03*
X00813D03*
X00912D03*
X0101D03*
X01109D03*
X01207D03*
X01921Y-01574D03*
X01822D03*
X02019D03*
X01724D03*
X02427Y-01346D03*
X02377Y-01433D03*
X02327Y-01519D03*
X01378Y-01668D03*
X01309Y-0148D03*
X01343Y-01574D03*
X02676Y00531D03*
Y0063D03*
Y00728D03*
X02781Y-0081D03*
X02711Y-0088D03*
G54D91*
X02811Y-00244D03*
X02464D03*
X03102Y00401D03*
X03448D03*
X03098Y-0024D03*
X03444D03*
G54D92*
X02736Y-00519D03*
X02637D03*
X02539D03*
X00433Y-00606D03*
X0252Y-00981D03*
X02461Y-00867D03*
X03177Y00125D03*
X03275D03*
X03374D03*
X03173Y-00515D03*
X03271D03*
X0337D03*
X0122Y-00073D03*
X01338Y-00077D03*
X01983Y0168D03*
G54D93*
X0185Y-0185D03*
X0Y0D03*
X037D03*
G54D94*
X01251Y01222D03*
Y01122D03*
Y01022D03*
Y00922D03*
Y00822D03*
Y00722D03*
Y00622D03*
Y00522D03*
Y00422D03*
Y00322D03*
X02472Y01222D03*
Y01122D03*
Y01022D03*
Y00922D03*
Y00822D03*
Y00722D03*
Y00622D03*
Y00522D03*
Y00422D03*
Y00322D03*
X02303Y00944D03*
Y00844D03*
Y00744D03*
Y00644D03*
Y00544D03*
Y00444D03*
Y00344D03*
Y00244D03*
X01397Y00944D03*
Y00844D03*
Y00744D03*
Y00644D03*
Y00544D03*
Y00444D03*
Y00344D03*
Y00244D03*
G54D95*
X01877Y-01255D03*
X02062D03*
X01692D03*
G54D96*
X02277Y-01606D03*
G54D97*
X01412Y-01762D03*
G54D98*
X00149Y00314D03*
X00145Y-00307D03*
G54D99*
X00433Y00314D03*
X00429Y-00307D03*
G54D100*
X01025Y00038D03*
G54D101*
X00925Y00038D03*
X01117Y01071D03*
G54D102*
X01117Y01171D03*
G54D103*
X01937Y01843D03*
X0178D03*
G54D104*
X01893Y-00642D03*
X01884Y-0068D03*
X02082Y-00539D03*
X01993Y-00456D03*
X02045Y-00541D03*
X00753Y-00708D03*
X0075Y-00549D03*
X00461Y00624D03*
X00464Y00659D03*
X00461Y00599D03*
X00915Y00798D03*
X00888Y00798D03*
X01847Y01774D03*
X00858Y-00048D03*
X00859Y-00072D03*
X0131Y-01354D03*
X0133Y-01384D03*
X01899Y-00246D03*
X01859Y01541D03*
X01889Y-00487D03*
X0186Y-00509D03*
X01866Y-00546D03*
X01831Y-00551D03*
X021Y00181D03*
X01896Y00023D03*
X01892Y-0045D03*
X0193Y-00456D03*
X01935Y-00421D03*
X01923Y-00387D03*
X01766Y-00526D03*
X01787Y-00554D03*
X01827Y-00593D03*
X02109Y0006D03*
X01907Y-00103D03*
X01946Y-00097D03*
X0237Y-00645D03*
X02242Y-00871D03*
X02281Y-00877D03*
X02138Y-00104D03*
X02301Y-00566D03*
X02079Y-00734D03*
X01973Y00092D03*
X02091Y00019D03*
X01931Y-00011D03*
X01695Y-002D03*
X01695Y-00261D03*
X01935Y00127D03*
X01655Y-00201D03*
X01665Y-00279D03*
X01678Y-00612D03*
X02188Y-00227D03*
X01982Y00154D03*
X01929Y00274D03*
X02007Y-00489D03*
X02369Y-01136D03*
X02515Y-01179D03*
X02188Y-00188D03*
X01359Y-00545D03*
X01776Y-00719D03*
X01812Y-00706D03*
X0219Y-00152D03*
X01674Y-00765D03*
X02193Y-01209D03*
X02054Y-00767D03*
X00107Y00001D03*
Y-00062D03*
Y-0014D03*
Y00123D03*
Y00071D03*
X00186Y00001D03*
Y-00062D03*
Y-0014D03*
Y00123D03*
Y00071D03*
X00145Y00072D03*
Y00124D03*
X01072Y-00669D03*
X01638Y-00518D03*
X0154Y-00632D03*
X0159Y-00683D03*
X0142Y-00631D03*
X01634Y-00728D03*
X01127Y-00921D03*
X01326Y-00744D03*
X01071Y00875D03*
X01019Y01027D03*
X00291Y00603D03*
X00694Y00803D03*
X0058Y00629D03*
X00493Y00474D03*
X01155Y00228D03*
X01119D03*
X01079Y-00511D03*
X0114Y0072D03*
X01118D03*
X0133Y-00237D03*
X02405Y00064D03*
X01865Y00216D03*
X01793Y00287D03*
X02159Y0029D03*
X02193Y-01249D03*
X02571Y-01057D03*
X02224Y-00691D03*
X02469Y-00758D03*
X0247Y-00689D03*
X01503Y-00354D03*
X02019Y-00889D03*
X01422Y00038D03*
X01874Y-00964D03*
X01467Y-01419D03*
X01079Y-00589D03*
X01635Y01708D03*
X00798Y00899D03*
X00845Y00632D03*
X00794Y0063D03*
X01852Y01739D03*
X01131Y00469D03*
X01184Y00655D03*
Y00633D03*
X01441Y-00305D03*
X00549Y00129D03*
Y-00109D03*
X00684Y00167D03*
X00847Y00526D03*
Y00581D03*
X00846Y00683D03*
X00794D03*
X00795Y0058D03*
X00794Y00527D03*
X01338Y-01329D03*
X01444Y-01223D03*
X01494Y-01038D03*
X01534Y-00998D03*
X01435Y-00823D03*
X01483Y-00777D03*
X01729Y-0098D03*
X0167Y-01044D03*
X01606Y-01107D03*
X01547Y-01161D03*
X01385Y-00893D03*
X0159Y-00937D03*
X0135Y-00976D03*
X01724Y-00901D03*
X01677Y-0087D03*
X01641Y-00826D03*
X01606Y-00862D03*
X01642Y-00354D03*
X02269Y00124D03*
X01985Y00617D03*
X02334Y-01308D03*
X02253Y-0131D03*
X02281Y-01122D03*
X0233Y-01112D03*
X02434Y-01178D03*
X02424Y-00949D03*
X02275Y-00638D03*
X01133Y-00695D03*
X01227Y-00513D03*
X02041Y-01127D03*
X01989Y-01128D03*
X0199Y-00947D03*
X01685Y-00484D03*
X01429Y-00539D03*
X01374Y-00484D03*
X00145Y-0014D03*
Y-00061D03*
Y00001D03*
X0188Y-00761D03*
M02*