%FSTAX23Y23*%
%MOIN*%
%SFA1B1*%

%IPPOS*%
%AMD18*
4,1,4,-0.028600,0.049100,-0.049100,0.028600,0.028600,-0.049100,0.049100,-0.028600,-0.028600,0.049100,0.0*
%
%AMD19*
4,1,4,-0.006300,-0.034000,0.034000,0.006300,0.006300,0.034000,-0.034000,-0.006300,-0.006300,-0.034000,0.0*
%
%AMD20*
4,1,4,-0.033300,0.005600,0.005600,-0.033300,0.033300,-0.005600,-0.005600,0.033300,-0.033300,0.005600,0.0*
%
%AMD21*
4,1,4,0.005600,0.033300,-0.033300,-0.005600,-0.005600,-0.033300,0.033300,0.005600,0.005600,0.033300,0.0*
%
%AMD22*
4,1,4,-0.024300,0.016000,0.016000,-0.024300,0.024300,-0.016000,-0.016000,0.024300,-0.024300,0.016000,0.0*
%
%AMD23*
4,1,4,0.016000,0.024300,-0.024300,-0.016000,-0.016000,-0.024300,0.024300,0.016000,0.016000,0.024300,0.0*
%
%AMD25*
4,1,4,0.024300,-0.002100,-0.002100,0.024300,-0.024300,0.002100,0.002100,-0.024300,0.024300,-0.002100,0.0*
%
%AMD26*
4,1,4,0.003500,0.035400,-0.035400,-0.003500,-0.003500,-0.035400,0.035400,0.003500,0.003500,0.035400,0.0*
%
%AMD34*
4,1,4,0.019100,0.027800,-0.032500,0.009000,-0.019100,-0.027800,0.032500,-0.009000,0.019100,0.027800,0.0*
%
%AMD96*
4,1,4,-0.040300,-0.010800,0.010800,-0.040300,0.040300,0.010800,-0.010800,0.040300,-0.040300,-0.010800,0.0*
%
%AMD97*
4,1,4,-0.017600,-0.037800,0.037800,-0.017600,0.017600,0.037800,-0.037800,0.017600,-0.017600,-0.037800,0.0*
%
%ADD16C,0.008000*%
%ADD17R,0.078740X0.169290*%
G04~CAMADD=18~9~0.0~0.0~291.3~1098.4~0.0~0.0~0~0.0~0.0~0.0~0.0~0~0.0~0.0~0.0~0.0~0~0.0~0.0~0.0~45.0~982.0~981.0*
%ADD18D18*%
G04~CAMADD=19~9~0.0~0.0~570.9~393.7~0.0~0.0~0~0.0~0.0~0.0~0.0~0~0.0~0.0~0.0~0.0~0~0.0~0.0~0.0~225.0~680.0~679.0*
%ADD19D19*%
G04~CAMADD=20~9~0.0~0.0~551.2~393.7~0.0~0.0~0~0.0~0.0~0.0~0.0~0~0.0~0.0~0.0~0.0~0~0.0~0.0~0.0~135.0~666.0~665.0*
%ADD20D20*%
G04~CAMADD=21~9~0.0~0.0~551.2~393.7~0.0~0.0~0~0.0~0.0~0.0~0.0~0~0.0~0.0~0.0~0.0~0~0.0~0.0~0.0~45.0~666.0~665.0*
%ADD21D21*%
G04~CAMADD=22~9~0.0~0.0~570.9~118.1~0.0~0.0~0~0.0~0.0~0.0~0.0~0~0.0~0.0~0.0~0.0~0~0.0~0.0~0.0~135.0~486.0~485.0*
%ADD22D22*%
G04~CAMADD=23~9~0.0~0.0~570.9~118.1~0.0~0.0~0~0.0~0.0~0.0~0.0~0~0.0~0.0~0.0~0.0~0~0.0~0.0~0.0~45.0~486.0~485.0*
%ADD23D23*%
%ADD24R,0.037400X0.031500*%
G04~CAMADD=25~9~0.0~0.0~374.0~315.0~0.0~0.0~0~0.0~0.0~0.0~0.0~0~0.0~0.0~0.0~0.0~0~0.0~0.0~0.0~315.0~486.0~485.0*
%ADD25D25*%
G04~CAMADD=26~9~0.0~0.0~551.2~452.8~0.0~0.0~0~0.0~0.0~0.0~0.0~0~0.0~0.0~0.0~0.0~0~0.0~0.0~0.0~45.0~708.0~707.0*
%ADD26D26*%
%ADD27R,0.049210X0.043310*%
%ADD28R,0.031500X0.037400*%
%ADD29R,0.039370X0.055120*%
%ADD30R,0.055120X0.039370*%
%ADD31R,0.031500X0.011810*%
%ADD32R,0.011810X0.031500*%
%ADD33R,0.104330X0.108270*%
G04~CAMADD=34~9~0.0~0.0~551.2~393.7~0.0~0.0~0~0.0~0.0~0.0~0.0~0~0.0~0.0~0.0~0.0~0~0.0~0.0~0.0~20.0~650.0~555.0*
%ADD34D34*%
%ADD35R,0.029920X0.050000*%
%ADD36R,0.092520X0.061020*%
%ADD37R,0.061020X0.092520*%
%ADD38R,0.060040X0.025590*%
%ADD39R,0.122050X0.122050*%
%ADD40R,0.041340X0.023620*%
%ADD41R,0.015750X0.053150*%
%ADD42R,0.074800X0.074800*%
%ADD43R,0.023620X0.047240*%
%ADD90C,0.059060*%
%ADD91C,0.184250*%
%ADD92C,0.070870*%
%ADD93C,0.137800*%
%ADD94C,0.078740*%
%ADD95C,0.118110*%
G04~CAMADD=96~10~0.0~590.6~0.0~0.0~0.0~0.0~0~0.0~0.0~0.0~0.0~0~0.0~0.0~0.0~0.0~0~0.0~0.0~0.0~150.0~590.6~0.0*
%ADD96D96*%
G04~CAMADD=97~10~0.0~590.6~0.0~0.0~0.0~0.0~0~0.0~0.0~0.0~0.0~0~0.0~0.0~0.0~0.0~0~0.0~0.0~0.0~200.0~590.6~0.0*
%ADD97D97*%
%ADD98R,0.236220X0.236220*%
%ADD99C,0.236220*%
%ADD100R,0.067910X0.067910*%
%ADD101C,0.067910*%
%ADD102R,0.067910X0.067910*%
%ADD103C,0.010830*%
%LNflightcontroller-1*%
%LPD*%
G54D16*
X02937Y0082D02*
X02976Y00813D01*
X03053Y00813D02*
X03081Y00813D01*
X02864Y00845D02*
X029Y0083D01*
X02937Y0082*
X03081Y00813D02*
X03108Y00806D01*
X03132Y00794*
X03014Y00811D02*
X03053Y00813D01*
X02976Y00813D02*
X03014Y00811D01*
X0272Y00973D02*
X02743Y00941D01*
X02769Y00912*
X02686Y01043D02*
X02701Y01007D01*
X0272Y00973*
X02798Y00886D02*
X0283Y00864D01*
X02864Y00845*
X02769Y00912D02*
X02798Y00886D01*
X0376Y00508D02*
X03787Y00485D01*
X03812Y00459*
X03698Y00543D02*
X0373Y00528D01*
X0376Y00508*
X03849Y00398D02*
X03862Y00365D01*
X03871Y0033*
X03812Y00459D02*
X03832Y0043D01*
X03849Y00398*
X033Y00695D02*
X03388Y00652D01*
X03478Y00615*
X03132Y00794D02*
X03215Y00742D01*
X033Y00695*
X0357Y00582D02*
X03664Y00554D01*
X03698Y00543*
X03478Y00615D02*
X0357Y00582D01*
X0228Y01982D02*
X02309Y01961D01*
X02336Y01937*
X02215Y02012D02*
X02248Y01999D01*
X0228Y01982*
X02378Y01879D02*
X02394Y01847D01*
X02405Y01813*
X02336Y01937D02*
X02359Y0191D01*
X02378Y01879*
X02145Y02024D02*
X0218Y0202D01*
X02215Y02012*
X02109Y02024D02*
X02145Y02024D01*
X02073Y02019D02*
X02109Y02024D01*
X01999Y02006D02*
X02073Y02019D01*
X01925Y01997D02*
X01999Y02006D01*
X0185Y01993D02*
X01925Y01997D01*
X02668Y01224D02*
X02668Y01196D01*
X02666Y01157D02*
X02668Y01196D01*
X02649Y01275D02*
X02662Y0125D01*
X02668Y01224*
X02669Y01118D02*
X02676Y0108D01*
X02686Y01043*
X02666Y01157D02*
X02669Y01118D01*
X02456Y01651D02*
X02487Y01572D01*
X02522Y01495*
X02405Y01813D02*
X02428Y01732D01*
X02456Y01651*
X02561Y0142D02*
X02603Y01346D01*
X02649Y01275*
X02522Y01495D02*
X02561Y0142D01*
X03871Y0033D02*
X03875Y00294D01*
X03874Y00258D02*
X03875Y00294D01*
X03869Y00223D02*
X03874Y00258D01*
X03857Y-00149D02*
X03869Y-00223D01*
X03874Y-00258D02*
X03875Y-00294D01*
X03871Y-0033D02*
X03875Y-00294D01*
X03869Y-00223D02*
X03874Y-00258D01*
X03862Y-00365D02*
X03871Y-0033D01*
X03857Y00149D02*
X03869Y00223D01*
X03848Y00074D02*
X03857Y00149D01*
X03843Y0D02*
X03848Y00074D01*
X03843Y0D02*
X03848Y-00074D01*
X03857Y-00149*
X03849Y-00398D02*
X03862Y-00365D01*
X03832Y-0043D02*
X03849Y-00398D01*
X03812Y-00459D02*
X03832Y-0043D01*
X03787Y-00485D02*
X03812Y-00459D01*
X0376Y-00508D02*
X03787Y-00485D01*
X0373Y-00528D02*
X0376Y-00508D01*
X03698Y-00543D02*
X0373Y-00528D01*
X03664Y-00554D02*
X03698Y-00543D01*
X03582Y-00578D02*
X03664Y-00554D01*
X03502Y-00605D02*
X03582Y-00578D01*
X03423Y-00637D02*
X03502Y-00605D01*
X03346Y-00672D02*
X03423Y-00637D01*
X0327Y-0071D02*
X03346Y-00672D01*
X03197Y-00753D02*
X0327Y-0071D01*
X03125Y-00798D02*
X03197Y-00753D01*
X03056Y-00847D02*
X03125Y-00798D01*
X0299Y-009D02*
X03056Y-00847D01*
X02926Y-00955D02*
X0299Y-009D01*
X02864Y-01014D02*
X02926Y-00955D01*
X02806Y-01075D02*
X02864Y-01014D01*
X0275Y-01139D02*
X02806Y-01075D01*
X02698Y-01206D02*
X0275Y-01139D01*
X02649Y-01275D02*
X02698Y-01206D01*
X02603Y-01346D02*
X02649Y-01275D01*
X02561Y-0142D02*
X02603Y-01346D01*
X02522Y-01495D02*
X02561Y-0142D01*
X02487Y-01573D02*
X02522Y-01495D01*
X02456Y-01651D02*
X02487Y-01573D01*
X02428Y-01732D02*
X02456Y-01651D01*
X02405Y-01813D02*
X02428Y-01732D01*
X02394Y-01847D02*
X02405Y-01813D01*
X02378Y-01879D02*
X02394Y-01847D01*
X02359Y-0191D02*
X02378Y-01879D01*
X02336Y-01937D02*
X02359Y-0191D01*
X02309Y-01961D02*
X02336Y-01937D01*
X0228Y-01982D02*
X02309Y-01961D01*
X02248Y-01999D02*
X0228Y-01982D01*
X02215Y-02012D02*
X02248Y-01999D01*
X01999Y-02006D02*
X02073Y-02019D01*
X0218Y-0202D02*
X02215Y-02012D01*
X0185Y-01993D02*
X01925Y-01997D01*
X01999Y-02006*
X02145Y-02024D02*
X0218Y-0202D01*
X02109Y-02024D02*
X02145Y-02024D01*
X02073Y-02019D02*
X02109Y-02024D01*
X01555Y02024D02*
X01591Y02024D01*
X01627Y02019*
X0152Y0202D02*
X01555Y02024D01*
X01485Y02012D02*
X0152Y0202D01*
X01701Y02006D02*
X01775Y01997D01*
X0185Y01993*
X01627Y02019D02*
X01701Y02006D01*
X01451Y01999D02*
X01485Y02012D01*
X0142Y01982D02*
X01451Y01999D01*
X01391Y01961D02*
X0142Y01982D01*
X01364Y01937D02*
X01391Y01961D01*
X01341Y0191D02*
X01364Y01937D01*
X01322Y01879D02*
X01341Y0191D01*
X01306Y01847D02*
X01322Y01879D01*
X01295Y01813D02*
X01306Y01847D01*
X01271Y01732D02*
X01295Y01813D01*
X01244Y01651D02*
X01271Y01732D01*
X01213Y01573D02*
X01244Y01651D01*
X01178Y01495D02*
X01213Y01573D01*
X01139Y0142D02*
X01178Y01495D01*
X01097Y01346D02*
X01139Y0142D01*
X01051Y01275D02*
X01097Y01346D01*
X01002Y01206D02*
X01051Y01275D01*
X0095Y01139D02*
X01002Y01206D01*
X00894Y01075D02*
X0095Y01139D01*
X00836Y01014D02*
X00894Y01075D01*
X00774Y00955D02*
X00836Y01014D01*
X0071Y009D02*
X00774Y00955D01*
X00643Y00847D02*
X0071Y009D01*
X00574Y00798D02*
X00643Y00847D01*
X00503Y00753D02*
X00574Y00798D01*
X00429Y0071D02*
X00503Y00753D01*
X00354Y00672D02*
X00429Y0071D01*
X00277Y00637D02*
X00354Y00672D01*
X00198Y00605D02*
X00277Y00637D01*
X00118Y00578D02*
X00198Y00605D01*
X00036Y00554D02*
X00118Y00578D01*
X00002Y00543D02*
X00036Y00554D01*
X-00029Y00528D02*
X00002Y00543D01*
X-00059Y00508D02*
X-00029Y00528D01*
X-00087Y00485D02*
X-00059Y00508D01*
X-00111Y00459D02*
X-00087Y00485D01*
X-00132Y0043D02*
X-00111Y00459D01*
X-00149Y00398D02*
X-00132Y0043D01*
X-00161Y00365D02*
X-00149Y00398D01*
X-00147Y00074D02*
X-00143Y0D01*
X-00147Y-00074D02*
X-00143Y0D01*
X-00169Y00223D02*
X-00156Y00149D01*
X-00147Y00074*
X-00156Y-00148D02*
X-00147Y-00074D01*
X-00168Y-00221D02*
X-00156Y-00148D01*
X-0017Y-00328D02*
X-00161Y-00363D01*
X-0017Y0033D02*
X-00161Y00365D01*
X-00174Y00258D02*
X-00169Y00223D01*
X-00174Y00294D02*
X-0017Y0033D01*
X-00174Y00294D02*
X-00174Y00258D01*
X-00173Y-00257D02*
X-00168Y-00221D01*
X-00174Y-00293D02*
X-0017Y-00328D01*
X-00174Y-00293D02*
X-00173Y-00257D01*
X01108Y-01364D02*
X01155Y-0145D01*
X01198Y-01537*
X01043Y-01257D02*
X01056Y-01282D01*
X01108Y-01364*
X01269Y-01719D02*
X01297Y-01813D01*
X01308Y-01847*
X01198Y-01537D02*
X01236Y-01628D01*
X01269Y-01719*
X0103Y-01087D02*
X01036Y-01125D01*
X01039Y-01164*
X01004Y-01013D02*
X01019Y-01049D01*
X0103Y-01087*
X01036Y-01203D02*
X01039Y-01164D01*
X01036Y-0123D02*
X01043Y-01257D01*
X01036Y-01203D02*
X01036Y-0123D01*
X01776Y-01997D02*
X0185Y-01993D01*
X01702Y-02006D02*
X01776Y-01997D01*
X01628Y-02019D02*
X01702Y-02006D01*
X01487Y-02012D02*
X01521Y-0202D01*
X01593Y-02024D02*
X01628Y-02019D01*
X01557Y-02024D02*
X01593Y-02024D01*
X01521Y-0202D02*
X01557Y-02024D01*
X01343Y-01909D02*
X01366Y-01937D01*
X01392Y-01961*
X01308Y-01847D02*
X01323Y-01879D01*
X01343Y-01909*
X01422Y-01982D02*
X01453Y-01999D01*
X01487Y-02012*
X01392Y-01961D02*
X01422Y-01982D01*
X00118Y-00577D02*
X00198Y-00604D01*
X00277Y-00636*
X00002Y-00541D02*
X00036Y-00553D01*
X00118Y-00577*
X0043Y-0071D02*
X00503Y-00753D01*
X00575Y-00798*
X00277Y-00636D02*
X00354Y-00671D01*
X0043Y-0071*
X-00131Y-00428D02*
X-00111Y-00457D01*
X-00086Y-00483*
X-00161Y-00363D02*
X-00148Y-00396D01*
X-00131Y-00428*
X-00059Y-00506D02*
X-00029Y-00526D01*
X00002Y-00541*
X-00086Y-00483D02*
X-00059Y-00506D01*
X00877Y-0087D02*
X00908Y-00893D01*
X00937Y-00919*
X00807Y-00836D02*
X00843Y-00851D01*
X00877Y-0087*
X00963Y-00948D02*
X00985Y-00979D01*
X01004Y-01013*
X00937Y-00919D02*
X00963Y-00948D01*
X00653Y-00818D02*
X00692Y-00816D01*
X00626Y-00818D02*
X00653Y-00818D01*
X00575Y-00798D02*
X00599Y-00811D01*
X00626Y-00818*
X00731Y-00818D02*
X00769Y-00825D01*
X00807Y-00836*
X00692Y-00816D02*
X00731Y-00818D01*
G54D17*
X00796Y00013D03*
X00552D03*
G54D18*
X01246Y-01308D03*
X01281Y-01272D03*
X01316Y-01237D03*
X01352Y-01202D03*
X01387Y-01166D03*
X01274Y-01053D03*
X01238Y-01088D03*
X01203Y-01124D03*
X01168Y-01159D03*
X01132Y-01195D03*
G54D19*
X01169Y-00881D03*
X01379Y-0067D03*
G54D20*
X01169Y-00657D03*
X0122Y-00606D03*
X01468Y-005D03*
X0152Y-00448D03*
X02233Y-00601D03*
X02182Y-00653D03*
X01929Y-00905D03*
X0198Y-00854D03*
X01413Y-00444D03*
X01464Y-00393D03*
X01269Y-00558D03*
X01321Y-00506D03*
X01404Y-00338D03*
X01353Y-0039D03*
X01598Y-01012D03*
X01649Y-0096D03*
X01551Y-01058D03*
X015Y-0111D03*
G54D21*
X01901Y-00168D03*
X01952Y-0022D03*
X02035Y-00185D03*
X01983Y-00134D03*
X02217Y-00477D03*
X02269Y-00529D03*
G54D22*
X01585Y-00495D03*
X01599Y-00481D03*
X01613Y-00467D03*
X01627Y-00453D03*
X01641Y-00439D03*
X01655Y-00425D03*
X01669Y-00411D03*
X01683Y-00398D03*
X01697Y-00384D03*
X01711Y-0037D03*
X01725Y-00356D03*
X01739Y-00342D03*
X01752Y-00328D03*
X01766Y-00314D03*
X0178Y-003D03*
X01794Y-00286D03*
X02114Y-00606D03*
X021Y-0062D03*
X02087Y-00634D03*
X02073Y-00648D03*
X02059Y-00662D03*
X02045Y-00676D03*
X02031Y-0069D03*
X02017Y-00704D03*
X02003Y-00718D03*
X01989Y-00732D03*
X01975Y-00746D03*
X01961Y-00759D03*
X01947Y-00773D03*
X01933Y-00787D03*
X01919Y-00801D03*
X01906Y-00815D03*
G54D23*
X01906Y-00286D03*
X01919Y-003D03*
X01933Y-00314D03*
X01947Y-00328D03*
X01961Y-00342D03*
X01975Y-00356D03*
X01989Y-0037D03*
X02003Y-00384D03*
X02017Y-00398D03*
X02031Y-00411D03*
X02045Y-00425D03*
X02059Y-00439D03*
X02073Y-00453D03*
X02087Y-00467D03*
X021Y-00481D03*
X02114Y-00495D03*
X01794Y-00815D03*
X0178Y-00801D03*
X01766Y-00787D03*
X01752Y-00773D03*
X01739Y-00759D03*
X01725Y-00746D03*
X01711Y-00732D03*
X01697Y-00718D03*
X01683Y-00704D03*
X01669Y-0069D03*
X01655Y-00676D03*
X01641Y-00662D03*
X01627Y-00648D03*
X01613Y-00634D03*
X01599Y-0062D03*
X01585Y-00606D03*
G54D24*
X01874Y-01D03*
Y-01053D03*
G54D25*
X01345Y-00296D03*
X01383Y-00258D03*
X01586Y-00783D03*
X01549Y-00821D03*
G54D26*
X0153Y-00932D03*
X01469Y-00993D03*
X01486Y-00887D03*
X01425Y-00948D03*
G54D27*
X01023Y-00669D03*
X00931D03*
X01023Y-00748D03*
X00931D03*
X01023Y-0059D03*
X00931D03*
X01023Y-00511D03*
X00931D03*
G54D28*
X00853Y-00669D03*
X008D03*
X00853Y-00748D03*
X008D03*
X02372Y-00691D03*
X02425D03*
X02372Y-00756D03*
X02425D03*
X0206Y00287D03*
X02114D03*
X02007Y00218D03*
X0206D03*
X01949D03*
X01896D03*
X01888Y00287D03*
X01835D03*
X00853Y-0059D03*
X008D03*
X00853Y-00511D03*
X008D03*
G54D29*
X02329Y00126D03*
X02402D03*
G54D30*
X02515Y-01132D03*
Y-01059D03*
X02434Y-01132D03*
Y-01059D03*
X02331Y-01187D03*
Y-0126D03*
X02252Y-01187D03*
Y-0126D03*
G54D31*
X02214Y-0095D03*
Y-0097D03*
Y-0099D03*
Y-01009D03*
Y-01029D03*
Y-01049D03*
X02368D03*
Y-01029D03*
Y-01009D03*
Y-0099D03*
Y-0097D03*
Y-0095D03*
G54D32*
X02242Y-01076D03*
X02261D03*
X02281D03*
X02301D03*
X0232D03*
X0234D03*
Y-00923D03*
X0232D03*
X02301D03*
X02281D03*
X02261D03*
X02242D03*
G54D33*
X02291Y-01D03*
G54D34*
X01383Y-01373D03*
X01408Y-01441D03*
G54D35*
X02059Y00555D03*
X02009D03*
X01959D03*
X01909D03*
Y00394D03*
X01959D03*
X02009D03*
X02059D03*
G54D36*
X01326Y00038D03*
X01157D03*
X01549Y01708D03*
X0138D03*
G54D37*
X00684Y00245D03*
Y00414D03*
X0107Y00955D03*
Y00786D03*
G54D38*
X00518Y00679D03*
Y00629D03*
Y00579D03*
Y00529D03*
X00731D03*
Y00579D03*
Y00629D03*
Y00679D03*
X01127Y00533D03*
Y00583D03*
Y00633D03*
Y00683D03*
X00914D03*
Y00633D03*
Y00583D03*
Y00533D03*
G54D39*
X00912Y00401D03*
Y00172D03*
G54D40*
X00427Y00573D03*
X0034Y00536D03*
Y00611D03*
X00824Y00805D03*
X00738Y00767D03*
Y00842D03*
G54D41*
X0191Y01823D03*
X01807D03*
X01884D03*
X01858D03*
X01833D03*
G54D42*
X02014Y01928D03*
X01906D03*
X01811D03*
X01703D03*
G54D43*
X01816Y01589D03*
X01854D03*
X01891D03*
Y01687D03*
X01854D03*
X01816D03*
G54D90*
X00715Y-00335D03*
X00813D03*
X00912D03*
X0101D03*
X01109D03*
X01207D03*
X01921Y-01574D03*
X01822D03*
X02019D03*
X01724D03*
X02427Y-01346D03*
X02377Y-01433D03*
X02327Y-01519D03*
X01378Y-01668D03*
X01309Y-0148D03*
X01343Y-01574D03*
X02676Y00531D03*
Y0063D03*
Y00728D03*
X02781Y-0081D03*
X02711Y-0088D03*
G54D91*
X02811Y-00244D03*
X02464D03*
X03102Y00401D03*
X03448D03*
X03098Y-0024D03*
X03444D03*
G54D92*
X02736Y-00519D03*
X02637D03*
X02539D03*
X00433Y-00606D03*
X0252Y-00981D03*
X02461Y-00867D03*
X03177Y00125D03*
X03275D03*
X03374D03*
X03173Y-00515D03*
X03271D03*
X0337D03*
X0122Y-00073D03*
X01338Y-00077D03*
X01983Y0168D03*
G54D93*
X0185Y-0185D03*
X0Y0D03*
X037D03*
G54D94*
X01251Y01222D03*
Y01122D03*
Y01022D03*
Y00922D03*
Y00822D03*
Y00722D03*
Y00622D03*
Y00522D03*
Y00422D03*
Y00322D03*
X02472Y01222D03*
Y01122D03*
Y01022D03*
Y00922D03*
Y00822D03*
Y00722D03*
Y00622D03*
Y00522D03*
Y00422D03*
Y00322D03*
X02303Y00944D03*
Y00844D03*
Y00744D03*
Y00644D03*
Y00544D03*
Y00444D03*
Y00344D03*
Y00244D03*
X01397Y00944D03*
Y00844D03*
Y00744D03*
Y00644D03*
Y00544D03*
Y00444D03*
Y00344D03*
Y00244D03*
G54D95*
X01877Y-01255D03*
X02062D03*
X01692D03*
G54D96*
X02277Y-01606D03*
G54D97*
X01412Y-01762D03*
G54D98*
X00149Y00314D03*
X00145Y-00307D03*
G54D99*
X00433Y00314D03*
X00429Y-00307D03*
G54D100*
X01025Y00038D03*
G54D101*
X00925Y00038D03*
X01117Y01071D03*
G54D102*
X01117Y01171D03*
G54D103*
X01937Y01843D03*
X0178D03*
M02*