%FSTAX23Y23*%
%MOIN*%
%SFA1B1*%

%IPPOS*%
%AMD77*
4,1,4,-0.042900,-0.011500,0.011500,-0.042900,0.042900,0.011500,-0.011500,0.042900,-0.042900,-0.011500,0.0*
%
%AMD78*
4,1,4,-0.018800,-0.040200,0.040200,-0.018800,0.018800,0.040200,-0.040200,0.018800,-0.018800,-0.040200,0.0*
%
%ADD16C,0.008000*%
%ADD44R,0.082680X0.173230*%
%ADD56R,0.043310X0.059060*%
%ADD66R,0.125980X0.125980*%
%ADD71C,0.062990*%
%ADD72C,0.188190*%
%ADD73C,0.074800*%
%ADD74C,0.141730*%
%ADD75C,0.082680*%
%ADD76C,0.122050*%
G04~CAMADD=77~10~0.0~629.9~0.0~0.0~0.0~0.0~0~0.0~0.0~0.0~0.0~0~0.0~0.0~0.0~0.0~0~0.0~0.0~0.0~150.0~629.9~0.0*
%ADD77D77*%
G04~CAMADD=78~10~0.0~629.9~0.0~0.0~0.0~0.0~0~0.0~0.0~0.0~0.0~0~0.0~0.0~0.0~0.0~0~0.0~0.0~0.0~200.0~629.9~0.0*
%ADD78D78*%
%ADD79R,0.240160X0.240160*%
%ADD80C,0.240160*%
%ADD81R,0.071850X0.071850*%
%ADD82C,0.071850*%
%ADD83R,0.071850X0.071850*%
%ADD84C,0.014760*%
%ADD85C,0.019680*%
%ADD107R,0.173230X0.082680*%
%ADD108R,0.027560X0.047240*%
%LNflightcontroller-1*%
%LPD*%
G54D16*
X02937Y0082D02*
X02976Y00813D01*
X03053Y00813D02*
X03081Y00813D01*
X02864Y00845D02*
X029Y0083D01*
X02937Y0082*
X03081Y00813D02*
X03108Y00806D01*
X03132Y00794*
X03014Y00811D02*
X03053Y00813D01*
X02976Y00813D02*
X03014Y00811D01*
X0272Y00973D02*
X02743Y00941D01*
X02769Y00912*
X02686Y01043D02*
X02701Y01007D01*
X0272Y00973*
X02798Y00886D02*
X0283Y00864D01*
X02864Y00845*
X02769Y00912D02*
X02798Y00886D01*
X0376Y00508D02*
X03787Y00485D01*
X03812Y00459*
X03698Y00543D02*
X0373Y00528D01*
X0376Y00508*
X03849Y00398D02*
X03862Y00365D01*
X03871Y0033*
X03812Y00459D02*
X03832Y0043D01*
X03849Y00398*
X033Y00695D02*
X03388Y00652D01*
X03478Y00615*
X03132Y00794D02*
X03215Y00742D01*
X033Y00695*
X0357Y00582D02*
X03664Y00554D01*
X03698Y00543*
X03478Y00615D02*
X0357Y00582D01*
X0228Y01982D02*
X02309Y01961D01*
X02336Y01937*
X02215Y02012D02*
X02248Y01999D01*
X0228Y01982*
X02378Y01879D02*
X02394Y01847D01*
X02405Y01813*
X02336Y01937D02*
X02359Y0191D01*
X02378Y01879*
X02145Y02024D02*
X0218Y0202D01*
X02215Y02012*
X02109Y02024D02*
X02145Y02024D01*
X02073Y02019D02*
X02109Y02024D01*
X01999Y02006D02*
X02073Y02019D01*
X01925Y01997D02*
X01999Y02006D01*
X0185Y01993D02*
X01925Y01997D01*
X02668Y01224D02*
X02668Y01196D01*
X02666Y01157D02*
X02668Y01196D01*
X02649Y01275D02*
X02662Y0125D01*
X02668Y01224*
X02669Y01118D02*
X02676Y0108D01*
X02686Y01043*
X02666Y01157D02*
X02669Y01118D01*
X02456Y01651D02*
X02487Y01572D01*
X02522Y01495*
X02405Y01813D02*
X02428Y01732D01*
X02456Y01651*
X02561Y0142D02*
X02603Y01346D01*
X02649Y01275*
X02522Y01495D02*
X02561Y0142D01*
X03871Y0033D02*
X03875Y00294D01*
X03874Y00258D02*
X03875Y00294D01*
X03869Y00223D02*
X03874Y00258D01*
X03857Y-00149D02*
X03869Y-00223D01*
X03874Y-00258D02*
X03875Y-00294D01*
X03871Y-0033D02*
X03875Y-00294D01*
X03869Y-00223D02*
X03874Y-00258D01*
X03862Y-00365D02*
X03871Y-0033D01*
X03857Y00149D02*
X03869Y00223D01*
X03848Y00074D02*
X03857Y00149D01*
X03843Y0D02*
X03848Y00074D01*
X03843Y0D02*
X03848Y-00074D01*
X03857Y-00149*
X03849Y-00398D02*
X03862Y-00365D01*
X03832Y-0043D02*
X03849Y-00398D01*
X03812Y-00459D02*
X03832Y-0043D01*
X03787Y-00485D02*
X03812Y-00459D01*
X0376Y-00508D02*
X03787Y-00485D01*
X0373Y-00528D02*
X0376Y-00508D01*
X03698Y-00543D02*
X0373Y-00528D01*
X03664Y-00554D02*
X03698Y-00543D01*
X03582Y-00578D02*
X03664Y-00554D01*
X03502Y-00605D02*
X03582Y-00578D01*
X03423Y-00637D02*
X03502Y-00605D01*
X03346Y-00672D02*
X03423Y-00637D01*
X0327Y-0071D02*
X03346Y-00672D01*
X03197Y-00753D02*
X0327Y-0071D01*
X03125Y-00798D02*
X03197Y-00753D01*
X03056Y-00847D02*
X03125Y-00798D01*
X0299Y-009D02*
X03056Y-00847D01*
X02926Y-00955D02*
X0299Y-009D01*
X02864Y-01014D02*
X02926Y-00955D01*
X02806Y-01075D02*
X02864Y-01014D01*
X0275Y-01139D02*
X02806Y-01075D01*
X02698Y-01206D02*
X0275Y-01139D01*
X02649Y-01275D02*
X02698Y-01206D01*
X02603Y-01346D02*
X02649Y-01275D01*
X02561Y-0142D02*
X02603Y-01346D01*
X02522Y-01495D02*
X02561Y-0142D01*
X02487Y-01573D02*
X02522Y-01495D01*
X02456Y-01651D02*
X02487Y-01573D01*
X02428Y-01732D02*
X02456Y-01651D01*
X02405Y-01813D02*
X02428Y-01732D01*
X02394Y-01847D02*
X02405Y-01813D01*
X02378Y-01879D02*
X02394Y-01847D01*
X02359Y-0191D02*
X02378Y-01879D01*
X02336Y-01937D02*
X02359Y-0191D01*
X02309Y-01961D02*
X02336Y-01937D01*
X0228Y-01982D02*
X02309Y-01961D01*
X02248Y-01999D02*
X0228Y-01982D01*
X02215Y-02012D02*
X02248Y-01999D01*
X01999Y-02006D02*
X02073Y-02019D01*
X0218Y-0202D02*
X02215Y-02012D01*
X0185Y-01993D02*
X01925Y-01997D01*
X01999Y-02006*
X02145Y-02024D02*
X0218Y-0202D01*
X02109Y-02024D02*
X02145Y-02024D01*
X02073Y-02019D02*
X02109Y-02024D01*
X01555Y02024D02*
X01591Y02024D01*
X01627Y02019*
X0152Y0202D02*
X01555Y02024D01*
X01485Y02012D02*
X0152Y0202D01*
X01701Y02006D02*
X01775Y01997D01*
X0185Y01993*
X01627Y02019D02*
X01701Y02006D01*
X01451Y01999D02*
X01485Y02012D01*
X0142Y01982D02*
X01451Y01999D01*
X01391Y01961D02*
X0142Y01982D01*
X01364Y01937D02*
X01391Y01961D01*
X01341Y0191D02*
X01364Y01937D01*
X01322Y01879D02*
X01341Y0191D01*
X01306Y01847D02*
X01322Y01879D01*
X01295Y01813D02*
X01306Y01847D01*
X01271Y01732D02*
X01295Y01813D01*
X01244Y01651D02*
X01271Y01732D01*
X01213Y01573D02*
X01244Y01651D01*
X01178Y01495D02*
X01213Y01573D01*
X01139Y0142D02*
X01178Y01495D01*
X01097Y01346D02*
X01139Y0142D01*
X01051Y01275D02*
X01097Y01346D01*
X01002Y01206D02*
X01051Y01275D01*
X0095Y01139D02*
X01002Y01206D01*
X00894Y01075D02*
X0095Y01139D01*
X00836Y01014D02*
X00894Y01075D01*
X00774Y00955D02*
X00836Y01014D01*
X0071Y009D02*
X00774Y00955D01*
X00643Y00847D02*
X0071Y009D01*
X00574Y00798D02*
X00643Y00847D01*
X00503Y00753D02*
X00574Y00798D01*
X00429Y0071D02*
X00503Y00753D01*
X00354Y00672D02*
X00429Y0071D01*
X00277Y00637D02*
X00354Y00672D01*
X00198Y00605D02*
X00277Y00637D01*
X00118Y00578D02*
X00198Y00605D01*
X00036Y00554D02*
X00118Y00578D01*
X00002Y00543D02*
X00036Y00554D01*
X-00029Y00528D02*
X00002Y00543D01*
X-00059Y00508D02*
X-00029Y00528D01*
X-00087Y00485D02*
X-00059Y00508D01*
X-00111Y00459D02*
X-00087Y00485D01*
X-00132Y0043D02*
X-00111Y00459D01*
X-00149Y00398D02*
X-00132Y0043D01*
X-00161Y00365D02*
X-00149Y00398D01*
X-00147Y00074D02*
X-00143Y0D01*
X-00147Y-00074D02*
X-00143Y0D01*
X-00169Y00223D02*
X-00156Y00149D01*
X-00147Y00074*
X-00156Y-00148D02*
X-00147Y-00074D01*
X-00168Y-00221D02*
X-00156Y-00148D01*
X-0017Y-00328D02*
X-00161Y-00363D01*
X-0017Y0033D02*
X-00161Y00365D01*
X-00174Y00258D02*
X-00169Y00223D01*
X-00174Y00294D02*
X-0017Y0033D01*
X-00174Y00294D02*
X-00174Y00258D01*
X-00173Y-00257D02*
X-00168Y-00221D01*
X-00174Y-00293D02*
X-0017Y-00328D01*
X-00174Y-00293D02*
X-00173Y-00257D01*
X01108Y-01364D02*
X01155Y-0145D01*
X01198Y-01537*
X01043Y-01257D02*
X01056Y-01282D01*
X01108Y-01364*
X01269Y-01719D02*
X01297Y-01813D01*
X01308Y-01847*
X01198Y-01537D02*
X01236Y-01628D01*
X01269Y-01719*
X0103Y-01087D02*
X01036Y-01125D01*
X01039Y-01164*
X01004Y-01013D02*
X01019Y-01049D01*
X0103Y-01087*
X01036Y-01203D02*
X01039Y-01164D01*
X01036Y-0123D02*
X01043Y-01257D01*
X01036Y-01203D02*
X01036Y-0123D01*
X01776Y-01997D02*
X0185Y-01993D01*
X01702Y-02006D02*
X01776Y-01997D01*
X01628Y-02019D02*
X01702Y-02006D01*
X01487Y-02012D02*
X01521Y-0202D01*
X01593Y-02024D02*
X01628Y-02019D01*
X01557Y-02024D02*
X01593Y-02024D01*
X01521Y-0202D02*
X01557Y-02024D01*
X01343Y-01909D02*
X01366Y-01937D01*
X01392Y-01961*
X01308Y-01847D02*
X01323Y-01879D01*
X01343Y-01909*
X01422Y-01982D02*
X01453Y-01999D01*
X01487Y-02012*
X01392Y-01961D02*
X01422Y-01982D01*
X00118Y-00577D02*
X00198Y-00604D01*
X00277Y-00636*
X00002Y-00541D02*
X00036Y-00553D01*
X00118Y-00577*
X0043Y-0071D02*
X00503Y-00753D01*
X00575Y-00798*
X00277Y-00636D02*
X00354Y-00671D01*
X0043Y-0071*
X-00131Y-00428D02*
X-00111Y-00457D01*
X-00086Y-00483*
X-00161Y-00363D02*
X-00148Y-00396D01*
X-00131Y-00428*
X-00059Y-00506D02*
X-00029Y-00526D01*
X00002Y-00541*
X-00086Y-00483D02*
X-00059Y-00506D01*
X00877Y-0087D02*
X00908Y-00893D01*
X00937Y-00919*
X00807Y-00836D02*
X00843Y-00851D01*
X00877Y-0087*
X00963Y-00948D02*
X00985Y-00979D01*
X01004Y-01013*
X00937Y-00919D02*
X00963Y-00948D01*
X00653Y-00818D02*
X00692Y-00816D01*
X00626Y-00818D02*
X00653Y-00818D01*
X00575Y-00798D02*
X00599Y-00811D01*
X00626Y-00818*
X00731Y-00818D02*
X00769Y-00825D01*
X00807Y-00836*
X00692Y-00816D02*
X00731Y-00818D01*
G54D44*
X00894Y00338D03*
X01138D03*
X00902Y00914D03*
X01146D03*
G54D56*
X02116Y-01153D03*
X02189D03*
G54D66*
X01025Y00746D03*
Y00517D03*
G54D71*
X00715Y-00335D03*
X00813D03*
X00912D03*
X0101D03*
X01109D03*
X01207D03*
X01921Y-01574D03*
X01822D03*
X02019D03*
X01724D03*
X02427Y-01346D03*
X02377Y-01433D03*
X02327Y-01519D03*
X01378Y-01668D03*
X01309Y-0148D03*
X01343Y-01574D03*
X02676Y00531D03*
Y0063D03*
Y00728D03*
X02781Y-0081D03*
X02711Y-0088D03*
G54D72*
X02811Y-00244D03*
X02464D03*
X03102Y00401D03*
X03448D03*
X03098Y-0024D03*
X03444D03*
G54D73*
X02736Y-00519D03*
X02637D03*
X02539D03*
X00433Y-00606D03*
X0252Y-00981D03*
X02461Y-00867D03*
X03177Y00125D03*
X03275D03*
X03374D03*
X03173Y-00515D03*
X03271D03*
X0337D03*
X0122Y-00073D03*
X01338Y-00077D03*
X01983Y0168D03*
G54D74*
X0185Y-0185D03*
X0Y0D03*
X037D03*
G54D75*
X01251Y01222D03*
Y01122D03*
Y01022D03*
Y00922D03*
Y00822D03*
Y00722D03*
Y00622D03*
Y00522D03*
Y00422D03*
Y00322D03*
X02472Y01222D03*
Y01122D03*
Y01022D03*
Y00922D03*
Y00822D03*
Y00722D03*
Y00622D03*
Y00522D03*
Y00422D03*
Y00322D03*
X02303Y00944D03*
Y00844D03*
Y00744D03*
Y00644D03*
Y00544D03*
Y00444D03*
Y00344D03*
Y00244D03*
X01397Y00944D03*
Y00844D03*
Y00744D03*
Y00644D03*
Y00544D03*
Y00444D03*
Y00344D03*
Y00244D03*
G54D76*
X01877Y-01255D03*
X02062D03*
X01692D03*
G54D77*
X02277Y-01606D03*
G54D78*
X01412Y-01762D03*
G54D79*
X00149Y00314D03*
X00145Y-00307D03*
G54D80*
X00433Y00314D03*
X00429Y-00307D03*
G54D81*
X01025Y00038D03*
G54D82*
X00925Y00038D03*
X01117Y01071D03*
G54D83*
X01117Y01171D03*
G54D84*
X01937Y01843D03*
X0178D03*
G54D85*
X01893Y-00642D03*
X01884Y-0068D03*
X02082Y-00539D03*
X01993Y-00456D03*
X02045Y-00541D03*
X00753Y-00708D03*
X0075Y-00549D03*
X00461Y00624D03*
X00464Y00659D03*
X00461Y00599D03*
X00915Y00798D03*
X00888Y00798D03*
X01847Y01774D03*
X00858Y-00048D03*
X00859Y-00072D03*
X0131Y-01354D03*
X0133Y-01384D03*
X01899Y-00246D03*
X01859Y01541D03*
X01889Y-00487D03*
X0186Y-00509D03*
X01866Y-00546D03*
X01831Y-00551D03*
X021Y00181D03*
X01896Y00023D03*
X01892Y-0045D03*
X0193Y-00456D03*
X01935Y-00421D03*
X01923Y-00387D03*
X01766Y-00526D03*
X01787Y-00554D03*
X01827Y-00593D03*
X02109Y0006D03*
X01907Y-00103D03*
X01946Y-00097D03*
X0237Y-00645D03*
X02242Y-00871D03*
X02281Y-00877D03*
X02138Y-00104D03*
X02301Y-00566D03*
X02079Y-00734D03*
X01973Y00092D03*
X02091Y00019D03*
X01931Y-00011D03*
X01695Y-002D03*
X01695Y-00261D03*
X01935Y00127D03*
X01655Y-00201D03*
X01665Y-00279D03*
X01678Y-00612D03*
X02188Y-00227D03*
X01982Y00154D03*
X01929Y00274D03*
X02007Y-00489D03*
X02369Y-01136D03*
X02515Y-01179D03*
X02188Y-00188D03*
X01359Y-00545D03*
X01776Y-00719D03*
X01812Y-00706D03*
X0219Y-00152D03*
X01674Y-00765D03*
X02193Y-01209D03*
X02054Y-00767D03*
X00107Y00001D03*
Y-00062D03*
Y-0014D03*
Y00123D03*
Y00071D03*
X00186Y00001D03*
Y-00062D03*
Y-0014D03*
Y00123D03*
Y00071D03*
X00145Y00072D03*
Y00124D03*
X01072Y-00669D03*
X01638Y-00518D03*
X0154Y-00632D03*
X0159Y-00683D03*
X0142Y-00631D03*
X01634Y-00728D03*
X01127Y-00921D03*
X01326Y-00744D03*
X01071Y00875D03*
X01019Y01027D03*
X00291Y00603D03*
X00694Y00803D03*
X0058Y00629D03*
X00493Y00474D03*
X01155Y00228D03*
X01119D03*
X01079Y-00511D03*
X0114Y0072D03*
X01118D03*
X0133Y-00237D03*
X02405Y00064D03*
X01865Y00216D03*
X01793Y00287D03*
X02159Y0029D03*
X02193Y-01249D03*
X02571Y-01057D03*
X02224Y-00691D03*
X02469Y-00758D03*
X0247Y-00689D03*
X01503Y-00354D03*
X02019Y-00889D03*
X01422Y00038D03*
X01874Y-00964D03*
X01467Y-01419D03*
X01079Y-00589D03*
X01635Y01708D03*
X00798Y00899D03*
X00845Y00632D03*
X00794Y0063D03*
X01852Y01739D03*
X01131Y00469D03*
X01184Y00655D03*
Y00633D03*
X01441Y-00305D03*
X00549Y00129D03*
Y-00109D03*
X00684Y00167D03*
X00847Y00526D03*
Y00581D03*
X00846Y00683D03*
X00794D03*
X00795Y0058D03*
X00794Y00527D03*
X01338Y-01329D03*
X01444Y-01223D03*
X01494Y-01038D03*
X01534Y-00998D03*
X01435Y-00823D03*
X01483Y-00777D03*
X01729Y-0098D03*
X0167Y-01044D03*
X01606Y-01107D03*
X01547Y-01161D03*
X01385Y-00893D03*
X0159Y-00937D03*
X0135Y-00976D03*
X01724Y-00901D03*
X01677Y-0087D03*
X01641Y-00826D03*
X01606Y-00862D03*
X01642Y-00354D03*
X02269Y00124D03*
X01985Y00617D03*
X02334Y-01308D03*
X02253Y-0131D03*
X02281Y-01122D03*
X0233Y-01112D03*
X02434Y-01178D03*
X02424Y-00949D03*
X02275Y-00638D03*
X01133Y-00695D03*
X01227Y-00513D03*
X02041Y-01127D03*
X01989Y-01128D03*
X0199Y-00947D03*
X01685Y-00484D03*
X01429Y-00539D03*
X01374Y-00484D03*
X00145Y-0014D03*
Y-00061D03*
Y00001D03*
X0188Y-00761D03*
G54D107*
X00629Y00693D03*
Y00449D03*
G54D108*
X02089Y-00993D03*
X02039D03*
X02138D03*
X0199D03*
X02089Y-01079D03*
X02138D03*
X0199D03*
X02039D03*
M02*