%FSTAX23Y23*%
%MOIN*%
%SFA1B1*%

%IPPOS*%
%AMD97*
4,1,4,-0.017600,-0.037800,0.037800,-0.017600,0.017600,0.037800,-0.037800,0.017600,-0.017600,-0.037800,0.0*
%
%ADD16C,0.008000*%
%ADD90C,0.059060*%
%ADD91C,0.184250*%
%ADD92C,0.070870*%
%ADD94C,0.078740*%
%ADD95C,0.118110*%
G04~CAMADD=97~10~0.0~590.6~0.0~0.0~0.0~0.0~0~0.0~0.0~0.0~0.0~0~0.0~0.0~0.0~0.0~0~0.0~0.0~0.0~200.0~590.6~0.0*
%ADD97D97*%
%ADD98R,0.236220X0.236220*%
%ADD104C,0.015750*%
%LNflightcontroller-1*%
%LPD*%
G36*
X0218Y0202D02*
X02215Y02012D01*
X02248Y01999*
X0228Y01982*
X02309Y01961*
X02336Y01937*
X02359Y0191*
X02378Y01879*
X02394Y01847*
X02405Y01813*
X02428Y01732*
X02456Y01651*
X02487Y01572*
X02522Y01495*
X02561Y0142*
X02603Y01346*
X02649Y01275*
X02662Y0125*
X02668Y01224*
X02668Y01196*
X02666Y01157*
X02669Y01118*
X02676Y0108*
X02686Y01043*
X02701Y01007*
X0272Y00973*
X02743Y00941*
X02769Y00912*
X02798Y00886*
X0283Y00864*
X02864Y00845*
X029Y0083*
X02937Y0082*
X02976Y00813*
X03014Y00811*
X03053Y00813*
X03081Y00813*
X03108Y00806*
X03132Y00794*
X03215Y00742*
X033Y00695*
X03388Y00652*
X03478Y00615*
X0357Y00582*
X03664Y00554*
X03698Y00543*
X0373Y00528*
X0376Y00508*
X03787Y00485*
X03812Y00459*
X03832Y0043*
X03849Y00398*
X03862Y00365*
X03871Y0033*
X03875Y00294*
X03874Y00258*
X03869Y00223*
X03857Y00149*
X03848Y00074*
X03843Y0*
X03848Y-00074*
X03857Y-00149*
X03869Y-00223*
X03874Y-00258*
X03875Y-00294*
X03871Y-0033*
X03862Y-00365*
X03849Y-00398*
X03832Y-0043*
X03812Y-00459*
X03787Y-00485*
X0376Y-00508*
X0373Y-00528*
X03698Y-00543*
X03664Y-00554*
X03582Y-00578*
X03502Y-00605*
X03423Y-00637*
X03346Y-00672*
X0327Y-0071*
X03197Y-00753*
X03125Y-00798*
X03056Y-00847*
X0299Y-009*
X02926Y-00955*
X02864Y-01014*
X02806Y-01075*
X0275Y-01139*
X02698Y-01206*
X02649Y-01275*
X02603Y-01346*
X02561Y-0142*
X02522Y-01495*
X02487Y-01573*
X02456Y-01651*
X02428Y-01732*
X02405Y-01813*
X02394Y-01847*
X02378Y-01879*
X02359Y-0191*
X02336Y-01937*
X02309Y-01961*
X0228Y-01982*
X02248Y-01999*
X02215Y-02012*
X0218Y-0202*
X02145Y-02024*
X02109Y-02024*
X02073Y-02019*
X01999Y-02006*
X01925Y-01997*
X0185Y-01993*
X01776Y-01997*
X01702Y-02006*
X01628Y-02019*
X01593Y-02024*
X01557Y-02024*
X01521Y-0202*
X01487Y-02012*
X01453Y-01999*
X01422Y-01982*
X01392Y-01961*
X01366Y-01937*
X01343Y-01909*
X01323Y-01879*
X01308Y-01847*
X01297Y-01813*
X01269Y-01719*
X01236Y-01628*
X01198Y-01537*
X01155Y-0145*
X01108Y-01364*
X01056Y-01282*
X01043Y-01257*
X01036Y-0123*
X01036Y-01203*
X01039Y-01164*
X01036Y-01125*
X0103Y-01087*
X01019Y-01049*
X01004Y-01013*
X00985Y-00979*
X00963Y-00948*
X00937Y-00919*
X00908Y-00893*
X00877Y-0087*
X00843Y-00851*
X00807Y-00836*
X00769Y-00825*
X00731Y-00818*
X00692Y-00816*
X00653Y-00818*
X00626Y-00818*
X00599Y-00811*
X00575Y-00798*
X00503Y-00753*
X0043Y-0071*
X00354Y-00671*
X00277Y-00636*
X00198Y-00604*
X00118Y-00577*
X00036Y-00553*
X00002Y-00541*
X-00029Y-00526*
X-00059Y-00506*
X-00086Y-00483*
X-00111Y-00457*
X-00131Y-00428*
X-00148Y-00396*
X-00161Y-00363*
X-0017Y-00328*
X-00174Y-00293*
X-00173Y-00257*
X-00168Y-00221*
X-00156Y-00148*
X-00147Y-00074*
X-00143Y0*
X-00147Y00074*
X-00156Y00149*
X-00169Y00223*
X-00174Y00258*
X-00174Y00294*
X-0017Y0033*
X-00161Y00365*
X-00149Y00398*
X-00132Y0043*
X-00111Y00459*
X-00087Y00485*
X-00059Y00508*
X-00029Y00528*
X00002Y00543*
X00036Y00554*
X00118Y00578*
X00198Y00605*
X00277Y00637*
X00354Y00672*
X00429Y0071*
X00503Y00753*
X00574Y00798*
X00643Y00847*
X0071Y009*
X00774Y00955*
X00836Y01014*
X00894Y01075*
X0095Y01139*
X01002Y01206*
X01051Y01275*
X01097Y01346*
X01139Y0142*
X01178Y01495*
X01213Y01573*
X01244Y01651*
X01271Y01732*
X01295Y01813*
X01306Y01847*
X01322Y01879*
X01341Y0191*
X01364Y01937*
X01391Y01961*
X0142Y01982*
X01451Y01999*
X01485Y02012*
X0152Y0202*
X01555Y02024*
X01591Y02024*
X01627Y02019*
X01701Y02006*
X01775Y01997*
X0185Y01993*
X01925Y01997*
X01999Y02006*
X02073Y02019*
X02109Y02024*
X02145Y02024*
X0218Y0202*
G37*
%LNflightcontroller-2*%
%LPC*%
G36*
X01937Y01864D02*
X01929Y01863D01*
X01922Y01858*
X01917Y01851*
X01916Y01843*
X01917Y01835*
X01922Y01828*
X01929Y01824*
X01937Y01822*
X01945Y01824*
X01952Y01828*
X01957Y01835*
X01958Y01843*
X01957Y01851*
X01952Y01858*
X01945Y01863*
X01937Y01864*
G37*
G36*
X0178D02*
X01771Y01863D01*
X01765Y01858*
X0176Y01851*
X01758Y01843*
X0176Y01835*
X01765Y01828*
X01771Y01824*
X0178Y01822*
X01788Y01824*
X01795Y01828*
X01799Y01835*
X01801Y01843*
X01799Y01851*
X01795Y01858*
X01788Y01863*
X0178Y01864*
G37*
G36*
X01852Y01792D02*
Y01779D01*
X01864*
X01864Y01781*
X0186Y01787*
X01854Y01791*
X01852Y01792*
G37*
G36*
X01842D02*
X0184Y01791D01*
X01834Y01787*
X0183Y01781*
X01829Y01779*
X01842*
Y01792*
G37*
G36*
X01864Y01769D02*
X01829D01*
X0183Y01767*
X01834Y01761*
X01831Y01757*
X01828Y01753*
X01825Y01746*
X01825Y01739*
X01825Y01732*
X01828Y01725*
X01833Y0172*
X01838Y01715*
X01845Y01712*
X01852Y01712*
X0186Y01712*
X01866Y01715*
X01872Y0172*
X01876Y01725*
X01879Y01732*
X0188Y01739*
X01879Y01746*
X01876Y01753*
X01872Y01759*
X01866Y01763*
X01864Y01764*
X01864Y01767*
X01864Y01769*
G37*
G36*
X01635Y01736D02*
X01628Y01735D01*
X01621Y01732*
X01615Y01727*
X01611Y01722*
X01608Y01715*
X01607Y01708*
X01608Y01701*
X01611Y01694*
X01615Y01688*
X01621Y01684*
X01628Y01681*
X01635Y0168*
X01642Y01681*
X01649Y01684*
X01655Y01688*
X01659Y01694*
X01662Y01701*
X01663Y01708*
X01662Y01715*
X01659Y01722*
X01655Y01727*
X01649Y01732*
X01642Y01735*
X01635Y01736*
G37*
G36*
X01983Y01725D02*
X01971Y01724D01*
X0196Y01719*
X01951Y01712*
X01943Y01702*
X01939Y01691*
X01937Y0168*
X01939Y01668*
X01943Y01657*
X01951Y01647*
X0196Y0164*
X01971Y01635*
X01983Y01634*
X01995Y01635*
X02006Y0164*
X02016Y01647*
X02023Y01657*
X02027Y01668*
X02029Y0168*
X02027Y01691*
X02023Y01702*
X02016Y01712*
X02006Y01719*
X01995Y01724*
X01983Y01725*
G37*
G36*
X01864Y01558D02*
Y01546D01*
X01876*
X01876Y01548*
X01872Y01554*
X01866Y01558*
X01864Y01558*
G37*
G36*
X01854D02*
X01852Y01558D01*
X01846Y01554*
X01842Y01548*
X01842Y01546*
X01854*
Y01558*
G37*
G36*
X01876Y01536D02*
X01864D01*
Y01524*
X01866Y01524*
X01872Y01528*
X01876Y01534*
X01876Y01536*
G37*
G36*
X01854D02*
X01842D01*
X01842Y01534*
X01846Y01528*
X01852Y01524*
X01854Y01524*
Y01536*
G37*
G36*
X01161Y01215D02*
X01073D01*
Y01127*
X01161*
Y01215*
G37*
G36*
X01024Y01044D02*
Y01032D01*
X01036*
X01035Y01034*
X01032Y0104*
X01026Y01044*
X01024Y01044*
G37*
G36*
X01014D02*
X01012Y01044D01*
X01006Y0104*
X01002Y01034*
X01001Y01032*
X01014*
Y01044*
G37*
G36*
X01117Y01116D02*
X01106Y01114D01*
X01095Y0111*
X01086Y01103*
X01079Y01094*
X01074Y01083*
X01073Y01071*
X01074Y0106*
X01079Y01049*
X01086Y0104*
X01095Y01033*
X01106Y01029*
X01117Y01027*
X01129Y01029*
X01139Y01033*
X01148Y0104*
X01155Y01049*
X0116Y0106*
X01161Y01071*
X0116Y01083*
X01155Y01094*
X01148Y01103*
X01139Y0111*
X01129Y01114*
X01117Y01116*
G37*
G36*
X01036Y01022D02*
X01024D01*
Y0101*
X01026Y0101*
X01032Y01014*
X01035Y0102*
X01036Y01022*
G37*
G36*
X01014D02*
X01001D01*
X01002Y0102*
X01006Y01014*
X01012Y0101*
X01014Y0101*
Y01022*
G37*
G36*
X02308Y00994D02*
Y00949D01*
X02352*
X02351Y00957*
X02346Y00969*
X02338Y0098*
X02328Y00988*
X02316Y00992*
X02308Y00994*
G37*
G36*
X02298D02*
X0229Y00992D01*
X02278Y00988*
X02267Y0098*
X0226Y00969*
X02255Y00957*
X02254Y00949*
X02298*
Y00994*
G37*
G36*
X01076Y00892D02*
Y0088D01*
X01088*
X01088Y00882*
X01084Y00888*
X01078Y00892*
X01076Y00892*
G37*
G36*
X01066D02*
X01064Y00892D01*
X01058Y00888*
X01054Y00882*
X01054Y0088*
X01066*
Y00892*
G37*
G36*
X00798Y00927D02*
X0079Y00926D01*
X00784Y00923*
X00778Y00919*
X00774Y00913*
X00771Y00906*
X0077Y00899*
X00771Y00892*
X00774Y00885*
X00778Y00879*
X00784Y00875*
X0079Y00872*
X00798Y00871*
X00805Y00872*
X00812Y00875*
X00817Y00879*
X00822Y00885*
X00824Y00892*
X00825Y00899*
X00824Y00906*
X00822Y00913*
X00817Y00919*
X00812Y00923*
X00805Y00926*
X00798Y00927*
G37*
G36*
X01088Y0087D02*
X01076D01*
Y00858*
X01078Y00858*
X01084Y00862*
X01088Y00868*
X01088Y0087*
G37*
G36*
X01066D02*
X01054D01*
X01054Y00868*
X01058Y00862*
X01064Y00858*
X01066Y00858*
Y0087*
G37*
G36*
X00699Y0082D02*
Y00808D01*
X00711*
X00711Y0081*
X00707Y00816*
X00701Y0082*
X00699Y0082*
G37*
G36*
X00689D02*
X00687Y0082D01*
X00681Y00816*
X00677Y0081*
X00677Y00808*
X00689*
Y0082*
G37*
G36*
X00711Y00798D02*
X00699D01*
Y00786*
X00701Y00786*
X00707Y0079*
X00711Y00796*
X00711Y00798*
G37*
G36*
X00689D02*
X00677D01*
X00677Y00796*
X00681Y0079*
X00687Y00786*
X00689Y00786*
Y00798*
G37*
G36*
X00888Y00826D02*
X00881Y00825D01*
X00874Y00822*
X00868Y00818*
X00864Y00812*
X00861Y00805*
X0086Y00798*
X00861Y00791*
X00864Y00784*
X00868Y00779*
X00874Y00774*
X00881Y00771*
X00888Y0077*
X00895Y00771*
X00901Y00774*
X00908Y00771*
X00915Y0077*
X00922Y00771*
X00929Y00774*
X00935Y00778*
X00939Y00784*
X00942Y00791*
X00943Y00798*
X00942Y00805*
X00939Y00812*
X00935Y00818*
X00929Y00822*
X00922Y00825*
X00915Y00826*
X00908Y00825*
X00902Y00822*
X00895Y00825*
X00888Y00826*
G37*
G36*
X0114Y00748D02*
X01132Y00747D01*
X01129Y00745*
X01125Y00747*
X01118Y00748*
X0111Y00747*
X01104Y00744*
X01098Y0074*
X01094Y00734*
X01091Y00727*
X0109Y0072*
X01091Y00713*
X01094Y00706*
X01098Y007*
X01104Y00696*
X0111Y00693*
X01118Y00692*
X01125Y00693*
X01129Y00695*
X01132Y00693*
X0114Y00692*
X01147Y00693*
X01153Y00696*
X01159Y007*
X01164Y00706*
X01166Y00713*
X01167Y0072*
X01166Y00727*
X01164Y00734*
X01159Y0074*
X01153Y00744*
X01147Y00747*
X0114Y00748*
G37*
G36*
X02676Y00768D02*
X02666Y00767D01*
X02656Y00763*
X02648Y00756*
X02642Y00748*
X02638Y00738*
X02636Y00728*
X02638Y00718*
X02642Y00708*
X02648Y007*
X02656Y00694*
X02666Y0069*
X02676Y00688*
X02686Y0069*
X02696Y00694*
X02704Y007*
X02711Y00708*
X02715Y00718*
X02716Y00728*
X02715Y00738*
X02711Y00748*
X02704Y00756*
X02696Y00763*
X02686Y00767*
X02676Y00768*
G37*
G36*
X00851Y007D02*
Y00688D01*
X00863*
X00862Y0069*
X00859Y00695*
X00853Y00699*
X00851Y007*
G37*
G36*
X00841D02*
X00839Y00699D01*
X00833Y00695*
X00829Y0069*
X00828Y00688*
X00841*
Y007*
G37*
G36*
X00799D02*
Y00688D01*
X00811*
X00811Y0069*
X00807Y00695*
X00801Y00699*
X00799Y007*
G37*
G36*
X00789D02*
X00787Y00699D01*
X00781Y00695*
X00777Y0069*
X00777Y00688*
X00789*
Y007*
G37*
G36*
X00863Y00678D02*
X00851D01*
Y00665*
X00853Y00666*
X00859Y0067*
X00862Y00676*
X00863Y00678*
G37*
G36*
X00841D02*
X00828D01*
X00829Y00676*
X00833Y0067*
X00839Y00666*
X00841Y00665*
Y00678*
G37*
G36*
X00811D02*
X00799D01*
Y00665*
X00801Y00666*
X00807Y0067*
X00811Y00676*
X00811Y00678*
G37*
G36*
X00789D02*
X00777D01*
X00777Y00676*
X00781Y0067*
X00787Y00666*
X00789Y00665*
Y00678*
G37*
G36*
X00469Y00677D02*
Y00664D01*
X00481*
X00481Y00666*
X00477Y00672*
X00471Y00676*
X00469Y00677*
G37*
G36*
X00459D02*
X00457Y00676D01*
X00451Y00672*
X00447Y00666*
X00447Y00664*
X00459*
Y00677*
G37*
G36*
X01251Y01271D02*
X01239Y0127D01*
X01227Y01265*
X01216Y01257*
X01208Y01246*
X01203Y01234*
X01202Y01222*
X01203Y01209*
X01208Y01197*
X01216Y01186*
X01227Y01178*
X01237Y01174*
Y01169*
X01227Y01165*
X01216Y01157*
X01208Y01146*
X01203Y01134*
X01202Y01122*
X01203Y01109*
X01208Y01097*
X01216Y01086*
X01227Y01078*
X01237Y01074*
Y01069*
X01227Y01065*
X01216Y01057*
X01208Y01046*
X01203Y01034*
X01202Y01022*
X01203Y01009*
X01208Y00997*
X01216Y00986*
X01227Y00978*
X01237Y00974*
Y00969*
X01227Y00965*
X01216Y00957*
X01208Y00946*
X01203Y00934*
X01202Y00922*
X01203Y00909*
X01208Y00897*
X01216Y00886*
X01227Y00878*
X01237Y00874*
Y00869*
X01227Y00865*
X01216Y00857*
X01208Y00846*
X01203Y00834*
X01202Y00822*
X01203Y00809*
X01208Y00797*
X01216Y00786*
X01227Y00778*
X01237Y00774*
Y00769*
X01227Y00765*
X01216Y00757*
X01208Y00746*
X01203Y00734*
X01202Y00722*
X01203Y00709*
X01208Y00697*
X01216Y00686*
X01227Y00678*
X01237Y00674*
Y00669*
X01227Y00665*
X01217Y00657*
X01215Y00657*
X01211Y00659*
X01211Y00662*
X01208Y00669*
X01204Y00675*
X01198Y00679*
X01191Y00682*
X01184Y00683*
X01177Y00682*
X0117Y00679*
X01164Y00675*
X0116Y00669*
X01157Y00662*
X01156Y00655*
X01157Y00648*
X01159Y00644*
X01157Y0064*
X01156Y00633*
X01157Y00626*
X0116Y00619*
X01164Y00613*
X0117Y00609*
X01177Y00606*
X01184Y00605*
X01191Y00606*
X01198Y00609*
X01199Y00609*
X01204Y00607*
X01208Y00597*
X01216Y00586*
X01227Y00578*
X01237Y00574*
Y00569*
X01227Y00565*
X01216Y00557*
X01208Y00546*
X01203Y00534*
X01202Y00522*
X01203Y00509*
X01208Y00497*
X01216Y00486*
X01227Y00478*
X01237Y00474*
Y00469*
X01227Y00465*
X01216Y00457*
X01208Y00446*
X01203Y00434*
X01202Y00422*
X01203Y00409*
X01208Y00397*
X01216Y00386*
X01227Y00378*
X01237Y00374*
Y00369*
X01227Y00365*
X01216Y00357*
X01208Y00346*
X01203Y00334*
X01202Y00322*
X01203Y00309*
X01208Y00297*
X01216Y00286*
X01227Y00278*
X01239Y00273*
X01251Y00272*
X01264Y00273*
X01276Y00278*
X01287Y00286*
X01295Y00297*
X013Y00309*
X01301Y00322*
X013Y00334*
X01295Y00346*
X01287Y00357*
X01276Y00365*
X01266Y00369*
Y00374*
X01276Y00378*
X01287Y00386*
X01295Y00397*
X013Y00409*
X01301Y00422*
X013Y00434*
X01295Y00446*
X01287Y00457*
X01276Y00465*
X01266Y00469*
Y00474*
X01276Y00478*
X01287Y00486*
X01295Y00497*
X013Y00509*
X01301Y00522*
X013Y00534*
X01295Y00546*
X01287Y00557*
X01276Y00565*
X01266Y00569*
Y00574*
X01276Y00578*
X01287Y00586*
X01295Y00597*
X013Y00609*
X01301Y00622*
X013Y00634*
X01295Y00646*
X01287Y00657*
X01276Y00665*
X01266Y00669*
Y00674*
X01276Y00678*
X01287Y00686*
X01295Y00697*
X013Y00709*
X01301Y00722*
X013Y00734*
X01295Y00746*
X01287Y00757*
X01276Y00765*
X01266Y00769*
Y00774*
X01276Y00778*
X01287Y00786*
X01295Y00797*
X013Y00809*
X01301Y00822*
X013Y00834*
X01295Y00846*
X01287Y00857*
X01276Y00865*
X01266Y00869*
Y00874*
X01276Y00878*
X01287Y00886*
X01295Y00897*
X013Y00909*
X01301Y00922*
X013Y00934*
X01295Y00946*
X01287Y00957*
X01276Y00965*
X01266Y00969*
Y00974*
X01276Y00978*
X01287Y00986*
X01295Y00997*
X013Y01009*
X01301Y01022*
X013Y01034*
X01295Y01046*
X01287Y01057*
X01276Y01065*
X01266Y01069*
Y01074*
X01276Y01078*
X01287Y01086*
X01295Y01097*
X013Y01109*
X01301Y01122*
X013Y01134*
X01295Y01146*
X01287Y01157*
X01276Y01165*
X01266Y01169*
Y01174*
X01276Y01178*
X01287Y01186*
X01295Y01197*
X013Y01209*
X01301Y01222*
X013Y01234*
X01295Y01246*
X01287Y01257*
X01276Y01265*
X01264Y0127*
X01251Y01271*
G37*
G36*
X0085Y00649D02*
Y00637D01*
X00862*
X00861Y00638*
X00857Y00644*
X00852Y00648*
X0085Y00649*
G37*
G36*
X0084D02*
X00838Y00648D01*
X00832Y00644*
X00828Y00638*
X00827Y00637*
X0084*
Y00649*
G37*
G36*
X00799Y00648D02*
Y00635D01*
X00811*
X00811Y00637*
X00807Y00643*
X00801Y00647*
X00799Y00648*
G37*
G36*
X00789D02*
X00787Y00647D01*
X00781Y00643*
X00777Y00637*
X00777Y00635*
X00789*
Y00648*
G37*
G36*
X0199Y00634D02*
Y00622D01*
X02002*
X02002Y00624*
X01998Y0063*
X01992Y00634*
X0199Y00634*
G37*
G36*
X0198D02*
X01978Y00634D01*
X01972Y0063*
X01968Y00624*
X01968Y00622*
X0198*
Y00634*
G37*
G36*
X00862Y00627D02*
X0085D01*
Y00614*
X00852Y00615*
X00857Y00619*
X00861Y00625*
X00862Y00627*
G37*
G36*
X0084D02*
X00827D01*
X00828Y00625*
X00832Y00619*
X00838Y00615*
X0084Y00614*
Y00627*
G37*
G36*
X00811Y00625D02*
X00799D01*
Y00613*
X00801Y00614*
X00807Y00618*
X00811Y00623*
X00811Y00625*
G37*
G36*
X00789D02*
X00777D01*
X00777Y00623*
X00781Y00618*
X00787Y00614*
X00789Y00613*
Y00625*
G37*
G36*
X00296Y00621D02*
Y00608D01*
X00308*
X00308Y0061*
X00304Y00616*
X00298Y0062*
X00296Y00621*
G37*
G36*
X00286D02*
X00284Y0062D01*
X00278Y00616*
X00274Y0061*
X00274Y00608*
X00286*
Y00621*
G37*
G36*
X0058Y00657D02*
X00573Y00656D01*
X00566Y00653*
X0056Y00649*
X00556Y00643*
X00553Y00637*
X00552Y00629*
X00553Y00622*
X00556Y00616*
X0056Y0061*
X00566Y00605*
X00573Y00603*
X0058Y00602*
X00587Y00603*
X00594Y00605*
X006Y0061*
X00604Y00616*
X00607Y00622*
X00608Y00629*
X00607Y00637*
X00604Y00643*
X006Y00649*
X00594Y00653*
X00587Y00656*
X0058Y00657*
G37*
G36*
X02002Y00612D02*
X0199D01*
Y006*
X01992Y006*
X01998Y00604*
X02002Y0061*
X02002Y00612*
G37*
G36*
X0198D02*
X01968D01*
X01968Y0061*
X01972Y00604*
X01978Y006*
X0198Y006*
Y00612*
G37*
G36*
X02676Y0067D02*
X02666Y00668D01*
X02656Y00664*
X02648Y00658*
X02642Y0065*
X02638Y0064*
X02636Y0063*
X02638Y00619*
X02642Y0061*
X02648Y00602*
X02656Y00595*
X02666Y00591*
X02676Y0059*
X02686Y00591*
X02696Y00595*
X02704Y00602*
X02711Y0061*
X02715Y00619*
X02716Y0063*
X02715Y0064*
X02711Y0065*
X02704Y00658*
X02696Y00664*
X02686Y00668*
X02676Y0067*
G37*
G36*
X00308Y00598D02*
X00296D01*
Y00586*
X00298Y00586*
X00304Y0059*
X00308Y00596*
X00308Y00598*
G37*
G36*
X00286D02*
X00274D01*
X00274Y00596*
X00278Y0059*
X00284Y00586*
X00286Y00586*
Y00598*
G37*
G36*
X00852Y00598D02*
Y00586D01*
X00864*
X00864Y00588*
X0086Y00594*
X00854Y00598*
X00852Y00598*
G37*
G36*
X00842D02*
X0084Y00598D01*
X00834Y00594*
X0083Y00588*
X00829Y00586*
X00842*
Y00598*
G37*
G36*
X008Y00598D02*
Y00585D01*
X00812*
X00812Y00587*
X00808Y00593*
X00802Y00597*
X008Y00598*
G37*
G36*
X0079D02*
X00788Y00597D01*
X00782Y00593*
X00778Y00587*
X00778Y00585*
X0079*
Y00598*
G37*
G36*
X00481Y00654D02*
X00447D01*
X00447Y00652*
X00448Y00652*
X00447Y00648*
X00441Y00644*
X00437Y00638*
X00434Y00631*
X00433Y00624*
X00434Y00617*
X00436Y00611*
X00434Y00606*
X00433Y00599*
X00434Y00592*
X00437Y00585*
X00441Y00579*
X00447Y00575*
X00454Y00572*
X00461Y00571*
X00468Y00572*
X00475Y00575*
X00481Y00579*
X00485Y00585*
X00488Y00592*
X00489Y00599*
X00488Y00606*
X00485Y00612*
X00488Y00617*
X00488Y00624*
X00488Y00631*
X00485Y00638*
X0048Y00644*
X00479Y00645*
X00477Y00646*
X00481Y00652*
X00481Y00654*
G37*
G36*
X00864Y00576D02*
X00852D01*
Y00564*
X00854Y00564*
X0086Y00568*
X00864Y00574*
X00864Y00576*
G37*
G36*
X00842D02*
X00829D01*
X0083Y00574*
X00834Y00568*
X0084Y00564*
X00842Y00564*
Y00576*
G37*
G36*
X00812Y00575D02*
X008D01*
Y00563*
X00802Y00564*
X00808Y00568*
X00812Y00574*
X00812Y00575*
G37*
G36*
X0079D02*
X00778D01*
X00778Y00574*
X00782Y00568*
X00788Y00564*
X0079Y00563*
Y00575*
G37*
G36*
X02352Y00939D02*
X02303D01*
X02254*
X02255Y00931*
X0226Y00919*
X02267Y00909*
X02278Y00901*
X02288Y00897*
Y00892*
X02278Y00888*
X02267Y0088*
X0226Y00869*
X02255Y00857*
X02253Y00844*
X02255Y00831*
X0226Y00819*
X02267Y00809*
X02278Y00801*
X02288Y00797*
Y00792*
X02278Y00788*
X02267Y0078*
X0226Y00769*
X02255Y00757*
X02253Y00744*
X02255Y00731*
X0226Y00719*
X02267Y00709*
X02278Y00701*
X02288Y00697*
Y00692*
X02278Y00688*
X02267Y0068*
X0226Y00669*
X02255Y00657*
X02253Y00644*
X02255Y00631*
X0226Y00619*
X02267Y00609*
X02278Y00601*
X02288Y00597*
Y00592*
X02278Y00588*
X02267Y0058*
X0226Y00569*
X02255Y00557*
X02254Y00549*
X02303*
X02352*
X02351Y00557*
X02346Y00569*
X02338Y0058*
X02328Y00588*
X02317Y00592*
Y00597*
X02328Y00601*
X02338Y00609*
X02346Y00619*
X02351Y00631*
X02352Y00644*
X02351Y00657*
X02346Y00669*
X02338Y0068*
X02328Y00688*
X02317Y00692*
Y00697*
X02328Y00701*
X02338Y00709*
X02346Y00719*
X02351Y00731*
X02352Y00744*
X02351Y00757*
X02346Y00769*
X02338Y0078*
X02328Y00788*
X02317Y00792*
Y00797*
X02328Y00801*
X02338Y00809*
X02346Y00819*
X02351Y00831*
X02352Y00844*
X02351Y00857*
X02346Y00869*
X02338Y0088*
X02328Y00888*
X02317Y00892*
Y00897*
X02328Y00901*
X02338Y00909*
X02346Y00919*
X02351Y00931*
X02352Y00939*
G37*
G36*
X00799Y00545D02*
Y00532D01*
X00811*
X0081Y00534*
X00807Y0054*
X00801Y00544*
X00799Y00545*
G37*
G36*
X00789D02*
X00787Y00544D01*
X00781Y0054*
X00777Y00534*
X00776Y00532*
X00789*
Y00545*
G37*
G36*
X00852Y00544D02*
Y00531D01*
X00864*
X00864Y00533*
X0086Y00539*
X00854Y00543*
X00852Y00544*
G37*
G36*
X00842D02*
X0084Y00543D01*
X00834Y00539*
X0083Y00533*
X00829Y00531*
X00842*
Y00544*
G37*
G36*
X00811Y00522D02*
X00799D01*
Y0051*
X00801Y00511*
X00807Y00514*
X0081Y0052*
X00811Y00522*
G37*
G36*
X00789D02*
X00776D01*
X00777Y0052*
X00781Y00514*
X00787Y00511*
X00789Y0051*
Y00522*
G37*
G36*
X00864Y00521D02*
X00852D01*
Y00509*
X00854Y00509*
X0086Y00513*
X00864Y00519*
X00864Y00521*
G37*
G36*
X00842D02*
X00829D01*
X0083Y00519*
X00834Y00513*
X0084Y00509*
X00842Y00509*
Y00521*
G37*
G36*
X02676Y00571D02*
X02666Y0057D01*
X02656Y00566*
X02648Y00559*
X02642Y00551*
X02638Y00542*
X02636Y00531*
X02638Y00521*
X02642Y00511*
X02648Y00503*
X02656Y00497*
X02666Y00493*
X02676Y00491*
X02686Y00493*
X02696Y00497*
X02704Y00503*
X02711Y00511*
X02715Y00521*
X02716Y00531*
X02715Y00542*
X02711Y00551*
X02704Y00559*
X02696Y00566*
X02686Y0057*
X02676Y00571*
G37*
G36*
X00498Y00491D02*
Y00479D01*
X0051*
X0051Y00481*
X00506Y00487*
X005Y00491*
X00498Y00491*
G37*
G36*
X00488D02*
X00486Y00491D01*
X0048Y00487*
X00476Y00481*
X00476Y00479*
X00488*
Y00491*
G37*
G36*
X01136Y00486D02*
Y00474D01*
X01148*
X01148Y00476*
X01144Y00481*
X01138Y00485*
X01136Y00486*
G37*
G36*
X01126D02*
X01124Y00485D01*
X01118Y00481*
X01114Y00476*
X01114Y00474*
X01126*
Y00486*
G37*
G36*
X0051Y00469D02*
X00498D01*
Y00457*
X005Y00457*
X00506Y00461*
X0051Y00467*
X0051Y00469*
G37*
G36*
X00488D02*
X00476D01*
X00476Y00467*
X0048Y00461*
X00486Y00457*
X00488Y00457*
Y00469*
G37*
G36*
X01148Y00464D02*
X01136D01*
Y00451*
X01138Y00452*
X01144Y00456*
X01148Y00462*
X01148Y00464*
G37*
G36*
X01126D02*
X01114D01*
X01114Y00462*
X01118Y00456*
X01124Y00452*
X01126Y00451*
Y00464*
G37*
G36*
X02472Y01271D02*
X02459Y0127D01*
X02447Y01265*
X02437Y01257*
X02429Y01246*
X02424Y01234*
X02422Y01222*
X02424Y01209*
X02429Y01197*
X02437Y01186*
X02447Y01178*
X02457Y01174*
Y01169*
X02447Y01165*
X02437Y01157*
X02429Y01146*
X02424Y01134*
X02422Y01122*
X02424Y01109*
X02429Y01097*
X02437Y01086*
X02447Y01078*
X02457Y01074*
Y01069*
X02447Y01065*
X02437Y01057*
X02429Y01046*
X02424Y01034*
X02422Y01022*
X02424Y01009*
X02429Y00997*
X02437Y00986*
X02447Y00978*
X02457Y00974*
Y00969*
X02447Y00965*
X02437Y00957*
X02429Y00946*
X02424Y00934*
X02422Y00922*
X02424Y00909*
X02429Y00897*
X02437Y00886*
X02447Y00878*
X02457Y00874*
Y00869*
X02447Y00865*
X02437Y00857*
X02429Y00846*
X02424Y00834*
X02422Y00822*
X02424Y00809*
X02429Y00797*
X02437Y00786*
X02447Y00778*
X02457Y00774*
Y00769*
X02447Y00765*
X02437Y00757*
X02429Y00746*
X02424Y00734*
X02422Y00722*
X02424Y00709*
X02429Y00697*
X02437Y00686*
X02447Y00678*
X02457Y00674*
Y00669*
X02447Y00665*
X02437Y00657*
X02429Y00646*
X02424Y00634*
X02422Y00622*
X02424Y00609*
X02429Y00597*
X02437Y00586*
X02447Y00578*
X02457Y00574*
Y00569*
X02447Y00565*
X02437Y00557*
X02429Y00546*
X02424Y00534*
X02422Y00522*
X02424Y00509*
X02429Y00497*
X02437Y00486*
X02447Y00478*
X02457Y00474*
Y00469*
X02447Y00465*
X02437Y00457*
X02429Y00446*
X02424Y00434*
X02423Y00427*
X02472*
X02521*
X0252Y00434*
X02515Y00446*
X02507Y00457*
X02497Y00465*
X02487Y00469*
Y00474*
X02497Y00478*
X02507Y00486*
X02515Y00497*
X0252Y00509*
X02522Y00522*
X0252Y00534*
X02515Y00546*
X02507Y00557*
X02497Y00565*
X02487Y00569*
Y00574*
X02497Y00578*
X02507Y00586*
X02515Y00597*
X0252Y00609*
X02522Y00622*
X0252Y00634*
X02515Y00646*
X02507Y00657*
X02497Y00665*
X02487Y00669*
Y00674*
X02497Y00678*
X02507Y00686*
X02515Y00697*
X0252Y00709*
X02522Y00722*
X0252Y00734*
X02515Y00746*
X02507Y00757*
X02497Y00765*
X02487Y00769*
Y00774*
X02497Y00778*
X02507Y00786*
X02515Y00797*
X0252Y00809*
X02522Y00822*
X0252Y00834*
X02515Y00846*
X02507Y00857*
X02497Y00865*
X02487Y00869*
Y00874*
X02497Y00878*
X02507Y00886*
X02515Y00897*
X0252Y00909*
X02522Y00922*
X0252Y00934*
X02515Y00946*
X02507Y00957*
X02497Y00965*
X02487Y00969*
Y00974*
X02497Y00978*
X02507Y00986*
X02515Y00997*
X0252Y01009*
X02522Y01022*
X0252Y01034*
X02515Y01046*
X02507Y01057*
X02497Y01065*
X02487Y01069*
Y01074*
X02497Y01078*
X02507Y01086*
X02515Y01097*
X0252Y01109*
X02522Y01122*
X0252Y01134*
X02515Y01146*
X02507Y01157*
X02497Y01165*
X02487Y01169*
Y01174*
X02497Y01178*
X02507Y01186*
X02515Y01197*
X0252Y01209*
X02522Y01222*
X0252Y01234*
X02515Y01246*
X02507Y01257*
X02497Y01265*
X02485Y0127*
X02472Y01271*
G37*
G36*
X03453Y00503D02*
Y00406D01*
X0355*
X03549Y00421*
X03543Y0044*
X03534Y00458*
X03521Y00474*
X03505Y00486*
X03488Y00496*
X03468Y00502*
X03453Y00503*
G37*
G36*
X03443D02*
X03428Y00502D01*
X03409Y00496*
X03391Y00486*
X03376Y00474*
X03363Y00458*
X03354Y0044*
X03348Y00421*
X03346Y00406*
X03443*
Y00503*
G37*
G36*
X03107D02*
Y00406D01*
X03204*
X03203Y00421*
X03197Y0044*
X03187Y00458*
X03174Y00474*
X03159Y00486*
X03141Y00496*
X03122Y00502*
X03107Y00503*
G37*
G36*
X03097D02*
X03082Y00502D01*
X03063Y00496*
X03045Y00486*
X03029Y00474*
X03017Y00458*
X03007Y0044*
X03001Y00421*
X03Y00406*
X03097*
Y00503*
G37*
G36*
X01397Y00994D02*
X01384Y00992D01*
X01372Y00988*
X01362Y0098*
X01354Y00969*
X01349Y00957*
X01347Y00944*
X01349Y00931*
X01354Y00919*
X01362Y00909*
X01372Y00901*
X01382Y00897*
Y00892*
X01372Y00888*
X01362Y0088*
X01354Y00869*
X01349Y00857*
X01347Y00844*
X01349Y00831*
X01354Y00819*
X01362Y00809*
X01372Y00801*
X01382Y00797*
Y00792*
X01372Y00788*
X01362Y0078*
X01354Y00769*
X01349Y00757*
X01347Y00744*
X01349Y00731*
X01354Y00719*
X01362Y00709*
X01372Y00701*
X01382Y00697*
Y00692*
X01372Y00688*
X01362Y0068*
X01354Y00669*
X01349Y00657*
X01347Y00644*
X01349Y00631*
X01354Y00619*
X01362Y00609*
X01372Y00601*
X01382Y00597*
Y00592*
X01372Y00588*
X01362Y0058*
X01354Y00569*
X01349Y00557*
X01347Y00544*
X01349Y00531*
X01354Y00519*
X01362Y00509*
X01372Y00501*
X01382Y00497*
Y00492*
X01372Y00488*
X01362Y0048*
X01354Y00469*
X01349Y00457*
X01347Y00444*
X01349Y00431*
X01354Y00419*
X01362Y00409*
X01372Y00401*
X01382Y00397*
Y00392*
X01372Y00388*
X01362Y0038*
X01354Y00369*
X01349Y00357*
X01348Y00349*
X01397*
X01446*
X01445Y00357*
X0144Y00369*
X01432Y0038*
X01422Y00388*
X01412Y00392*
Y00397*
X01422Y00401*
X01432Y00409*
X0144Y00419*
X01445Y00431*
X01447Y00444*
X01445Y00457*
X0144Y00469*
X01432Y0048*
X01422Y00488*
X01412Y00492*
Y00497*
X01422Y00501*
X01432Y00509*
X0144Y00519*
X01445Y00531*
X01447Y00544*
X01445Y00557*
X0144Y00569*
X01432Y0058*
X01422Y00588*
X01412Y00592*
Y00597*
X01422Y00601*
X01432Y00609*
X0144Y00619*
X01445Y00631*
X01447Y00644*
X01445Y00657*
X0144Y00669*
X01432Y0068*
X01422Y00688*
X01412Y00692*
Y00697*
X01422Y00701*
X01432Y00709*
X0144Y00719*
X01445Y00731*
X01447Y00744*
X01445Y00757*
X0144Y00769*
X01432Y0078*
X01422Y00788*
X01412Y00792*
Y00797*
X01422Y00801*
X01432Y00809*
X0144Y00819*
X01445Y00831*
X01447Y00844*
X01445Y00857*
X0144Y00869*
X01432Y0088*
X01422Y00888*
X01412Y00892*
Y00897*
X01422Y00901*
X01432Y00909*
X0144Y00919*
X01445Y00931*
X01447Y00944*
X01445Y00957*
X0144Y00969*
X01432Y0098*
X01422Y00988*
X0141Y00992*
X01397Y00994*
G37*
G36*
X00277Y00443D02*
X00154D01*
Y00319*
X00277*
Y00443*
G37*
G36*
X00144D02*
X00021D01*
Y00319*
X00144*
Y00443*
G37*
G36*
X0355Y00396D02*
X03453D01*
Y00299*
X03468Y003*
X03488Y00306*
X03505Y00316*
X03521Y00329*
X03534Y00344*
X03543Y00362*
X03549Y00381*
X0355Y00396*
G37*
G36*
X03443D02*
X03346D01*
X03348Y00381*
X03354Y00362*
X03363Y00344*
X03376Y00329*
X03391Y00316*
X03409Y00306*
X03428Y003*
X03443Y00299*
Y00396*
G37*
G36*
X03204D02*
X03107D01*
Y00299*
X03122Y003*
X03141Y00306*
X03159Y00316*
X03174Y00329*
X03187Y00344*
X03197Y00362*
X03203Y00381*
X03204Y00396*
G37*
G36*
X03097D02*
X03D01*
X03001Y00381*
X03007Y00362*
X03017Y00344*
X03029Y00329*
X03045Y00316*
X03063Y00306*
X03082Y003*
X03097Y00299*
Y00396*
G37*
G36*
X02521Y00417D02*
X02472D01*
X02423*
X02424Y00409*
X02429Y00397*
X02437Y00386*
X02447Y00378*
X02457Y00374*
Y00369*
X02447Y00365*
X02437Y00357*
X02429Y00346*
X02424Y00334*
X02422Y00322*
X02424Y00309*
X02429Y00297*
X02437Y00286*
X02447Y00278*
X02459Y00273*
X02472Y00272*
X02485Y00273*
X02497Y00278*
X02507Y00286*
X02515Y00297*
X0252Y00309*
X02522Y00322*
X0252Y00334*
X02515Y00346*
X02507Y00357*
X02497Y00365*
X02487Y00369*
Y00374*
X02497Y00378*
X02507Y00386*
X02515Y00397*
X0252Y00409*
X02521Y00417*
G37*
G36*
X02159Y00318D02*
X02152Y00317D01*
X02145Y00314*
X02139Y0031*
X02135Y00304*
X02132Y00298*
X02131Y0029*
X02132Y00283*
X02135Y00276*
X02139Y00271*
X02145Y00266*
X02152Y00264*
X02159Y00263*
X02166Y00264*
X02173Y00266*
X02179Y00271*
X02183Y00276*
X02186Y00283*
X02187Y0029*
X02186Y00298*
X02183Y00304*
X02179Y0031*
X02173Y00314*
X02166Y00317*
X02159Y00318*
G37*
G36*
X01793Y00314D02*
X01786Y00313D01*
X01779Y00311*
X01774Y00306*
X01769Y00301*
X01766Y00294*
X01766Y00287*
X01766Y00279*
X01769Y00273*
X01774Y00267*
X01779Y00263*
X01786Y0026*
X01793Y00259*
X01801Y0026*
X01807Y00263*
X01813Y00267*
X01817Y00273*
X0182Y00279*
X01821Y00287*
X0182Y00294*
X01817Y00301*
X01813Y00306*
X01807Y00311*
X01801Y00313*
X01793Y00314*
G37*
G36*
X01929Y00302D02*
X01922Y00301D01*
X01915Y00298*
X0191Y00294*
X01905Y00288*
X01902Y00282*
X01901Y00274*
X01902Y00267*
X01905Y00261*
X0191Y00255*
X01915Y0025*
X01922Y00248*
X01929Y00247*
X01936Y00248*
X01943Y0025*
X01949Y00255*
X01953Y00261*
X01956Y00267*
X01957Y00274*
X01956Y00282*
X01953Y00288*
X01949Y00294*
X01943Y00298*
X01936Y00301*
X01929Y00302*
G37*
G36*
X0115Y00245D02*
X01148Y00245D01*
X01142Y00241*
X0114Y00238*
X01134*
X01132Y00241*
X01126Y00245*
X01124Y00245*
Y00228*
Y00211*
X01126Y00211*
X01132Y00215*
X01134Y00218*
X0114*
X01142Y00215*
X01148Y00211*
X0115Y00211*
Y00228*
Y00245*
G37*
G36*
X0116D02*
Y00233D01*
X01172*
X01172Y00235*
X01168Y00241*
X01162Y00245*
X0116Y00245*
G37*
G36*
X01114D02*
X01112Y00245D01*
X01106Y00241*
X01102Y00235*
X01102Y00233*
X01114*
Y00245*
G37*
G36*
X01172Y00223D02*
X0116D01*
Y00211*
X01162Y00211*
X01168Y00215*
X01172Y00221*
X01172Y00223*
G37*
G36*
X01114D02*
X01102D01*
X01102Y00221*
X01106Y00215*
X01112Y00211*
X01114Y00211*
Y00223*
G37*
G36*
X02352Y00539D02*
X02303D01*
X02254*
X02255Y00531*
X0226Y00519*
X02267Y00509*
X02278Y00501*
X02288Y00497*
Y00492*
X02278Y00488*
X02267Y0048*
X0226Y00469*
X02255Y00457*
X02253Y00444*
X02255Y00431*
X0226Y00419*
X02267Y00409*
X02278Y00401*
X02288Y00397*
Y00392*
X02278Y00388*
X02267Y0038*
X0226Y00369*
X02255Y00357*
X02253Y00344*
X02255Y00331*
X0226Y00319*
X02267Y00309*
X02278Y00301*
X02288Y00297*
Y00292*
X02278Y00288*
X02267Y0028*
X0226Y00269*
X02255Y00257*
X02253Y00244*
X02255Y00231*
X0226Y00219*
X02267Y00209*
X02278Y00201*
X0229Y00196*
X02303Y00195*
X02316Y00196*
X02328Y00201*
X02338Y00209*
X02346Y00219*
X02351Y00231*
X02352Y00244*
X02351Y00257*
X02346Y00269*
X02338Y0028*
X02328Y00288*
X02317Y00292*
Y00297*
X02328Y00301*
X02338Y00309*
X02346Y00319*
X02351Y00331*
X02352Y00344*
X02351Y00357*
X02346Y00369*
X02338Y0038*
X02328Y00388*
X02317Y00392*
Y00397*
X02328Y00401*
X02338Y00409*
X02346Y00419*
X02351Y00431*
X02352Y00444*
X02351Y00457*
X02346Y00469*
X02338Y0048*
X02328Y00488*
X02317Y00492*
Y00497*
X02328Y00501*
X02338Y00509*
X02346Y00519*
X02351Y00531*
X02352Y00539*
G37*
G36*
X01446Y00339D02*
X01397D01*
X01348*
X01349Y00331*
X01354Y00319*
X01362Y00309*
X01372Y00301*
X01382Y00297*
Y00292*
X01372Y00288*
X01362Y0028*
X01354Y00269*
X01349Y00257*
X01347Y00244*
X01349Y00231*
X01354Y00219*
X01362Y00209*
X01372Y00201*
X01384Y00196*
X01397Y00195*
X0141Y00196*
X01422Y00201*
X01432Y00209*
X0144Y00219*
X01445Y00231*
X01447Y00244*
X01445Y00257*
X0144Y00269*
X01432Y0028*
X01422Y00288*
X01412Y00292*
Y00297*
X01422Y00301*
X01432Y00309*
X0144Y00319*
X01445Y00331*
X01446Y00339*
G37*
G36*
X01865Y00243D02*
X01858Y00242D01*
X01851Y0024*
X01845Y00235*
X01841Y0023*
X01838Y00223*
X01837Y00216*
X01838Y00208*
X01841Y00202*
X01845Y00196*
X01851Y00192*
X01858Y00189*
X01865Y00188*
X01872Y00189*
X01879Y00192*
X01885Y00196*
X01889Y00202*
X01892Y00208*
X01893Y00216*
X01892Y00223*
X01889Y0023*
X01885Y00235*
X01879Y0024*
X01872Y00242*
X01865Y00243*
G37*
G36*
X00277Y00309D02*
X00154D01*
Y00186*
X00277*
Y00309*
G37*
G36*
X00144D02*
X00021D01*
Y00186*
X00144*
Y00309*
G37*
G36*
X00433Y00443D02*
X00412Y00441D01*
X00393Y00437*
X00374Y00429*
X00357Y00418*
X00342Y00405*
X00329Y0039*
X00318Y00373*
X0031Y00354*
X00306Y00335*
X00304Y00314*
X00306Y00294*
X0031Y00275*
X00318Y00256*
X00329Y00239*
X00342Y00224*
X00357Y00211*
X00374Y002*
X00393Y00192*
X00412Y00188*
X00433Y00186*
X00453Y00188*
X00472Y00192*
X00491Y002*
X00508Y00211*
X00523Y00224*
X00537Y00239*
X00547Y00256*
X00555Y00275*
X00559Y00294*
X00561Y00314*
X00559Y00335*
X00555Y00354*
X00547Y00373*
X00537Y0039*
X00523Y00405*
X00508Y00418*
X00491Y00429*
X00472Y00437*
X00453Y00441*
X00433Y00443*
G37*
G36*
X00689Y00184D02*
Y00172D01*
X00702*
X00701Y00174*
X00697Y0018*
X00691Y00184*
X00689Y00184*
G37*
G36*
X00679D02*
X00677Y00184D01*
X00671Y0018*
X00667Y00174*
X00667Y00172*
X00679*
Y00184*
G37*
G36*
X021Y00209D02*
X02093Y00208D01*
X02086Y00205*
X0208Y00201*
X02076Y00195*
X02073Y00189*
X02072Y00181*
X02073Y00174*
X02076Y00167*
X0208Y00162*
X02086Y00157*
X02093Y00154*
X021Y00154*
X02107Y00154*
X02114Y00157*
X0212Y00162*
X02124Y00167*
X02127Y00174*
X02128Y00181*
X02127Y00189*
X02124Y00195*
X0212Y00201*
X02114Y00205*
X02107Y00208*
X021Y00209*
G37*
G36*
X01982Y00182D02*
X01974Y00181D01*
X01968Y00178*
X01962Y00174*
X01957Y00168*
X01955Y00161*
X01954Y00154*
X01954Y00154*
X01949Y00151*
X01949Y00152*
X01942Y00154*
X01935Y00155*
X01928Y00154*
X01921Y00152*
X01915Y00147*
X01911Y00141*
X01908Y00135*
X01907Y00127*
X01908Y0012*
X01911Y00114*
X01915Y00108*
X01921Y00103*
X01928Y00101*
X01935Y001*
X01942Y00101*
X01946Y00097*
X01946Y00092*
X01947Y00085*
X01949Y00078*
X01954Y00073*
X0196Y00068*
X01966Y00065*
X01973Y00064*
X01981Y00065*
X01987Y00068*
X01993Y00073*
X01997Y00078*
X02Y00085*
X02001Y00092*
X02Y00099*
X01997Y00106*
X01993Y00112*
X01987Y00116*
X01981Y00119*
X01973Y0012*
X01966Y00119*
X01962Y00123*
X01963Y00127*
X01963Y00128*
X01967Y0013*
X01968Y0013*
X01974Y00127*
X01982Y00126*
X01989Y00127*
X01995Y0013*
X02001Y00134*
X02006Y0014*
X02008Y00147*
X02009Y00154*
X02008Y00161*
X02006Y00168*
X02001Y00174*
X01995Y00178*
X01989Y00181*
X01982Y00182*
G37*
G36*
X00702Y00162D02*
X00689D01*
Y0015*
X00691Y0015*
X00697Y00154*
X00701Y0016*
X00702Y00162*
G37*
G36*
X00679D02*
X00667D01*
X00667Y0016*
X00671Y00154*
X00677Y0015*
X00679Y0015*
Y00162*
G37*
G36*
X00554Y00146D02*
Y00134D01*
X00566*
X00566Y00136*
X00562Y00142*
X00556Y00146*
X00554Y00146*
G37*
G36*
X00544D02*
X00542Y00146D01*
X00536Y00142*
X00532Y00136*
X00532Y00134*
X00544*
Y00146*
G37*
G36*
X0014Y00141D02*
X00138Y00141D01*
X00132Y00137*
X00129Y00131*
X00127Y00131*
X00123Y00131*
X0012Y00136*
X00114Y0014*
X00112Y0014*
Y00123*
Y00106*
X00114Y00106*
X0012Y0011*
X00123Y00116*
X00125Y00116*
X00129Y00116*
X00132Y00111*
X00138Y00107*
X0014Y00106*
Y00124*
Y00141*
G37*
G36*
X03379Y00171D02*
Y0013D01*
X03419*
X03418Y00137*
X03413Y00148*
X03406Y00158*
X03396Y00165*
X03385Y0017*
X03379Y00171*
G37*
G36*
X03369D02*
X03362Y0017D01*
X03351Y00165*
X03341Y00158*
X03334Y00148*
X03329Y00137*
X03328Y0013*
X03369*
Y00171*
G37*
G36*
X02274Y00141D02*
Y00129D01*
X02286*
X02286Y0013*
X02282Y00136*
X02276Y0014*
X02274Y00141*
G37*
G36*
X02264D02*
X02262Y0014D01*
X02256Y00136*
X02252Y0013*
X02251Y00129*
X02264*
Y00141*
G37*
G36*
X00191Y0014D02*
Y00128D01*
X00203*
X00203Y0013*
X00199Y00136*
X00193Y0014*
X00191Y0014*
G37*
G36*
X00102D02*
X001Y0014D01*
X00094Y00136*
X0009Y0013*
X0009Y00128*
X00102*
Y0014*
G37*
G36*
X00566Y00124D02*
X00554D01*
Y00112*
X00556Y00112*
X00562Y00116*
X00566Y00122*
X00566Y00124*
G37*
G36*
X00544D02*
X00532D01*
X00532Y00122*
X00536Y00116*
X00542Y00112*
X00544Y00112*
Y00124*
G37*
G36*
X02286Y00119D02*
X02274D01*
Y00106*
X02276Y00107*
X02282Y00111*
X02286Y00117*
X02286Y00119*
G37*
G36*
X02264D02*
X02251D01*
X02252Y00117*
X02256Y00111*
X02262Y00107*
X02264Y00106*
Y00119*
G37*
G36*
X00203Y00118D02*
X00191D01*
Y00106*
X00193Y00106*
X00199Y0011*
X00203Y00116*
X00203Y00118*
G37*
G36*
X0015Y00141D02*
Y00124D01*
Y00106*
X00152Y00107*
X00158Y00111*
X00162Y00117*
X00163Y0012*
X00163Y00122*
X00168*
X00168Y0012*
X00169Y00116*
X00173Y0011*
X00179Y00106*
X00181Y00106*
Y00123*
Y0014*
X00179Y0014*
X00173Y00136*
X00169Y0013*
X00169Y00127*
X00168Y00125*
X00163*
X00163Y00127*
X00162Y00131*
X00158Y00137*
X00152Y00141*
X0015Y00141*
G37*
G36*
X00102Y00118D02*
X0009D01*
X0009Y00116*
X00094Y0011*
X001Y00106*
X00102Y00106*
Y00118*
G37*
G36*
X03419Y0012D02*
X03379D01*
Y0008*
X03385Y00081*
X03396Y00086*
X03406Y00093*
X03413Y00103*
X03418Y00114*
X03419Y0012*
G37*
G36*
X03369D02*
X03328D01*
X03329Y00114*
X03334Y00103*
X03341Y00093*
X03351Y00086*
X03362Y00081*
X03369Y0008*
Y0012*
G37*
G36*
X03275Y00171D02*
X03263Y0017D01*
X03252Y00165*
X03243Y00158*
X03235Y00148*
X03231Y00137*
X03229Y00125*
X03231Y00114*
X03235Y00103*
X03243Y00093*
X03252Y00086*
X03263Y00081*
X03275Y0008*
X03287Y00081*
X03298Y00086*
X03307Y00093*
X03315Y00103*
X03319Y00114*
X03321Y00125*
X03319Y00137*
X03315Y00148*
X03307Y00158*
X03298Y00165*
X03287Y0017*
X03275Y00171*
G37*
G36*
X03177D02*
X03165Y0017D01*
X03154Y00165*
X03144Y00158*
X03137Y00148*
X03132Y00137*
X03131Y00125*
X03132Y00114*
X03137Y00103*
X03144Y00093*
X03154Y00086*
X03165Y00081*
X03177Y0008*
X03189Y00081*
X032Y00086*
X03209Y00093*
X03216Y00103*
X03221Y00114*
X03222Y00125*
X03221Y00137*
X03216Y00148*
X03209Y00158*
X032Y00165*
X03189Y0017*
X03177Y00171*
G37*
G36*
X0014Y00089D02*
X00138Y00089D01*
X00132Y00085*
X00129Y00079*
X00127Y00079*
X00123Y00079*
X0012Y00084*
X00114Y00088*
X00112Y00088*
Y00071*
Y00054*
X00114Y00054*
X0012Y00058*
X00123Y00064*
X00125Y00064*
X00129Y00064*
X00132Y00059*
X00138Y00055*
X0014Y00054*
Y00072*
Y00089*
G37*
G36*
X00191Y00088D02*
Y00076D01*
X00203*
X00203Y00078*
X00199Y00084*
X00193Y00088*
X00191Y00088*
G37*
G36*
X00102D02*
X001Y00088D01*
X00094Y00084*
X0009Y00078*
X0009Y00076*
X00102*
Y00088*
G37*
G36*
X00203Y00066D02*
X00191D01*
Y00054*
X00193Y00054*
X00199Y00058*
X00203Y00064*
X00203Y00066*
G37*
G36*
X0015Y00089D02*
Y00072D01*
Y00054*
X00152Y00055*
X00158Y00059*
X00162Y00065*
X00163Y00068*
X00163Y0007*
X00168*
X00168Y00068*
X00169Y00064*
X00173Y00058*
X00179Y00054*
X00181Y00054*
Y00071*
Y00088*
X00179Y00088*
X00173Y00084*
X00169Y00078*
X00169Y00075*
X00168Y00073*
X00163*
X00163Y00075*
X00162Y00079*
X00158Y00085*
X00152Y00089*
X0015Y00089*
G37*
G36*
X00102Y00066D02*
X0009D01*
X0009Y00064*
X00094Y00058*
X001Y00054*
X00102Y00054*
Y00066*
G37*
G36*
X02405Y00092D02*
X02398Y00091D01*
X02391Y00088*
X02386Y00084*
X02381Y00078*
X02378Y00071*
X02378Y00064*
X02378Y00057*
X02381Y0005*
X02386Y00044*
X02391Y0004*
X02398Y00037*
X02405Y00036*
X02413Y00037*
X02419Y0004*
X02425Y00044*
X02429Y0005*
X02432Y00057*
X02433Y00064*
X02432Y00071*
X02429Y00078*
X02425Y00084*
X02419Y00088*
X02413Y00091*
X02405Y00092*
G37*
G36*
X01422Y00066D02*
X01415Y00065D01*
X01408Y00062*
X01402Y00058*
X01398Y00052*
X01395Y00045*
X01394Y00038*
X01395Y00031*
X01398Y00024*
X01402Y00018*
X01408Y00014*
X01415Y00011*
X01422Y0001*
X01429Y00011*
X01436Y00014*
X01442Y00018*
X01446Y00024*
X01449Y00031*
X0145Y00038*
X01449Y00045*
X01446Y00052*
X01442Y00058*
X01436Y00062*
X01429Y00065*
X01422Y00066*
G37*
G36*
X0014Y00019D02*
X00138Y00018D01*
X00132Y00014*
X00129Y00009*
X00127Y00009*
X00123Y00009*
X0012Y00014*
X00114Y00018*
X00112Y00018*
Y00001*
Y-00015*
X00114Y-00015*
X0012Y-00011*
X00123Y-00005*
X00125Y-00005*
X00129Y-00005*
X00132Y-0001*
X00138Y-00014*
X0014Y-00015*
Y00001*
Y00019*
G37*
G36*
X00191Y00018D02*
Y00006D01*
X00203*
X00203Y00008*
X00199Y00014*
X00193Y00018*
X00191Y00018*
G37*
G36*
X00102D02*
X001Y00018D01*
X00094Y00014*
X0009Y00008*
X0009Y00006*
X00102*
Y00018*
G37*
G36*
X01069Y00082D02*
X00981D01*
Y-00005*
X01069*
Y00082*
G37*
G36*
X00925Y00082D02*
X00914Y00081D01*
X00903Y00076*
X00894Y00069*
X00887Y0006*
X00882Y00049*
X00881Y00038*
X00882Y00026*
X00887Y00016*
X00894Y00007*
X00903Y0*
X00914Y-00004*
X00925Y-00005*
X00937Y-00004*
X00947Y0*
X00956Y00007*
X00964Y00016*
X00968Y00026*
X00969Y00038*
X00968Y00049*
X00964Y0006*
X00956Y00069*
X00947Y00076*
X00937Y00081*
X00925Y00082*
G37*
G36*
X02109Y00087D02*
X02102Y00086D01*
X02096Y00084*
X0209Y00079*
X02085Y00073*
X02083Y00067*
X02082Y0006*
X02083Y00052*
X02083Y00051*
X02081Y00045*
X02077Y00043*
X02072Y00039*
X02067Y00033*
X02065Y00026*
X02064Y00019*
X02065Y00012*
X02067Y00005*
X02072Y0*
X02077Y-00004*
X02084Y-00007*
X02091Y-00008*
X02099Y-00007*
X02105Y-00004*
X02111Y0*
X02115Y00005*
X02118Y00012*
X02119Y00019*
X02118Y00026*
X02117Y00028*
X0212Y00034*
X02123Y00036*
X02129Y0004*
X02134Y00046*
X02136Y00052*
X02137Y0006*
X02136Y00067*
X02134Y00073*
X02129Y00079*
X02123Y00084*
X02117Y00086*
X02109Y00087*
G37*
G36*
X00203Y-00003D02*
X00191D01*
Y-00015*
X00193Y-00015*
X00199Y-00011*
X00203Y-00005*
X00203Y-00003*
G37*
G36*
X0015Y00019D02*
Y00001D01*
Y-00015*
X00152Y-00014*
X00158Y-0001*
X00162Y-00005*
X00163Y-00001*
X00163Y0*
X00168*
X00168Y-00001*
X00169Y-00005*
X00173Y-00011*
X00179Y-00015*
X00181Y-00015*
Y00001*
Y00018*
X00179Y00018*
X00173Y00014*
X00169Y00008*
X00169Y00004*
X00168Y00003*
X00163*
X00163Y00005*
X00162Y00008*
X00158Y00014*
X00152Y00018*
X0015Y00019*
G37*
G36*
X00102Y-00003D02*
X0009D01*
X0009Y-00005*
X00094Y-00011*
X001Y-00015*
X00102Y-00015*
Y-00003*
G37*
G36*
X01896Y00051D02*
X01889Y0005D01*
X01882Y00047*
X01876Y00042*
X01872Y00037*
X01869Y0003*
X01868Y00023*
X01869Y00016*
X01872Y00009*
X01876Y00003*
X01882Y0*
X01889Y-00003*
X01896Y-00004*
X019Y-00004*
X01904Y-00008*
X01904Y-00011*
X01905Y-00018*
X01907Y-00025*
X01912Y-00031*
X01917Y-00035*
X01924Y-00038*
X01931Y-00039*
X01939Y-00038*
X01945Y-00035*
X01951Y-00031*
X01955Y-00025*
X01958Y-00018*
X01959Y-00011*
X01958Y-00004*
X01955Y00002*
X01951Y00008*
X01945Y00012*
X01939Y00015*
X01931Y00016*
X01928Y00015*
X01924Y0002*
X01924Y00023*
X01923Y0003*
X0192Y00037*
X01916Y00042*
X0191Y00047*
X01903Y0005*
X01896Y00051*
G37*
G36*
X0014Y-00044D02*
X00138Y-00044D01*
X00132Y-00048*
X00129Y-00054*
X00127Y-00054*
X00123Y-00054*
X0012Y-00049*
X00114Y-00045*
X00112Y-00044*
Y-00062*
Y-00079*
X00114Y-00078*
X0012Y-00075*
X00123Y-00069*
X00125Y-00069*
X00129Y-00069*
X00132Y-00074*
X00138Y-00078*
X0014Y-00078*
Y-00061*
Y-00044*
G37*
G36*
X00191Y-00044D02*
Y-00057D01*
X00203*
X00203Y-00055*
X00199Y-00049*
X00193Y-00045*
X00191Y-00044*
G37*
G36*
X00102D02*
X001Y-00045D01*
X00094Y-00049*
X0009Y-00055*
X0009Y-00057*
X00102*
Y-00044*
G37*
G36*
X037Y00079D02*
X03685Y00077D01*
X0367Y00073*
X03656Y00065*
X03644Y00056*
X03634Y00044*
X03627Y0003*
X03623Y00015*
X03621Y0*
X03623Y-00015*
X03627Y-0003*
X03634Y-00044*
X03644Y-00056*
X03656Y-00065*
X0367Y-00073*
X03685Y-00077*
X037Y-00079*
X03716Y-00077*
X03731Y-00073*
X03744Y-00065*
X03756Y-00056*
X03766Y-00044*
X03774Y-0003*
X03778Y-00015*
X0378Y0*
X03778Y00015*
X03774Y0003*
X03766Y00044*
X03756Y00056*
X03744Y00065*
X03731Y00073*
X03716Y00077*
X037Y00079*
G37*
G36*
X0D02*
X-00015Y00077D01*
X-0003Y00073*
X-00044Y00065*
X-00056Y00056*
X-00065Y00044*
X-00073Y0003*
X-00077Y00015*
X-00079Y0*
X-00077Y-00015*
X-00073Y-0003*
X-00065Y-00044*
X-00056Y-00056*
X-00044Y-00065*
X-0003Y-00073*
X-00015Y-00077*
X0Y-00079*
X00015Y-00077*
X0003Y-00073*
X00044Y-00065*
X00056Y-00056*
X00065Y-00044*
X00073Y-0003*
X00077Y-00015*
X00079Y0*
X00077Y00015*
X00073Y0003*
X00065Y00044*
X00056Y00056*
X00044Y00065*
X0003Y00073*
X00015Y00077*
X0Y00079*
G37*
G36*
X00203Y-00067D02*
X00191D01*
Y-00079*
X00193Y-00078*
X00199Y-00075*
X00203Y-00069*
X00203Y-00067*
G37*
G36*
X0015Y-00044D02*
Y-00061D01*
Y-00078*
X00152Y-00078*
X00158Y-00074*
X00162Y-00068*
X00163Y-00065*
X00163Y-00063*
X00168*
X00168Y-00065*
X00169Y-00069*
X00173Y-00075*
X00179Y-00078*
X00181Y-00079*
Y-00062*
Y-00044*
X00179Y-00045*
X00173Y-00049*
X00169Y-00055*
X00169Y-00058*
X00168Y-0006*
X00163*
X00163Y-00058*
X00162Y-00054*
X00158Y-00048*
X00152Y-00044*
X0015Y-00044*
G37*
G36*
X00102Y-00067D02*
X0009D01*
X0009Y-00069*
X00094Y-00075*
X001Y-00078*
X00102Y-00079*
Y-00067*
G37*
G36*
X01951Y-00079D02*
Y-00092D01*
X01963*
X01962Y-0009*
X01958Y-00084*
X01953Y-0008*
X01951Y-00079*
G37*
G36*
X01941D02*
X01939Y-0008D01*
X01933Y-00084*
X01929Y-0009*
X01928Y-00094*
X01927Y-00094*
X01923Y-00094*
X01919Y-0009*
X01914Y-00086*
X01912Y-00085*
Y-00103*
Y-0012*
X01914Y-00119*
X01919Y-00115*
X01923Y-0011*
X01924Y-00105*
X01925Y-00105*
X01929Y-00105*
X01933Y-0011*
X01939Y-00113*
X01941Y-00114*
Y-00097*
Y-00079*
G37*
G36*
X01902Y-00085D02*
X019Y-00086D01*
X01894Y-0009*
X0189Y-00096*
X01889Y-00098*
X01902*
Y-00085*
G37*
G36*
X00858Y-0002D02*
X00851Y-00021D01*
X00844Y-00024*
X00839Y-00028*
X00834Y-00034*
X00831Y-00041*
X0083Y-00048*
X00831Y-00055*
X00834Y-0006*
X00832Y-00065*
X00831Y-00072*
X00832Y-00079*
X00834Y-00086*
X00839Y-00092*
X00845Y-00096*
X00851Y-00099*
X00859Y-001*
X00866Y-00099*
X00872Y-00096*
X00878Y-00092*
X00883Y-00086*
X00885Y-00079*
X00886Y-00072*
X00885Y-00065*
X00883Y-0006*
X00885Y-00055*
X00886Y-00048*
X00885Y-00041*
X00882Y-00034*
X00878Y-00028*
X00872Y-00024*
X00865Y-00021*
X00858Y-0002*
G37*
G36*
X00554Y-00091D02*
Y-00104D01*
X00566*
X00566Y-00102*
X00562Y-00096*
X00556Y-00092*
X00554Y-00091*
G37*
G36*
X00544D02*
X00542Y-00092D01*
X00536Y-00096*
X00532Y-00102*
X00532Y-00104*
X00544*
Y-00091*
G37*
G36*
X01963Y-00102D02*
X01951D01*
Y-00114*
X01953Y-00113*
X01958Y-0011*
X01962Y-00104*
X01963Y-00102*
G37*
G36*
X0122Y-00027D02*
X01208Y-00028D01*
X01197Y-00033*
X01188Y-0004*
X0118Y-0005*
X01176Y-00061*
X01174Y-00073*
X01176Y-00084*
X0118Y-00096*
X01188Y-00105*
X01197Y-00112*
X01208Y-00117*
X0122Y-00118*
X01232Y-00117*
X01243Y-00112*
X01253Y-00105*
X0126Y-00096*
X01264Y-00084*
X01266Y-00073*
X01264Y-00061*
X0126Y-0005*
X01253Y-0004*
X01243Y-00033*
X01232Y-00028*
X0122Y-00027*
G37*
G36*
X01902Y-00108D02*
X01889D01*
X0189Y-0011*
X01894Y-00115*
X019Y-00119*
X01902Y-0012*
Y-00108*
G37*
G36*
X01338Y-00031D02*
X01327Y-00033D01*
X01315Y-00037*
X01306Y-00045*
X01299Y-00054*
X01294Y-00065*
X01293Y-00077*
X01294Y-00089*
X01299Y-001*
X01306Y-00109*
X01315Y-00117*
X01327Y-00121*
X01338Y-00123*
X0135Y-00121*
X01361Y-00117*
X01371Y-00109*
X01378Y-001*
X01383Y-00089*
X01384Y-00077*
X01383Y-00065*
X01378Y-00054*
X01371Y-00045*
X01361Y-00037*
X0135Y-00033*
X01338Y-00031*
G37*
G36*
X00566Y-00114D02*
X00554D01*
Y-00126*
X00556Y-00126*
X00562Y-00122*
X00566Y-00116*
X00566Y-00114*
G37*
G36*
X00544D02*
X00532D01*
X00532Y-00116*
X00536Y-00122*
X00542Y-00126*
X00544Y-00126*
Y-00114*
G37*
G36*
X02138Y-00076D02*
X02131Y-00077D01*
X02124Y-00079*
X02118Y-00084*
X02114Y-0009*
X02111Y-00096*
X0211Y-00104*
X02111Y-00111*
X02114Y-00117*
X02118Y-00123*
X02124Y-00128*
X02131Y-0013*
X02138Y-00131*
X02145Y-0013*
X02152Y-00128*
X02157Y-00123*
X02162Y-00117*
X02165Y-00111*
X02166Y-00104*
X02165Y-00096*
X02162Y-0009*
X02157Y-00084*
X02152Y-00079*
X02145Y-00077*
X02138Y-00076*
G37*
G36*
X0014Y-00122D02*
X00138Y-00123D01*
X00132Y-00127*
X00129Y-00132*
X00127Y-00133*
X00123Y-00132*
X0012Y-00127*
X00114Y-00123*
X00112Y-00123*
Y-0014*
Y-00157*
X00114Y-00157*
X0012Y-00153*
X00123Y-00148*
X00125Y-00147*
X00129Y-00147*
X00132Y-00152*
X00138Y-00156*
X0014Y-00157*
Y-0014*
Y-00122*
G37*
G36*
X00191Y-00123D02*
Y-00135D01*
X00203*
X00203Y-00133*
X00199Y-00127*
X00193Y-00123*
X00191Y-00123*
G37*
G36*
X00102D02*
X001Y-00123D01*
X00094Y-00127*
X0009Y-00133*
X0009Y-00135*
X00102*
Y-00123*
G37*
G36*
X00203Y-00145D02*
X00191D01*
Y-00157*
X00193Y-00157*
X00199Y-00153*
X00203Y-00147*
X00203Y-00145*
G37*
G36*
X0015Y-00122D02*
Y-0014D01*
Y-00157*
X00152Y-00156*
X00158Y-00152*
X00162Y-00147*
X00163Y-00143*
X00163Y-00141*
X00168*
X00168Y-00143*
X00169Y-00147*
X00173Y-00153*
X00179Y-00157*
X00181Y-00157*
Y-0014*
Y-00123*
X00179Y-00123*
X00173Y-00127*
X00169Y-00133*
X00169Y-00137*
X00168Y-00138*
X00163*
X00163Y-00137*
X00162Y-00133*
X00158Y-00127*
X00152Y-00123*
X0015Y-00122*
G37*
G36*
X00102Y-00145D02*
X0009D01*
X0009Y-00147*
X00094Y-00153*
X001Y-00157*
X00102Y-00157*
Y-00145*
G37*
G36*
X01695Y-00173D02*
X01688Y-00174D01*
X01681Y-00176*
X01675Y-00181*
X01675Y-00181*
X01674*
X01668Y-00177*
X01662Y-00174*
X01655Y-00173*
X01647Y-00174*
X01641Y-00177*
X01635Y-00181*
X01631Y-00187*
X01628Y-00194*
X01627Y-00201*
X01628Y-00208*
X01631Y-00215*
X01635Y-0022*
X01641Y-00225*
X01647Y-00228*
X01655Y-00229*
X01662Y-00228*
X01668Y-00225*
X01674Y-0022*
X01675Y-0022*
X01675*
X01681Y-00224*
X01688Y-00227*
X01694Y-00228*
Y-00233*
X01688Y-00234*
X01681Y-00237*
X01676Y-00241*
X01671Y-00247*
X01669Y-00252*
X01665Y-00252*
X01657Y-00253*
X01651Y-00255*
X01645Y-0026*
X01641Y-00266*
X01638Y-00272*
X01637Y-00279*
X01638Y-00287*
X01641Y-00293*
X01645Y-00299*
X01651Y-00304*
X01657Y-00306*
X01665Y-00307*
X01672Y-00306*
X01679Y-00304*
X01684Y-00299*
X01689Y-00293*
X01691Y-00288*
X01695Y-00289*
X01703Y-00288*
X01709Y-00285*
X01715Y-0028*
X01719Y-00275*
X01722Y-00268*
X01723Y-00261*
X01722Y-00254*
X01719Y-00247*
X01715Y-00241*
X01709Y-00237*
X01703Y-00234*
X01696Y-00233*
Y-00228*
X01702Y-00227*
X01709Y-00224*
X01714Y-0022*
X01719Y-00214*
X01722Y-00208*
X01723Y-002*
X01722Y-00193*
X01719Y-00186*
X01714Y-00181*
X01709Y-00176*
X01702Y-00174*
X01695Y-00173*
G37*
G36*
X03449Y-00138D02*
Y-00235D01*
X03547*
X03545Y-0022*
X03539Y-002*
X0353Y-00183*
X03517Y-00167*
X03501Y-00154*
X03484Y-00145*
X03464Y-00139*
X03449Y-00138*
G37*
G36*
X03439D02*
X03424Y-00139D01*
X03405Y-00145*
X03387Y-00154*
X03372Y-00167*
X03359Y-00183*
X0335Y-002*
X03344Y-0022*
X03342Y-00235*
X03439*
Y-00138*
G37*
G36*
X03103D02*
Y-00235D01*
X032*
X03199Y-0022*
X03193Y-002*
X03183Y-00183*
X0317Y-00167*
X03155Y-00154*
X03137Y-00145*
X03118Y-00139*
X03103Y-00138*
G37*
G36*
X03093D02*
X03078Y-00139D01*
X03059Y-00145*
X03041Y-00154*
X03025Y-00167*
X03013Y-00183*
X03003Y-002*
X02997Y-0022*
X02996Y-00235*
X03093*
Y-00138*
G37*
G36*
X02816Y-00141D02*
Y-00239D01*
X02913*
X02911Y-00224*
X02905Y-00204*
X02896Y-00187*
X02883Y-00171*
X02868Y-00158*
X0285Y-00149*
X02831Y-00143*
X02816Y-00141*
G37*
G36*
X02806D02*
X02791Y-00143D01*
X02771Y-00149*
X02754Y-00158*
X02738Y-00171*
X02725Y-00187*
X02716Y-00204*
X0271Y-00224*
X02708Y-00239*
X02806*
Y-00141*
G37*
G36*
X02469D02*
Y-00239D01*
X02566*
X02565Y-00224*
X02559Y-00204*
X02549Y-00187*
X02537Y-00171*
X02521Y-00158*
X02503Y-00149*
X02484Y-00143*
X02469Y-00141*
G37*
G36*
X02459D02*
X02444Y-00143D01*
X02425Y-00149*
X02407Y-00158*
X02392Y-00171*
X02379Y-00187*
X02369Y-00204*
X02363Y-00224*
X02362Y-00239*
X02459*
Y-00141*
G37*
G36*
X0219Y-00125D02*
X02182Y-00125D01*
X02176Y-00128*
X0217Y-00133*
X02165Y-00138*
X02163Y-00145*
X02162Y-00152*
X02163Y-0016*
X02165Y-00166*
X02168Y-00169*
X02164Y-00174*
X02161Y-00181*
X0216Y-00188*
X02161Y-00195*
X02164Y-00202*
X02166Y-00204*
X02169Y-00207*
X02166Y-00211*
X02164Y-00213*
X02161Y-0022*
X0216Y-00227*
X02161Y-00234*
X02164Y-00241*
X02169Y-00247*
X02174Y-00251*
X02181Y-00254*
X02188Y-00255*
X02195Y-00254*
X02202Y-00251*
X02208Y-00247*
X02212Y-00241*
X02215Y-00234*
X02216Y-00227*
X02215Y-0022*
X02212Y-00213*
X02208Y-00208*
X02208Y-00207*
Y-00207*
X02212Y-00202*
X02215Y-00195*
X02216Y-00188*
X02215Y-00181*
X02212Y-00174*
X0221Y-00171*
X02214Y-00166*
X02216Y-0016*
X02217Y-00152*
X02216Y-00145*
X02214Y-00138*
X02209Y-00133*
X02203Y-00128*
X02197Y-00125*
X0219Y-00125*
G37*
G36*
X0133Y-00209D02*
X01323Y-0021D01*
X01316Y-00213*
X0131Y-00218*
X01306Y-00223*
X01303Y-0023*
X01302Y-00237*
X01303Y-00244*
X01306Y-00251*
X0131Y-00257*
X01316Y-00261*
X01323Y-00264*
X0133Y-00265*
X01337Y-00264*
X01344Y-00261*
X01349Y-00257*
X01354Y-00251*
X01357Y-00244*
X01358Y-00237*
X01357Y-0023*
X01354Y-00223*
X01349Y-00218*
X01344Y-00213*
X01337Y-0021*
X0133Y-00209*
G37*
G36*
X01899Y-00218D02*
X01892Y-00219D01*
X01885Y-00222*
X01879Y-00226*
X01875Y-00232*
X01872Y-00238*
X01871Y-00246*
X01872Y-00253*
X01875Y-00259*
X01879Y-00265*
X01885Y-0027*
X01892Y-00272*
X01899Y-00273*
X01906Y-00272*
X01913Y-0027*
X01919Y-00265*
X01923Y-00259*
X01926Y-00253*
X01927Y-00246*
X01926Y-00238*
X01923Y-00232*
X01919Y-00226*
X01913Y-00222*
X01906Y-00219*
X01899Y-00218*
G37*
G36*
X01446Y-00288D02*
Y-003D01*
X01459*
X01458Y-00298*
X01454Y-00292*
X01448Y-00288*
X01446Y-00288*
G37*
G36*
X01436D02*
X01434Y-00288D01*
X01429Y-00292*
X01425Y-00298*
X01424Y-003*
X01436*
Y-00288*
G37*
G36*
X00273Y-00178D02*
X0015D01*
Y-00302*
X00273*
Y-00178*
G37*
G36*
X0014D02*
X00017D01*
Y-00302*
X0014*
Y-00178*
G37*
G36*
X01459Y-0031D02*
X01446D01*
Y-00322*
X01448Y-00322*
X01454Y-00318*
X01458Y-00312*
X01459Y-0031*
G37*
G36*
X01436D02*
X01424D01*
X01425Y-00312*
X01429Y-00318*
X01434Y-00322*
X01436Y-00322*
Y-0031*
G37*
G36*
X0072Y-00296D02*
Y-0033D01*
X00754*
X00753Y-00325*
X00749Y-00315*
X00743Y-00307*
X00735Y-003*
X00725Y-00296*
X0072Y-00296*
G37*
G36*
X0071D02*
X00705Y-00296D01*
X00695Y-003*
X00687Y-00307*
X0068Y-00315*
X00676Y-00325*
X00676Y-0033*
X0071*
Y-00296*
G37*
G36*
X03547Y-00245D02*
X03449D01*
Y-00342*
X03464Y-0034*
X03484Y-00334*
X03501Y-00325*
X03517Y-00312*
X0353Y-00297*
X03539Y-00279*
X03545Y-0026*
X03547Y-00245*
G37*
G36*
X03439D02*
X03342D01*
X03344Y-0026*
X0335Y-00279*
X03359Y-00297*
X03372Y-00312*
X03387Y-00325*
X03405Y-00334*
X03424Y-0034*
X03439Y-00342*
Y-00245*
G37*
G36*
X032D02*
X03103D01*
Y-00342*
X03118Y-0034*
X03137Y-00334*
X03155Y-00325*
X0317Y-00312*
X03183Y-00297*
X03193Y-00279*
X03199Y-0026*
X032Y-00245*
G37*
G36*
X03093D02*
X02996D01*
X02997Y-0026*
X03003Y-00279*
X03013Y-00297*
X03025Y-00312*
X03041Y-00325*
X03059Y-00334*
X03078Y-0034*
X03093Y-00342*
Y-00245*
G37*
G36*
X02913Y-00249D02*
X02816D01*
Y-00346*
X02831Y-00344*
X0285Y-00338*
X02868Y-00329*
X02883Y-00316*
X02896Y-00301*
X02905Y-00283*
X02911Y-00264*
X02913Y-00249*
G37*
G36*
X02806D02*
X02708D01*
X0271Y-00264*
X02716Y-00283*
X02725Y-00301*
X02738Y-00316*
X02754Y-00329*
X02771Y-00338*
X02791Y-00344*
X02806Y-00346*
Y-00249*
G37*
G36*
X02566D02*
X02469D01*
Y-00346*
X02484Y-00344*
X02503Y-00338*
X02521Y-00329*
X02537Y-00316*
X02549Y-00301*
X02559Y-00283*
X02565Y-00264*
X02566Y-00249*
G37*
G36*
X02459D02*
X02362D01*
X02363Y-00264*
X02369Y-00283*
X02379Y-00301*
X02392Y-00316*
X02407Y-00329*
X02425Y-00338*
X02444Y-00344*
X02459Y-00346*
Y-00249*
G37*
G36*
X00754Y-0034D02*
X0072D01*
Y-00374*
X00725Y-00373*
X00735Y-00369*
X00743Y-00363*
X00749Y-00355*
X00753Y-00345*
X00754Y-0034*
G37*
G36*
X0071D02*
X00676D01*
X00676Y-00345*
X0068Y-00355*
X00687Y-00363*
X00695Y-00369*
X00705Y-00373*
X0071Y-00374*
Y-0034*
G37*
G36*
X01207Y-00295D02*
X01197Y-00296D01*
X01187Y-003*
X01179Y-00307*
X01172Y-00315*
X01168Y-00325*
X01167Y-00335*
X01168Y-00345*
X01172Y-00355*
X01179Y-00363*
X01187Y-00369*
X01197Y-00373*
X01207Y-00375*
X01217Y-00373*
X01227Y-00369*
X01235Y-00363*
X01242Y-00355*
X01245Y-00345*
X01247Y-00335*
X01245Y-00325*
X01242Y-00315*
X01235Y-00307*
X01227Y-003*
X01217Y-00296*
X01207Y-00295*
G37*
G36*
X01109D02*
X01098Y-00296D01*
X01089Y-003*
X0108Y-00307*
X01074Y-00315*
X0107Y-00325*
X01069Y-00335*
X0107Y-00345*
X01074Y-00355*
X0108Y-00363*
X01089Y-00369*
X01098Y-00373*
X01109Y-00375*
X01119Y-00373*
X01128Y-00369*
X01137Y-00363*
X01143Y-00355*
X01147Y-00345*
X01148Y-00335*
X01147Y-00325*
X01143Y-00315*
X01137Y-00307*
X01128Y-003*
X01119Y-00296*
X01109Y-00295*
G37*
G36*
X0101D02*
X01Y-00296D01*
X0099Y-003*
X00982Y-00307*
X00976Y-00315*
X00972Y-00325*
X0097Y-00335*
X00972Y-00345*
X00976Y-00355*
X00982Y-00363*
X0099Y-00369*
X01Y-00373*
X0101Y-00375*
X0102Y-00373*
X0103Y-00369*
X01038Y-00363*
X01045Y-00355*
X01049Y-00345*
X0105Y-00335*
X01049Y-00325*
X01045Y-00315*
X01038Y-00307*
X0103Y-003*
X0102Y-00296*
X0101Y-00295*
G37*
G36*
X00912D02*
X00901Y-00296D01*
X00892Y-003*
X00884Y-00307*
X00877Y-00315*
X00873Y-00325*
X00872Y-00335*
X00873Y-00345*
X00877Y-00355*
X00884Y-00363*
X00892Y-00369*
X00901Y-00373*
X00912Y-00375*
X00922Y-00373*
X00932Y-00369*
X0094Y-00363*
X00946Y-00355*
X0095Y-00345*
X00952Y-00335*
X0095Y-00325*
X00946Y-00315*
X0094Y-00307*
X00932Y-003*
X00922Y-00296*
X00912Y-00295*
G37*
G36*
X00813D02*
X00803Y-00296D01*
X00793Y-003*
X00785Y-00307*
X00779Y-00315*
X00775Y-00325*
X00773Y-00335*
X00775Y-00345*
X00779Y-00355*
X00785Y-00363*
X00793Y-00369*
X00803Y-00373*
X00813Y-00375*
X00824Y-00373*
X00833Y-00369*
X00841Y-00363*
X00848Y-00355*
X00852Y-00345*
X00853Y-00335*
X00852Y-00325*
X00848Y-00315*
X00841Y-00307*
X00833Y-003*
X00824Y-00296*
X00813Y-00295*
G37*
G36*
X01642Y-00326D02*
X01635Y-00327D01*
X01628Y-00329*
X01622Y-00334*
X01618Y-0034*
X01615Y-00346*
X01614Y-00354*
X01615Y-00361*
X01618Y-00367*
X01622Y-00373*
X01628Y-00378*
X01635Y-0038*
X01642Y-00381*
X01649Y-0038*
X01656Y-00378*
X01661Y-00373*
X01666Y-00367*
X01669Y-00361*
X0167Y-00354*
X01669Y-00346*
X01666Y-0034*
X01661Y-00334*
X01656Y-00329*
X01649Y-00327*
X01642Y-00326*
G37*
G36*
X01503Y-00326D02*
X01496Y-00327D01*
X0149Y-0033*
X01484Y-00334*
X01479Y-0034*
X01477Y-00347*
X01476Y-00354*
X01477Y-00361*
X01479Y-00368*
X01484Y-00373*
X0149Y-00378*
X01496Y-00381*
X01503Y-00382*
X01511Y-00381*
X01517Y-00378*
X01523Y-00373*
X01528Y-00368*
X0153Y-00361*
X01531Y-00354*
X0153Y-00347*
X01528Y-0034*
X01523Y-00334*
X01517Y-0033*
X01511Y-00327*
X01503Y-00326*
G37*
G36*
X01923Y-00359D02*
X01916Y-0036D01*
X01909Y-00363*
X01903Y-00367*
X01899Y-00373*
X01896Y-0038*
X01895Y-00387*
X01896Y-00394*
X01899Y-00401*
X01903Y-00407*
X01909Y-00411*
X0191Y-00411*
X01909Y-00413*
X01908Y-00421*
X01908Y-00422*
X01908Y-00422*
X01903Y-00426*
X01899Y-00424*
X01892Y-00423*
X01884Y-00424*
X01878Y-00426*
X01872Y-00431*
X01867Y-00437*
X01865Y-00443*
X01864Y-0045*
X01865Y-00458*
X01867Y-00464*
X01869Y-00467*
X01869Y-00467*
X01864Y-00473*
X01862Y-0048*
X01862Y-00481*
X0186Y-00481*
X01853Y-00482*
X01847Y-00485*
X01841Y-00489*
X01836Y-00495*
X01834Y-00501*
X01833Y-00509*
X01834Y-00516*
X01835Y-00518*
X01831Y-00523*
X01831Y-00523*
X01824Y-00524*
X01817Y-00526*
X01811Y-00531*
X01811Y-00532*
X01804Y-00532*
X01801Y-0053*
X01794Y-00528*
X01794Y-00527*
X01794Y-00526*
X01793Y-00519*
X0179Y-00512*
X01786Y-00506*
X0178Y-00502*
X01773Y-00499*
X01766Y-00498*
X01759Y-00499*
X01752Y-00502*
X01746Y-00506*
X01742Y-00512*
X01739Y-00519*
X01738Y-00526*
X01739Y-00533*
X01742Y-0054*
X01746Y-00546*
X01752Y-0055*
X01759Y-00553*
X0176Y-00553*
X01759Y-00554*
X0176Y-00562*
X01763Y-00568*
X01768Y-00574*
X01773Y-00578*
X0178Y-00581*
X01787Y-00582*
X01794Y-00581*
X01797Y-0058*
X01801Y-00584*
X018Y-00586*
X01799Y-00593*
X018Y-006*
X01803Y-00607*
X01807Y-00612*
X01813Y-00617*
X0182Y-0062*
X01827Y-00621*
X01834Y-0062*
X01841Y-00617*
X01847Y-00612*
X01851Y-00607*
X01854Y-006*
X01855Y-00593*
X01854Y-00586*
X01851Y-00579*
X01847Y-00573*
X0185Y-0057*
X01851Y-00569*
X01852Y-0057*
X01859Y-00573*
X01866Y-00573*
X01874Y-00573*
X0188Y-0057*
X01886Y-00565*
X0189Y-0056*
X01893Y-00553*
X01894Y-00546*
X01893Y-00538*
X0189Y-00532*
X01886Y-00526*
X01883Y-00524*
X01885Y-00523*
X01887Y-00516*
X01887Y-00515*
X01889Y-00515*
X01896Y-00514*
X01902Y-00511*
X01908Y-00507*
X01913Y-00501*
X01915Y-00494*
X01916Y-00487*
X01916Y-00485*
X01921Y-00482*
X01923Y-00483*
X0193Y-00484*
X01937Y-00483*
X01944Y-0048*
X0195Y-00476*
X01954Y-0047*
X01957Y-00463*
X01958Y-00456*
X01957Y-00449*
X01954Y-00442*
X01954Y-00441*
X01955Y-0044*
X0196Y-00435*
X01962Y-00428*
X01963Y-00421*
X01962Y-00413*
X0196Y-00407*
X01955Y-00401*
X01949Y-00397*
X01949Y-00396*
X0195Y-00394*
X01951Y-00387*
X0195Y-0038*
X01947Y-00373*
X01943Y-00367*
X01937Y-00363*
X0193Y-0036*
X01923Y-00359*
G37*
G36*
X00273Y-00312D02*
X0015D01*
Y-00435*
X00273*
Y-00312*
G37*
G36*
X0014D02*
X00017D01*
Y-00435*
X0014*
Y-00312*
G37*
G36*
X00429Y-00178D02*
X00409Y-0018D01*
X00389Y-00184*
X0037Y-00192*
X00353Y-00203*
X00338Y-00216*
X00325Y-00231*
X00314Y-00248*
X00306Y-00267*
X00302Y-00286*
X003Y-00307*
X00302Y-00327*
X00306Y-00346*
X00314Y-00365*
X00325Y-00382*
X00338Y-00397*
X00353Y-00411*
X0037Y-00421*
X00389Y-00429*
X00409Y-00434*
X00429Y-00435*
X00449Y-00434*
X00468Y-00429*
X00487Y-00421*
X00504Y-00411*
X0052Y-00397*
X00533Y-00382*
X00543Y-00365*
X00551Y-00346*
X00556Y-00327*
X00557Y-00307*
X00556Y-00286*
X00551Y-00267*
X00543Y-00248*
X00533Y-00231*
X0052Y-00216*
X00504Y-00203*
X00487Y-00192*
X00468Y-00184*
X00449Y-0018*
X00429Y-00178*
G37*
G36*
X01379Y-00467D02*
Y-00479D01*
X01391*
X0139Y-00477*
X01386Y-00471*
X0138Y-00467*
X01379Y-00467*
G37*
G36*
X01369D02*
X01367Y-00467D01*
X01361Y-00471*
X01357Y-00477*
X01356Y-00479*
X01369*
Y-00467*
G37*
G36*
X01391Y-00489D02*
X01379D01*
Y-00501*
X0138Y-00501*
X01386Y-00497*
X0139Y-00491*
X01391Y-00489*
G37*
G36*
X01369D02*
X01356D01*
X01357Y-00491*
X01361Y-00497*
X01367Y-00501*
X01369Y-00501*
Y-00489*
G37*
G36*
X01232Y-00496D02*
Y-00508D01*
X01244*
X01244Y-00506*
X0124Y-005*
X01234Y-00496*
X01232Y-00496*
G37*
G36*
X01222D02*
X0122Y-00496D01*
X01214Y-005*
X0121Y-00506*
X0121Y-00508*
X01222*
Y-00496*
G37*
G36*
X03375Y-0047D02*
Y-0051D01*
X03415*
X03414Y-00503*
X03409Y-00492*
X03402Y-00483*
X03392Y-00476*
X03381Y-00471*
X03375Y-0047*
G37*
G36*
X03365D02*
X03358Y-00471D01*
X03347Y-00476*
X03337Y-00483*
X0333Y-00492*
X03325Y-00503*
X03324Y-0051*
X03365*
Y-0047*
G37*
G36*
X01685Y-00456D02*
X01677Y-00457D01*
X01671Y-0046*
X01665Y-00464*
X0166Y-0047*
X01658Y-00477*
X01657Y-00484*
X01658Y-00491*
X0166Y-00498*
X01665Y-00503*
X01671Y-00508*
X01677Y-00511*
X01685Y-00512*
X01692Y-00511*
X01698Y-00508*
X01704Y-00503*
X01709Y-00498*
X01711Y-00491*
X01712Y-00484*
X01711Y-00477*
X01709Y-0047*
X01704Y-00464*
X01698Y-0046*
X01692Y-00457*
X01685Y-00456*
G37*
G36*
X01643Y-00501D02*
Y-00513D01*
X01655*
X01654Y-00511*
X01651Y-00505*
X01645Y-00501*
X01643Y-00501*
G37*
G36*
X01633D02*
X01631Y-00501D01*
X01625Y-00505*
X01621Y-00511*
X0162Y-00513*
X01633*
Y-00501*
G37*
G36*
X02741Y-00474D02*
Y-00514D01*
X02781*
X0278Y-00507*
X02775Y-00496*
X02768Y-00487*
X02759Y-0048*
X02748Y-00475*
X02741Y-00474*
G37*
G36*
X02731D02*
X02724Y-00475D01*
X02713Y-0048*
X02703Y-00487*
X02696Y-00496*
X02691Y-00507*
X02691Y-00514*
X02731*
Y-00474*
G37*
G36*
X01993Y-00428D02*
X01986Y-00429D01*
X01979Y-00432*
X01973Y-00436*
X01969Y-00442*
X01966Y-00449*
X01965Y-00456*
X01966Y-00463*
X01969Y-0047*
X01973Y-00476*
X01979Y-0048*
X0198Y-00481*
X0198Y-00481*
X01979Y-00489*
X0198Y-00496*
X01982Y-00503*
X01987Y-00508*
X01993Y-00513*
X01999Y-00515*
X02007Y-00516*
X02014Y-00515*
X0202Y-00513*
X02026Y-00508*
X02031Y-00503*
X02033Y-00496*
X02034Y-00489*
X02033Y-00481*
X02031Y-00475*
X02026Y-00469*
X0202Y-00465*
X02019Y-00464*
X0202Y-00463*
X02021Y-00456*
X0202Y-00449*
X02017Y-00442*
X02012Y-00436*
X02007Y-00432*
X02Y-00429*
X01993Y-00428*
G37*
G36*
X02082Y-00511D02*
X02075Y-00512D01*
X02068Y-00515*
X02063Y-00519*
X02062Y-0052*
X02059Y-00517*
X02052Y-00514*
X02045Y-00514*
X02038Y-00514*
X02031Y-00517*
X02025Y-00522*
X02021Y-00527*
X02018Y-00534*
X02017Y-00541*
X02018Y-00549*
X02021Y-00555*
X02025Y-00561*
X02031Y-00565*
X02038Y-00568*
X02045Y-00569*
X02052Y-00568*
X02059Y-00565*
X02064Y-00561*
X02065Y-0056*
X02068Y-00563*
X02075Y-00566*
X02082Y-00567*
X02089Y-00566*
X02096Y-00563*
X02102Y-00559*
X02106Y-00553*
X02109Y-00546*
X0211Y-00539*
X02109Y-00532*
X02106Y-00525*
X02102Y-00519*
X02096Y-00515*
X02089Y-00512*
X02082Y-00511*
G37*
G36*
X01244Y-00518D02*
X01232D01*
Y-0053*
X01234Y-0053*
X0124Y-00526*
X01244Y-0052*
X01244Y-00518*
G37*
G36*
X01222D02*
X0121D01*
X0121Y-0052*
X01214Y-00526*
X0122Y-0053*
X01222Y-0053*
Y-00518*
G37*
G36*
X01434Y-00522D02*
Y-00534D01*
X01446*
X01445Y-00532*
X01442Y-00526*
X01436Y-00522*
X01434Y-00522*
G37*
G36*
X01424D02*
X01422Y-00522D01*
X01416Y-00526*
X01412Y-00532*
X01411Y-00534*
X01424*
Y-00522*
G37*
G36*
X01655Y-00523D02*
X01643D01*
Y-00535*
X01645Y-00535*
X01651Y-00531*
X01654Y-00525*
X01655Y-00523*
G37*
G36*
X01633D02*
X0162D01*
X01621Y-00525*
X01625Y-00531*
X01631Y-00535*
X01633Y-00535*
Y-00523*
G37*
G36*
X01079Y-00483D02*
X01072Y-00484D01*
X01065Y-00487*
X0106Y-00491*
X01055Y-00497*
X01052Y-00503*
X01051Y-00511*
X01052Y-00518*
X01055Y-00525*
X0106Y-0053*
X01065Y-00535*
X01072Y-00538*
X01079Y-00538*
X01086Y-00538*
X01093Y-00535*
X01099Y-0053*
X01103Y-00525*
X01106Y-00518*
X01107Y-00511*
X01106Y-00503*
X01103Y-00497*
X01099Y-00491*
X01093Y-00487*
X01086Y-00484*
X01079Y-00483*
G37*
G36*
X00755Y-00531D02*
Y-00544D01*
X00767*
X00767Y-00542*
X00763Y-00536*
X00757Y-00532*
X00755Y-00531*
G37*
G36*
X00745D02*
X00743Y-00532D01*
X00737Y-00536*
X00733Y-00542*
X00733Y-00544*
X00745*
Y-00531*
G37*
G36*
X01446Y-00544D02*
X01434D01*
Y-00556*
X01436Y-00556*
X01442Y-00552*
X01445Y-00546*
X01446Y-00544*
G37*
G36*
X01424D02*
X01411D01*
X01412Y-00546*
X01416Y-00552*
X01422Y-00556*
X01424Y-00556*
Y-00544*
G37*
G36*
X03415Y-0052D02*
X03375D01*
Y-0056*
X03381Y-0056*
X03392Y-00555*
X03402Y-00548*
X03409Y-00538*
X03414Y-00527*
X03415Y-0052*
G37*
G36*
X03365D02*
X03324D01*
X03325Y-00527*
X0333Y-00538*
X03337Y-00548*
X03347Y-00555*
X03358Y-0056*
X03365Y-0056*
Y-0052*
G37*
G36*
X02306Y-00549D02*
Y-00561D01*
X02319*
X02318Y-00559*
X02314Y-00553*
X02308Y-00549*
X02306Y-00549*
G37*
G36*
X02296D02*
X02294Y-00549D01*
X02289Y-00553*
X02285Y-00559*
X02284Y-00561*
X02296*
Y-00549*
G37*
G36*
X03271Y-00469D02*
X03259Y-00471D01*
X03248Y-00476*
X03239Y-00483*
X03231Y-00492*
X03227Y-00503*
X03225Y-00515*
X03227Y-00527*
X03231Y-00538*
X03239Y-00548*
X03248Y-00555*
X03259Y-0056*
X03271Y-00561*
X03283Y-0056*
X03294Y-00555*
X03304Y-00548*
X03311Y-00538*
X03315Y-00527*
X03317Y-00515*
X03315Y-00503*
X03311Y-00492*
X03304Y-00483*
X03294Y-00476*
X03283Y-00471*
X03271Y-00469*
G37*
G36*
X03173D02*
X03161Y-00471D01*
X0315Y-00476*
X0314Y-00483*
X03133Y-00492*
X03128Y-00503*
X03127Y-00515*
X03128Y-00527*
X03133Y-00538*
X0314Y-00548*
X0315Y-00555*
X03161Y-0056*
X03173Y-00561*
X03185Y-0056*
X03196Y-00555*
X03205Y-00548*
X03212Y-00538*
X03217Y-00527*
X03219Y-00515*
X03217Y-00503*
X03212Y-00492*
X03205Y-00483*
X03196Y-00476*
X03185Y-00471*
X03173Y-00469*
G37*
G36*
X02781Y-00524D02*
X02741D01*
Y-00564*
X02748Y-00563*
X02759Y-00559*
X02768Y-00552*
X02775Y-00542*
X0278Y-00531*
X02781Y-00524*
G37*
G36*
X02731D02*
X02691D01*
X02691Y-00531*
X02696Y-00542*
X02703Y-00552*
X02713Y-00559*
X02724Y-00563*
X02731Y-00564*
Y-00524*
G37*
G36*
X02637Y-00473D02*
X02625Y-00475D01*
X02614Y-0048*
X02605Y-00487*
X02598Y-00496*
X02593Y-00507*
X02591Y-00519*
X02593Y-00531*
X02598Y-00542*
X02605Y-00552*
X02614Y-00559*
X02625Y-00563*
X02637Y-00565*
X02649Y-00563*
X0266Y-00559*
X0267Y-00552*
X02677Y-00542*
X02682Y-00531*
X02683Y-00519*
X02682Y-00507*
X02677Y-00496*
X0267Y-00487*
X0266Y-0048*
X02649Y-00475*
X02637Y-00473*
G37*
G36*
X02539D02*
X02527Y-00475D01*
X02516Y-0048*
X02506Y-00487*
X02499Y-00496*
X02495Y-00507*
X02493Y-00519*
X02495Y-00531*
X02499Y-00542*
X02506Y-00552*
X02516Y-00559*
X02527Y-00563*
X02539Y-00565*
X02551Y-00563*
X02562Y-00559*
X02571Y-00552*
X02579Y-00542*
X02583Y-00531*
X02585Y-00519*
X02583Y-00507*
X02579Y-00496*
X02571Y-00487*
X02562Y-0048*
X02551Y-00475*
X02539Y-00473*
G37*
G36*
X00767Y-00554D02*
X00755D01*
Y-00566*
X00757Y-00565*
X00763Y-00561*
X00767Y-00556*
X00767Y-00554*
G37*
G36*
X00745D02*
X00733D01*
X00733Y-00556*
X00737Y-00561*
X00743Y-00565*
X00745Y-00566*
Y-00554*
G37*
G36*
X01359Y-00518D02*
X01352Y-00519D01*
X01346Y-00521*
X0134Y-00526*
X01335Y-00532*
X01333Y-00538*
X01332Y-00545*
X01333Y-00553*
X01335Y-00559*
X0134Y-00565*
X01346Y-0057*
X01352Y-00572*
X01359Y-00573*
X01367Y-00572*
X01373Y-0057*
X01379Y-00565*
X01383Y-00559*
X01386Y-00553*
X01387Y-00545*
X01386Y-00538*
X01383Y-00532*
X01379Y-00526*
X01373Y-00521*
X01367Y-00519*
X01359Y-00518*
G37*
G36*
X02319Y-00571D02*
X02306D01*
Y-00583*
X02308Y-00583*
X02314Y-00579*
X02318Y-00573*
X02319Y-00571*
G37*
G36*
X02296D02*
X02284D01*
X02285Y-00573*
X02289Y-00579*
X02294Y-00583*
X02296Y-00583*
Y-00571*
G37*
G36*
X01079Y-00562D02*
X01072Y-00563D01*
X01065Y-00565*
X01059Y-0057*
X01055Y-00576*
X01052Y-00582*
X01051Y-00589*
X01052Y-00597*
X01055Y-00603*
X01059Y-00609*
X01065Y-00614*
X01072Y-00616*
X01079Y-00617*
X01086Y-00616*
X01093Y-00614*
X01098Y-00609*
X01103Y-00603*
X01106Y-00597*
X01107Y-00589*
X01106Y-00582*
X01103Y-00576*
X01098Y-0057*
X01093Y-00565*
X01086Y-00563*
X01079Y-00562*
G37*
G36*
X0228Y-00621D02*
Y-00633D01*
X02292*
X02292Y-00631*
X02288Y-00625*
X02282Y-00622*
X0228Y-00621*
G37*
G36*
X0227D02*
X02268Y-00622D01*
X02262Y-00625*
X02258Y-00631*
X02258Y-00633*
X0227*
Y-00621*
G37*
G36*
X01678Y-00584D02*
X01671Y-00585D01*
X01664Y-00588*
X01659Y-00592*
X01654Y-00598*
X01651Y-00605*
X0165Y-00612*
X01651Y-00619*
X01654Y-00626*
X01659Y-00632*
X01664Y-00636*
X01671Y-00639*
X01678Y-0064*
X01685Y-00639*
X01692Y-00636*
X01698Y-00632*
X01702Y-00626*
X01705Y-00619*
X01706Y-00612*
X01705Y-00605*
X01702Y-00598*
X01698Y-00592*
X01692Y-00588*
X01685Y-00585*
X01678Y-00584*
G37*
G36*
X00433Y-0056D02*
X00421Y-00562D01*
X0041Y-00566*
X004Y-00573*
X00393Y-00583*
X00388Y-00594*
X00387Y-00606*
X00388Y-00618*
X00393Y-00629*
X004Y-00638*
X0041Y-00645*
X00421Y-0065*
X00433Y-00652*
X00444Y-0065*
X00455Y-00645*
X00465Y-00638*
X00472Y-00629*
X00477Y-00618*
X00478Y-00606*
X00477Y-00594*
X00472Y-00583*
X00465Y-00573*
X00455Y-00566*
X00444Y-00562*
X00433Y-0056*
G37*
G36*
X02292Y-00643D02*
X0228D01*
Y-00656*
X02282Y-00655*
X02288Y-00651*
X02292Y-00645*
X02292Y-00643*
G37*
G36*
X0227D02*
X02258D01*
X02258Y-00645*
X02262Y-00651*
X02268Y-00655*
X0227Y-00656*
Y-00643*
G37*
G36*
X0142Y-00603D02*
X01413Y-00604D01*
X01406Y-00606*
X014Y-00611*
X01396Y-00617*
X01393Y-00623*
X01392Y-00631*
X01393Y-00638*
X01396Y-00644*
X014Y-0065*
X01406Y-00655*
X01413Y-00657*
X0142Y-00658*
X01427Y-00657*
X01434Y-00655*
X0144Y-0065*
X01444Y-00644*
X01447Y-00638*
X01448Y-00631*
X01447Y-00623*
X01444Y-00617*
X0144Y-00611*
X01434Y-00606*
X01427Y-00604*
X0142Y-00603*
G37*
G36*
X0154Y-00605D02*
X01533Y-00605D01*
X01526Y-00608*
X01521Y-00613*
X01516Y-00618*
X01513Y-00625*
X01512Y-00632*
X01513Y-0064*
X01516Y-00646*
X01521Y-00652*
X01526Y-00656*
X01533Y-00659*
X0154Y-0066*
X01547Y-00659*
X01554Y-00656*
X0156Y-00652*
X01564Y-00646*
X01567Y-0064*
X01568Y-00632*
X01567Y-00625*
X01564Y-00618*
X0156Y-00613*
X01554Y-00608*
X01547Y-00605*
X0154Y-00605*
G37*
G36*
X0237Y-00617D02*
X02363Y-00618D01*
X02357Y-00621*
X02351Y-00625*
X02346Y-00631*
X02344Y-00638*
X02343Y-00645*
X02344Y-00652*
X02346Y-00659*
X02351Y-00665*
X02357Y-00669*
X02363Y-00672*
X0237Y-00673*
X02378Y-00672*
X02384Y-00669*
X0239Y-00665*
X02394Y-00659*
X02397Y-00652*
X02398Y-00645*
X02397Y-00638*
X02394Y-00631*
X0239Y-00625*
X02384Y-00621*
X02378Y-00618*
X0237Y-00617*
G37*
G36*
X01138Y-00678D02*
Y-0069D01*
X0115*
X0115Y-00688*
X01146Y-00682*
X0114Y-00678*
X01138Y-00678*
G37*
G36*
X01128D02*
X01126Y-00678D01*
X0112Y-00682*
X01116Y-00688*
X01116Y-0069*
X01128*
Y-00678*
G37*
G36*
X01072Y-00642D02*
X01065Y-00643D01*
X01059Y-00645*
X01053Y-0065*
X01048Y-00655*
X01046Y-00662*
X01045Y-00669*
X01046Y-00677*
X01048Y-00683*
X01053Y-00689*
X01059Y-00693*
X01065Y-00696*
X01072Y-00697*
X0108Y-00696*
X01086Y-00693*
X01092Y-00689*
X01096Y-00683*
X01099Y-00677*
X011Y-00669*
X01099Y-00662*
X01096Y-00655*
X01092Y-0065*
X01086Y-00645*
X0108Y-00643*
X01072Y-00642*
G37*
G36*
X00758Y-00691D02*
Y-00703D01*
X0077*
X0077Y-00701*
X00766Y-00695*
X0076Y-00691*
X00758Y-00691*
G37*
G36*
X00748D02*
X00746Y-00691D01*
X0074Y-00695*
X00736Y-00701*
X00736Y-00703*
X00748*
Y-00691*
G37*
G36*
X01893Y-00614D02*
X01885Y-00615D01*
X01879Y-00618*
X01873Y-00622*
X01868Y-00628*
X01866Y-00634*
X01865Y-00642*
X01866Y-00649*
X01868Y-00656*
X01869Y-00657*
X01865Y-0066*
X0186Y-00666*
X01857Y-00673*
X01856Y-0068*
X01857Y-00687*
X0186Y-00694*
X01865Y-007*
X0187Y-00704*
X01877Y-00707*
X01884Y-00708*
X01891Y-00707*
X01898Y-00704*
X01904Y-007*
X01908Y-00694*
X01911Y-00687*
X01912Y-0068*
X01911Y-00673*
X01908Y-00666*
X01907Y-00665*
X01912Y-00661*
X01917Y-00656*
X01919Y-00649*
X0192Y-00642*
X01919Y-00634*
X01917Y-00628*
X01912Y-00622*
X01906Y-00618*
X019Y-00615*
X01893Y-00614*
G37*
G36*
X0159Y-00655D02*
X01582Y-00656D01*
X01576Y-00659*
X0157Y-00663*
X01566Y-00669*
X01563Y-00675*
X01562Y-00683*
X01563Y-0069*
X01566Y-00697*
X0157Y-00702*
X01576Y-00707*
X01582Y-0071*
X0159Y-0071*
X01597Y-0071*
X01604Y-00707*
X01609Y-00702*
X01614Y-00697*
X01616Y-0069*
X01617Y-00683*
X01616Y-00675*
X01614Y-00669*
X01609Y-00663*
X01604Y-00659*
X01597Y-00656*
X0159Y-00655*
G37*
G36*
X0115Y-007D02*
X01138D01*
Y-00712*
X0114Y-00712*
X01146Y-00708*
X0115Y-00702*
X0115Y-007*
G37*
G36*
X01128D02*
X01116D01*
X01116Y-00702*
X0112Y-00708*
X01126Y-00712*
X01128Y-00712*
Y-007*
G37*
G36*
X01771Y-00702D02*
X01769Y-00703D01*
X01763Y-00706*
X01759Y-00712*
X01758Y-00714*
X01771*
Y-00702*
G37*
G36*
X0247Y-00661D02*
X02463Y-00662D01*
X02456Y-00665*
X02451Y-00669*
X02446Y-00675*
X02443Y-00682*
X02442Y-00689*
X02443Y-00696*
X02446Y-00703*
X02451Y-00709*
X02456Y-00713*
X02463Y-00716*
X0247Y-00717*
X02477Y-00716*
X02484Y-00713*
X0249Y-00709*
X02494Y-00703*
X02497Y-00696*
X02498Y-00689*
X02497Y-00682*
X02494Y-00675*
X0249Y-00669*
X02484Y-00665*
X02477Y-00662*
X0247Y-00661*
G37*
G36*
X02224Y-00663D02*
X02217Y-00664D01*
X0221Y-00667*
X02204Y-00671*
X022Y-00677*
X02197Y-00683*
X02196Y-00691*
X02197Y-00698*
X022Y-00704*
X02204Y-0071*
X0221Y-00715*
X02217Y-00717*
X02224Y-00718*
X02231Y-00717*
X02238Y-00715*
X02244Y-0071*
X02248Y-00704*
X02251Y-00698*
X02252Y-00691*
X02251Y-00683*
X02248Y-00677*
X02244Y-00671*
X02238Y-00667*
X02231Y-00664*
X02224Y-00663*
G37*
G36*
X0077Y-00713D02*
X00758D01*
Y-00726*
X0076Y-00725*
X00766Y-00721*
X0077Y-00715*
X0077Y-00713*
G37*
G36*
X00748D02*
X00736D01*
X00736Y-00715*
X0074Y-00721*
X00746Y-00725*
X00748Y-00726*
Y-00713*
G37*
G36*
X01812Y-00678D02*
X01805Y-00679D01*
X01798Y-00682*
X01793Y-00687*
X01788Y-00692*
X01786Y-00699*
X01785Y-00699*
X01781Y-00702*
Y-00719*
Y-00737*
X01783Y-00736*
X01789Y-00732*
X0179Y-0073*
X01797Y-00729*
X01798Y-0073*
X01805Y-00733*
X01812Y-00734*
X0182Y-00733*
X01826Y-0073*
X01832Y-00726*
X01836Y-0072*
X01839Y-00713*
X0184Y-00706*
X01839Y-00699*
X01836Y-00692*
X01832Y-00687*
X01826Y-00682*
X0182Y-00679*
X01812Y-00678*
G37*
G36*
X01771Y-00724D02*
X01758D01*
X01759Y-00726*
X01763Y-00732*
X01769Y-00736*
X01771Y-00737*
Y-00724*
G37*
G36*
X01885Y-00744D02*
Y-00756D01*
X01897*
X01897Y-00754*
X01893Y-00749*
X01887Y-00745*
X01885Y-00744*
G37*
G36*
X01875D02*
X01873Y-00745D01*
X01867Y-00749*
X01863Y-00754*
X01862Y-00756*
X01875*
Y-00744*
G37*
G36*
X01326Y-00717D02*
X01319Y-00717D01*
X01312Y-0072*
X01307Y-00725*
X01302Y-0073*
X01299Y-00737*
X01299Y-00744*
X01299Y-00751*
X01302Y-00758*
X01307Y-00764*
X01312Y-00768*
X01319Y-00771*
X01326Y-00772*
X01334Y-00771*
X0134Y-00768*
X01346Y-00764*
X0135Y-00758*
X01353Y-00751*
X01354Y-00744*
X01353Y-00737*
X0135Y-0073*
X01346Y-00725*
X0134Y-0072*
X01334Y-00717*
X01326Y-00717*
G37*
G36*
X01897Y-00766D02*
X01885D01*
Y-00779*
X01887Y-00778*
X01893Y-00774*
X01897Y-00768*
X01897Y-00766*
G37*
G36*
X01875D02*
X01862D01*
X01863Y-00768*
X01867Y-00774*
X01873Y-00778*
X01875Y-00779*
Y-00766*
G37*
G36*
X02469Y-0073D02*
X02462Y-00731D01*
X02455Y-00734*
X0245Y-00738*
X02445Y-00744*
X02443Y-00751*
X02442Y-00758*
X02443Y-00765*
X02445Y-00772*
X0245Y-00778*
X02455Y-00782*
X02462Y-00785*
X02469Y-00786*
X02477Y-00785*
X02483Y-00782*
X02489Y-00778*
X02493Y-00772*
X02496Y-00765*
X02497Y-00758*
X02496Y-00751*
X02493Y-00744*
X02489Y-00738*
X02483Y-00734*
X02477Y-00731*
X02469Y-0073*
G37*
G36*
X01634Y-007D02*
X01627Y-00701D01*
X0162Y-00704*
X01615Y-00709*
X0161Y-00714*
X01607Y-00721*
X01606Y-00728*
X01607Y-00735*
X0161Y-00742*
X01615Y-00748*
X0162Y-00752*
X01627Y-00755*
X01634Y-00756*
X01641Y-00755*
X01643Y-00754*
X01647Y-00757*
X01647Y-00758*
X01647Y-00765*
X01647Y-00772*
X0165Y-00779*
X01655Y-00785*
X0166Y-00789*
X01667Y-00792*
X01674Y-00793*
X01682Y-00792*
X01688Y-00789*
X01694Y-00785*
X01698Y-00779*
X01701Y-00772*
X01702Y-00765*
X01701Y-00758*
X01698Y-00751*
X01694Y-00745*
X01688Y-00741*
X01682Y-00738*
X01674Y-00737*
X01667Y-00738*
X01665Y-00739*
X01662Y-00736*
X01661Y-00735*
X01662Y-00728*
X01661Y-00721*
X01658Y-00714*
X01654Y-00709*
X01648Y-00704*
X01641Y-00701*
X01634Y-007*
G37*
G36*
X02079Y-00706D02*
X02072Y-00707D01*
X02065Y-0071*
X02059Y-00714*
X02055Y-0072*
X02052Y-00727*
X02051Y-00734*
X02052Y-00739*
X02046Y-0074*
X0204Y-00743*
X02034Y-00747*
X0203Y-00753*
X02027Y-0076*
X02026Y-00767*
X02027Y-00774*
X0203Y-00781*
X02034Y-00787*
X0204Y-00791*
X02046Y-00794*
X02054Y-00795*
X02061Y-00794*
X02068Y-00791*
X02073Y-00787*
X02078Y-00781*
X02081Y-00774*
X02081Y-00767*
X02081Y-00761*
X02086Y-00761*
X02093Y-00758*
X02098Y-00754*
X02103Y-00748*
X02106Y-00741*
X02107Y-00734*
X02106Y-00727*
X02103Y-0072*
X02098Y-00714*
X02093Y-0071*
X02086Y-00707*
X02079Y-00706*
G37*
G36*
X02781Y-0077D02*
X02771Y-00771D01*
X02761Y-00775*
X02753Y-00782*
X02747Y-0079*
X02743Y-008*
X02741Y-0081*
X02743Y-0082*
X02747Y-0083*
X02753Y-00838*
X02761Y-00844*
X02771Y-00848*
X02781Y-0085*
X02791Y-00848*
X02801Y-00844*
X02809Y-00838*
X02816Y-0083*
X0282Y-0082*
X02821Y-0081*
X0282Y-008*
X02816Y-0079*
X02809Y-00782*
X02801Y-00775*
X02791Y-00771*
X02781Y-0077*
G37*
G36*
X02242Y-00844D02*
X02235Y-00845D01*
X02228Y-00847*
X02223Y-00852*
X02218Y-00858*
X02215Y-00864*
X02214Y-00871*
X02215Y-00879*
X02218Y-00885*
X02223Y-00891*
X02228Y-00896*
X02235Y-00898*
X02242Y-00899*
X02249Y-00898*
X02256Y-00896*
X02259Y-00894*
X02261Y-00897*
X02267Y-00901*
X02274Y-00904*
X02281Y-00905*
X02288Y-00904*
X02295Y-00901*
X02301Y-00897*
X02305Y-00891*
X02308Y-00885*
X02309Y-00877*
X02308Y-0087*
X02305Y-00863*
X02301Y-00858*
X02295Y-00853*
X02288Y-00851*
X02281Y-0085*
X02274Y-00851*
X02267Y-00853*
X02264Y-00855*
X02262Y-00852*
X02256Y-00847*
X02249Y-00845*
X02242Y-00844*
G37*
G36*
X02461Y-00821D02*
X02449Y-00822D01*
X02438Y-00827*
X02429Y-00834*
X02422Y-00844*
X02417Y-00855*
X02415Y-00867*
X02417Y-00878*
X02422Y-0089*
X02429Y-00899*
X02438Y-00906*
X02449Y-00911*
X02461Y-00912*
X02473Y-00911*
X02484Y-00906*
X02494Y-00899*
X02501Y-0089*
X02506Y-00878*
X02507Y-00867*
X02506Y-00855*
X02501Y-00844*
X02494Y-00834*
X02484Y-00827*
X02473Y-00822*
X02461Y-00821*
G37*
G36*
X01132Y-00903D02*
Y-00916D01*
X01144*
X01144Y-00914*
X0114Y-00908*
X01134Y-00904*
X01132Y-00903*
G37*
G36*
X01122D02*
X0112Y-00904D01*
X01114Y-00908*
X0111Y-00914*
X01109Y-00916*
X01122*
Y-00903*
G37*
G36*
X02019Y-00861D02*
X02012Y-00862D01*
X02005Y-00865*
X02Y-0087*
X01995Y-00875*
X01992Y-00882*
X01991Y-00889*
X01992Y-00896*
X01995Y-00903*
X02Y-00909*
X02005Y-00913*
X02012Y-00916*
X02019Y-00917*
X02026Y-00916*
X02033Y-00913*
X02039Y-00909*
X02043Y-00903*
X02046Y-00896*
X02047Y-00889*
X02046Y-00882*
X02043Y-00875*
X02039Y-0087*
X02033Y-00865*
X02026Y-00862*
X02019Y-00861*
G37*
G36*
X02711Y-0084D02*
X02701Y-00841D01*
X02692Y-00845*
X02683Y-00851*
X02677Y-0086*
X02673Y-00869*
X02672Y-0088*
X02673Y-0089*
X02677Y-009*
X02683Y-00908*
X02692Y-00914*
X02701Y-00918*
X02711Y-00919*
X02722Y-00918*
X02731Y-00914*
X0274Y-00908*
X02746Y-009*
X0275Y-0089*
X02751Y-0088*
X0275Y-00869*
X02746Y-0086*
X0274Y-00851*
X02731Y-00845*
X02722Y-00841*
X02711Y-0084*
G37*
G36*
X01144Y-00926D02*
X01132D01*
Y-00938*
X01134Y-00938*
X0114Y-00934*
X01144Y-00928*
X01144Y-00926*
G37*
G36*
X01122D02*
X01109D01*
X0111Y-00928*
X01114Y-00934*
X0112Y-00938*
X01122Y-00938*
Y-00926*
G37*
G36*
X01995Y-0093D02*
Y-00942D01*
X02007*
X02007Y-0094*
X02003Y-00934*
X01997Y-00931*
X01995Y-0093*
G37*
G36*
X01985D02*
X01983Y-00931D01*
X01977Y-00934*
X01973Y-0094*
X01973Y-00942*
X01985*
Y-0093*
G37*
G36*
X02429Y-00932D02*
Y-00944D01*
X02442*
X02441Y-00942*
X02437Y-00936*
X02431Y-00932*
X02429Y-00932*
G37*
G36*
X02419D02*
X02417Y-00932D01*
X02412Y-00936*
X02408Y-00942*
X02407Y-00944*
X02419*
Y-00932*
G37*
G36*
X02007Y-00952D02*
X01995D01*
Y-00965*
X01997Y-00964*
X02003Y-0096*
X02007Y-00954*
X02007Y-00952*
G37*
G36*
X01985D02*
X01973D01*
X01973Y-00954*
X01977Y-0096*
X01983Y-00964*
X01985Y-00965*
Y-00952*
G37*
G36*
X02442Y-00954D02*
X02429D01*
Y-00966*
X02431Y-00966*
X02437Y-00962*
X02441Y-00956*
X02442Y-00954*
G37*
G36*
X02419D02*
X02407D01*
X02408Y-00956*
X02412Y-00962*
X02417Y-00966*
X02419Y-00966*
Y-00954*
G37*
G36*
X01874Y-00936D02*
X01867Y-00937D01*
X0186Y-0094*
X01854Y-00944*
X0185Y-0095*
X01847Y-00957*
X01846Y-00964*
X01847Y-00971*
X0185Y-00978*
X01854Y-00983*
X0186Y-00988*
X01867Y-00991*
X01874Y-00992*
X01881Y-00991*
X01888Y-00988*
X01893Y-00983*
X01898Y-00978*
X01901Y-00971*
X01902Y-00964*
X01901Y-00957*
X01898Y-0095*
X01893Y-00944*
X01888Y-0094*
X01881Y-00937*
X01874Y-00936*
G37*
G36*
X0252Y-00935D02*
X02508Y-00936D01*
X02497Y-00941*
X02487Y-00948*
X0248Y-00958*
X02475Y-00969*
X02474Y-00981*
X02475Y-00992*
X0248Y-01003*
X02487Y-01013*
X02497Y-0102*
X02508Y-01025*
X0252Y-01026*
X02531Y-01025*
X02542Y-0102*
X02552Y-01013*
X02559Y-01003*
X02564Y-00992*
X02565Y-00981*
X02564Y-00969*
X02559Y-00958*
X02552Y-00948*
X02542Y-00941*
X02531Y-00936*
X0252Y-00935*
G37*
G36*
X02571Y-0103D02*
X02563Y-0103D01*
X02557Y-01033*
X02551Y-01038*
X02547Y-01043*
X02544Y-0105*
X02543Y-01057*
X02544Y-01065*
X02547Y-01071*
X02551Y-01077*
X02557Y-01081*
X02563Y-01084*
X02571Y-01085*
X02578Y-01084*
X02585Y-01081*
X0259Y-01077*
X02595Y-01071*
X02598Y-01065*
X02598Y-01057*
X02598Y-0105*
X02595Y-01043*
X0259Y-01038*
X02585Y-01033*
X02578Y-0103*
X02571Y-0103*
G37*
G36*
X02325Y-01095D02*
X02323Y-01095D01*
X02318Y-01099*
X02314Y-01105*
X02313Y-01107*
X02325*
Y-01095*
G37*
G36*
X02286Y-01105D02*
Y-01117D01*
X02298*
X02298Y-01115*
X02294Y-01109*
X02288Y-01105*
X02286Y-01105*
G37*
G36*
X02276D02*
X02274Y-01105D01*
X02268Y-01109*
X02264Y-01115*
X02264Y-01117*
X02276*
Y-01105*
G37*
G36*
X02046Y-0111D02*
Y-01122D01*
X02058*
X02058Y-0112*
X02054Y-01114*
X02048Y-0111*
X02046Y-0111*
G37*
G36*
X02036D02*
X02034Y-0111D01*
X02028Y-01114*
X02024Y-0112*
X02024Y-01122*
X02036*
Y-0111*
G37*
G36*
X01994Y-01111D02*
Y-01123D01*
X02007*
X02006Y-01121*
X02002Y-01115*
X01996Y-01111*
X01994Y-01111*
G37*
G36*
X01984D02*
X01982Y-01111D01*
X01976Y-01115*
X01972Y-01121*
X01972Y-01123*
X01984*
Y-01111*
G37*
G36*
X02325Y-01117D02*
X02313D01*
X02314Y-01119*
X02318Y-01125*
X02323Y-01129*
X02325Y-01129*
Y-01117*
G37*
G36*
X02298Y-01127D02*
X02286D01*
Y-01139*
X02288Y-01139*
X02294Y-01135*
X02298Y-01129*
X02298Y-01127*
G37*
G36*
X02276D02*
X02264D01*
X02264Y-01129*
X02268Y-01135*
X02274Y-01139*
X02276Y-01139*
Y-01127*
G37*
G36*
X02058Y-01132D02*
X02046D01*
Y-01144*
X02048Y-01144*
X02054Y-0114*
X02058Y-01134*
X02058Y-01132*
G37*
G36*
X02036D02*
X02024D01*
X02024Y-01134*
X02028Y-0114*
X02034Y-01144*
X02036Y-01144*
Y-01132*
G37*
G36*
X02007Y-01133D02*
X01994D01*
Y-01145*
X01996Y-01145*
X02002Y-01141*
X02006Y-01135*
X02007Y-01133*
G37*
G36*
X01984D02*
X01972D01*
X01972Y-01135*
X01976Y-01141*
X01982Y-01145*
X01984Y-01145*
Y-01133*
G37*
G36*
X02335Y-01095D02*
Y-01112D01*
Y-01129*
X02337Y-01129*
X02342Y-01132*
X02341Y-01136*
X02342Y-01144*
X02345Y-0115*
X02349Y-01156*
X02355Y-01161*
X02362Y-01163*
X02369Y-01164*
X02376Y-01163*
X02383Y-01161*
X02389Y-01156*
X02393Y-0115*
X02396Y-01144*
X02397Y-01136*
X02396Y-01129*
X02393Y-01123*
X02389Y-01117*
X02383Y-01112*
X02376Y-0111*
X02369Y-01109*
X02362Y-0111*
X02355Y-01112*
X02353Y-01114*
X02351Y-01113*
X02348Y-01111*
X02347Y-01105*
X02343Y-01099*
X02337Y-01095*
X02335Y-01095*
G37*
G36*
X02439Y-01161D02*
Y-01173D01*
X02451*
X02451Y-01171*
X02447Y-01165*
X02441Y-01161*
X02439Y-01161*
G37*
G36*
X02429D02*
X02427Y-01161D01*
X02421Y-01165*
X02417Y-01171*
X02417Y-01173*
X02429*
Y-01161*
G37*
G36*
X0252Y-01162D02*
Y-01174D01*
X02532*
X02531Y-01172*
X02527Y-01167*
X02521Y-01163*
X0252Y-01162*
G37*
G36*
X0251D02*
X02508Y-01163D01*
X02502Y-01167*
X02498Y-01172*
X02497Y-01174*
X0251*
Y-01162*
G37*
G36*
X02451Y-01183D02*
X02439D01*
Y-01195*
X02441Y-01195*
X02447Y-01191*
X02451Y-01185*
X02451Y-01183*
G37*
G36*
X02429D02*
X02417D01*
X02417Y-01185*
X02421Y-01191*
X02427Y-01195*
X02429Y-01195*
Y-01183*
G37*
G36*
X02532Y-01184D02*
X0252D01*
Y-01197*
X02521Y-01196*
X02527Y-01192*
X02531Y-01186*
X02532Y-01184*
G37*
G36*
X0251D02*
X02497D01*
X02498Y-01186*
X02502Y-01192*
X02508Y-01196*
X0251Y-01197*
Y-01184*
G37*
G36*
X02198Y-01192D02*
Y-01204D01*
X0221*
X0221Y-01202*
X02206Y-01196*
X022Y-01192*
X02198Y-01192*
G37*
G36*
X02188D02*
X02186Y-01192D01*
X0218Y-01196*
X02176Y-01202*
X02176Y-01204*
X02188*
Y-01192*
G37*
G36*
X01449Y-01206D02*
Y-01218D01*
X01461*
X01461Y-01216*
X01457Y-0121*
X01451Y-01206*
X01449Y-01206*
G37*
G36*
X01439D02*
X01437Y-01206D01*
X01431Y-0121*
X01427Y-01216*
X01427Y-01218*
X01439*
Y-01206*
G37*
G36*
X01461Y-01228D02*
X01449D01*
Y-0124*
X01451Y-0124*
X01457Y-01236*
X01461Y-0123*
X01461Y-01228*
G37*
G36*
X01439D02*
X01427D01*
X01427Y-0123*
X01431Y-01236*
X01437Y-0124*
X01439Y-0124*
Y-01228*
G37*
G36*
X01697Y-01187D02*
Y-0125D01*
X01761*
X0176Y-01242*
X01757Y-01229*
X0175Y-01217*
X01741Y-01206*
X01731Y-01198*
X01719Y-01191*
X01706Y-01187*
X01697Y-01187*
G37*
G36*
X01687D02*
X01679Y-01187D01*
X01666Y-01191*
X01654Y-01198*
X01643Y-01206*
X01635Y-01217*
X01628Y-01229*
X01624Y-01242*
X01624Y-0125*
X01687*
Y-01187*
G37*
G36*
X0221Y-01214D02*
X02176D01*
X02176Y-01216*
X02179Y-0122*
X02179Y-01224*
X02178Y-01226*
X02173Y-0123*
X02169Y-01235*
X02166Y-01242*
X02165Y-01249*
X02166Y-01256*
X02169Y-01263*
X02173Y-01269*
X02179Y-01273*
X02185Y-01276*
X02193Y-01277*
X022Y-01276*
X02206Y-01273*
X02212Y-01269*
X02217Y-01263*
X02219Y-01256*
X0222Y-01249*
X02219Y-01242*
X02217Y-01235*
X02212Y-0123*
X02208Y-01226*
X02207Y-01223*
X02207Y-0122*
X0221Y-01216*
X0221Y-01214*
G37*
G36*
X02339Y-01291D02*
Y-01303D01*
X02351*
X02351Y-01301*
X02347Y-01295*
X02341Y-01292*
X02339Y-01291*
G37*
G36*
X02329D02*
X02327Y-01292D01*
X02321Y-01295*
X02317Y-01301*
X02317Y-01303*
X02329*
Y-01291*
G37*
G36*
X02258Y-01293D02*
Y-01305D01*
X0227*
X0227Y-01303*
X02266Y-01297*
X0226Y-01293*
X02258Y-01293*
G37*
G36*
X02248D02*
X02246Y-01293D01*
X0224Y-01297*
X02236Y-01303*
X02236Y-01305*
X02248*
Y-01293*
G37*
G36*
X01343Y-01311D02*
Y-01324D01*
X01356*
X01355Y-01322*
X01351Y-01316*
X01345Y-01312*
X01343Y-01311*
G37*
G36*
X01761Y-0126D02*
X01697D01*
Y-01324*
X01706Y-01323*
X01719Y-0132*
X01731Y-01313*
X01741Y-01304*
X0175Y-01294*
X01757Y-01282*
X0176Y-01269*
X01761Y-0126*
G37*
G36*
X01687D02*
X01624D01*
X01624Y-01269*
X01628Y-01282*
X01635Y-01294*
X01643Y-01304*
X01654Y-01313*
X01666Y-0132*
X01679Y-01323*
X01687Y-01324*
Y-0126*
G37*
G36*
X02062Y-01186D02*
X02049Y-01187D01*
X02036Y-01191*
X02024Y-01198*
X02013Y-01206*
X02005Y-01217*
X01998Y-01229*
X01994Y-01242*
X01993Y-01255*
X01994Y-01269*
X01998Y-01282*
X02005Y-01294*
X02013Y-01304*
X02024Y-01313*
X02036Y-0132*
X02049Y-01323*
X02062Y-01325*
X02076Y-01323*
X02089Y-0132*
X02101Y-01313*
X02112Y-01304*
X0212Y-01294*
X02127Y-01282*
X02131Y-01269*
X02132Y-01255*
X02131Y-01242*
X02127Y-01229*
X0212Y-01217*
X02112Y-01206*
X02101Y-01198*
X02089Y-01191*
X02076Y-01187*
X02062Y-01186*
G37*
G36*
X01877D02*
X01864Y-01187D01*
X01851Y-01191*
X01839Y-01198*
X01828Y-01206*
X0182Y-01217*
X01813Y-01229*
X01809Y-01242*
X01808Y-01255*
X01809Y-01269*
X01813Y-01282*
X0182Y-01294*
X01828Y-01304*
X01839Y-01313*
X01851Y-0132*
X01864Y-01323*
X01877Y-01325*
X01891Y-01323*
X01904Y-0132*
X01916Y-01313*
X01927Y-01304*
X01935Y-01294*
X01942Y-01282*
X01946Y-01269*
X01947Y-01255*
X01946Y-01242*
X01942Y-01229*
X01935Y-01217*
X01927Y-01206*
X01916Y-01198*
X01904Y-01191*
X01891Y-01187*
X01877Y-01186*
G37*
G36*
X02351Y-01313D02*
X02339D01*
Y-01326*
X02341Y-01325*
X02347Y-01321*
X02351Y-01315*
X02351Y-01313*
G37*
G36*
X02329D02*
X02317D01*
X02317Y-01315*
X02321Y-01321*
X02327Y-01325*
X02329Y-01326*
Y-01313*
G37*
G36*
X01333Y-01311D02*
X01331Y-01312D01*
X01326Y-01316*
X01322Y-01322*
X01321Y-01325*
X01318Y-01327*
X0131Y-01326*
X01303Y-01327*
X01296Y-0133*
X01291Y-01334*
X01286Y-0134*
X01284Y-01347*
X01283Y-01354*
X01284Y-01361*
X01286Y-01368*
X01291Y-01374*
X01296Y-01378*
X01303Y-01381*
X01307Y-01381*
X01312Y-01384*
X01313Y-01391*
X01317Y-01397*
X01323Y-01401*
X01325Y-01401*
Y-01384*
X0133*
Y-01379*
X01347*
X01347Y-01377*
X01343Y-01371*
X01337Y-01367*
X01336Y-01365*
X01337Y-01361*
X01338Y-01354*
X01338Y-01352*
X01338Y-01347*
X01342Y-01346*
X01345Y-01346*
X01351Y-01342*
X01355Y-01336*
X01356Y-01334*
X01338*
Y-01329*
X01333*
Y-01311*
G37*
G36*
X0227Y-01315D02*
X02258D01*
Y-01327*
X0226Y-01327*
X02266Y-01323*
X0227Y-01317*
X0227Y-01315*
G37*
G36*
X02248D02*
X02236D01*
X02236Y-01317*
X0224Y-01323*
X02246Y-01327*
X02248Y-01327*
Y-01315*
G37*
G36*
X02427Y-01306D02*
X02417Y-01307D01*
X02408Y-01311*
X02399Y-01318*
X02393Y-01326*
X02389Y-01336*
X02388Y-01346*
X02389Y-01356*
X02393Y-01366*
X02399Y-01374*
X02408Y-01381*
X02417Y-01384*
X02427Y-01386*
X02438Y-01384*
X02447Y-01381*
X02456Y-01374*
X02462Y-01366*
X02466Y-01356*
X02467Y-01346*
X02466Y-01336*
X02462Y-01326*
X02456Y-01318*
X02447Y-01311*
X02438Y-01307*
X02427Y-01306*
G37*
G36*
X01347Y-01389D02*
X01335D01*
Y-01401*
X01337Y-01401*
X01343Y-01397*
X01347Y-01391*
X01347Y-01389*
G37*
G36*
X01467Y-01392D02*
X0146Y-01392D01*
X01453Y-01395*
X01447Y-014*
X01443Y-01405*
X0144Y-01412*
X01439Y-01419*
X0144Y-01427*
X01443Y-01433*
X01447Y-01439*
X01453Y-01443*
X0146Y-01446*
X01467Y-01447*
X01474Y-01446*
X01481Y-01443*
X01487Y-01439*
X01491Y-01433*
X01494Y-01427*
X01495Y-01419*
X01494Y-01412*
X01491Y-01405*
X01487Y-014*
X01481Y-01395*
X01474Y-01392*
X01467Y-01392*
G37*
G36*
X02377Y-01393D02*
X02367Y-01394D01*
X02358Y-01398*
X02349Y-01404*
X02343Y-01413*
X02339Y-01422*
X02338Y-01433*
X02339Y-01443*
X02343Y-01453*
X02349Y-01461*
X02358Y-01467*
X02367Y-01471*
X02377Y-01472*
X02388Y-01471*
X02397Y-01467*
X02406Y-01461*
X02412Y-01453*
X02416Y-01443*
X02417Y-01433*
X02416Y-01422*
X02412Y-01413*
X02406Y-01404*
X02397Y-01398*
X02388Y-01394*
X02377Y-01393*
G37*
G36*
X02327Y-01479D02*
X02317Y-01481D01*
X02308Y-01485*
X02299Y-01491*
X02296Y-01495*
X02326Y-01512*
X02343Y-01483*
X02338Y-01481*
X02327Y-01479*
G37*
G36*
X01306Y-0144D02*
X01296Y-01443D01*
X01286Y-01447*
X01279Y-01454*
X01273Y-01463*
X0127Y-01473*
X0127Y-01483*
X01272Y-01494*
X01277Y-01503*
X01284Y-01511*
X01292Y-01516*
X01302Y-01519*
X01313Y-0152*
X01323Y-01517*
X01332Y-01513*
X0134Y-01506*
X01345Y-01497*
X01349Y-01487*
X01349Y-01477*
X01347Y-01466*
X01342Y-01457*
X01335Y-01449*
X01326Y-01444*
X01316Y-01441*
X01306Y-0144*
G37*
G36*
X02351Y-01488D02*
X02334Y-01517D01*
X02364Y-01534*
X02366Y-01529*
X02367Y-01519*
X02366Y-01509*
X02362Y-01499*
X02356Y-01491*
X02351Y-01488*
G37*
G36*
X02291Y-01504D02*
X02289Y-01509D01*
X02288Y-01519*
X02289Y-01529*
X02293Y-01539*
X02299Y-01547*
X02304Y-01551*
X02321Y-01521*
X02291Y-01504*
G37*
G36*
X02329Y-01526D02*
X02312Y-01556D01*
X02317Y-01558*
X02327Y-01559*
X02338Y-01558*
X02347Y-01554*
X02356Y-01547*
X02359Y-01543*
X02329Y-01526*
G37*
G36*
X02024Y-01535D02*
Y-01569D01*
X02058*
X02058Y-01564*
X02054Y-01554*
X02047Y-01546*
X02039Y-0154*
X0203Y-01536*
X02024Y-01535*
G37*
G36*
X02014D02*
X02009Y-01536D01*
X01999Y-0154*
X01991Y-01546*
X01985Y-01554*
X01981Y-01564*
X0198Y-01569*
X02014*
Y-01535*
G37*
G36*
X02058Y-01579D02*
X02024D01*
Y-01614*
X0203Y-01613*
X02039Y-01609*
X02047Y-01603*
X02054Y-01594*
X02058Y-01585*
X02058Y-01579*
G37*
G36*
X02014D02*
X0198D01*
X01981Y-01585*
X01985Y-01594*
X01991Y-01603*
X01999Y-01609*
X02009Y-01613*
X02014Y-01614*
Y-01579*
G37*
G36*
X0134Y-01534D02*
X0133Y-01536D01*
X01321Y-01541*
X01313Y-01548*
X01307Y-01557*
X01304Y-01567*
X01304Y-01577*
X01306Y-01588*
X01311Y-01597*
X01318Y-01605*
X01327Y-0161*
X01337Y-01613*
X01347Y-01614*
X01357Y-01611*
X01366Y-01607*
X01374Y-016*
X0138Y-01591*
X01383Y-01581*
X01383Y-0157*
X01381Y-0156*
X01376Y-01551*
X01369Y-01543*
X0136Y-01538*
X0135Y-01535*
X0134Y-01534*
G37*
G36*
X01921Y-01534D02*
X0191Y-01536D01*
X01901Y-0154*
X01893Y-01546*
X01886Y-01554*
X01882Y-01564*
X01881Y-01574*
X01882Y-01585*
X01886Y-01594*
X01893Y-01603*
X01901Y-01609*
X0191Y-01613*
X01921Y-01614*
X01931Y-01613*
X01941Y-01609*
X01949Y-01603*
X01955Y-01594*
X01959Y-01585*
X01961Y-01574*
X01959Y-01564*
X01955Y-01554*
X01949Y-01546*
X01941Y-0154*
X01931Y-01536*
X01921Y-01534*
G37*
G36*
X01822D02*
X01812Y-01536D01*
X01802Y-0154*
X01794Y-01546*
X01788Y-01554*
X01784Y-01564*
X01782Y-01574*
X01784Y-01585*
X01788Y-01594*
X01794Y-01603*
X01802Y-01609*
X01812Y-01613*
X01822Y-01614*
X01833Y-01613*
X01842Y-01609*
X01851Y-01603*
X01857Y-01594*
X01861Y-01585*
X01862Y-01574*
X01861Y-01564*
X01857Y-01554*
X01851Y-01546*
X01842Y-0154*
X01833Y-01536*
X01822Y-01534*
G37*
G36*
X01724D02*
X01714Y-01536D01*
X01704Y-0154*
X01696Y-01546*
X01689Y-01554*
X01685Y-01564*
X01684Y-01574*
X01685Y-01585*
X01689Y-01594*
X01696Y-01603*
X01704Y-01609*
X01714Y-01613*
X01724Y-01614*
X01734Y-01613*
X01744Y-01609*
X01752Y-01603*
X01758Y-01594*
X01762Y-01585*
X01764Y-01574*
X01762Y-01564*
X01758Y-01554*
X01752Y-01546*
X01744Y-0154*
X01734Y-01536*
X01724Y-01534*
G37*
G36*
X02263Y-01552D02*
X02223Y-0162D01*
X02292Y-0166*
X02331Y-01591*
X02263Y-01552*
G37*
G36*
X01374Y-01628D02*
X01364Y-0163D01*
X01355Y-01635*
X01347Y-01642*
X01342Y-01651*
X01338Y-01661*
X01338Y-01671*
X0134Y-01682*
X01345Y-01691*
X01352Y-01698*
X01361Y-01704*
X01371Y-01707*
X01381Y-01708*
X01391Y-01705*
X01401Y-01701*
X01408Y-01694*
X01414Y-01685*
X01417Y-01675*
X01417Y-01664*
X01415Y-01654*
X0141Y-01645*
X01403Y-01637*
X01395Y-01632*
X01385Y-01629*
X01374Y-01628*
G37*
G36*
X01436Y-01711D02*
X01403Y-01723D01*
X01415Y-01755*
X01447Y-01744*
X01436Y-01711*
G37*
G36*
X01394Y-01726D02*
X01361Y-01738D01*
X01373Y-01771*
X01405Y-01759*
X01394Y-01726*
G37*
G36*
X01451Y-01753D02*
X01418Y-01765D01*
X0143Y-01797*
X01463Y-01786*
X01451Y-01753*
G37*
G36*
X01409Y-01768D02*
X01376Y-0178D01*
X01388Y-01813*
X01421Y-01801*
X01409Y-01768*
G37*
G36*
X0185Y-01771D02*
X01834Y-01772D01*
X0182Y-01777*
X01806Y-01784*
X01794Y-01794*
X01784Y-01806*
X01777Y-0182*
X01772Y-01834*
X01771Y-0185*
X01772Y-01865*
X01777Y-0188*
X01784Y-01894*
X01794Y-01906*
X01806Y-01916*
X0182Y-01923*
X01834Y-01928*
X0185Y-01929*
X01865Y-01928*
X0188Y-01923*
X01894Y-01916*
X01906Y-01906*
X01916Y-01894*
X01923Y-0188*
X01928Y-01865*
X01929Y-0185*
X01928Y-01834*
X01923Y-0182*
X01916Y-01806*
X01906Y-01794*
X01894Y-01784*
X0188Y-01777*
X01865Y-01772*
X0185Y-01771*
G37*
%LNflightcontroller-3*%
%LPD*%
G54D16*
X02937Y0082D02*
X02976Y00813D01*
X03053Y00813D02*
X03081Y00813D01*
X02864Y00845D02*
X029Y0083D01*
X02937Y0082*
X03081Y00813D02*
X03108Y00806D01*
X03132Y00794*
X03014Y00811D02*
X03053Y00813D01*
X02976Y00813D02*
X03014Y00811D01*
X0272Y00973D02*
X02743Y00941D01*
X02769Y00912*
X02686Y01043D02*
X02701Y01007D01*
X0272Y00973*
X02798Y00886D02*
X0283Y00864D01*
X02864Y00845*
X02769Y00912D02*
X02798Y00886D01*
X0376Y00508D02*
X03787Y00485D01*
X03812Y00459*
X03698Y00543D02*
X0373Y00528D01*
X0376Y00508*
X03849Y00398D02*
X03862Y00365D01*
X03871Y0033*
X03812Y00459D02*
X03832Y0043D01*
X03849Y00398*
X033Y00695D02*
X03388Y00652D01*
X03478Y00615*
X03132Y00794D02*
X03215Y00742D01*
X033Y00695*
X0357Y00582D02*
X03664Y00554D01*
X03698Y00543*
X03478Y00615D02*
X0357Y00582D01*
X0228Y01982D02*
X02309Y01961D01*
X02336Y01937*
X02215Y02012D02*
X02248Y01999D01*
X0228Y01982*
X02378Y01879D02*
X02394Y01847D01*
X02405Y01813*
X02336Y01937D02*
X02359Y0191D01*
X02378Y01879*
X02145Y02024D02*
X0218Y0202D01*
X02215Y02012*
X02109Y02024D02*
X02145Y02024D01*
X02073Y02019D02*
X02109Y02024D01*
X01999Y02006D02*
X02073Y02019D01*
X01925Y01997D02*
X01999Y02006D01*
X0185Y01993D02*
X01925Y01997D01*
X02668Y01224D02*
X02668Y01196D01*
X02666Y01157D02*
X02668Y01196D01*
X02649Y01275D02*
X02662Y0125D01*
X02668Y01224*
X02669Y01118D02*
X02676Y0108D01*
X02686Y01043*
X02666Y01157D02*
X02669Y01118D01*
X02456Y01651D02*
X02487Y01572D01*
X02522Y01495*
X02405Y01813D02*
X02428Y01732D01*
X02456Y01651*
X02561Y0142D02*
X02603Y01346D01*
X02649Y01275*
X02522Y01495D02*
X02561Y0142D01*
X03871Y0033D02*
X03875Y00294D01*
X03874Y00258D02*
X03875Y00294D01*
X03869Y00223D02*
X03874Y00258D01*
X03857Y-00149D02*
X03869Y-00223D01*
X03874Y-00258D02*
X03875Y-00294D01*
X03871Y-0033D02*
X03875Y-00294D01*
X03869Y-00223D02*
X03874Y-00258D01*
X03862Y-00365D02*
X03871Y-0033D01*
X03857Y00149D02*
X03869Y00223D01*
X03848Y00074D02*
X03857Y00149D01*
X03843Y0D02*
X03848Y00074D01*
X03843Y0D02*
X03848Y-00074D01*
X03857Y-00149*
X03849Y-00398D02*
X03862Y-00365D01*
X03832Y-0043D02*
X03849Y-00398D01*
X03812Y-00459D02*
X03832Y-0043D01*
X03787Y-00485D02*
X03812Y-00459D01*
X0376Y-00508D02*
X03787Y-00485D01*
X0373Y-00528D02*
X0376Y-00508D01*
X03698Y-00543D02*
X0373Y-00528D01*
X03664Y-00554D02*
X03698Y-00543D01*
X03582Y-00578D02*
X03664Y-00554D01*
X03502Y-00605D02*
X03582Y-00578D01*
X03423Y-00637D02*
X03502Y-00605D01*
X03346Y-00672D02*
X03423Y-00637D01*
X0327Y-0071D02*
X03346Y-00672D01*
X03197Y-00753D02*
X0327Y-0071D01*
X03125Y-00798D02*
X03197Y-00753D01*
X03056Y-00847D02*
X03125Y-00798D01*
X0299Y-009D02*
X03056Y-00847D01*
X02926Y-00955D02*
X0299Y-009D01*
X02864Y-01014D02*
X02926Y-00955D01*
X02806Y-01075D02*
X02864Y-01014D01*
X0275Y-01139D02*
X02806Y-01075D01*
X02698Y-01206D02*
X0275Y-01139D01*
X02649Y-01275D02*
X02698Y-01206D01*
X02603Y-01346D02*
X02649Y-01275D01*
X02561Y-0142D02*
X02603Y-01346D01*
X02522Y-01495D02*
X02561Y-0142D01*
X02487Y-01573D02*
X02522Y-01495D01*
X02456Y-01651D02*
X02487Y-01573D01*
X02428Y-01732D02*
X02456Y-01651D01*
X02405Y-01813D02*
X02428Y-01732D01*
X02394Y-01847D02*
X02405Y-01813D01*
X02378Y-01879D02*
X02394Y-01847D01*
X02359Y-0191D02*
X02378Y-01879D01*
X02336Y-01937D02*
X02359Y-0191D01*
X02309Y-01961D02*
X02336Y-01937D01*
X0228Y-01982D02*
X02309Y-01961D01*
X02248Y-01999D02*
X0228Y-01982D01*
X02215Y-02012D02*
X02248Y-01999D01*
X01999Y-02006D02*
X02073Y-02019D01*
X0218Y-0202D02*
X02215Y-02012D01*
X0185Y-01993D02*
X01925Y-01997D01*
X01999Y-02006*
X02145Y-02024D02*
X0218Y-0202D01*
X02109Y-02024D02*
X02145Y-02024D01*
X02073Y-02019D02*
X02109Y-02024D01*
X01555Y02024D02*
X01591Y02024D01*
X01627Y02019*
X0152Y0202D02*
X01555Y02024D01*
X01485Y02012D02*
X0152Y0202D01*
X01701Y02006D02*
X01775Y01997D01*
X0185Y01993*
X01627Y02019D02*
X01701Y02006D01*
X01451Y01999D02*
X01485Y02012D01*
X0142Y01982D02*
X01451Y01999D01*
X01391Y01961D02*
X0142Y01982D01*
X01364Y01937D02*
X01391Y01961D01*
X01341Y0191D02*
X01364Y01937D01*
X01322Y01879D02*
X01341Y0191D01*
X01306Y01847D02*
X01322Y01879D01*
X01295Y01813D02*
X01306Y01847D01*
X01271Y01732D02*
X01295Y01813D01*
X01244Y01651D02*
X01271Y01732D01*
X01213Y01573D02*
X01244Y01651D01*
X01178Y01495D02*
X01213Y01573D01*
X01139Y0142D02*
X01178Y01495D01*
X01097Y01346D02*
X01139Y0142D01*
X01051Y01275D02*
X01097Y01346D01*
X01002Y01206D02*
X01051Y01275D01*
X0095Y01139D02*
X01002Y01206D01*
X00894Y01075D02*
X0095Y01139D01*
X00836Y01014D02*
X00894Y01075D01*
X00774Y00955D02*
X00836Y01014D01*
X0071Y009D02*
X00774Y00955D01*
X00643Y00847D02*
X0071Y009D01*
X00574Y00798D02*
X00643Y00847D01*
X00503Y00753D02*
X00574Y00798D01*
X00429Y0071D02*
X00503Y00753D01*
X00354Y00672D02*
X00429Y0071D01*
X00277Y00637D02*
X00354Y00672D01*
X00198Y00605D02*
X00277Y00637D01*
X00118Y00578D02*
X00198Y00605D01*
X00036Y00554D02*
X00118Y00578D01*
X00002Y00543D02*
X00036Y00554D01*
X-00029Y00528D02*
X00002Y00543D01*
X-00059Y00508D02*
X-00029Y00528D01*
X-00087Y00485D02*
X-00059Y00508D01*
X-00111Y00459D02*
X-00087Y00485D01*
X-00132Y0043D02*
X-00111Y00459D01*
X-00149Y00398D02*
X-00132Y0043D01*
X-00161Y00365D02*
X-00149Y00398D01*
X-00147Y00074D02*
X-00143Y0D01*
X-00147Y-00074D02*
X-00143Y0D01*
X-00169Y00223D02*
X-00156Y00149D01*
X-00147Y00074*
X-00156Y-00148D02*
X-00147Y-00074D01*
X-00168Y-00221D02*
X-00156Y-00148D01*
X-0017Y-00328D02*
X-00161Y-00363D01*
X-0017Y0033D02*
X-00161Y00365D01*
X-00174Y00258D02*
X-00169Y00223D01*
X-00174Y00294D02*
X-0017Y0033D01*
X-00174Y00294D02*
X-00174Y00258D01*
X-00173Y-00257D02*
X-00168Y-00221D01*
X-00174Y-00293D02*
X-0017Y-00328D01*
X-00174Y-00293D02*
X-00173Y-00257D01*
X01108Y-01364D02*
X01155Y-0145D01*
X01198Y-01537*
X01043Y-01257D02*
X01056Y-01282D01*
X01108Y-01364*
X01269Y-01719D02*
X01297Y-01813D01*
X01308Y-01847*
X01198Y-01537D02*
X01236Y-01628D01*
X01269Y-01719*
X0103Y-01087D02*
X01036Y-01125D01*
X01039Y-01164*
X01004Y-01013D02*
X01019Y-01049D01*
X0103Y-01087*
X01036Y-01203D02*
X01039Y-01164D01*
X01036Y-0123D02*
X01043Y-01257D01*
X01036Y-01203D02*
X01036Y-0123D01*
X01776Y-01997D02*
X0185Y-01993D01*
X01702Y-02006D02*
X01776Y-01997D01*
X01628Y-02019D02*
X01702Y-02006D01*
X01487Y-02012D02*
X01521Y-0202D01*
X01593Y-02024D02*
X01628Y-02019D01*
X01557Y-02024D02*
X01593Y-02024D01*
X01521Y-0202D02*
X01557Y-02024D01*
X01343Y-01909D02*
X01366Y-01937D01*
X01392Y-01961*
X01308Y-01847D02*
X01323Y-01879D01*
X01343Y-01909*
X01422Y-01982D02*
X01453Y-01999D01*
X01487Y-02012*
X01392Y-01961D02*
X01422Y-01982D01*
X00118Y-00577D02*
X00198Y-00604D01*
X00277Y-00636*
X00002Y-00541D02*
X00036Y-00553D01*
X00118Y-00577*
X0043Y-0071D02*
X00503Y-00753D01*
X00575Y-00798*
X00277Y-00636D02*
X00354Y-00671D01*
X0043Y-0071*
X-00131Y-00428D02*
X-00111Y-00457D01*
X-00086Y-00483*
X-00161Y-00363D02*
X-00148Y-00396D01*
X-00131Y-00428*
X-00059Y-00506D02*
X-00029Y-00526D01*
X00002Y-00541*
X-00086Y-00483D02*
X-00059Y-00506D01*
X00877Y-0087D02*
X00908Y-00893D01*
X00937Y-00919*
X00807Y-00836D02*
X00843Y-00851D01*
X00877Y-0087*
X00963Y-00948D02*
X00985Y-00979D01*
X01004Y-01013*
X00937Y-00919D02*
X00963Y-00948D01*
X00653Y-00818D02*
X00692Y-00816D01*
X00626Y-00818D02*
X00653Y-00818D01*
X00575Y-00798D02*
X00599Y-00811D01*
X00626Y-00818*
X00731Y-00818D02*
X00769Y-00825D01*
X00807Y-00836*
X00692Y-00816D02*
X00731Y-00818D01*
G54D90*
X00715Y-00335D03*
X02019Y-01574D03*
X02327Y-01519D03*
G54D91*
X02811Y-00244D03*
X02464D03*
X03102Y00401D03*
X03448D03*
X03098Y-0024D03*
X03444D03*
G54D92*
X02736Y-00519D03*
X03374Y00125D03*
X0337Y-00515D03*
G54D94*
X02472Y00422D03*
X02303Y00944D03*
Y00544D03*
X01397Y00344D03*
G54D95*
X01692Y-01255D03*
G54D97*
X01412Y-01762D03*
G54D98*
X00149Y00314D03*
X00145Y-00307D03*
G54D104*
X00753Y-00708D03*
X0075Y-00549D03*
X00464Y00659D03*
X01847Y01774D03*
X0133Y-01384D03*
X01859Y01541D03*
X01907Y-00103D03*
X01946Y-00097D03*
X02301Y-00566D03*
X02515Y-01179D03*
X01776Y-00719D03*
X02193Y-01209D03*
X00107Y00001D03*
Y-00062D03*
Y-0014D03*
Y00123D03*
Y00071D03*
X00186Y00001D03*
Y-00062D03*
Y-0014D03*
Y00123D03*
Y00071D03*
X00145Y00072D03*
Y00124D03*
X01638Y-00518D03*
X01127Y-00921D03*
X01071Y00875D03*
X01019Y01027D03*
X00291Y00603D03*
X00694Y00803D03*
X00493Y00474D03*
X01155Y00228D03*
X01119D03*
X00845Y00632D03*
X00794Y0063D03*
X01131Y00469D03*
X01441Y-00305D03*
X00549Y00129D03*
Y-00109D03*
X00684Y00167D03*
X00847Y00526D03*
Y00581D03*
X00846Y00683D03*
X00794D03*
X00795Y0058D03*
X00794Y00527D03*
X01338Y-01329D03*
X01444Y-01223D03*
X01494Y-01038D03*
X01534Y-00998D03*
X01435Y-00823D03*
X01483Y-00777D03*
X01729Y-0098D03*
X0167Y-01044D03*
X01606Y-01107D03*
X01547Y-01161D03*
X01385Y-00893D03*
X0159Y-00937D03*
X0135Y-00976D03*
X01724Y-00901D03*
X01677Y-0087D03*
X01641Y-00826D03*
X01606Y-00862D03*
X02269Y00124D03*
X01985Y00617D03*
X02334Y-01308D03*
X02253Y-0131D03*
X02281Y-01122D03*
X0233Y-01112D03*
X02434Y-01178D03*
X02424Y-00949D03*
X02275Y-00638D03*
X01133Y-00695D03*
X01227Y-00513D03*
X02041Y-01127D03*
X01989Y-01128D03*
X0199Y-00947D03*
X01429Y-00539D03*
X01374Y-00484D03*
X00145Y-0014D03*
Y-00061D03*
Y00001D03*
X0188Y-00761D03*
M02*